M48
; DRILL file {KiCad (5.1.8)-1} date 02/07/21 18:58:33
; FORMAT={-:-/ absolute / inch / decimal}
; #@! TF.CreationDate,2021-02-07T18:58:33+03:00
; #@! TF.GenerationSoftware,Kicad,Pcbnew,(5.1.8)-1
; #@! TF.FileFunction,NonPlated,1,2,NPTH
FMAT,2
INCH
T1C0.0689
T2C0.1200
T3C0.1570
%
G90
G05
T1
X5.725Y-7.175
X6.125Y-7.175
X8.1625Y-7.925
X8.5625Y-7.925
X8.725Y-7.175
X9.125Y-7.175
X11.1625Y-7.925
X11.5625Y-7.925
X6.5687Y-9.425
X6.9688Y-9.425
X10.6Y-9.425
X11.0Y-9.425
X9.3812Y-9.425
X9.7812Y-9.425
X10.4125Y-7.925
X10.8125Y-7.925
X3.5688Y-7.925
X3.9688Y-7.925
X9.475Y-7.175
X9.875Y-7.175
X7.975Y-7.175
X8.375Y-7.175
X5.1625Y-9.425
X5.5625Y-9.425
X4.3187Y-9.425
X4.7188Y-9.425
X12.2875Y-8.675
X12.6875Y-8.675
X7.0375Y-8.675
X7.4375Y-8.675
X8.5375Y-8.675
X8.9375Y-8.675
X5.1625Y-7.925
X5.5625Y-7.925
X6.475Y-7.175
X6.875Y-7.175
X10.225Y-7.175
X10.625Y-7.175
X7.7875Y-8.675
X8.1875Y-8.675
X9.6625Y-7.925
X10.0625Y-7.925
X7.8812Y-9.425
X8.2812Y-9.425
X4.4125Y-7.925
X4.8125Y-7.925
X8.9125Y-7.925
X9.3125Y-7.925
X4.975Y-7.175
X5.375Y-7.175
X7.4125Y-7.925
X7.8125Y-7.925
X8.0687Y-9.425
X8.4688Y-9.425
X11.4437Y-9.425
X11.8438Y-9.425
X4.225Y-7.175
X4.625Y-7.175
X7.225Y-7.175
X7.625Y-7.175
X11.5375Y-8.675
X11.9375Y-8.675
X12.0062Y-7.175
X12.4062Y-7.175
X3.475Y-7.175
X3.875Y-7.175
X10.0375Y-8.675
X10.4375Y-8.675
X10.7875Y-8.675
X11.1875Y-8.675
X12.1Y-7.925
X12.5Y-7.925
X5.9125Y-7.925
X6.3125Y-7.925
X6.2875Y-8.675
X6.6875Y-8.675
X3.7563Y-8.675
X4.1562Y-8.675
X4.7875Y-8.675
X5.1875Y-8.675
X5.5375Y-8.675
X5.9375Y-8.675
X10.975Y-7.175
X11.375Y-7.175
X6.6625Y-7.925
X7.0625Y-7.925
X9.2875Y-8.675
X9.6875Y-8.675
T2
X6.3Y-9.7
X7.2375Y-9.7
X9.1125Y-9.7
X10.05Y-9.7
X6.1128Y-9.7
X10.0497Y-9.7
T3
X5.925Y-7.175
X8.3625Y-7.925
X8.925Y-7.175
X11.3625Y-7.925
X6.3Y-9.1
X6.7687Y-9.425
X7.2375Y-9.1
X10.8Y-9.425
X9.1125Y-9.1
X9.5812Y-9.425
X10.05Y-9.1
X10.6125Y-7.925
X3.7687Y-7.925
X9.675Y-7.175
X8.175Y-7.175
X5.3625Y-9.425
X4.5187Y-9.425
X12.4875Y-8.675
X7.2375Y-8.675
X8.7375Y-8.675
X5.3625Y-7.925
X6.675Y-7.175
X10.425Y-7.175
X7.9875Y-8.675
X9.8625Y-7.925
X6.1128Y-9.1
X8.0812Y-9.425
X10.0497Y-9.1
X4.6125Y-7.925
X9.1125Y-7.925
X5.175Y-7.175
X7.6125Y-7.925
X8.2687Y-9.425
X11.6437Y-9.425
X4.425Y-7.175
X7.425Y-7.175
X11.7375Y-8.675
X12.2062Y-7.175
X3.675Y-7.175
X10.2375Y-8.675
X10.9875Y-8.675
X12.3Y-7.925
X6.1125Y-7.925
X6.4875Y-8.675
X3.9562Y-8.675
X4.9875Y-8.675
X5.7375Y-8.675
X11.175Y-7.175
X6.8625Y-7.925
X9.4875Y-8.675
T0
M30
