G04 #@! TF.GenerationSoftware,KiCad,Pcbnew,(5.1.8)-1*
G04 #@! TF.CreationDate,2021-02-07T18:58:11+03:00*
G04 #@! TF.ProjectId,Rynok40,52796e6f-6b34-4302-9e6b-696361645f70,rev?*
G04 #@! TF.SameCoordinates,Original*
G04 #@! TF.FileFunction,Soldermask,Top*
G04 #@! TF.FilePolarity,Negative*
%FSLAX46Y46*%
G04 Gerber Fmt 4.6, Leading zero omitted, Abs format (unit mm)*
G04 Created by KiCad (PCBNEW (5.1.8)-1) date 2021-02-07 18:58:11*
%MOMM*%
%LPD*%
G01*
G04 APERTURE LIST*
%ADD10C,4.089800*%
%ADD11C,1.852000*%
%ADD12C,3.150000*%
G04 APERTURE END LIST*
D10*
X117157500Y-201295000D03*
D11*
X112077500Y-201295000D03*
X122237500Y-201295000D03*
D10*
X145732500Y-220345000D03*
D11*
X140652500Y-220345000D03*
X150812500Y-220345000D03*
D10*
X221932500Y-220345000D03*
D11*
X216852500Y-220345000D03*
X227012500Y-220345000D03*
D10*
X183832500Y-220345000D03*
D11*
X178752500Y-220345000D03*
X188912500Y-220345000D03*
X155575000Y-182245000D03*
X145415000Y-182245000D03*
D10*
X150495000Y-182245000D03*
X100488750Y-220345000D03*
D11*
X95408750Y-220345000D03*
X105568750Y-220345000D03*
D10*
X126682500Y-220345000D03*
D11*
X121602500Y-220345000D03*
X131762500Y-220345000D03*
D10*
X295751250Y-239395000D03*
D11*
X290671250Y-239395000D03*
X300831250Y-239395000D03*
D10*
X279082500Y-220345000D03*
D11*
X274002500Y-220345000D03*
X284162500Y-220345000D03*
D10*
X269557500Y-201295000D03*
D11*
X264477500Y-201295000D03*
X274637500Y-201295000D03*
D10*
X212407500Y-201295000D03*
D11*
X207327500Y-201295000D03*
X217487500Y-201295000D03*
D10*
X312420000Y-201295000D03*
D11*
X307340000Y-201295000D03*
X317500000Y-201295000D03*
D10*
X231457500Y-201295000D03*
D11*
X226377500Y-201295000D03*
X236537500Y-201295000D03*
D10*
X112395000Y-182245000D03*
D11*
X107315000Y-182245000D03*
X117475000Y-182245000D03*
D10*
X136207500Y-201295000D03*
D11*
X131127500Y-201295000D03*
X141287500Y-201295000D03*
D10*
X298132500Y-220345000D03*
D11*
X293052500Y-220345000D03*
X303212500Y-220345000D03*
D10*
X93345000Y-182245000D03*
D11*
X88265000Y-182245000D03*
X98425000Y-182245000D03*
D10*
X164782500Y-220345000D03*
D11*
X159702500Y-220345000D03*
X169862500Y-220345000D03*
D10*
X260032500Y-220345000D03*
D11*
X254952500Y-220345000D03*
X265112500Y-220345000D03*
D10*
X250507500Y-201295000D03*
D11*
X245427500Y-201295000D03*
X255587500Y-201295000D03*
D10*
X205263750Y-239395000D03*
D11*
X200183750Y-239395000D03*
X210343750Y-239395000D03*
D12*
X155263850Y-246380000D03*
X255263650Y-246380000D03*
D10*
X155263850Y-231140000D03*
X255263650Y-231140000D03*
X114776250Y-239395000D03*
D11*
X109696250Y-239395000D03*
X119856250Y-239395000D03*
D10*
X210026250Y-239395000D03*
D11*
X204946250Y-239395000D03*
X215106250Y-239395000D03*
D10*
X274320000Y-239395000D03*
D11*
X269240000Y-239395000D03*
X279400000Y-239395000D03*
D10*
X243363750Y-239395000D03*
D11*
X238283750Y-239395000D03*
X248443750Y-239395000D03*
D12*
X231457500Y-246380000D03*
X255270000Y-246380000D03*
D10*
X231457500Y-231140000D03*
X255270000Y-231140000D03*
X171926250Y-239395000D03*
D11*
X166846250Y-239395000D03*
X177006250Y-239395000D03*
D12*
X160020000Y-246380000D03*
X183832500Y-246380000D03*
D10*
X160020000Y-231140000D03*
X183832500Y-231140000D03*
X136207500Y-239395000D03*
D11*
X131127500Y-239395000D03*
X141287500Y-239395000D03*
D10*
X317182500Y-220345000D03*
D11*
X312102500Y-220345000D03*
X322262500Y-220345000D03*
D10*
X240982500Y-220345000D03*
D11*
X235902500Y-220345000D03*
X246062500Y-220345000D03*
D10*
X202882500Y-220345000D03*
D11*
X197802500Y-220345000D03*
X207962500Y-220345000D03*
D10*
X288607500Y-201295000D03*
D11*
X283527500Y-201295000D03*
X293687500Y-201295000D03*
D10*
X193357500Y-201295000D03*
D11*
X188277500Y-201295000D03*
X198437500Y-201295000D03*
D10*
X174307500Y-201295000D03*
D11*
X169227500Y-201295000D03*
X179387500Y-201295000D03*
D10*
X155257500Y-201295000D03*
D11*
X150177500Y-201295000D03*
X160337500Y-201295000D03*
X100806250Y-201295000D03*
X90646250Y-201295000D03*
D10*
X95726250Y-201295000D03*
X310038750Y-182245000D03*
D11*
X304958750Y-182245000D03*
X315118750Y-182245000D03*
D10*
X283845000Y-182245000D03*
D11*
X278765000Y-182245000D03*
X288925000Y-182245000D03*
D10*
X264795000Y-182245000D03*
D11*
X259715000Y-182245000D03*
X269875000Y-182245000D03*
D10*
X245745000Y-182245000D03*
D11*
X240665000Y-182245000D03*
X250825000Y-182245000D03*
D10*
X226695000Y-182245000D03*
D11*
X221615000Y-182245000D03*
X231775000Y-182245000D03*
D10*
X207645000Y-182245000D03*
D11*
X202565000Y-182245000D03*
X212725000Y-182245000D03*
D10*
X188595000Y-182245000D03*
D11*
X183515000Y-182245000D03*
X193675000Y-182245000D03*
D10*
X169545000Y-182245000D03*
D11*
X164465000Y-182245000D03*
X174625000Y-182245000D03*
D10*
X131445000Y-182245000D03*
D11*
X126365000Y-182245000D03*
X136525000Y-182245000D03*
M02*
