G04 #@! TF.GenerationSoftware,KiCad,Pcbnew,5.1.5+dfsg1-2build2*
G04 #@! TF.CreationDate,2020-12-14T21:51:38+03:00*
G04 #@! TF.ProjectId,Rynok40,52796e6f-6b34-4302-9e6b-696361645f70,rev?*
G04 #@! TF.SameCoordinates,Original*
G04 #@! TF.FileFunction,Legend,Top*
G04 #@! TF.FilePolarity,Positive*
%FSLAX46Y46*%
G04 Gerber Fmt 4.6, Leading zero omitted, Abs format (unit mm)*
G04 Created by KiCad (PCBNEW 5.1.5+dfsg1-2build2) date 2020-12-14 21:51:38*
%MOMM*%
%LPD*%
G04 APERTURE LIST*
%ADD10C,0.250000*%
%ADD11C,0.500000*%
G04 APERTURE END LIST*
D10*
X88699985Y-243022380D02*
X88824985Y-242022380D01*
X89069032Y-242736666D01*
X89491651Y-242022380D01*
X89366651Y-243022380D01*
X90271413Y-243022380D02*
X90336889Y-242498571D01*
X90301175Y-242403333D01*
X90211889Y-242355714D01*
X90021413Y-242355714D01*
X89920223Y-242403333D01*
X90277366Y-242974761D02*
X90176175Y-243022380D01*
X89938080Y-243022380D01*
X89848794Y-242974761D01*
X89813080Y-242879523D01*
X89824985Y-242784285D01*
X89884508Y-242689047D01*
X89985699Y-242641428D01*
X90223794Y-242641428D01*
X90324985Y-242593809D01*
X91176175Y-243022380D02*
X91301175Y-242022380D01*
X91182127Y-242974761D02*
X91080937Y-243022380D01*
X90890461Y-243022380D01*
X90801175Y-242974761D01*
X90759508Y-242927142D01*
X90723794Y-242831904D01*
X90759508Y-242546190D01*
X90819032Y-242450952D01*
X90872604Y-242403333D01*
X90973794Y-242355714D01*
X91164270Y-242355714D01*
X91253556Y-242403333D01*
X92039270Y-242974761D02*
X91938080Y-243022380D01*
X91747604Y-243022380D01*
X91658318Y-242974761D01*
X91622604Y-242879523D01*
X91670223Y-242498571D01*
X91729747Y-242403333D01*
X91830937Y-242355714D01*
X92021413Y-242355714D01*
X92110699Y-242403333D01*
X92146413Y-242498571D01*
X92134508Y-242593809D01*
X91646413Y-242689047D01*
X93271413Y-243022380D02*
X93396413Y-242022380D01*
X93348794Y-242403333D02*
X93449985Y-242355714D01*
X93640461Y-242355714D01*
X93729747Y-242403333D01*
X93771413Y-242450952D01*
X93807127Y-242546190D01*
X93771413Y-242831904D01*
X93711889Y-242927142D01*
X93658318Y-242974761D01*
X93557127Y-243022380D01*
X93366651Y-243022380D01*
X93277366Y-242974761D01*
X94164270Y-242355714D02*
X94319032Y-243022380D01*
X94640461Y-242355714D02*
X94319032Y-243022380D01*
X94194032Y-243260476D01*
X94140461Y-243308095D01*
X94039270Y-243355714D01*
X96110699Y-242022380D02*
X96021413Y-242736666D01*
X95955937Y-242879523D01*
X95848794Y-242974761D01*
X95699985Y-243022380D01*
X95604747Y-243022380D01*
X96973794Y-242355714D02*
X96890461Y-243022380D01*
X96545223Y-242355714D02*
X96479747Y-242879523D01*
X96515461Y-242974761D01*
X96604747Y-243022380D01*
X96747604Y-243022380D01*
X96848794Y-242974761D01*
X96902366Y-242927142D01*
X97878556Y-242355714D02*
X97777366Y-243165238D01*
X97717842Y-243260476D01*
X97664270Y-243308095D01*
X97563080Y-243355714D01*
X97420223Y-243355714D01*
X97330937Y-243308095D01*
X97801175Y-242974761D02*
X97699985Y-243022380D01*
X97509508Y-243022380D01*
X97420223Y-242974761D01*
X97378556Y-242927142D01*
X97342842Y-242831904D01*
X97378556Y-242546190D01*
X97438080Y-242450952D01*
X97491651Y-242403333D01*
X97592842Y-242355714D01*
X97783318Y-242355714D01*
X97872604Y-242403333D01*
X98271413Y-243022380D02*
X98354747Y-242355714D01*
X98396413Y-242022380D02*
X98342842Y-242070000D01*
X98384508Y-242117619D01*
X98438080Y-242070000D01*
X98396413Y-242022380D01*
X98384508Y-242117619D01*
X98735699Y-242355714D02*
X99259508Y-242355714D01*
X98652366Y-243022380D01*
X99176175Y-243022380D01*
X99985699Y-243022380D02*
X100051175Y-242498571D01*
X100015461Y-242403333D01*
X99926175Y-242355714D01*
X99735699Y-242355714D01*
X99634508Y-242403333D01*
X99991651Y-242974761D02*
X99890461Y-243022380D01*
X99652366Y-243022380D01*
X99563080Y-242974761D01*
X99527366Y-242879523D01*
X99539270Y-242784285D01*
X99598794Y-242689047D01*
X99699985Y-242641428D01*
X99938080Y-242641428D01*
X100039270Y-242593809D01*
X100402366Y-242355714D02*
X100783318Y-242355714D01*
X100461889Y-243022380D02*
X100569032Y-242165238D01*
X100628556Y-242070000D01*
X100729747Y-242022380D01*
X100824985Y-242022380D01*
X101545223Y-242355714D02*
X101461889Y-243022380D01*
X101116651Y-242355714D02*
X101051175Y-242879523D01*
X101086889Y-242974761D01*
X101176175Y-243022380D01*
X101319032Y-243022380D01*
X101420223Y-242974761D01*
X101473794Y-242927142D01*
X102021413Y-242355714D02*
X101896413Y-243355714D01*
X102015461Y-242403333D02*
X102116651Y-242355714D01*
X102307127Y-242355714D01*
X102396413Y-242403333D01*
X102438080Y-242450952D01*
X102473794Y-242546190D01*
X102438080Y-242831904D01*
X102378556Y-242927142D01*
X102324985Y-242974761D01*
X102223794Y-243022380D01*
X102033318Y-243022380D01*
X101944032Y-242974761D01*
X103229747Y-242974761D02*
X103128556Y-243022380D01*
X102938080Y-243022380D01*
X102848794Y-242974761D01*
X102813080Y-242879523D01*
X102860699Y-242498571D01*
X102920223Y-242403333D01*
X103021413Y-242355714D01*
X103211889Y-242355714D01*
X103301175Y-242403333D01*
X103336889Y-242498571D01*
X103324985Y-242593809D01*
X102836889Y-242689047D01*
D11*
X90234285Y-240029523D02*
X89034285Y-238124761D01*
X88177142Y-240029523D02*
X88177142Y-236029523D01*
X89548571Y-236029523D01*
X89891428Y-236220000D01*
X90062857Y-236410476D01*
X90234285Y-236791428D01*
X90234285Y-237362857D01*
X90062857Y-237743809D01*
X89891428Y-237934285D01*
X89548571Y-238124761D01*
X88177142Y-238124761D01*
X92462857Y-238124761D02*
X92462857Y-240029523D01*
X91262857Y-236029523D02*
X92462857Y-238124761D01*
X93662857Y-236029523D01*
X94862857Y-240029523D02*
X94862857Y-236029523D01*
X96920000Y-240029523D01*
X96920000Y-236029523D01*
X99320000Y-236029523D02*
X100005714Y-236029523D01*
X100348571Y-236220000D01*
X100691428Y-236600952D01*
X100862857Y-237362857D01*
X100862857Y-238696190D01*
X100691428Y-239458095D01*
X100348571Y-239839047D01*
X100005714Y-240029523D01*
X99320000Y-240029523D01*
X98977142Y-239839047D01*
X98634285Y-239458095D01*
X98462857Y-238696190D01*
X98462857Y-237362857D01*
X98634285Y-236600952D01*
X98977142Y-236220000D01*
X99320000Y-236029523D01*
X102405714Y-240029523D02*
X102405714Y-236029523D01*
X104462857Y-240029523D02*
X102920000Y-237743809D01*
X104462857Y-236029523D02*
X102405714Y-238315238D01*
M02*
