M48
; DRILL file {KiCad (5.1.8)-1} date 02/07/21 18:58:33
; FORMAT={-:-/ absolute / inch / decimal}
; #@! TF.CreationDate,2021-02-07T18:58:33+03:00
; #@! TF.GenerationSoftware,Kicad,Pcbnew,(5.1.8)-1
; #@! TF.FileFunction,Plated,1,2,PTH
FMAT,2
INCH
T1C0.0157
T2C0.0579
%
G90
G05
T1
X4.3197Y-8.4271
X4.3822Y-8.5833
X4.5034Y-8.1146
X4.5966Y-8.5832
X4.6597Y-8.5555
X4.6947Y-8.2373
T2
X5.5875Y-8.575
X5.8375Y-8.475
X11.025Y-7.075
X11.275Y-6.975
X6.7125Y-7.825
X6.9625Y-7.725
X9.3375Y-8.575
X9.5875Y-8.475
X5.775Y-7.075
X6.025Y-6.975
X8.2125Y-7.825
X8.4625Y-7.725
X8.775Y-7.075
X9.025Y-6.975
X11.2125Y-7.825
X11.4625Y-7.725
X6.6187Y-9.325
X6.8687Y-9.225
X10.65Y-9.325
X10.9Y-9.225
X9.4313Y-9.325
X9.6813Y-9.225
X10.4625Y-7.825
X10.7125Y-7.725
X3.6187Y-7.825
X3.8687Y-7.725
X9.525Y-7.075
X9.775Y-6.975
X8.025Y-7.075
X8.275Y-6.975
X5.2125Y-9.325
X5.4625Y-9.225
X4.3687Y-9.325
X4.6187Y-9.225
X12.3375Y-8.575
X12.5875Y-8.475
X7.0875Y-8.575
X7.3375Y-8.475
X8.5875Y-8.575
X8.8375Y-8.475
X5.2125Y-7.825
X5.4625Y-7.725
X6.525Y-7.075
X6.775Y-6.975
X10.275Y-7.075
X10.525Y-6.975
X7.8375Y-8.575
X8.0875Y-8.475
X9.7125Y-7.825
X9.9625Y-7.725
X7.9312Y-9.325
X8.1813Y-9.225
X4.4625Y-7.825
X4.7125Y-7.725
X8.9625Y-7.825
X9.2125Y-7.725
X5.025Y-7.075
X5.275Y-6.975
X7.4625Y-7.825
X7.7125Y-7.725
X8.1188Y-9.325
X8.3688Y-9.225
X11.4938Y-9.325
X11.7438Y-9.225
X4.275Y-7.075
X4.525Y-6.975
X7.275Y-7.075
X7.525Y-6.975
X11.5875Y-8.575
X11.8375Y-8.475
X12.0563Y-7.075
X12.3063Y-6.975
X3.525Y-7.075
X3.775Y-6.975
X10.0875Y-8.575
X10.3375Y-8.475
X10.8375Y-8.575
X11.0875Y-8.475
X12.15Y-7.825
X12.4Y-7.725
X5.9625Y-7.825
X6.2125Y-7.725
X6.3375Y-8.575
X6.5875Y-8.475
X3.8062Y-8.575
X4.0562Y-8.475
X4.8375Y-8.575
X5.0875Y-8.475
T0
M30
