G04 #@! TF.GenerationSoftware,KiCad,Pcbnew,5.1.5+dfsg1-2build2*
G04 #@! TF.CreationDate,2020-12-14T21:51:38+03:00*
G04 #@! TF.ProjectId,Rynok40,52796e6f-6b34-4302-9e6b-696361645f70,rev?*
G04 #@! TF.SameCoordinates,Original*
G04 #@! TF.FileFunction,Copper,L2,Bot*
G04 #@! TF.FilePolarity,Positive*
%FSLAX46Y46*%
G04 Gerber Fmt 4.6, Leading zero omitted, Abs format (unit mm)*
G04 Created by KiCad (PCBNEW 5.1.5+dfsg1-2build2) date 2020-12-14 21:51:38*
%MOMM*%
%LPD*%
G04 APERTURE LIST*
%ADD10C,0.100000*%
%ADD11C,2.250000*%
%ADD12R,1.200000X1.400000*%
%ADD13R,1.100000X1.800000*%
%ADD14R,1.800000X1.200000*%
%ADD15R,1.550000X0.600000*%
%ADD16R,1.200000X0.900000*%
%ADD17C,0.800000*%
%ADD18C,0.304800*%
%ADD19C,0.254000*%
%ADD20C,0.228600*%
%ADD21C,0.381000*%
G04 APERTURE END LIST*
G04 #@! TA.AperFunction,SMDPad,CuDef*
D10*
G36*
X118306190Y-214651712D02*
G01*
X118312257Y-214652612D01*
X118318207Y-214654102D01*
X118323982Y-214656169D01*
X118329526Y-214658791D01*
X118334787Y-214661944D01*
X118339714Y-214665598D01*
X118344258Y-214669717D01*
X118348377Y-214674261D01*
X118352031Y-214679188D01*
X118355184Y-214684449D01*
X118357806Y-214689993D01*
X118359873Y-214695768D01*
X118361363Y-214701718D01*
X118362263Y-214707785D01*
X118362564Y-214713911D01*
X118362564Y-214838911D01*
X118362263Y-214845037D01*
X118361363Y-214851104D01*
X118359873Y-214857054D01*
X118357806Y-214862829D01*
X118355184Y-214868373D01*
X118352031Y-214873634D01*
X118348377Y-214878561D01*
X118344258Y-214883105D01*
X118339714Y-214887224D01*
X118334787Y-214890878D01*
X118329526Y-214894031D01*
X118323982Y-214896653D01*
X118318207Y-214898720D01*
X118312257Y-214900210D01*
X118306190Y-214901110D01*
X118300064Y-214901411D01*
X117350064Y-214901411D01*
X117343938Y-214901110D01*
X117337871Y-214900210D01*
X117331921Y-214898720D01*
X117326146Y-214896653D01*
X117320602Y-214894031D01*
X117315341Y-214890878D01*
X117310414Y-214887224D01*
X117305870Y-214883105D01*
X117301751Y-214878561D01*
X117298097Y-214873634D01*
X117294944Y-214868373D01*
X117292322Y-214862829D01*
X117290255Y-214857054D01*
X117288765Y-214851104D01*
X117287865Y-214845037D01*
X117287564Y-214838911D01*
X117287564Y-214713911D01*
X117287865Y-214707785D01*
X117288765Y-214701718D01*
X117290255Y-214695768D01*
X117292322Y-214689993D01*
X117294944Y-214684449D01*
X117298097Y-214679188D01*
X117301751Y-214674261D01*
X117305870Y-214669717D01*
X117310414Y-214665598D01*
X117315341Y-214661944D01*
X117320602Y-214658791D01*
X117326146Y-214656169D01*
X117331921Y-214654102D01*
X117337871Y-214652612D01*
X117343938Y-214651712D01*
X117350064Y-214651411D01*
X118300064Y-214651411D01*
X118306190Y-214651712D01*
G37*
G04 #@! TD.AperFunction*
G04 #@! TA.AperFunction,SMDPad,CuDef*
G36*
X118306190Y-214151712D02*
G01*
X118312257Y-214152612D01*
X118318207Y-214154102D01*
X118323982Y-214156169D01*
X118329526Y-214158791D01*
X118334787Y-214161944D01*
X118339714Y-214165598D01*
X118344258Y-214169717D01*
X118348377Y-214174261D01*
X118352031Y-214179188D01*
X118355184Y-214184449D01*
X118357806Y-214189993D01*
X118359873Y-214195768D01*
X118361363Y-214201718D01*
X118362263Y-214207785D01*
X118362564Y-214213911D01*
X118362564Y-214338911D01*
X118362263Y-214345037D01*
X118361363Y-214351104D01*
X118359873Y-214357054D01*
X118357806Y-214362829D01*
X118355184Y-214368373D01*
X118352031Y-214373634D01*
X118348377Y-214378561D01*
X118344258Y-214383105D01*
X118339714Y-214387224D01*
X118334787Y-214390878D01*
X118329526Y-214394031D01*
X118323982Y-214396653D01*
X118318207Y-214398720D01*
X118312257Y-214400210D01*
X118306190Y-214401110D01*
X118300064Y-214401411D01*
X117350064Y-214401411D01*
X117343938Y-214401110D01*
X117337871Y-214400210D01*
X117331921Y-214398720D01*
X117326146Y-214396653D01*
X117320602Y-214394031D01*
X117315341Y-214390878D01*
X117310414Y-214387224D01*
X117305870Y-214383105D01*
X117301751Y-214378561D01*
X117298097Y-214373634D01*
X117294944Y-214368373D01*
X117292322Y-214362829D01*
X117290255Y-214357054D01*
X117288765Y-214351104D01*
X117287865Y-214345037D01*
X117287564Y-214338911D01*
X117287564Y-214213911D01*
X117287865Y-214207785D01*
X117288765Y-214201718D01*
X117290255Y-214195768D01*
X117292322Y-214189993D01*
X117294944Y-214184449D01*
X117298097Y-214179188D01*
X117301751Y-214174261D01*
X117305870Y-214169717D01*
X117310414Y-214165598D01*
X117315341Y-214161944D01*
X117320602Y-214158791D01*
X117326146Y-214156169D01*
X117331921Y-214154102D01*
X117337871Y-214152612D01*
X117343938Y-214151712D01*
X117350064Y-214151411D01*
X118300064Y-214151411D01*
X118306190Y-214151712D01*
G37*
G04 #@! TD.AperFunction*
G04 #@! TA.AperFunction,SMDPad,CuDef*
G36*
X118306190Y-213651712D02*
G01*
X118312257Y-213652612D01*
X118318207Y-213654102D01*
X118323982Y-213656169D01*
X118329526Y-213658791D01*
X118334787Y-213661944D01*
X118339714Y-213665598D01*
X118344258Y-213669717D01*
X118348377Y-213674261D01*
X118352031Y-213679188D01*
X118355184Y-213684449D01*
X118357806Y-213689993D01*
X118359873Y-213695768D01*
X118361363Y-213701718D01*
X118362263Y-213707785D01*
X118362564Y-213713911D01*
X118362564Y-213838911D01*
X118362263Y-213845037D01*
X118361363Y-213851104D01*
X118359873Y-213857054D01*
X118357806Y-213862829D01*
X118355184Y-213868373D01*
X118352031Y-213873634D01*
X118348377Y-213878561D01*
X118344258Y-213883105D01*
X118339714Y-213887224D01*
X118334787Y-213890878D01*
X118329526Y-213894031D01*
X118323982Y-213896653D01*
X118318207Y-213898720D01*
X118312257Y-213900210D01*
X118306190Y-213901110D01*
X118300064Y-213901411D01*
X117350064Y-213901411D01*
X117343938Y-213901110D01*
X117337871Y-213900210D01*
X117331921Y-213898720D01*
X117326146Y-213896653D01*
X117320602Y-213894031D01*
X117315341Y-213890878D01*
X117310414Y-213887224D01*
X117305870Y-213883105D01*
X117301751Y-213878561D01*
X117298097Y-213873634D01*
X117294944Y-213868373D01*
X117292322Y-213862829D01*
X117290255Y-213857054D01*
X117288765Y-213851104D01*
X117287865Y-213845037D01*
X117287564Y-213838911D01*
X117287564Y-213713911D01*
X117287865Y-213707785D01*
X117288765Y-213701718D01*
X117290255Y-213695768D01*
X117292322Y-213689993D01*
X117294944Y-213684449D01*
X117298097Y-213679188D01*
X117301751Y-213674261D01*
X117305870Y-213669717D01*
X117310414Y-213665598D01*
X117315341Y-213661944D01*
X117320602Y-213658791D01*
X117326146Y-213656169D01*
X117331921Y-213654102D01*
X117337871Y-213652612D01*
X117343938Y-213651712D01*
X117350064Y-213651411D01*
X118300064Y-213651411D01*
X118306190Y-213651712D01*
G37*
G04 #@! TD.AperFunction*
G04 #@! TA.AperFunction,SMDPad,CuDef*
G36*
X118306190Y-213151712D02*
G01*
X118312257Y-213152612D01*
X118318207Y-213154102D01*
X118323982Y-213156169D01*
X118329526Y-213158791D01*
X118334787Y-213161944D01*
X118339714Y-213165598D01*
X118344258Y-213169717D01*
X118348377Y-213174261D01*
X118352031Y-213179188D01*
X118355184Y-213184449D01*
X118357806Y-213189993D01*
X118359873Y-213195768D01*
X118361363Y-213201718D01*
X118362263Y-213207785D01*
X118362564Y-213213911D01*
X118362564Y-213338911D01*
X118362263Y-213345037D01*
X118361363Y-213351104D01*
X118359873Y-213357054D01*
X118357806Y-213362829D01*
X118355184Y-213368373D01*
X118352031Y-213373634D01*
X118348377Y-213378561D01*
X118344258Y-213383105D01*
X118339714Y-213387224D01*
X118334787Y-213390878D01*
X118329526Y-213394031D01*
X118323982Y-213396653D01*
X118318207Y-213398720D01*
X118312257Y-213400210D01*
X118306190Y-213401110D01*
X118300064Y-213401411D01*
X117350064Y-213401411D01*
X117343938Y-213401110D01*
X117337871Y-213400210D01*
X117331921Y-213398720D01*
X117326146Y-213396653D01*
X117320602Y-213394031D01*
X117315341Y-213390878D01*
X117310414Y-213387224D01*
X117305870Y-213383105D01*
X117301751Y-213378561D01*
X117298097Y-213373634D01*
X117294944Y-213368373D01*
X117292322Y-213362829D01*
X117290255Y-213357054D01*
X117288765Y-213351104D01*
X117287865Y-213345037D01*
X117287564Y-213338911D01*
X117287564Y-213213911D01*
X117287865Y-213207785D01*
X117288765Y-213201718D01*
X117290255Y-213195768D01*
X117292322Y-213189993D01*
X117294944Y-213184449D01*
X117298097Y-213179188D01*
X117301751Y-213174261D01*
X117305870Y-213169717D01*
X117310414Y-213165598D01*
X117315341Y-213161944D01*
X117320602Y-213158791D01*
X117326146Y-213156169D01*
X117331921Y-213154102D01*
X117337871Y-213152612D01*
X117343938Y-213151712D01*
X117350064Y-213151411D01*
X118300064Y-213151411D01*
X118306190Y-213151712D01*
G37*
G04 #@! TD.AperFunction*
G04 #@! TA.AperFunction,SMDPad,CuDef*
G36*
X118306190Y-212651712D02*
G01*
X118312257Y-212652612D01*
X118318207Y-212654102D01*
X118323982Y-212656169D01*
X118329526Y-212658791D01*
X118334787Y-212661944D01*
X118339714Y-212665598D01*
X118344258Y-212669717D01*
X118348377Y-212674261D01*
X118352031Y-212679188D01*
X118355184Y-212684449D01*
X118357806Y-212689993D01*
X118359873Y-212695768D01*
X118361363Y-212701718D01*
X118362263Y-212707785D01*
X118362564Y-212713911D01*
X118362564Y-212838911D01*
X118362263Y-212845037D01*
X118361363Y-212851104D01*
X118359873Y-212857054D01*
X118357806Y-212862829D01*
X118355184Y-212868373D01*
X118352031Y-212873634D01*
X118348377Y-212878561D01*
X118344258Y-212883105D01*
X118339714Y-212887224D01*
X118334787Y-212890878D01*
X118329526Y-212894031D01*
X118323982Y-212896653D01*
X118318207Y-212898720D01*
X118312257Y-212900210D01*
X118306190Y-212901110D01*
X118300064Y-212901411D01*
X117350064Y-212901411D01*
X117343938Y-212901110D01*
X117337871Y-212900210D01*
X117331921Y-212898720D01*
X117326146Y-212896653D01*
X117320602Y-212894031D01*
X117315341Y-212890878D01*
X117310414Y-212887224D01*
X117305870Y-212883105D01*
X117301751Y-212878561D01*
X117298097Y-212873634D01*
X117294944Y-212868373D01*
X117292322Y-212862829D01*
X117290255Y-212857054D01*
X117288765Y-212851104D01*
X117287865Y-212845037D01*
X117287564Y-212838911D01*
X117287564Y-212713911D01*
X117287865Y-212707785D01*
X117288765Y-212701718D01*
X117290255Y-212695768D01*
X117292322Y-212689993D01*
X117294944Y-212684449D01*
X117298097Y-212679188D01*
X117301751Y-212674261D01*
X117305870Y-212669717D01*
X117310414Y-212665598D01*
X117315341Y-212661944D01*
X117320602Y-212658791D01*
X117326146Y-212656169D01*
X117331921Y-212654102D01*
X117337871Y-212652612D01*
X117343938Y-212651712D01*
X117350064Y-212651411D01*
X118300064Y-212651411D01*
X118306190Y-212651712D01*
G37*
G04 #@! TD.AperFunction*
G04 #@! TA.AperFunction,SMDPad,CuDef*
G36*
X118306190Y-212151712D02*
G01*
X118312257Y-212152612D01*
X118318207Y-212154102D01*
X118323982Y-212156169D01*
X118329526Y-212158791D01*
X118334787Y-212161944D01*
X118339714Y-212165598D01*
X118344258Y-212169717D01*
X118348377Y-212174261D01*
X118352031Y-212179188D01*
X118355184Y-212184449D01*
X118357806Y-212189993D01*
X118359873Y-212195768D01*
X118361363Y-212201718D01*
X118362263Y-212207785D01*
X118362564Y-212213911D01*
X118362564Y-212338911D01*
X118362263Y-212345037D01*
X118361363Y-212351104D01*
X118359873Y-212357054D01*
X118357806Y-212362829D01*
X118355184Y-212368373D01*
X118352031Y-212373634D01*
X118348377Y-212378561D01*
X118344258Y-212383105D01*
X118339714Y-212387224D01*
X118334787Y-212390878D01*
X118329526Y-212394031D01*
X118323982Y-212396653D01*
X118318207Y-212398720D01*
X118312257Y-212400210D01*
X118306190Y-212401110D01*
X118300064Y-212401411D01*
X117350064Y-212401411D01*
X117343938Y-212401110D01*
X117337871Y-212400210D01*
X117331921Y-212398720D01*
X117326146Y-212396653D01*
X117320602Y-212394031D01*
X117315341Y-212390878D01*
X117310414Y-212387224D01*
X117305870Y-212383105D01*
X117301751Y-212378561D01*
X117298097Y-212373634D01*
X117294944Y-212368373D01*
X117292322Y-212362829D01*
X117290255Y-212357054D01*
X117288765Y-212351104D01*
X117287865Y-212345037D01*
X117287564Y-212338911D01*
X117287564Y-212213911D01*
X117287865Y-212207785D01*
X117288765Y-212201718D01*
X117290255Y-212195768D01*
X117292322Y-212189993D01*
X117294944Y-212184449D01*
X117298097Y-212179188D01*
X117301751Y-212174261D01*
X117305870Y-212169717D01*
X117310414Y-212165598D01*
X117315341Y-212161944D01*
X117320602Y-212158791D01*
X117326146Y-212156169D01*
X117331921Y-212154102D01*
X117337871Y-212152612D01*
X117343938Y-212151712D01*
X117350064Y-212151411D01*
X118300064Y-212151411D01*
X118306190Y-212151712D01*
G37*
G04 #@! TD.AperFunction*
G04 #@! TA.AperFunction,SMDPad,CuDef*
G36*
X118306190Y-211651712D02*
G01*
X118312257Y-211652612D01*
X118318207Y-211654102D01*
X118323982Y-211656169D01*
X118329526Y-211658791D01*
X118334787Y-211661944D01*
X118339714Y-211665598D01*
X118344258Y-211669717D01*
X118348377Y-211674261D01*
X118352031Y-211679188D01*
X118355184Y-211684449D01*
X118357806Y-211689993D01*
X118359873Y-211695768D01*
X118361363Y-211701718D01*
X118362263Y-211707785D01*
X118362564Y-211713911D01*
X118362564Y-211838911D01*
X118362263Y-211845037D01*
X118361363Y-211851104D01*
X118359873Y-211857054D01*
X118357806Y-211862829D01*
X118355184Y-211868373D01*
X118352031Y-211873634D01*
X118348377Y-211878561D01*
X118344258Y-211883105D01*
X118339714Y-211887224D01*
X118334787Y-211890878D01*
X118329526Y-211894031D01*
X118323982Y-211896653D01*
X118318207Y-211898720D01*
X118312257Y-211900210D01*
X118306190Y-211901110D01*
X118300064Y-211901411D01*
X117350064Y-211901411D01*
X117343938Y-211901110D01*
X117337871Y-211900210D01*
X117331921Y-211898720D01*
X117326146Y-211896653D01*
X117320602Y-211894031D01*
X117315341Y-211890878D01*
X117310414Y-211887224D01*
X117305870Y-211883105D01*
X117301751Y-211878561D01*
X117298097Y-211873634D01*
X117294944Y-211868373D01*
X117292322Y-211862829D01*
X117290255Y-211857054D01*
X117288765Y-211851104D01*
X117287865Y-211845037D01*
X117287564Y-211838911D01*
X117287564Y-211713911D01*
X117287865Y-211707785D01*
X117288765Y-211701718D01*
X117290255Y-211695768D01*
X117292322Y-211689993D01*
X117294944Y-211684449D01*
X117298097Y-211679188D01*
X117301751Y-211674261D01*
X117305870Y-211669717D01*
X117310414Y-211665598D01*
X117315341Y-211661944D01*
X117320602Y-211658791D01*
X117326146Y-211656169D01*
X117331921Y-211654102D01*
X117337871Y-211652612D01*
X117343938Y-211651712D01*
X117350064Y-211651411D01*
X118300064Y-211651411D01*
X118306190Y-211651712D01*
G37*
G04 #@! TD.AperFunction*
G04 #@! TA.AperFunction,SMDPad,CuDef*
G36*
X118306190Y-211151712D02*
G01*
X118312257Y-211152612D01*
X118318207Y-211154102D01*
X118323982Y-211156169D01*
X118329526Y-211158791D01*
X118334787Y-211161944D01*
X118339714Y-211165598D01*
X118344258Y-211169717D01*
X118348377Y-211174261D01*
X118352031Y-211179188D01*
X118355184Y-211184449D01*
X118357806Y-211189993D01*
X118359873Y-211195768D01*
X118361363Y-211201718D01*
X118362263Y-211207785D01*
X118362564Y-211213911D01*
X118362564Y-211338911D01*
X118362263Y-211345037D01*
X118361363Y-211351104D01*
X118359873Y-211357054D01*
X118357806Y-211362829D01*
X118355184Y-211368373D01*
X118352031Y-211373634D01*
X118348377Y-211378561D01*
X118344258Y-211383105D01*
X118339714Y-211387224D01*
X118334787Y-211390878D01*
X118329526Y-211394031D01*
X118323982Y-211396653D01*
X118318207Y-211398720D01*
X118312257Y-211400210D01*
X118306190Y-211401110D01*
X118300064Y-211401411D01*
X117350064Y-211401411D01*
X117343938Y-211401110D01*
X117337871Y-211400210D01*
X117331921Y-211398720D01*
X117326146Y-211396653D01*
X117320602Y-211394031D01*
X117315341Y-211390878D01*
X117310414Y-211387224D01*
X117305870Y-211383105D01*
X117301751Y-211378561D01*
X117298097Y-211373634D01*
X117294944Y-211368373D01*
X117292322Y-211362829D01*
X117290255Y-211357054D01*
X117288765Y-211351104D01*
X117287865Y-211345037D01*
X117287564Y-211338911D01*
X117287564Y-211213911D01*
X117287865Y-211207785D01*
X117288765Y-211201718D01*
X117290255Y-211195768D01*
X117292322Y-211189993D01*
X117294944Y-211184449D01*
X117298097Y-211179188D01*
X117301751Y-211174261D01*
X117305870Y-211169717D01*
X117310414Y-211165598D01*
X117315341Y-211161944D01*
X117320602Y-211158791D01*
X117326146Y-211156169D01*
X117331921Y-211154102D01*
X117337871Y-211152612D01*
X117343938Y-211151712D01*
X117350064Y-211151411D01*
X118300064Y-211151411D01*
X118306190Y-211151712D01*
G37*
G04 #@! TD.AperFunction*
G04 #@! TA.AperFunction,SMDPad,CuDef*
G36*
X118306190Y-210651712D02*
G01*
X118312257Y-210652612D01*
X118318207Y-210654102D01*
X118323982Y-210656169D01*
X118329526Y-210658791D01*
X118334787Y-210661944D01*
X118339714Y-210665598D01*
X118344258Y-210669717D01*
X118348377Y-210674261D01*
X118352031Y-210679188D01*
X118355184Y-210684449D01*
X118357806Y-210689993D01*
X118359873Y-210695768D01*
X118361363Y-210701718D01*
X118362263Y-210707785D01*
X118362564Y-210713911D01*
X118362564Y-210838911D01*
X118362263Y-210845037D01*
X118361363Y-210851104D01*
X118359873Y-210857054D01*
X118357806Y-210862829D01*
X118355184Y-210868373D01*
X118352031Y-210873634D01*
X118348377Y-210878561D01*
X118344258Y-210883105D01*
X118339714Y-210887224D01*
X118334787Y-210890878D01*
X118329526Y-210894031D01*
X118323982Y-210896653D01*
X118318207Y-210898720D01*
X118312257Y-210900210D01*
X118306190Y-210901110D01*
X118300064Y-210901411D01*
X117350064Y-210901411D01*
X117343938Y-210901110D01*
X117337871Y-210900210D01*
X117331921Y-210898720D01*
X117326146Y-210896653D01*
X117320602Y-210894031D01*
X117315341Y-210890878D01*
X117310414Y-210887224D01*
X117305870Y-210883105D01*
X117301751Y-210878561D01*
X117298097Y-210873634D01*
X117294944Y-210868373D01*
X117292322Y-210862829D01*
X117290255Y-210857054D01*
X117288765Y-210851104D01*
X117287865Y-210845037D01*
X117287564Y-210838911D01*
X117287564Y-210713911D01*
X117287865Y-210707785D01*
X117288765Y-210701718D01*
X117290255Y-210695768D01*
X117292322Y-210689993D01*
X117294944Y-210684449D01*
X117298097Y-210679188D01*
X117301751Y-210674261D01*
X117305870Y-210669717D01*
X117310414Y-210665598D01*
X117315341Y-210661944D01*
X117320602Y-210658791D01*
X117326146Y-210656169D01*
X117331921Y-210654102D01*
X117337871Y-210652612D01*
X117343938Y-210651712D01*
X117350064Y-210651411D01*
X118300064Y-210651411D01*
X118306190Y-210651712D01*
G37*
G04 #@! TD.AperFunction*
G04 #@! TA.AperFunction,SMDPad,CuDef*
G36*
X118306190Y-210151712D02*
G01*
X118312257Y-210152612D01*
X118318207Y-210154102D01*
X118323982Y-210156169D01*
X118329526Y-210158791D01*
X118334787Y-210161944D01*
X118339714Y-210165598D01*
X118344258Y-210169717D01*
X118348377Y-210174261D01*
X118352031Y-210179188D01*
X118355184Y-210184449D01*
X118357806Y-210189993D01*
X118359873Y-210195768D01*
X118361363Y-210201718D01*
X118362263Y-210207785D01*
X118362564Y-210213911D01*
X118362564Y-210338911D01*
X118362263Y-210345037D01*
X118361363Y-210351104D01*
X118359873Y-210357054D01*
X118357806Y-210362829D01*
X118355184Y-210368373D01*
X118352031Y-210373634D01*
X118348377Y-210378561D01*
X118344258Y-210383105D01*
X118339714Y-210387224D01*
X118334787Y-210390878D01*
X118329526Y-210394031D01*
X118323982Y-210396653D01*
X118318207Y-210398720D01*
X118312257Y-210400210D01*
X118306190Y-210401110D01*
X118300064Y-210401411D01*
X117350064Y-210401411D01*
X117343938Y-210401110D01*
X117337871Y-210400210D01*
X117331921Y-210398720D01*
X117326146Y-210396653D01*
X117320602Y-210394031D01*
X117315341Y-210390878D01*
X117310414Y-210387224D01*
X117305870Y-210383105D01*
X117301751Y-210378561D01*
X117298097Y-210373634D01*
X117294944Y-210368373D01*
X117292322Y-210362829D01*
X117290255Y-210357054D01*
X117288765Y-210351104D01*
X117287865Y-210345037D01*
X117287564Y-210338911D01*
X117287564Y-210213911D01*
X117287865Y-210207785D01*
X117288765Y-210201718D01*
X117290255Y-210195768D01*
X117292322Y-210189993D01*
X117294944Y-210184449D01*
X117298097Y-210179188D01*
X117301751Y-210174261D01*
X117305870Y-210169717D01*
X117310414Y-210165598D01*
X117315341Y-210161944D01*
X117320602Y-210158791D01*
X117326146Y-210156169D01*
X117331921Y-210154102D01*
X117337871Y-210152612D01*
X117343938Y-210151712D01*
X117350064Y-210151411D01*
X118300064Y-210151411D01*
X118306190Y-210151712D01*
G37*
G04 #@! TD.AperFunction*
G04 #@! TA.AperFunction,SMDPad,CuDef*
G36*
X118306190Y-209651712D02*
G01*
X118312257Y-209652612D01*
X118318207Y-209654102D01*
X118323982Y-209656169D01*
X118329526Y-209658791D01*
X118334787Y-209661944D01*
X118339714Y-209665598D01*
X118344258Y-209669717D01*
X118348377Y-209674261D01*
X118352031Y-209679188D01*
X118355184Y-209684449D01*
X118357806Y-209689993D01*
X118359873Y-209695768D01*
X118361363Y-209701718D01*
X118362263Y-209707785D01*
X118362564Y-209713911D01*
X118362564Y-209838911D01*
X118362263Y-209845037D01*
X118361363Y-209851104D01*
X118359873Y-209857054D01*
X118357806Y-209862829D01*
X118355184Y-209868373D01*
X118352031Y-209873634D01*
X118348377Y-209878561D01*
X118344258Y-209883105D01*
X118339714Y-209887224D01*
X118334787Y-209890878D01*
X118329526Y-209894031D01*
X118323982Y-209896653D01*
X118318207Y-209898720D01*
X118312257Y-209900210D01*
X118306190Y-209901110D01*
X118300064Y-209901411D01*
X117350064Y-209901411D01*
X117343938Y-209901110D01*
X117337871Y-209900210D01*
X117331921Y-209898720D01*
X117326146Y-209896653D01*
X117320602Y-209894031D01*
X117315341Y-209890878D01*
X117310414Y-209887224D01*
X117305870Y-209883105D01*
X117301751Y-209878561D01*
X117298097Y-209873634D01*
X117294944Y-209868373D01*
X117292322Y-209862829D01*
X117290255Y-209857054D01*
X117288765Y-209851104D01*
X117287865Y-209845037D01*
X117287564Y-209838911D01*
X117287564Y-209713911D01*
X117287865Y-209707785D01*
X117288765Y-209701718D01*
X117290255Y-209695768D01*
X117292322Y-209689993D01*
X117294944Y-209684449D01*
X117298097Y-209679188D01*
X117301751Y-209674261D01*
X117305870Y-209669717D01*
X117310414Y-209665598D01*
X117315341Y-209661944D01*
X117320602Y-209658791D01*
X117326146Y-209656169D01*
X117331921Y-209654102D01*
X117337871Y-209652612D01*
X117343938Y-209651712D01*
X117350064Y-209651411D01*
X118300064Y-209651411D01*
X118306190Y-209651712D01*
G37*
G04 #@! TD.AperFunction*
G04 #@! TA.AperFunction,SMDPad,CuDef*
G36*
X117056190Y-208401712D02*
G01*
X117062257Y-208402612D01*
X117068207Y-208404102D01*
X117073982Y-208406169D01*
X117079526Y-208408791D01*
X117084787Y-208411944D01*
X117089714Y-208415598D01*
X117094258Y-208419717D01*
X117098377Y-208424261D01*
X117102031Y-208429188D01*
X117105184Y-208434449D01*
X117107806Y-208439993D01*
X117109873Y-208445768D01*
X117111363Y-208451718D01*
X117112263Y-208457785D01*
X117112564Y-208463911D01*
X117112564Y-209413911D01*
X117112263Y-209420037D01*
X117111363Y-209426104D01*
X117109873Y-209432054D01*
X117107806Y-209437829D01*
X117105184Y-209443373D01*
X117102031Y-209448634D01*
X117098377Y-209453561D01*
X117094258Y-209458105D01*
X117089714Y-209462224D01*
X117084787Y-209465878D01*
X117079526Y-209469031D01*
X117073982Y-209471653D01*
X117068207Y-209473720D01*
X117062257Y-209475210D01*
X117056190Y-209476110D01*
X117050064Y-209476411D01*
X116925064Y-209476411D01*
X116918938Y-209476110D01*
X116912871Y-209475210D01*
X116906921Y-209473720D01*
X116901146Y-209471653D01*
X116895602Y-209469031D01*
X116890341Y-209465878D01*
X116885414Y-209462224D01*
X116880870Y-209458105D01*
X116876751Y-209453561D01*
X116873097Y-209448634D01*
X116869944Y-209443373D01*
X116867322Y-209437829D01*
X116865255Y-209432054D01*
X116863765Y-209426104D01*
X116862865Y-209420037D01*
X116862564Y-209413911D01*
X116862564Y-208463911D01*
X116862865Y-208457785D01*
X116863765Y-208451718D01*
X116865255Y-208445768D01*
X116867322Y-208439993D01*
X116869944Y-208434449D01*
X116873097Y-208429188D01*
X116876751Y-208424261D01*
X116880870Y-208419717D01*
X116885414Y-208415598D01*
X116890341Y-208411944D01*
X116895602Y-208408791D01*
X116901146Y-208406169D01*
X116906921Y-208404102D01*
X116912871Y-208402612D01*
X116918938Y-208401712D01*
X116925064Y-208401411D01*
X117050064Y-208401411D01*
X117056190Y-208401712D01*
G37*
G04 #@! TD.AperFunction*
G04 #@! TA.AperFunction,SMDPad,CuDef*
G36*
X116556190Y-208401712D02*
G01*
X116562257Y-208402612D01*
X116568207Y-208404102D01*
X116573982Y-208406169D01*
X116579526Y-208408791D01*
X116584787Y-208411944D01*
X116589714Y-208415598D01*
X116594258Y-208419717D01*
X116598377Y-208424261D01*
X116602031Y-208429188D01*
X116605184Y-208434449D01*
X116607806Y-208439993D01*
X116609873Y-208445768D01*
X116611363Y-208451718D01*
X116612263Y-208457785D01*
X116612564Y-208463911D01*
X116612564Y-209413911D01*
X116612263Y-209420037D01*
X116611363Y-209426104D01*
X116609873Y-209432054D01*
X116607806Y-209437829D01*
X116605184Y-209443373D01*
X116602031Y-209448634D01*
X116598377Y-209453561D01*
X116594258Y-209458105D01*
X116589714Y-209462224D01*
X116584787Y-209465878D01*
X116579526Y-209469031D01*
X116573982Y-209471653D01*
X116568207Y-209473720D01*
X116562257Y-209475210D01*
X116556190Y-209476110D01*
X116550064Y-209476411D01*
X116425064Y-209476411D01*
X116418938Y-209476110D01*
X116412871Y-209475210D01*
X116406921Y-209473720D01*
X116401146Y-209471653D01*
X116395602Y-209469031D01*
X116390341Y-209465878D01*
X116385414Y-209462224D01*
X116380870Y-209458105D01*
X116376751Y-209453561D01*
X116373097Y-209448634D01*
X116369944Y-209443373D01*
X116367322Y-209437829D01*
X116365255Y-209432054D01*
X116363765Y-209426104D01*
X116362865Y-209420037D01*
X116362564Y-209413911D01*
X116362564Y-208463911D01*
X116362865Y-208457785D01*
X116363765Y-208451718D01*
X116365255Y-208445768D01*
X116367322Y-208439993D01*
X116369944Y-208434449D01*
X116373097Y-208429188D01*
X116376751Y-208424261D01*
X116380870Y-208419717D01*
X116385414Y-208415598D01*
X116390341Y-208411944D01*
X116395602Y-208408791D01*
X116401146Y-208406169D01*
X116406921Y-208404102D01*
X116412871Y-208402612D01*
X116418938Y-208401712D01*
X116425064Y-208401411D01*
X116550064Y-208401411D01*
X116556190Y-208401712D01*
G37*
G04 #@! TD.AperFunction*
G04 #@! TA.AperFunction,SMDPad,CuDef*
G36*
X116056190Y-208401712D02*
G01*
X116062257Y-208402612D01*
X116068207Y-208404102D01*
X116073982Y-208406169D01*
X116079526Y-208408791D01*
X116084787Y-208411944D01*
X116089714Y-208415598D01*
X116094258Y-208419717D01*
X116098377Y-208424261D01*
X116102031Y-208429188D01*
X116105184Y-208434449D01*
X116107806Y-208439993D01*
X116109873Y-208445768D01*
X116111363Y-208451718D01*
X116112263Y-208457785D01*
X116112564Y-208463911D01*
X116112564Y-209413911D01*
X116112263Y-209420037D01*
X116111363Y-209426104D01*
X116109873Y-209432054D01*
X116107806Y-209437829D01*
X116105184Y-209443373D01*
X116102031Y-209448634D01*
X116098377Y-209453561D01*
X116094258Y-209458105D01*
X116089714Y-209462224D01*
X116084787Y-209465878D01*
X116079526Y-209469031D01*
X116073982Y-209471653D01*
X116068207Y-209473720D01*
X116062257Y-209475210D01*
X116056190Y-209476110D01*
X116050064Y-209476411D01*
X115925064Y-209476411D01*
X115918938Y-209476110D01*
X115912871Y-209475210D01*
X115906921Y-209473720D01*
X115901146Y-209471653D01*
X115895602Y-209469031D01*
X115890341Y-209465878D01*
X115885414Y-209462224D01*
X115880870Y-209458105D01*
X115876751Y-209453561D01*
X115873097Y-209448634D01*
X115869944Y-209443373D01*
X115867322Y-209437829D01*
X115865255Y-209432054D01*
X115863765Y-209426104D01*
X115862865Y-209420037D01*
X115862564Y-209413911D01*
X115862564Y-208463911D01*
X115862865Y-208457785D01*
X115863765Y-208451718D01*
X115865255Y-208445768D01*
X115867322Y-208439993D01*
X115869944Y-208434449D01*
X115873097Y-208429188D01*
X115876751Y-208424261D01*
X115880870Y-208419717D01*
X115885414Y-208415598D01*
X115890341Y-208411944D01*
X115895602Y-208408791D01*
X115901146Y-208406169D01*
X115906921Y-208404102D01*
X115912871Y-208402612D01*
X115918938Y-208401712D01*
X115925064Y-208401411D01*
X116050064Y-208401411D01*
X116056190Y-208401712D01*
G37*
G04 #@! TD.AperFunction*
G04 #@! TA.AperFunction,SMDPad,CuDef*
G36*
X115556190Y-208401712D02*
G01*
X115562257Y-208402612D01*
X115568207Y-208404102D01*
X115573982Y-208406169D01*
X115579526Y-208408791D01*
X115584787Y-208411944D01*
X115589714Y-208415598D01*
X115594258Y-208419717D01*
X115598377Y-208424261D01*
X115602031Y-208429188D01*
X115605184Y-208434449D01*
X115607806Y-208439993D01*
X115609873Y-208445768D01*
X115611363Y-208451718D01*
X115612263Y-208457785D01*
X115612564Y-208463911D01*
X115612564Y-209413911D01*
X115612263Y-209420037D01*
X115611363Y-209426104D01*
X115609873Y-209432054D01*
X115607806Y-209437829D01*
X115605184Y-209443373D01*
X115602031Y-209448634D01*
X115598377Y-209453561D01*
X115594258Y-209458105D01*
X115589714Y-209462224D01*
X115584787Y-209465878D01*
X115579526Y-209469031D01*
X115573982Y-209471653D01*
X115568207Y-209473720D01*
X115562257Y-209475210D01*
X115556190Y-209476110D01*
X115550064Y-209476411D01*
X115425064Y-209476411D01*
X115418938Y-209476110D01*
X115412871Y-209475210D01*
X115406921Y-209473720D01*
X115401146Y-209471653D01*
X115395602Y-209469031D01*
X115390341Y-209465878D01*
X115385414Y-209462224D01*
X115380870Y-209458105D01*
X115376751Y-209453561D01*
X115373097Y-209448634D01*
X115369944Y-209443373D01*
X115367322Y-209437829D01*
X115365255Y-209432054D01*
X115363765Y-209426104D01*
X115362865Y-209420037D01*
X115362564Y-209413911D01*
X115362564Y-208463911D01*
X115362865Y-208457785D01*
X115363765Y-208451718D01*
X115365255Y-208445768D01*
X115367322Y-208439993D01*
X115369944Y-208434449D01*
X115373097Y-208429188D01*
X115376751Y-208424261D01*
X115380870Y-208419717D01*
X115385414Y-208415598D01*
X115390341Y-208411944D01*
X115395602Y-208408791D01*
X115401146Y-208406169D01*
X115406921Y-208404102D01*
X115412871Y-208402612D01*
X115418938Y-208401712D01*
X115425064Y-208401411D01*
X115550064Y-208401411D01*
X115556190Y-208401712D01*
G37*
G04 #@! TD.AperFunction*
G04 #@! TA.AperFunction,SMDPad,CuDef*
G36*
X115056190Y-208401712D02*
G01*
X115062257Y-208402612D01*
X115068207Y-208404102D01*
X115073982Y-208406169D01*
X115079526Y-208408791D01*
X115084787Y-208411944D01*
X115089714Y-208415598D01*
X115094258Y-208419717D01*
X115098377Y-208424261D01*
X115102031Y-208429188D01*
X115105184Y-208434449D01*
X115107806Y-208439993D01*
X115109873Y-208445768D01*
X115111363Y-208451718D01*
X115112263Y-208457785D01*
X115112564Y-208463911D01*
X115112564Y-209413911D01*
X115112263Y-209420037D01*
X115111363Y-209426104D01*
X115109873Y-209432054D01*
X115107806Y-209437829D01*
X115105184Y-209443373D01*
X115102031Y-209448634D01*
X115098377Y-209453561D01*
X115094258Y-209458105D01*
X115089714Y-209462224D01*
X115084787Y-209465878D01*
X115079526Y-209469031D01*
X115073982Y-209471653D01*
X115068207Y-209473720D01*
X115062257Y-209475210D01*
X115056190Y-209476110D01*
X115050064Y-209476411D01*
X114925064Y-209476411D01*
X114918938Y-209476110D01*
X114912871Y-209475210D01*
X114906921Y-209473720D01*
X114901146Y-209471653D01*
X114895602Y-209469031D01*
X114890341Y-209465878D01*
X114885414Y-209462224D01*
X114880870Y-209458105D01*
X114876751Y-209453561D01*
X114873097Y-209448634D01*
X114869944Y-209443373D01*
X114867322Y-209437829D01*
X114865255Y-209432054D01*
X114863765Y-209426104D01*
X114862865Y-209420037D01*
X114862564Y-209413911D01*
X114862564Y-208463911D01*
X114862865Y-208457785D01*
X114863765Y-208451718D01*
X114865255Y-208445768D01*
X114867322Y-208439993D01*
X114869944Y-208434449D01*
X114873097Y-208429188D01*
X114876751Y-208424261D01*
X114880870Y-208419717D01*
X114885414Y-208415598D01*
X114890341Y-208411944D01*
X114895602Y-208408791D01*
X114901146Y-208406169D01*
X114906921Y-208404102D01*
X114912871Y-208402612D01*
X114918938Y-208401712D01*
X114925064Y-208401411D01*
X115050064Y-208401411D01*
X115056190Y-208401712D01*
G37*
G04 #@! TD.AperFunction*
G04 #@! TA.AperFunction,SMDPad,CuDef*
G36*
X114556190Y-208401712D02*
G01*
X114562257Y-208402612D01*
X114568207Y-208404102D01*
X114573982Y-208406169D01*
X114579526Y-208408791D01*
X114584787Y-208411944D01*
X114589714Y-208415598D01*
X114594258Y-208419717D01*
X114598377Y-208424261D01*
X114602031Y-208429188D01*
X114605184Y-208434449D01*
X114607806Y-208439993D01*
X114609873Y-208445768D01*
X114611363Y-208451718D01*
X114612263Y-208457785D01*
X114612564Y-208463911D01*
X114612564Y-209413911D01*
X114612263Y-209420037D01*
X114611363Y-209426104D01*
X114609873Y-209432054D01*
X114607806Y-209437829D01*
X114605184Y-209443373D01*
X114602031Y-209448634D01*
X114598377Y-209453561D01*
X114594258Y-209458105D01*
X114589714Y-209462224D01*
X114584787Y-209465878D01*
X114579526Y-209469031D01*
X114573982Y-209471653D01*
X114568207Y-209473720D01*
X114562257Y-209475210D01*
X114556190Y-209476110D01*
X114550064Y-209476411D01*
X114425064Y-209476411D01*
X114418938Y-209476110D01*
X114412871Y-209475210D01*
X114406921Y-209473720D01*
X114401146Y-209471653D01*
X114395602Y-209469031D01*
X114390341Y-209465878D01*
X114385414Y-209462224D01*
X114380870Y-209458105D01*
X114376751Y-209453561D01*
X114373097Y-209448634D01*
X114369944Y-209443373D01*
X114367322Y-209437829D01*
X114365255Y-209432054D01*
X114363765Y-209426104D01*
X114362865Y-209420037D01*
X114362564Y-209413911D01*
X114362564Y-208463911D01*
X114362865Y-208457785D01*
X114363765Y-208451718D01*
X114365255Y-208445768D01*
X114367322Y-208439993D01*
X114369944Y-208434449D01*
X114373097Y-208429188D01*
X114376751Y-208424261D01*
X114380870Y-208419717D01*
X114385414Y-208415598D01*
X114390341Y-208411944D01*
X114395602Y-208408791D01*
X114401146Y-208406169D01*
X114406921Y-208404102D01*
X114412871Y-208402612D01*
X114418938Y-208401712D01*
X114425064Y-208401411D01*
X114550064Y-208401411D01*
X114556190Y-208401712D01*
G37*
G04 #@! TD.AperFunction*
G04 #@! TA.AperFunction,SMDPad,CuDef*
G36*
X114056190Y-208401712D02*
G01*
X114062257Y-208402612D01*
X114068207Y-208404102D01*
X114073982Y-208406169D01*
X114079526Y-208408791D01*
X114084787Y-208411944D01*
X114089714Y-208415598D01*
X114094258Y-208419717D01*
X114098377Y-208424261D01*
X114102031Y-208429188D01*
X114105184Y-208434449D01*
X114107806Y-208439993D01*
X114109873Y-208445768D01*
X114111363Y-208451718D01*
X114112263Y-208457785D01*
X114112564Y-208463911D01*
X114112564Y-209413911D01*
X114112263Y-209420037D01*
X114111363Y-209426104D01*
X114109873Y-209432054D01*
X114107806Y-209437829D01*
X114105184Y-209443373D01*
X114102031Y-209448634D01*
X114098377Y-209453561D01*
X114094258Y-209458105D01*
X114089714Y-209462224D01*
X114084787Y-209465878D01*
X114079526Y-209469031D01*
X114073982Y-209471653D01*
X114068207Y-209473720D01*
X114062257Y-209475210D01*
X114056190Y-209476110D01*
X114050064Y-209476411D01*
X113925064Y-209476411D01*
X113918938Y-209476110D01*
X113912871Y-209475210D01*
X113906921Y-209473720D01*
X113901146Y-209471653D01*
X113895602Y-209469031D01*
X113890341Y-209465878D01*
X113885414Y-209462224D01*
X113880870Y-209458105D01*
X113876751Y-209453561D01*
X113873097Y-209448634D01*
X113869944Y-209443373D01*
X113867322Y-209437829D01*
X113865255Y-209432054D01*
X113863765Y-209426104D01*
X113862865Y-209420037D01*
X113862564Y-209413911D01*
X113862564Y-208463911D01*
X113862865Y-208457785D01*
X113863765Y-208451718D01*
X113865255Y-208445768D01*
X113867322Y-208439993D01*
X113869944Y-208434449D01*
X113873097Y-208429188D01*
X113876751Y-208424261D01*
X113880870Y-208419717D01*
X113885414Y-208415598D01*
X113890341Y-208411944D01*
X113895602Y-208408791D01*
X113901146Y-208406169D01*
X113906921Y-208404102D01*
X113912871Y-208402612D01*
X113918938Y-208401712D01*
X113925064Y-208401411D01*
X114050064Y-208401411D01*
X114056190Y-208401712D01*
G37*
G04 #@! TD.AperFunction*
G04 #@! TA.AperFunction,SMDPad,CuDef*
G36*
X113556190Y-208401712D02*
G01*
X113562257Y-208402612D01*
X113568207Y-208404102D01*
X113573982Y-208406169D01*
X113579526Y-208408791D01*
X113584787Y-208411944D01*
X113589714Y-208415598D01*
X113594258Y-208419717D01*
X113598377Y-208424261D01*
X113602031Y-208429188D01*
X113605184Y-208434449D01*
X113607806Y-208439993D01*
X113609873Y-208445768D01*
X113611363Y-208451718D01*
X113612263Y-208457785D01*
X113612564Y-208463911D01*
X113612564Y-209413911D01*
X113612263Y-209420037D01*
X113611363Y-209426104D01*
X113609873Y-209432054D01*
X113607806Y-209437829D01*
X113605184Y-209443373D01*
X113602031Y-209448634D01*
X113598377Y-209453561D01*
X113594258Y-209458105D01*
X113589714Y-209462224D01*
X113584787Y-209465878D01*
X113579526Y-209469031D01*
X113573982Y-209471653D01*
X113568207Y-209473720D01*
X113562257Y-209475210D01*
X113556190Y-209476110D01*
X113550064Y-209476411D01*
X113425064Y-209476411D01*
X113418938Y-209476110D01*
X113412871Y-209475210D01*
X113406921Y-209473720D01*
X113401146Y-209471653D01*
X113395602Y-209469031D01*
X113390341Y-209465878D01*
X113385414Y-209462224D01*
X113380870Y-209458105D01*
X113376751Y-209453561D01*
X113373097Y-209448634D01*
X113369944Y-209443373D01*
X113367322Y-209437829D01*
X113365255Y-209432054D01*
X113363765Y-209426104D01*
X113362865Y-209420037D01*
X113362564Y-209413911D01*
X113362564Y-208463911D01*
X113362865Y-208457785D01*
X113363765Y-208451718D01*
X113365255Y-208445768D01*
X113367322Y-208439993D01*
X113369944Y-208434449D01*
X113373097Y-208429188D01*
X113376751Y-208424261D01*
X113380870Y-208419717D01*
X113385414Y-208415598D01*
X113390341Y-208411944D01*
X113395602Y-208408791D01*
X113401146Y-208406169D01*
X113406921Y-208404102D01*
X113412871Y-208402612D01*
X113418938Y-208401712D01*
X113425064Y-208401411D01*
X113550064Y-208401411D01*
X113556190Y-208401712D01*
G37*
G04 #@! TD.AperFunction*
G04 #@! TA.AperFunction,SMDPad,CuDef*
G36*
X113056190Y-208401712D02*
G01*
X113062257Y-208402612D01*
X113068207Y-208404102D01*
X113073982Y-208406169D01*
X113079526Y-208408791D01*
X113084787Y-208411944D01*
X113089714Y-208415598D01*
X113094258Y-208419717D01*
X113098377Y-208424261D01*
X113102031Y-208429188D01*
X113105184Y-208434449D01*
X113107806Y-208439993D01*
X113109873Y-208445768D01*
X113111363Y-208451718D01*
X113112263Y-208457785D01*
X113112564Y-208463911D01*
X113112564Y-209413911D01*
X113112263Y-209420037D01*
X113111363Y-209426104D01*
X113109873Y-209432054D01*
X113107806Y-209437829D01*
X113105184Y-209443373D01*
X113102031Y-209448634D01*
X113098377Y-209453561D01*
X113094258Y-209458105D01*
X113089714Y-209462224D01*
X113084787Y-209465878D01*
X113079526Y-209469031D01*
X113073982Y-209471653D01*
X113068207Y-209473720D01*
X113062257Y-209475210D01*
X113056190Y-209476110D01*
X113050064Y-209476411D01*
X112925064Y-209476411D01*
X112918938Y-209476110D01*
X112912871Y-209475210D01*
X112906921Y-209473720D01*
X112901146Y-209471653D01*
X112895602Y-209469031D01*
X112890341Y-209465878D01*
X112885414Y-209462224D01*
X112880870Y-209458105D01*
X112876751Y-209453561D01*
X112873097Y-209448634D01*
X112869944Y-209443373D01*
X112867322Y-209437829D01*
X112865255Y-209432054D01*
X112863765Y-209426104D01*
X112862865Y-209420037D01*
X112862564Y-209413911D01*
X112862564Y-208463911D01*
X112862865Y-208457785D01*
X112863765Y-208451718D01*
X112865255Y-208445768D01*
X112867322Y-208439993D01*
X112869944Y-208434449D01*
X112873097Y-208429188D01*
X112876751Y-208424261D01*
X112880870Y-208419717D01*
X112885414Y-208415598D01*
X112890341Y-208411944D01*
X112895602Y-208408791D01*
X112901146Y-208406169D01*
X112906921Y-208404102D01*
X112912871Y-208402612D01*
X112918938Y-208401712D01*
X112925064Y-208401411D01*
X113050064Y-208401411D01*
X113056190Y-208401712D01*
G37*
G04 #@! TD.AperFunction*
G04 #@! TA.AperFunction,SMDPad,CuDef*
G36*
X112556190Y-208401712D02*
G01*
X112562257Y-208402612D01*
X112568207Y-208404102D01*
X112573982Y-208406169D01*
X112579526Y-208408791D01*
X112584787Y-208411944D01*
X112589714Y-208415598D01*
X112594258Y-208419717D01*
X112598377Y-208424261D01*
X112602031Y-208429188D01*
X112605184Y-208434449D01*
X112607806Y-208439993D01*
X112609873Y-208445768D01*
X112611363Y-208451718D01*
X112612263Y-208457785D01*
X112612564Y-208463911D01*
X112612564Y-209413911D01*
X112612263Y-209420037D01*
X112611363Y-209426104D01*
X112609873Y-209432054D01*
X112607806Y-209437829D01*
X112605184Y-209443373D01*
X112602031Y-209448634D01*
X112598377Y-209453561D01*
X112594258Y-209458105D01*
X112589714Y-209462224D01*
X112584787Y-209465878D01*
X112579526Y-209469031D01*
X112573982Y-209471653D01*
X112568207Y-209473720D01*
X112562257Y-209475210D01*
X112556190Y-209476110D01*
X112550064Y-209476411D01*
X112425064Y-209476411D01*
X112418938Y-209476110D01*
X112412871Y-209475210D01*
X112406921Y-209473720D01*
X112401146Y-209471653D01*
X112395602Y-209469031D01*
X112390341Y-209465878D01*
X112385414Y-209462224D01*
X112380870Y-209458105D01*
X112376751Y-209453561D01*
X112373097Y-209448634D01*
X112369944Y-209443373D01*
X112367322Y-209437829D01*
X112365255Y-209432054D01*
X112363765Y-209426104D01*
X112362865Y-209420037D01*
X112362564Y-209413911D01*
X112362564Y-208463911D01*
X112362865Y-208457785D01*
X112363765Y-208451718D01*
X112365255Y-208445768D01*
X112367322Y-208439993D01*
X112369944Y-208434449D01*
X112373097Y-208429188D01*
X112376751Y-208424261D01*
X112380870Y-208419717D01*
X112385414Y-208415598D01*
X112390341Y-208411944D01*
X112395602Y-208408791D01*
X112401146Y-208406169D01*
X112406921Y-208404102D01*
X112412871Y-208402612D01*
X112418938Y-208401712D01*
X112425064Y-208401411D01*
X112550064Y-208401411D01*
X112556190Y-208401712D01*
G37*
G04 #@! TD.AperFunction*
G04 #@! TA.AperFunction,SMDPad,CuDef*
G36*
X112056190Y-208401712D02*
G01*
X112062257Y-208402612D01*
X112068207Y-208404102D01*
X112073982Y-208406169D01*
X112079526Y-208408791D01*
X112084787Y-208411944D01*
X112089714Y-208415598D01*
X112094258Y-208419717D01*
X112098377Y-208424261D01*
X112102031Y-208429188D01*
X112105184Y-208434449D01*
X112107806Y-208439993D01*
X112109873Y-208445768D01*
X112111363Y-208451718D01*
X112112263Y-208457785D01*
X112112564Y-208463911D01*
X112112564Y-209413911D01*
X112112263Y-209420037D01*
X112111363Y-209426104D01*
X112109873Y-209432054D01*
X112107806Y-209437829D01*
X112105184Y-209443373D01*
X112102031Y-209448634D01*
X112098377Y-209453561D01*
X112094258Y-209458105D01*
X112089714Y-209462224D01*
X112084787Y-209465878D01*
X112079526Y-209469031D01*
X112073982Y-209471653D01*
X112068207Y-209473720D01*
X112062257Y-209475210D01*
X112056190Y-209476110D01*
X112050064Y-209476411D01*
X111925064Y-209476411D01*
X111918938Y-209476110D01*
X111912871Y-209475210D01*
X111906921Y-209473720D01*
X111901146Y-209471653D01*
X111895602Y-209469031D01*
X111890341Y-209465878D01*
X111885414Y-209462224D01*
X111880870Y-209458105D01*
X111876751Y-209453561D01*
X111873097Y-209448634D01*
X111869944Y-209443373D01*
X111867322Y-209437829D01*
X111865255Y-209432054D01*
X111863765Y-209426104D01*
X111862865Y-209420037D01*
X111862564Y-209413911D01*
X111862564Y-208463911D01*
X111862865Y-208457785D01*
X111863765Y-208451718D01*
X111865255Y-208445768D01*
X111867322Y-208439993D01*
X111869944Y-208434449D01*
X111873097Y-208429188D01*
X111876751Y-208424261D01*
X111880870Y-208419717D01*
X111885414Y-208415598D01*
X111890341Y-208411944D01*
X111895602Y-208408791D01*
X111901146Y-208406169D01*
X111906921Y-208404102D01*
X111912871Y-208402612D01*
X111918938Y-208401712D01*
X111925064Y-208401411D01*
X112050064Y-208401411D01*
X112056190Y-208401712D01*
G37*
G04 #@! TD.AperFunction*
G04 #@! TA.AperFunction,SMDPad,CuDef*
G36*
X111631190Y-209651712D02*
G01*
X111637257Y-209652612D01*
X111643207Y-209654102D01*
X111648982Y-209656169D01*
X111654526Y-209658791D01*
X111659787Y-209661944D01*
X111664714Y-209665598D01*
X111669258Y-209669717D01*
X111673377Y-209674261D01*
X111677031Y-209679188D01*
X111680184Y-209684449D01*
X111682806Y-209689993D01*
X111684873Y-209695768D01*
X111686363Y-209701718D01*
X111687263Y-209707785D01*
X111687564Y-209713911D01*
X111687564Y-209838911D01*
X111687263Y-209845037D01*
X111686363Y-209851104D01*
X111684873Y-209857054D01*
X111682806Y-209862829D01*
X111680184Y-209868373D01*
X111677031Y-209873634D01*
X111673377Y-209878561D01*
X111669258Y-209883105D01*
X111664714Y-209887224D01*
X111659787Y-209890878D01*
X111654526Y-209894031D01*
X111648982Y-209896653D01*
X111643207Y-209898720D01*
X111637257Y-209900210D01*
X111631190Y-209901110D01*
X111625064Y-209901411D01*
X110675064Y-209901411D01*
X110668938Y-209901110D01*
X110662871Y-209900210D01*
X110656921Y-209898720D01*
X110651146Y-209896653D01*
X110645602Y-209894031D01*
X110640341Y-209890878D01*
X110635414Y-209887224D01*
X110630870Y-209883105D01*
X110626751Y-209878561D01*
X110623097Y-209873634D01*
X110619944Y-209868373D01*
X110617322Y-209862829D01*
X110615255Y-209857054D01*
X110613765Y-209851104D01*
X110612865Y-209845037D01*
X110612564Y-209838911D01*
X110612564Y-209713911D01*
X110612865Y-209707785D01*
X110613765Y-209701718D01*
X110615255Y-209695768D01*
X110617322Y-209689993D01*
X110619944Y-209684449D01*
X110623097Y-209679188D01*
X110626751Y-209674261D01*
X110630870Y-209669717D01*
X110635414Y-209665598D01*
X110640341Y-209661944D01*
X110645602Y-209658791D01*
X110651146Y-209656169D01*
X110656921Y-209654102D01*
X110662871Y-209652612D01*
X110668938Y-209651712D01*
X110675064Y-209651411D01*
X111625064Y-209651411D01*
X111631190Y-209651712D01*
G37*
G04 #@! TD.AperFunction*
G04 #@! TA.AperFunction,SMDPad,CuDef*
G36*
X111631190Y-210151712D02*
G01*
X111637257Y-210152612D01*
X111643207Y-210154102D01*
X111648982Y-210156169D01*
X111654526Y-210158791D01*
X111659787Y-210161944D01*
X111664714Y-210165598D01*
X111669258Y-210169717D01*
X111673377Y-210174261D01*
X111677031Y-210179188D01*
X111680184Y-210184449D01*
X111682806Y-210189993D01*
X111684873Y-210195768D01*
X111686363Y-210201718D01*
X111687263Y-210207785D01*
X111687564Y-210213911D01*
X111687564Y-210338911D01*
X111687263Y-210345037D01*
X111686363Y-210351104D01*
X111684873Y-210357054D01*
X111682806Y-210362829D01*
X111680184Y-210368373D01*
X111677031Y-210373634D01*
X111673377Y-210378561D01*
X111669258Y-210383105D01*
X111664714Y-210387224D01*
X111659787Y-210390878D01*
X111654526Y-210394031D01*
X111648982Y-210396653D01*
X111643207Y-210398720D01*
X111637257Y-210400210D01*
X111631190Y-210401110D01*
X111625064Y-210401411D01*
X110675064Y-210401411D01*
X110668938Y-210401110D01*
X110662871Y-210400210D01*
X110656921Y-210398720D01*
X110651146Y-210396653D01*
X110645602Y-210394031D01*
X110640341Y-210390878D01*
X110635414Y-210387224D01*
X110630870Y-210383105D01*
X110626751Y-210378561D01*
X110623097Y-210373634D01*
X110619944Y-210368373D01*
X110617322Y-210362829D01*
X110615255Y-210357054D01*
X110613765Y-210351104D01*
X110612865Y-210345037D01*
X110612564Y-210338911D01*
X110612564Y-210213911D01*
X110612865Y-210207785D01*
X110613765Y-210201718D01*
X110615255Y-210195768D01*
X110617322Y-210189993D01*
X110619944Y-210184449D01*
X110623097Y-210179188D01*
X110626751Y-210174261D01*
X110630870Y-210169717D01*
X110635414Y-210165598D01*
X110640341Y-210161944D01*
X110645602Y-210158791D01*
X110651146Y-210156169D01*
X110656921Y-210154102D01*
X110662871Y-210152612D01*
X110668938Y-210151712D01*
X110675064Y-210151411D01*
X111625064Y-210151411D01*
X111631190Y-210151712D01*
G37*
G04 #@! TD.AperFunction*
G04 #@! TA.AperFunction,SMDPad,CuDef*
G36*
X111631190Y-210651712D02*
G01*
X111637257Y-210652612D01*
X111643207Y-210654102D01*
X111648982Y-210656169D01*
X111654526Y-210658791D01*
X111659787Y-210661944D01*
X111664714Y-210665598D01*
X111669258Y-210669717D01*
X111673377Y-210674261D01*
X111677031Y-210679188D01*
X111680184Y-210684449D01*
X111682806Y-210689993D01*
X111684873Y-210695768D01*
X111686363Y-210701718D01*
X111687263Y-210707785D01*
X111687564Y-210713911D01*
X111687564Y-210838911D01*
X111687263Y-210845037D01*
X111686363Y-210851104D01*
X111684873Y-210857054D01*
X111682806Y-210862829D01*
X111680184Y-210868373D01*
X111677031Y-210873634D01*
X111673377Y-210878561D01*
X111669258Y-210883105D01*
X111664714Y-210887224D01*
X111659787Y-210890878D01*
X111654526Y-210894031D01*
X111648982Y-210896653D01*
X111643207Y-210898720D01*
X111637257Y-210900210D01*
X111631190Y-210901110D01*
X111625064Y-210901411D01*
X110675064Y-210901411D01*
X110668938Y-210901110D01*
X110662871Y-210900210D01*
X110656921Y-210898720D01*
X110651146Y-210896653D01*
X110645602Y-210894031D01*
X110640341Y-210890878D01*
X110635414Y-210887224D01*
X110630870Y-210883105D01*
X110626751Y-210878561D01*
X110623097Y-210873634D01*
X110619944Y-210868373D01*
X110617322Y-210862829D01*
X110615255Y-210857054D01*
X110613765Y-210851104D01*
X110612865Y-210845037D01*
X110612564Y-210838911D01*
X110612564Y-210713911D01*
X110612865Y-210707785D01*
X110613765Y-210701718D01*
X110615255Y-210695768D01*
X110617322Y-210689993D01*
X110619944Y-210684449D01*
X110623097Y-210679188D01*
X110626751Y-210674261D01*
X110630870Y-210669717D01*
X110635414Y-210665598D01*
X110640341Y-210661944D01*
X110645602Y-210658791D01*
X110651146Y-210656169D01*
X110656921Y-210654102D01*
X110662871Y-210652612D01*
X110668938Y-210651712D01*
X110675064Y-210651411D01*
X111625064Y-210651411D01*
X111631190Y-210651712D01*
G37*
G04 #@! TD.AperFunction*
G04 #@! TA.AperFunction,SMDPad,CuDef*
G36*
X111631190Y-211151712D02*
G01*
X111637257Y-211152612D01*
X111643207Y-211154102D01*
X111648982Y-211156169D01*
X111654526Y-211158791D01*
X111659787Y-211161944D01*
X111664714Y-211165598D01*
X111669258Y-211169717D01*
X111673377Y-211174261D01*
X111677031Y-211179188D01*
X111680184Y-211184449D01*
X111682806Y-211189993D01*
X111684873Y-211195768D01*
X111686363Y-211201718D01*
X111687263Y-211207785D01*
X111687564Y-211213911D01*
X111687564Y-211338911D01*
X111687263Y-211345037D01*
X111686363Y-211351104D01*
X111684873Y-211357054D01*
X111682806Y-211362829D01*
X111680184Y-211368373D01*
X111677031Y-211373634D01*
X111673377Y-211378561D01*
X111669258Y-211383105D01*
X111664714Y-211387224D01*
X111659787Y-211390878D01*
X111654526Y-211394031D01*
X111648982Y-211396653D01*
X111643207Y-211398720D01*
X111637257Y-211400210D01*
X111631190Y-211401110D01*
X111625064Y-211401411D01*
X110675064Y-211401411D01*
X110668938Y-211401110D01*
X110662871Y-211400210D01*
X110656921Y-211398720D01*
X110651146Y-211396653D01*
X110645602Y-211394031D01*
X110640341Y-211390878D01*
X110635414Y-211387224D01*
X110630870Y-211383105D01*
X110626751Y-211378561D01*
X110623097Y-211373634D01*
X110619944Y-211368373D01*
X110617322Y-211362829D01*
X110615255Y-211357054D01*
X110613765Y-211351104D01*
X110612865Y-211345037D01*
X110612564Y-211338911D01*
X110612564Y-211213911D01*
X110612865Y-211207785D01*
X110613765Y-211201718D01*
X110615255Y-211195768D01*
X110617322Y-211189993D01*
X110619944Y-211184449D01*
X110623097Y-211179188D01*
X110626751Y-211174261D01*
X110630870Y-211169717D01*
X110635414Y-211165598D01*
X110640341Y-211161944D01*
X110645602Y-211158791D01*
X110651146Y-211156169D01*
X110656921Y-211154102D01*
X110662871Y-211152612D01*
X110668938Y-211151712D01*
X110675064Y-211151411D01*
X111625064Y-211151411D01*
X111631190Y-211151712D01*
G37*
G04 #@! TD.AperFunction*
G04 #@! TA.AperFunction,SMDPad,CuDef*
G36*
X111631190Y-211651712D02*
G01*
X111637257Y-211652612D01*
X111643207Y-211654102D01*
X111648982Y-211656169D01*
X111654526Y-211658791D01*
X111659787Y-211661944D01*
X111664714Y-211665598D01*
X111669258Y-211669717D01*
X111673377Y-211674261D01*
X111677031Y-211679188D01*
X111680184Y-211684449D01*
X111682806Y-211689993D01*
X111684873Y-211695768D01*
X111686363Y-211701718D01*
X111687263Y-211707785D01*
X111687564Y-211713911D01*
X111687564Y-211838911D01*
X111687263Y-211845037D01*
X111686363Y-211851104D01*
X111684873Y-211857054D01*
X111682806Y-211862829D01*
X111680184Y-211868373D01*
X111677031Y-211873634D01*
X111673377Y-211878561D01*
X111669258Y-211883105D01*
X111664714Y-211887224D01*
X111659787Y-211890878D01*
X111654526Y-211894031D01*
X111648982Y-211896653D01*
X111643207Y-211898720D01*
X111637257Y-211900210D01*
X111631190Y-211901110D01*
X111625064Y-211901411D01*
X110675064Y-211901411D01*
X110668938Y-211901110D01*
X110662871Y-211900210D01*
X110656921Y-211898720D01*
X110651146Y-211896653D01*
X110645602Y-211894031D01*
X110640341Y-211890878D01*
X110635414Y-211887224D01*
X110630870Y-211883105D01*
X110626751Y-211878561D01*
X110623097Y-211873634D01*
X110619944Y-211868373D01*
X110617322Y-211862829D01*
X110615255Y-211857054D01*
X110613765Y-211851104D01*
X110612865Y-211845037D01*
X110612564Y-211838911D01*
X110612564Y-211713911D01*
X110612865Y-211707785D01*
X110613765Y-211701718D01*
X110615255Y-211695768D01*
X110617322Y-211689993D01*
X110619944Y-211684449D01*
X110623097Y-211679188D01*
X110626751Y-211674261D01*
X110630870Y-211669717D01*
X110635414Y-211665598D01*
X110640341Y-211661944D01*
X110645602Y-211658791D01*
X110651146Y-211656169D01*
X110656921Y-211654102D01*
X110662871Y-211652612D01*
X110668938Y-211651712D01*
X110675064Y-211651411D01*
X111625064Y-211651411D01*
X111631190Y-211651712D01*
G37*
G04 #@! TD.AperFunction*
G04 #@! TA.AperFunction,SMDPad,CuDef*
G36*
X111631190Y-212151712D02*
G01*
X111637257Y-212152612D01*
X111643207Y-212154102D01*
X111648982Y-212156169D01*
X111654526Y-212158791D01*
X111659787Y-212161944D01*
X111664714Y-212165598D01*
X111669258Y-212169717D01*
X111673377Y-212174261D01*
X111677031Y-212179188D01*
X111680184Y-212184449D01*
X111682806Y-212189993D01*
X111684873Y-212195768D01*
X111686363Y-212201718D01*
X111687263Y-212207785D01*
X111687564Y-212213911D01*
X111687564Y-212338911D01*
X111687263Y-212345037D01*
X111686363Y-212351104D01*
X111684873Y-212357054D01*
X111682806Y-212362829D01*
X111680184Y-212368373D01*
X111677031Y-212373634D01*
X111673377Y-212378561D01*
X111669258Y-212383105D01*
X111664714Y-212387224D01*
X111659787Y-212390878D01*
X111654526Y-212394031D01*
X111648982Y-212396653D01*
X111643207Y-212398720D01*
X111637257Y-212400210D01*
X111631190Y-212401110D01*
X111625064Y-212401411D01*
X110675064Y-212401411D01*
X110668938Y-212401110D01*
X110662871Y-212400210D01*
X110656921Y-212398720D01*
X110651146Y-212396653D01*
X110645602Y-212394031D01*
X110640341Y-212390878D01*
X110635414Y-212387224D01*
X110630870Y-212383105D01*
X110626751Y-212378561D01*
X110623097Y-212373634D01*
X110619944Y-212368373D01*
X110617322Y-212362829D01*
X110615255Y-212357054D01*
X110613765Y-212351104D01*
X110612865Y-212345037D01*
X110612564Y-212338911D01*
X110612564Y-212213911D01*
X110612865Y-212207785D01*
X110613765Y-212201718D01*
X110615255Y-212195768D01*
X110617322Y-212189993D01*
X110619944Y-212184449D01*
X110623097Y-212179188D01*
X110626751Y-212174261D01*
X110630870Y-212169717D01*
X110635414Y-212165598D01*
X110640341Y-212161944D01*
X110645602Y-212158791D01*
X110651146Y-212156169D01*
X110656921Y-212154102D01*
X110662871Y-212152612D01*
X110668938Y-212151712D01*
X110675064Y-212151411D01*
X111625064Y-212151411D01*
X111631190Y-212151712D01*
G37*
G04 #@! TD.AperFunction*
G04 #@! TA.AperFunction,SMDPad,CuDef*
G36*
X111631190Y-212651712D02*
G01*
X111637257Y-212652612D01*
X111643207Y-212654102D01*
X111648982Y-212656169D01*
X111654526Y-212658791D01*
X111659787Y-212661944D01*
X111664714Y-212665598D01*
X111669258Y-212669717D01*
X111673377Y-212674261D01*
X111677031Y-212679188D01*
X111680184Y-212684449D01*
X111682806Y-212689993D01*
X111684873Y-212695768D01*
X111686363Y-212701718D01*
X111687263Y-212707785D01*
X111687564Y-212713911D01*
X111687564Y-212838911D01*
X111687263Y-212845037D01*
X111686363Y-212851104D01*
X111684873Y-212857054D01*
X111682806Y-212862829D01*
X111680184Y-212868373D01*
X111677031Y-212873634D01*
X111673377Y-212878561D01*
X111669258Y-212883105D01*
X111664714Y-212887224D01*
X111659787Y-212890878D01*
X111654526Y-212894031D01*
X111648982Y-212896653D01*
X111643207Y-212898720D01*
X111637257Y-212900210D01*
X111631190Y-212901110D01*
X111625064Y-212901411D01*
X110675064Y-212901411D01*
X110668938Y-212901110D01*
X110662871Y-212900210D01*
X110656921Y-212898720D01*
X110651146Y-212896653D01*
X110645602Y-212894031D01*
X110640341Y-212890878D01*
X110635414Y-212887224D01*
X110630870Y-212883105D01*
X110626751Y-212878561D01*
X110623097Y-212873634D01*
X110619944Y-212868373D01*
X110617322Y-212862829D01*
X110615255Y-212857054D01*
X110613765Y-212851104D01*
X110612865Y-212845037D01*
X110612564Y-212838911D01*
X110612564Y-212713911D01*
X110612865Y-212707785D01*
X110613765Y-212701718D01*
X110615255Y-212695768D01*
X110617322Y-212689993D01*
X110619944Y-212684449D01*
X110623097Y-212679188D01*
X110626751Y-212674261D01*
X110630870Y-212669717D01*
X110635414Y-212665598D01*
X110640341Y-212661944D01*
X110645602Y-212658791D01*
X110651146Y-212656169D01*
X110656921Y-212654102D01*
X110662871Y-212652612D01*
X110668938Y-212651712D01*
X110675064Y-212651411D01*
X111625064Y-212651411D01*
X111631190Y-212651712D01*
G37*
G04 #@! TD.AperFunction*
G04 #@! TA.AperFunction,SMDPad,CuDef*
G36*
X111631190Y-213151712D02*
G01*
X111637257Y-213152612D01*
X111643207Y-213154102D01*
X111648982Y-213156169D01*
X111654526Y-213158791D01*
X111659787Y-213161944D01*
X111664714Y-213165598D01*
X111669258Y-213169717D01*
X111673377Y-213174261D01*
X111677031Y-213179188D01*
X111680184Y-213184449D01*
X111682806Y-213189993D01*
X111684873Y-213195768D01*
X111686363Y-213201718D01*
X111687263Y-213207785D01*
X111687564Y-213213911D01*
X111687564Y-213338911D01*
X111687263Y-213345037D01*
X111686363Y-213351104D01*
X111684873Y-213357054D01*
X111682806Y-213362829D01*
X111680184Y-213368373D01*
X111677031Y-213373634D01*
X111673377Y-213378561D01*
X111669258Y-213383105D01*
X111664714Y-213387224D01*
X111659787Y-213390878D01*
X111654526Y-213394031D01*
X111648982Y-213396653D01*
X111643207Y-213398720D01*
X111637257Y-213400210D01*
X111631190Y-213401110D01*
X111625064Y-213401411D01*
X110675064Y-213401411D01*
X110668938Y-213401110D01*
X110662871Y-213400210D01*
X110656921Y-213398720D01*
X110651146Y-213396653D01*
X110645602Y-213394031D01*
X110640341Y-213390878D01*
X110635414Y-213387224D01*
X110630870Y-213383105D01*
X110626751Y-213378561D01*
X110623097Y-213373634D01*
X110619944Y-213368373D01*
X110617322Y-213362829D01*
X110615255Y-213357054D01*
X110613765Y-213351104D01*
X110612865Y-213345037D01*
X110612564Y-213338911D01*
X110612564Y-213213911D01*
X110612865Y-213207785D01*
X110613765Y-213201718D01*
X110615255Y-213195768D01*
X110617322Y-213189993D01*
X110619944Y-213184449D01*
X110623097Y-213179188D01*
X110626751Y-213174261D01*
X110630870Y-213169717D01*
X110635414Y-213165598D01*
X110640341Y-213161944D01*
X110645602Y-213158791D01*
X110651146Y-213156169D01*
X110656921Y-213154102D01*
X110662871Y-213152612D01*
X110668938Y-213151712D01*
X110675064Y-213151411D01*
X111625064Y-213151411D01*
X111631190Y-213151712D01*
G37*
G04 #@! TD.AperFunction*
G04 #@! TA.AperFunction,SMDPad,CuDef*
G36*
X111631190Y-213651712D02*
G01*
X111637257Y-213652612D01*
X111643207Y-213654102D01*
X111648982Y-213656169D01*
X111654526Y-213658791D01*
X111659787Y-213661944D01*
X111664714Y-213665598D01*
X111669258Y-213669717D01*
X111673377Y-213674261D01*
X111677031Y-213679188D01*
X111680184Y-213684449D01*
X111682806Y-213689993D01*
X111684873Y-213695768D01*
X111686363Y-213701718D01*
X111687263Y-213707785D01*
X111687564Y-213713911D01*
X111687564Y-213838911D01*
X111687263Y-213845037D01*
X111686363Y-213851104D01*
X111684873Y-213857054D01*
X111682806Y-213862829D01*
X111680184Y-213868373D01*
X111677031Y-213873634D01*
X111673377Y-213878561D01*
X111669258Y-213883105D01*
X111664714Y-213887224D01*
X111659787Y-213890878D01*
X111654526Y-213894031D01*
X111648982Y-213896653D01*
X111643207Y-213898720D01*
X111637257Y-213900210D01*
X111631190Y-213901110D01*
X111625064Y-213901411D01*
X110675064Y-213901411D01*
X110668938Y-213901110D01*
X110662871Y-213900210D01*
X110656921Y-213898720D01*
X110651146Y-213896653D01*
X110645602Y-213894031D01*
X110640341Y-213890878D01*
X110635414Y-213887224D01*
X110630870Y-213883105D01*
X110626751Y-213878561D01*
X110623097Y-213873634D01*
X110619944Y-213868373D01*
X110617322Y-213862829D01*
X110615255Y-213857054D01*
X110613765Y-213851104D01*
X110612865Y-213845037D01*
X110612564Y-213838911D01*
X110612564Y-213713911D01*
X110612865Y-213707785D01*
X110613765Y-213701718D01*
X110615255Y-213695768D01*
X110617322Y-213689993D01*
X110619944Y-213684449D01*
X110623097Y-213679188D01*
X110626751Y-213674261D01*
X110630870Y-213669717D01*
X110635414Y-213665598D01*
X110640341Y-213661944D01*
X110645602Y-213658791D01*
X110651146Y-213656169D01*
X110656921Y-213654102D01*
X110662871Y-213652612D01*
X110668938Y-213651712D01*
X110675064Y-213651411D01*
X111625064Y-213651411D01*
X111631190Y-213651712D01*
G37*
G04 #@! TD.AperFunction*
G04 #@! TA.AperFunction,SMDPad,CuDef*
G36*
X111631190Y-214151712D02*
G01*
X111637257Y-214152612D01*
X111643207Y-214154102D01*
X111648982Y-214156169D01*
X111654526Y-214158791D01*
X111659787Y-214161944D01*
X111664714Y-214165598D01*
X111669258Y-214169717D01*
X111673377Y-214174261D01*
X111677031Y-214179188D01*
X111680184Y-214184449D01*
X111682806Y-214189993D01*
X111684873Y-214195768D01*
X111686363Y-214201718D01*
X111687263Y-214207785D01*
X111687564Y-214213911D01*
X111687564Y-214338911D01*
X111687263Y-214345037D01*
X111686363Y-214351104D01*
X111684873Y-214357054D01*
X111682806Y-214362829D01*
X111680184Y-214368373D01*
X111677031Y-214373634D01*
X111673377Y-214378561D01*
X111669258Y-214383105D01*
X111664714Y-214387224D01*
X111659787Y-214390878D01*
X111654526Y-214394031D01*
X111648982Y-214396653D01*
X111643207Y-214398720D01*
X111637257Y-214400210D01*
X111631190Y-214401110D01*
X111625064Y-214401411D01*
X110675064Y-214401411D01*
X110668938Y-214401110D01*
X110662871Y-214400210D01*
X110656921Y-214398720D01*
X110651146Y-214396653D01*
X110645602Y-214394031D01*
X110640341Y-214390878D01*
X110635414Y-214387224D01*
X110630870Y-214383105D01*
X110626751Y-214378561D01*
X110623097Y-214373634D01*
X110619944Y-214368373D01*
X110617322Y-214362829D01*
X110615255Y-214357054D01*
X110613765Y-214351104D01*
X110612865Y-214345037D01*
X110612564Y-214338911D01*
X110612564Y-214213911D01*
X110612865Y-214207785D01*
X110613765Y-214201718D01*
X110615255Y-214195768D01*
X110617322Y-214189993D01*
X110619944Y-214184449D01*
X110623097Y-214179188D01*
X110626751Y-214174261D01*
X110630870Y-214169717D01*
X110635414Y-214165598D01*
X110640341Y-214161944D01*
X110645602Y-214158791D01*
X110651146Y-214156169D01*
X110656921Y-214154102D01*
X110662871Y-214152612D01*
X110668938Y-214151712D01*
X110675064Y-214151411D01*
X111625064Y-214151411D01*
X111631190Y-214151712D01*
G37*
G04 #@! TD.AperFunction*
G04 #@! TA.AperFunction,SMDPad,CuDef*
G36*
X111631190Y-214651712D02*
G01*
X111637257Y-214652612D01*
X111643207Y-214654102D01*
X111648982Y-214656169D01*
X111654526Y-214658791D01*
X111659787Y-214661944D01*
X111664714Y-214665598D01*
X111669258Y-214669717D01*
X111673377Y-214674261D01*
X111677031Y-214679188D01*
X111680184Y-214684449D01*
X111682806Y-214689993D01*
X111684873Y-214695768D01*
X111686363Y-214701718D01*
X111687263Y-214707785D01*
X111687564Y-214713911D01*
X111687564Y-214838911D01*
X111687263Y-214845037D01*
X111686363Y-214851104D01*
X111684873Y-214857054D01*
X111682806Y-214862829D01*
X111680184Y-214868373D01*
X111677031Y-214873634D01*
X111673377Y-214878561D01*
X111669258Y-214883105D01*
X111664714Y-214887224D01*
X111659787Y-214890878D01*
X111654526Y-214894031D01*
X111648982Y-214896653D01*
X111643207Y-214898720D01*
X111637257Y-214900210D01*
X111631190Y-214901110D01*
X111625064Y-214901411D01*
X110675064Y-214901411D01*
X110668938Y-214901110D01*
X110662871Y-214900210D01*
X110656921Y-214898720D01*
X110651146Y-214896653D01*
X110645602Y-214894031D01*
X110640341Y-214890878D01*
X110635414Y-214887224D01*
X110630870Y-214883105D01*
X110626751Y-214878561D01*
X110623097Y-214873634D01*
X110619944Y-214868373D01*
X110617322Y-214862829D01*
X110615255Y-214857054D01*
X110613765Y-214851104D01*
X110612865Y-214845037D01*
X110612564Y-214838911D01*
X110612564Y-214713911D01*
X110612865Y-214707785D01*
X110613765Y-214701718D01*
X110615255Y-214695768D01*
X110617322Y-214689993D01*
X110619944Y-214684449D01*
X110623097Y-214679188D01*
X110626751Y-214674261D01*
X110630870Y-214669717D01*
X110635414Y-214665598D01*
X110640341Y-214661944D01*
X110645602Y-214658791D01*
X110651146Y-214656169D01*
X110656921Y-214654102D01*
X110662871Y-214652612D01*
X110668938Y-214651712D01*
X110675064Y-214651411D01*
X111625064Y-214651411D01*
X111631190Y-214651712D01*
G37*
G04 #@! TD.AperFunction*
G04 #@! TA.AperFunction,SMDPad,CuDef*
G36*
X112056190Y-215076712D02*
G01*
X112062257Y-215077612D01*
X112068207Y-215079102D01*
X112073982Y-215081169D01*
X112079526Y-215083791D01*
X112084787Y-215086944D01*
X112089714Y-215090598D01*
X112094258Y-215094717D01*
X112098377Y-215099261D01*
X112102031Y-215104188D01*
X112105184Y-215109449D01*
X112107806Y-215114993D01*
X112109873Y-215120768D01*
X112111363Y-215126718D01*
X112112263Y-215132785D01*
X112112564Y-215138911D01*
X112112564Y-216088911D01*
X112112263Y-216095037D01*
X112111363Y-216101104D01*
X112109873Y-216107054D01*
X112107806Y-216112829D01*
X112105184Y-216118373D01*
X112102031Y-216123634D01*
X112098377Y-216128561D01*
X112094258Y-216133105D01*
X112089714Y-216137224D01*
X112084787Y-216140878D01*
X112079526Y-216144031D01*
X112073982Y-216146653D01*
X112068207Y-216148720D01*
X112062257Y-216150210D01*
X112056190Y-216151110D01*
X112050064Y-216151411D01*
X111925064Y-216151411D01*
X111918938Y-216151110D01*
X111912871Y-216150210D01*
X111906921Y-216148720D01*
X111901146Y-216146653D01*
X111895602Y-216144031D01*
X111890341Y-216140878D01*
X111885414Y-216137224D01*
X111880870Y-216133105D01*
X111876751Y-216128561D01*
X111873097Y-216123634D01*
X111869944Y-216118373D01*
X111867322Y-216112829D01*
X111865255Y-216107054D01*
X111863765Y-216101104D01*
X111862865Y-216095037D01*
X111862564Y-216088911D01*
X111862564Y-215138911D01*
X111862865Y-215132785D01*
X111863765Y-215126718D01*
X111865255Y-215120768D01*
X111867322Y-215114993D01*
X111869944Y-215109449D01*
X111873097Y-215104188D01*
X111876751Y-215099261D01*
X111880870Y-215094717D01*
X111885414Y-215090598D01*
X111890341Y-215086944D01*
X111895602Y-215083791D01*
X111901146Y-215081169D01*
X111906921Y-215079102D01*
X111912871Y-215077612D01*
X111918938Y-215076712D01*
X111925064Y-215076411D01*
X112050064Y-215076411D01*
X112056190Y-215076712D01*
G37*
G04 #@! TD.AperFunction*
G04 #@! TA.AperFunction,SMDPad,CuDef*
G36*
X112556190Y-215076712D02*
G01*
X112562257Y-215077612D01*
X112568207Y-215079102D01*
X112573982Y-215081169D01*
X112579526Y-215083791D01*
X112584787Y-215086944D01*
X112589714Y-215090598D01*
X112594258Y-215094717D01*
X112598377Y-215099261D01*
X112602031Y-215104188D01*
X112605184Y-215109449D01*
X112607806Y-215114993D01*
X112609873Y-215120768D01*
X112611363Y-215126718D01*
X112612263Y-215132785D01*
X112612564Y-215138911D01*
X112612564Y-216088911D01*
X112612263Y-216095037D01*
X112611363Y-216101104D01*
X112609873Y-216107054D01*
X112607806Y-216112829D01*
X112605184Y-216118373D01*
X112602031Y-216123634D01*
X112598377Y-216128561D01*
X112594258Y-216133105D01*
X112589714Y-216137224D01*
X112584787Y-216140878D01*
X112579526Y-216144031D01*
X112573982Y-216146653D01*
X112568207Y-216148720D01*
X112562257Y-216150210D01*
X112556190Y-216151110D01*
X112550064Y-216151411D01*
X112425064Y-216151411D01*
X112418938Y-216151110D01*
X112412871Y-216150210D01*
X112406921Y-216148720D01*
X112401146Y-216146653D01*
X112395602Y-216144031D01*
X112390341Y-216140878D01*
X112385414Y-216137224D01*
X112380870Y-216133105D01*
X112376751Y-216128561D01*
X112373097Y-216123634D01*
X112369944Y-216118373D01*
X112367322Y-216112829D01*
X112365255Y-216107054D01*
X112363765Y-216101104D01*
X112362865Y-216095037D01*
X112362564Y-216088911D01*
X112362564Y-215138911D01*
X112362865Y-215132785D01*
X112363765Y-215126718D01*
X112365255Y-215120768D01*
X112367322Y-215114993D01*
X112369944Y-215109449D01*
X112373097Y-215104188D01*
X112376751Y-215099261D01*
X112380870Y-215094717D01*
X112385414Y-215090598D01*
X112390341Y-215086944D01*
X112395602Y-215083791D01*
X112401146Y-215081169D01*
X112406921Y-215079102D01*
X112412871Y-215077612D01*
X112418938Y-215076712D01*
X112425064Y-215076411D01*
X112550064Y-215076411D01*
X112556190Y-215076712D01*
G37*
G04 #@! TD.AperFunction*
G04 #@! TA.AperFunction,SMDPad,CuDef*
G36*
X113056190Y-215076712D02*
G01*
X113062257Y-215077612D01*
X113068207Y-215079102D01*
X113073982Y-215081169D01*
X113079526Y-215083791D01*
X113084787Y-215086944D01*
X113089714Y-215090598D01*
X113094258Y-215094717D01*
X113098377Y-215099261D01*
X113102031Y-215104188D01*
X113105184Y-215109449D01*
X113107806Y-215114993D01*
X113109873Y-215120768D01*
X113111363Y-215126718D01*
X113112263Y-215132785D01*
X113112564Y-215138911D01*
X113112564Y-216088911D01*
X113112263Y-216095037D01*
X113111363Y-216101104D01*
X113109873Y-216107054D01*
X113107806Y-216112829D01*
X113105184Y-216118373D01*
X113102031Y-216123634D01*
X113098377Y-216128561D01*
X113094258Y-216133105D01*
X113089714Y-216137224D01*
X113084787Y-216140878D01*
X113079526Y-216144031D01*
X113073982Y-216146653D01*
X113068207Y-216148720D01*
X113062257Y-216150210D01*
X113056190Y-216151110D01*
X113050064Y-216151411D01*
X112925064Y-216151411D01*
X112918938Y-216151110D01*
X112912871Y-216150210D01*
X112906921Y-216148720D01*
X112901146Y-216146653D01*
X112895602Y-216144031D01*
X112890341Y-216140878D01*
X112885414Y-216137224D01*
X112880870Y-216133105D01*
X112876751Y-216128561D01*
X112873097Y-216123634D01*
X112869944Y-216118373D01*
X112867322Y-216112829D01*
X112865255Y-216107054D01*
X112863765Y-216101104D01*
X112862865Y-216095037D01*
X112862564Y-216088911D01*
X112862564Y-215138911D01*
X112862865Y-215132785D01*
X112863765Y-215126718D01*
X112865255Y-215120768D01*
X112867322Y-215114993D01*
X112869944Y-215109449D01*
X112873097Y-215104188D01*
X112876751Y-215099261D01*
X112880870Y-215094717D01*
X112885414Y-215090598D01*
X112890341Y-215086944D01*
X112895602Y-215083791D01*
X112901146Y-215081169D01*
X112906921Y-215079102D01*
X112912871Y-215077612D01*
X112918938Y-215076712D01*
X112925064Y-215076411D01*
X113050064Y-215076411D01*
X113056190Y-215076712D01*
G37*
G04 #@! TD.AperFunction*
G04 #@! TA.AperFunction,SMDPad,CuDef*
G36*
X113556190Y-215076712D02*
G01*
X113562257Y-215077612D01*
X113568207Y-215079102D01*
X113573982Y-215081169D01*
X113579526Y-215083791D01*
X113584787Y-215086944D01*
X113589714Y-215090598D01*
X113594258Y-215094717D01*
X113598377Y-215099261D01*
X113602031Y-215104188D01*
X113605184Y-215109449D01*
X113607806Y-215114993D01*
X113609873Y-215120768D01*
X113611363Y-215126718D01*
X113612263Y-215132785D01*
X113612564Y-215138911D01*
X113612564Y-216088911D01*
X113612263Y-216095037D01*
X113611363Y-216101104D01*
X113609873Y-216107054D01*
X113607806Y-216112829D01*
X113605184Y-216118373D01*
X113602031Y-216123634D01*
X113598377Y-216128561D01*
X113594258Y-216133105D01*
X113589714Y-216137224D01*
X113584787Y-216140878D01*
X113579526Y-216144031D01*
X113573982Y-216146653D01*
X113568207Y-216148720D01*
X113562257Y-216150210D01*
X113556190Y-216151110D01*
X113550064Y-216151411D01*
X113425064Y-216151411D01*
X113418938Y-216151110D01*
X113412871Y-216150210D01*
X113406921Y-216148720D01*
X113401146Y-216146653D01*
X113395602Y-216144031D01*
X113390341Y-216140878D01*
X113385414Y-216137224D01*
X113380870Y-216133105D01*
X113376751Y-216128561D01*
X113373097Y-216123634D01*
X113369944Y-216118373D01*
X113367322Y-216112829D01*
X113365255Y-216107054D01*
X113363765Y-216101104D01*
X113362865Y-216095037D01*
X113362564Y-216088911D01*
X113362564Y-215138911D01*
X113362865Y-215132785D01*
X113363765Y-215126718D01*
X113365255Y-215120768D01*
X113367322Y-215114993D01*
X113369944Y-215109449D01*
X113373097Y-215104188D01*
X113376751Y-215099261D01*
X113380870Y-215094717D01*
X113385414Y-215090598D01*
X113390341Y-215086944D01*
X113395602Y-215083791D01*
X113401146Y-215081169D01*
X113406921Y-215079102D01*
X113412871Y-215077612D01*
X113418938Y-215076712D01*
X113425064Y-215076411D01*
X113550064Y-215076411D01*
X113556190Y-215076712D01*
G37*
G04 #@! TD.AperFunction*
G04 #@! TA.AperFunction,SMDPad,CuDef*
G36*
X114056190Y-215076712D02*
G01*
X114062257Y-215077612D01*
X114068207Y-215079102D01*
X114073982Y-215081169D01*
X114079526Y-215083791D01*
X114084787Y-215086944D01*
X114089714Y-215090598D01*
X114094258Y-215094717D01*
X114098377Y-215099261D01*
X114102031Y-215104188D01*
X114105184Y-215109449D01*
X114107806Y-215114993D01*
X114109873Y-215120768D01*
X114111363Y-215126718D01*
X114112263Y-215132785D01*
X114112564Y-215138911D01*
X114112564Y-216088911D01*
X114112263Y-216095037D01*
X114111363Y-216101104D01*
X114109873Y-216107054D01*
X114107806Y-216112829D01*
X114105184Y-216118373D01*
X114102031Y-216123634D01*
X114098377Y-216128561D01*
X114094258Y-216133105D01*
X114089714Y-216137224D01*
X114084787Y-216140878D01*
X114079526Y-216144031D01*
X114073982Y-216146653D01*
X114068207Y-216148720D01*
X114062257Y-216150210D01*
X114056190Y-216151110D01*
X114050064Y-216151411D01*
X113925064Y-216151411D01*
X113918938Y-216151110D01*
X113912871Y-216150210D01*
X113906921Y-216148720D01*
X113901146Y-216146653D01*
X113895602Y-216144031D01*
X113890341Y-216140878D01*
X113885414Y-216137224D01*
X113880870Y-216133105D01*
X113876751Y-216128561D01*
X113873097Y-216123634D01*
X113869944Y-216118373D01*
X113867322Y-216112829D01*
X113865255Y-216107054D01*
X113863765Y-216101104D01*
X113862865Y-216095037D01*
X113862564Y-216088911D01*
X113862564Y-215138911D01*
X113862865Y-215132785D01*
X113863765Y-215126718D01*
X113865255Y-215120768D01*
X113867322Y-215114993D01*
X113869944Y-215109449D01*
X113873097Y-215104188D01*
X113876751Y-215099261D01*
X113880870Y-215094717D01*
X113885414Y-215090598D01*
X113890341Y-215086944D01*
X113895602Y-215083791D01*
X113901146Y-215081169D01*
X113906921Y-215079102D01*
X113912871Y-215077612D01*
X113918938Y-215076712D01*
X113925064Y-215076411D01*
X114050064Y-215076411D01*
X114056190Y-215076712D01*
G37*
G04 #@! TD.AperFunction*
G04 #@! TA.AperFunction,SMDPad,CuDef*
G36*
X114556190Y-215076712D02*
G01*
X114562257Y-215077612D01*
X114568207Y-215079102D01*
X114573982Y-215081169D01*
X114579526Y-215083791D01*
X114584787Y-215086944D01*
X114589714Y-215090598D01*
X114594258Y-215094717D01*
X114598377Y-215099261D01*
X114602031Y-215104188D01*
X114605184Y-215109449D01*
X114607806Y-215114993D01*
X114609873Y-215120768D01*
X114611363Y-215126718D01*
X114612263Y-215132785D01*
X114612564Y-215138911D01*
X114612564Y-216088911D01*
X114612263Y-216095037D01*
X114611363Y-216101104D01*
X114609873Y-216107054D01*
X114607806Y-216112829D01*
X114605184Y-216118373D01*
X114602031Y-216123634D01*
X114598377Y-216128561D01*
X114594258Y-216133105D01*
X114589714Y-216137224D01*
X114584787Y-216140878D01*
X114579526Y-216144031D01*
X114573982Y-216146653D01*
X114568207Y-216148720D01*
X114562257Y-216150210D01*
X114556190Y-216151110D01*
X114550064Y-216151411D01*
X114425064Y-216151411D01*
X114418938Y-216151110D01*
X114412871Y-216150210D01*
X114406921Y-216148720D01*
X114401146Y-216146653D01*
X114395602Y-216144031D01*
X114390341Y-216140878D01*
X114385414Y-216137224D01*
X114380870Y-216133105D01*
X114376751Y-216128561D01*
X114373097Y-216123634D01*
X114369944Y-216118373D01*
X114367322Y-216112829D01*
X114365255Y-216107054D01*
X114363765Y-216101104D01*
X114362865Y-216095037D01*
X114362564Y-216088911D01*
X114362564Y-215138911D01*
X114362865Y-215132785D01*
X114363765Y-215126718D01*
X114365255Y-215120768D01*
X114367322Y-215114993D01*
X114369944Y-215109449D01*
X114373097Y-215104188D01*
X114376751Y-215099261D01*
X114380870Y-215094717D01*
X114385414Y-215090598D01*
X114390341Y-215086944D01*
X114395602Y-215083791D01*
X114401146Y-215081169D01*
X114406921Y-215079102D01*
X114412871Y-215077612D01*
X114418938Y-215076712D01*
X114425064Y-215076411D01*
X114550064Y-215076411D01*
X114556190Y-215076712D01*
G37*
G04 #@! TD.AperFunction*
G04 #@! TA.AperFunction,SMDPad,CuDef*
G36*
X115056190Y-215076712D02*
G01*
X115062257Y-215077612D01*
X115068207Y-215079102D01*
X115073982Y-215081169D01*
X115079526Y-215083791D01*
X115084787Y-215086944D01*
X115089714Y-215090598D01*
X115094258Y-215094717D01*
X115098377Y-215099261D01*
X115102031Y-215104188D01*
X115105184Y-215109449D01*
X115107806Y-215114993D01*
X115109873Y-215120768D01*
X115111363Y-215126718D01*
X115112263Y-215132785D01*
X115112564Y-215138911D01*
X115112564Y-216088911D01*
X115112263Y-216095037D01*
X115111363Y-216101104D01*
X115109873Y-216107054D01*
X115107806Y-216112829D01*
X115105184Y-216118373D01*
X115102031Y-216123634D01*
X115098377Y-216128561D01*
X115094258Y-216133105D01*
X115089714Y-216137224D01*
X115084787Y-216140878D01*
X115079526Y-216144031D01*
X115073982Y-216146653D01*
X115068207Y-216148720D01*
X115062257Y-216150210D01*
X115056190Y-216151110D01*
X115050064Y-216151411D01*
X114925064Y-216151411D01*
X114918938Y-216151110D01*
X114912871Y-216150210D01*
X114906921Y-216148720D01*
X114901146Y-216146653D01*
X114895602Y-216144031D01*
X114890341Y-216140878D01*
X114885414Y-216137224D01*
X114880870Y-216133105D01*
X114876751Y-216128561D01*
X114873097Y-216123634D01*
X114869944Y-216118373D01*
X114867322Y-216112829D01*
X114865255Y-216107054D01*
X114863765Y-216101104D01*
X114862865Y-216095037D01*
X114862564Y-216088911D01*
X114862564Y-215138911D01*
X114862865Y-215132785D01*
X114863765Y-215126718D01*
X114865255Y-215120768D01*
X114867322Y-215114993D01*
X114869944Y-215109449D01*
X114873097Y-215104188D01*
X114876751Y-215099261D01*
X114880870Y-215094717D01*
X114885414Y-215090598D01*
X114890341Y-215086944D01*
X114895602Y-215083791D01*
X114901146Y-215081169D01*
X114906921Y-215079102D01*
X114912871Y-215077612D01*
X114918938Y-215076712D01*
X114925064Y-215076411D01*
X115050064Y-215076411D01*
X115056190Y-215076712D01*
G37*
G04 #@! TD.AperFunction*
G04 #@! TA.AperFunction,SMDPad,CuDef*
G36*
X115556190Y-215076712D02*
G01*
X115562257Y-215077612D01*
X115568207Y-215079102D01*
X115573982Y-215081169D01*
X115579526Y-215083791D01*
X115584787Y-215086944D01*
X115589714Y-215090598D01*
X115594258Y-215094717D01*
X115598377Y-215099261D01*
X115602031Y-215104188D01*
X115605184Y-215109449D01*
X115607806Y-215114993D01*
X115609873Y-215120768D01*
X115611363Y-215126718D01*
X115612263Y-215132785D01*
X115612564Y-215138911D01*
X115612564Y-216088911D01*
X115612263Y-216095037D01*
X115611363Y-216101104D01*
X115609873Y-216107054D01*
X115607806Y-216112829D01*
X115605184Y-216118373D01*
X115602031Y-216123634D01*
X115598377Y-216128561D01*
X115594258Y-216133105D01*
X115589714Y-216137224D01*
X115584787Y-216140878D01*
X115579526Y-216144031D01*
X115573982Y-216146653D01*
X115568207Y-216148720D01*
X115562257Y-216150210D01*
X115556190Y-216151110D01*
X115550064Y-216151411D01*
X115425064Y-216151411D01*
X115418938Y-216151110D01*
X115412871Y-216150210D01*
X115406921Y-216148720D01*
X115401146Y-216146653D01*
X115395602Y-216144031D01*
X115390341Y-216140878D01*
X115385414Y-216137224D01*
X115380870Y-216133105D01*
X115376751Y-216128561D01*
X115373097Y-216123634D01*
X115369944Y-216118373D01*
X115367322Y-216112829D01*
X115365255Y-216107054D01*
X115363765Y-216101104D01*
X115362865Y-216095037D01*
X115362564Y-216088911D01*
X115362564Y-215138911D01*
X115362865Y-215132785D01*
X115363765Y-215126718D01*
X115365255Y-215120768D01*
X115367322Y-215114993D01*
X115369944Y-215109449D01*
X115373097Y-215104188D01*
X115376751Y-215099261D01*
X115380870Y-215094717D01*
X115385414Y-215090598D01*
X115390341Y-215086944D01*
X115395602Y-215083791D01*
X115401146Y-215081169D01*
X115406921Y-215079102D01*
X115412871Y-215077612D01*
X115418938Y-215076712D01*
X115425064Y-215076411D01*
X115550064Y-215076411D01*
X115556190Y-215076712D01*
G37*
G04 #@! TD.AperFunction*
G04 #@! TA.AperFunction,SMDPad,CuDef*
G36*
X116056190Y-215076712D02*
G01*
X116062257Y-215077612D01*
X116068207Y-215079102D01*
X116073982Y-215081169D01*
X116079526Y-215083791D01*
X116084787Y-215086944D01*
X116089714Y-215090598D01*
X116094258Y-215094717D01*
X116098377Y-215099261D01*
X116102031Y-215104188D01*
X116105184Y-215109449D01*
X116107806Y-215114993D01*
X116109873Y-215120768D01*
X116111363Y-215126718D01*
X116112263Y-215132785D01*
X116112564Y-215138911D01*
X116112564Y-216088911D01*
X116112263Y-216095037D01*
X116111363Y-216101104D01*
X116109873Y-216107054D01*
X116107806Y-216112829D01*
X116105184Y-216118373D01*
X116102031Y-216123634D01*
X116098377Y-216128561D01*
X116094258Y-216133105D01*
X116089714Y-216137224D01*
X116084787Y-216140878D01*
X116079526Y-216144031D01*
X116073982Y-216146653D01*
X116068207Y-216148720D01*
X116062257Y-216150210D01*
X116056190Y-216151110D01*
X116050064Y-216151411D01*
X115925064Y-216151411D01*
X115918938Y-216151110D01*
X115912871Y-216150210D01*
X115906921Y-216148720D01*
X115901146Y-216146653D01*
X115895602Y-216144031D01*
X115890341Y-216140878D01*
X115885414Y-216137224D01*
X115880870Y-216133105D01*
X115876751Y-216128561D01*
X115873097Y-216123634D01*
X115869944Y-216118373D01*
X115867322Y-216112829D01*
X115865255Y-216107054D01*
X115863765Y-216101104D01*
X115862865Y-216095037D01*
X115862564Y-216088911D01*
X115862564Y-215138911D01*
X115862865Y-215132785D01*
X115863765Y-215126718D01*
X115865255Y-215120768D01*
X115867322Y-215114993D01*
X115869944Y-215109449D01*
X115873097Y-215104188D01*
X115876751Y-215099261D01*
X115880870Y-215094717D01*
X115885414Y-215090598D01*
X115890341Y-215086944D01*
X115895602Y-215083791D01*
X115901146Y-215081169D01*
X115906921Y-215079102D01*
X115912871Y-215077612D01*
X115918938Y-215076712D01*
X115925064Y-215076411D01*
X116050064Y-215076411D01*
X116056190Y-215076712D01*
G37*
G04 #@! TD.AperFunction*
G04 #@! TA.AperFunction,SMDPad,CuDef*
G36*
X116556190Y-215076712D02*
G01*
X116562257Y-215077612D01*
X116568207Y-215079102D01*
X116573982Y-215081169D01*
X116579526Y-215083791D01*
X116584787Y-215086944D01*
X116589714Y-215090598D01*
X116594258Y-215094717D01*
X116598377Y-215099261D01*
X116602031Y-215104188D01*
X116605184Y-215109449D01*
X116607806Y-215114993D01*
X116609873Y-215120768D01*
X116611363Y-215126718D01*
X116612263Y-215132785D01*
X116612564Y-215138911D01*
X116612564Y-216088911D01*
X116612263Y-216095037D01*
X116611363Y-216101104D01*
X116609873Y-216107054D01*
X116607806Y-216112829D01*
X116605184Y-216118373D01*
X116602031Y-216123634D01*
X116598377Y-216128561D01*
X116594258Y-216133105D01*
X116589714Y-216137224D01*
X116584787Y-216140878D01*
X116579526Y-216144031D01*
X116573982Y-216146653D01*
X116568207Y-216148720D01*
X116562257Y-216150210D01*
X116556190Y-216151110D01*
X116550064Y-216151411D01*
X116425064Y-216151411D01*
X116418938Y-216151110D01*
X116412871Y-216150210D01*
X116406921Y-216148720D01*
X116401146Y-216146653D01*
X116395602Y-216144031D01*
X116390341Y-216140878D01*
X116385414Y-216137224D01*
X116380870Y-216133105D01*
X116376751Y-216128561D01*
X116373097Y-216123634D01*
X116369944Y-216118373D01*
X116367322Y-216112829D01*
X116365255Y-216107054D01*
X116363765Y-216101104D01*
X116362865Y-216095037D01*
X116362564Y-216088911D01*
X116362564Y-215138911D01*
X116362865Y-215132785D01*
X116363765Y-215126718D01*
X116365255Y-215120768D01*
X116367322Y-215114993D01*
X116369944Y-215109449D01*
X116373097Y-215104188D01*
X116376751Y-215099261D01*
X116380870Y-215094717D01*
X116385414Y-215090598D01*
X116390341Y-215086944D01*
X116395602Y-215083791D01*
X116401146Y-215081169D01*
X116406921Y-215079102D01*
X116412871Y-215077612D01*
X116418938Y-215076712D01*
X116425064Y-215076411D01*
X116550064Y-215076411D01*
X116556190Y-215076712D01*
G37*
G04 #@! TD.AperFunction*
G04 #@! TA.AperFunction,SMDPad,CuDef*
G36*
X117056190Y-215076712D02*
G01*
X117062257Y-215077612D01*
X117068207Y-215079102D01*
X117073982Y-215081169D01*
X117079526Y-215083791D01*
X117084787Y-215086944D01*
X117089714Y-215090598D01*
X117094258Y-215094717D01*
X117098377Y-215099261D01*
X117102031Y-215104188D01*
X117105184Y-215109449D01*
X117107806Y-215114993D01*
X117109873Y-215120768D01*
X117111363Y-215126718D01*
X117112263Y-215132785D01*
X117112564Y-215138911D01*
X117112564Y-216088911D01*
X117112263Y-216095037D01*
X117111363Y-216101104D01*
X117109873Y-216107054D01*
X117107806Y-216112829D01*
X117105184Y-216118373D01*
X117102031Y-216123634D01*
X117098377Y-216128561D01*
X117094258Y-216133105D01*
X117089714Y-216137224D01*
X117084787Y-216140878D01*
X117079526Y-216144031D01*
X117073982Y-216146653D01*
X117068207Y-216148720D01*
X117062257Y-216150210D01*
X117056190Y-216151110D01*
X117050064Y-216151411D01*
X116925064Y-216151411D01*
X116918938Y-216151110D01*
X116912871Y-216150210D01*
X116906921Y-216148720D01*
X116901146Y-216146653D01*
X116895602Y-216144031D01*
X116890341Y-216140878D01*
X116885414Y-216137224D01*
X116880870Y-216133105D01*
X116876751Y-216128561D01*
X116873097Y-216123634D01*
X116869944Y-216118373D01*
X116867322Y-216112829D01*
X116865255Y-216107054D01*
X116863765Y-216101104D01*
X116862865Y-216095037D01*
X116862564Y-216088911D01*
X116862564Y-215138911D01*
X116862865Y-215132785D01*
X116863765Y-215126718D01*
X116865255Y-215120768D01*
X116867322Y-215114993D01*
X116869944Y-215109449D01*
X116873097Y-215104188D01*
X116876751Y-215099261D01*
X116880870Y-215094717D01*
X116885414Y-215090598D01*
X116890341Y-215086944D01*
X116895602Y-215083791D01*
X116901146Y-215081169D01*
X116906921Y-215079102D01*
X116912871Y-215077612D01*
X116918938Y-215076712D01*
X116925064Y-215076411D01*
X117050064Y-215076411D01*
X117056190Y-215076712D01*
G37*
G04 #@! TD.AperFunction*
G04 #@! TA.AperFunction,SMDPad,CuDef*
G36*
X116862068Y-209677615D02*
G01*
X116886337Y-209681215D01*
X116910135Y-209687176D01*
X116933235Y-209695441D01*
X116955413Y-209705931D01*
X116976457Y-209718544D01*
X116996162Y-209733158D01*
X117014341Y-209749634D01*
X117030817Y-209767813D01*
X117045431Y-209787518D01*
X117058044Y-209808562D01*
X117068534Y-209830740D01*
X117076799Y-209853840D01*
X117082760Y-209877638D01*
X117086360Y-209901907D01*
X117087564Y-209926411D01*
X117087564Y-214626411D01*
X117086360Y-214650915D01*
X117082760Y-214675184D01*
X117076799Y-214698982D01*
X117068534Y-214722082D01*
X117058044Y-214744260D01*
X117045431Y-214765304D01*
X117030817Y-214785009D01*
X117014341Y-214803188D01*
X116996162Y-214819664D01*
X116976457Y-214834278D01*
X116955413Y-214846891D01*
X116933235Y-214857381D01*
X116910135Y-214865646D01*
X116886337Y-214871607D01*
X116862068Y-214875207D01*
X116837564Y-214876411D01*
X112137564Y-214876411D01*
X112113060Y-214875207D01*
X112088791Y-214871607D01*
X112064993Y-214865646D01*
X112041893Y-214857381D01*
X112019715Y-214846891D01*
X111998671Y-214834278D01*
X111978966Y-214819664D01*
X111960787Y-214803188D01*
X111944311Y-214785009D01*
X111929697Y-214765304D01*
X111917084Y-214744260D01*
X111906594Y-214722082D01*
X111898329Y-214698982D01*
X111892368Y-214675184D01*
X111888768Y-214650915D01*
X111887564Y-214626411D01*
X111887564Y-209926411D01*
X111888768Y-209901907D01*
X111892368Y-209877638D01*
X111898329Y-209853840D01*
X111906594Y-209830740D01*
X111917084Y-209808562D01*
X111929697Y-209787518D01*
X111944311Y-209767813D01*
X111960787Y-209749634D01*
X111978966Y-209733158D01*
X111998671Y-209718544D01*
X112019715Y-209705931D01*
X112041893Y-209695441D01*
X112064993Y-209687176D01*
X112088791Y-209681215D01*
X112113060Y-209677615D01*
X112137564Y-209676411D01*
X116837564Y-209676411D01*
X116862068Y-209677615D01*
G37*
G04 #@! TD.AperFunction*
D11*
X300672500Y-215265000D03*
X294322500Y-217805000D03*
D12*
X106495064Y-213250160D03*
X106495064Y-211050160D03*
X108195064Y-211050160D03*
X108195064Y-213250160D03*
D13*
X111660000Y-222352500D03*
X107960000Y-228552500D03*
X107960000Y-222352500D03*
X111660000Y-228552500D03*
G04 #@! TA.AperFunction,SMDPad,CuDef*
D10*
G36*
X120144505Y-206271204D02*
G01*
X120168773Y-206274804D01*
X120192572Y-206280765D01*
X120215671Y-206289030D01*
X120237850Y-206299520D01*
X120258893Y-206312132D01*
X120278599Y-206326747D01*
X120296777Y-206343223D01*
X120313253Y-206361401D01*
X120327868Y-206381107D01*
X120340480Y-206402150D01*
X120350970Y-206424329D01*
X120359235Y-206447428D01*
X120365196Y-206471227D01*
X120368796Y-206495495D01*
X120370000Y-206519999D01*
X120370000Y-207420001D01*
X120368796Y-207444505D01*
X120365196Y-207468773D01*
X120359235Y-207492572D01*
X120350970Y-207515671D01*
X120340480Y-207537850D01*
X120327868Y-207558893D01*
X120313253Y-207578599D01*
X120296777Y-207596777D01*
X120278599Y-207613253D01*
X120258893Y-207627868D01*
X120237850Y-207640480D01*
X120215671Y-207650970D01*
X120192572Y-207659235D01*
X120168773Y-207665196D01*
X120144505Y-207668796D01*
X120120001Y-207670000D01*
X119469999Y-207670000D01*
X119445495Y-207668796D01*
X119421227Y-207665196D01*
X119397428Y-207659235D01*
X119374329Y-207650970D01*
X119352150Y-207640480D01*
X119331107Y-207627868D01*
X119311401Y-207613253D01*
X119293223Y-207596777D01*
X119276747Y-207578599D01*
X119262132Y-207558893D01*
X119249520Y-207537850D01*
X119239030Y-207515671D01*
X119230765Y-207492572D01*
X119224804Y-207468773D01*
X119221204Y-207444505D01*
X119220000Y-207420001D01*
X119220000Y-206519999D01*
X119221204Y-206495495D01*
X119224804Y-206471227D01*
X119230765Y-206447428D01*
X119239030Y-206424329D01*
X119249520Y-206402150D01*
X119262132Y-206381107D01*
X119276747Y-206361401D01*
X119293223Y-206343223D01*
X119311401Y-206326747D01*
X119331107Y-206312132D01*
X119352150Y-206299520D01*
X119374329Y-206289030D01*
X119397428Y-206280765D01*
X119421227Y-206274804D01*
X119445495Y-206271204D01*
X119469999Y-206270000D01*
X120120001Y-206270000D01*
X120144505Y-206271204D01*
G37*
G04 #@! TD.AperFunction*
G04 #@! TA.AperFunction,SMDPad,CuDef*
G36*
X122194505Y-206271204D02*
G01*
X122218773Y-206274804D01*
X122242572Y-206280765D01*
X122265671Y-206289030D01*
X122287850Y-206299520D01*
X122308893Y-206312132D01*
X122328599Y-206326747D01*
X122346777Y-206343223D01*
X122363253Y-206361401D01*
X122377868Y-206381107D01*
X122390480Y-206402150D01*
X122400970Y-206424329D01*
X122409235Y-206447428D01*
X122415196Y-206471227D01*
X122418796Y-206495495D01*
X122420000Y-206519999D01*
X122420000Y-207420001D01*
X122418796Y-207444505D01*
X122415196Y-207468773D01*
X122409235Y-207492572D01*
X122400970Y-207515671D01*
X122390480Y-207537850D01*
X122377868Y-207558893D01*
X122363253Y-207578599D01*
X122346777Y-207596777D01*
X122328599Y-207613253D01*
X122308893Y-207627868D01*
X122287850Y-207640480D01*
X122265671Y-207650970D01*
X122242572Y-207659235D01*
X122218773Y-207665196D01*
X122194505Y-207668796D01*
X122170001Y-207670000D01*
X121519999Y-207670000D01*
X121495495Y-207668796D01*
X121471227Y-207665196D01*
X121447428Y-207659235D01*
X121424329Y-207650970D01*
X121402150Y-207640480D01*
X121381107Y-207627868D01*
X121361401Y-207613253D01*
X121343223Y-207596777D01*
X121326747Y-207578599D01*
X121312132Y-207558893D01*
X121299520Y-207537850D01*
X121289030Y-207515671D01*
X121280765Y-207492572D01*
X121274804Y-207468773D01*
X121271204Y-207444505D01*
X121270000Y-207420001D01*
X121270000Y-206519999D01*
X121271204Y-206495495D01*
X121274804Y-206471227D01*
X121280765Y-206447428D01*
X121289030Y-206424329D01*
X121299520Y-206402150D01*
X121312132Y-206381107D01*
X121326747Y-206361401D01*
X121343223Y-206343223D01*
X121361401Y-206326747D01*
X121381107Y-206312132D01*
X121402150Y-206299520D01*
X121424329Y-206289030D01*
X121447428Y-206280765D01*
X121471227Y-206274804D01*
X121495495Y-206271204D01*
X121519999Y-206270000D01*
X122170001Y-206270000D01*
X122194505Y-206271204D01*
G37*
G04 #@! TD.AperFunction*
G04 #@! TA.AperFunction,SMDPad,CuDef*
G36*
X109974505Y-218898704D02*
G01*
X109998773Y-218902304D01*
X110022572Y-218908265D01*
X110045671Y-218916530D01*
X110067850Y-218927020D01*
X110088893Y-218939632D01*
X110108599Y-218954247D01*
X110126777Y-218970723D01*
X110143253Y-218988901D01*
X110157868Y-219008607D01*
X110170480Y-219029650D01*
X110180970Y-219051829D01*
X110189235Y-219074928D01*
X110195196Y-219098727D01*
X110198796Y-219122995D01*
X110200000Y-219147499D01*
X110200000Y-219797501D01*
X110198796Y-219822005D01*
X110195196Y-219846273D01*
X110189235Y-219870072D01*
X110180970Y-219893171D01*
X110170480Y-219915350D01*
X110157868Y-219936393D01*
X110143253Y-219956099D01*
X110126777Y-219974277D01*
X110108599Y-219990753D01*
X110088893Y-220005368D01*
X110067850Y-220017980D01*
X110045671Y-220028470D01*
X110022572Y-220036735D01*
X109998773Y-220042696D01*
X109974505Y-220046296D01*
X109950001Y-220047500D01*
X109049999Y-220047500D01*
X109025495Y-220046296D01*
X109001227Y-220042696D01*
X108977428Y-220036735D01*
X108954329Y-220028470D01*
X108932150Y-220017980D01*
X108911107Y-220005368D01*
X108891401Y-219990753D01*
X108873223Y-219974277D01*
X108856747Y-219956099D01*
X108842132Y-219936393D01*
X108829520Y-219915350D01*
X108819030Y-219893171D01*
X108810765Y-219870072D01*
X108804804Y-219846273D01*
X108801204Y-219822005D01*
X108800000Y-219797501D01*
X108800000Y-219147499D01*
X108801204Y-219122995D01*
X108804804Y-219098727D01*
X108810765Y-219074928D01*
X108819030Y-219051829D01*
X108829520Y-219029650D01*
X108842132Y-219008607D01*
X108856747Y-218988901D01*
X108873223Y-218970723D01*
X108891401Y-218954247D01*
X108911107Y-218939632D01*
X108932150Y-218927020D01*
X108954329Y-218916530D01*
X108977428Y-218908265D01*
X109001227Y-218902304D01*
X109025495Y-218898704D01*
X109049999Y-218897500D01*
X109950001Y-218897500D01*
X109974505Y-218898704D01*
G37*
G04 #@! TD.AperFunction*
G04 #@! TA.AperFunction,SMDPad,CuDef*
G36*
X109974505Y-216848704D02*
G01*
X109998773Y-216852304D01*
X110022572Y-216858265D01*
X110045671Y-216866530D01*
X110067850Y-216877020D01*
X110088893Y-216889632D01*
X110108599Y-216904247D01*
X110126777Y-216920723D01*
X110143253Y-216938901D01*
X110157868Y-216958607D01*
X110170480Y-216979650D01*
X110180970Y-217001829D01*
X110189235Y-217024928D01*
X110195196Y-217048727D01*
X110198796Y-217072995D01*
X110200000Y-217097499D01*
X110200000Y-217747501D01*
X110198796Y-217772005D01*
X110195196Y-217796273D01*
X110189235Y-217820072D01*
X110180970Y-217843171D01*
X110170480Y-217865350D01*
X110157868Y-217886393D01*
X110143253Y-217906099D01*
X110126777Y-217924277D01*
X110108599Y-217940753D01*
X110088893Y-217955368D01*
X110067850Y-217967980D01*
X110045671Y-217978470D01*
X110022572Y-217986735D01*
X109998773Y-217992696D01*
X109974505Y-217996296D01*
X109950001Y-217997500D01*
X109049999Y-217997500D01*
X109025495Y-217996296D01*
X109001227Y-217992696D01*
X108977428Y-217986735D01*
X108954329Y-217978470D01*
X108932150Y-217967980D01*
X108911107Y-217955368D01*
X108891401Y-217940753D01*
X108873223Y-217924277D01*
X108856747Y-217906099D01*
X108842132Y-217886393D01*
X108829520Y-217865350D01*
X108819030Y-217843171D01*
X108810765Y-217820072D01*
X108804804Y-217796273D01*
X108801204Y-217772005D01*
X108800000Y-217747501D01*
X108800000Y-217097499D01*
X108801204Y-217072995D01*
X108804804Y-217048727D01*
X108810765Y-217024928D01*
X108819030Y-217001829D01*
X108829520Y-216979650D01*
X108842132Y-216958607D01*
X108856747Y-216938901D01*
X108873223Y-216920723D01*
X108891401Y-216904247D01*
X108911107Y-216889632D01*
X108932150Y-216877020D01*
X108954329Y-216866530D01*
X108977428Y-216858265D01*
X109001227Y-216852304D01*
X109025495Y-216848704D01*
X109049999Y-216847500D01*
X109950001Y-216847500D01*
X109974505Y-216848704D01*
G37*
G04 #@! TD.AperFunction*
G04 #@! TA.AperFunction,SMDPad,CuDef*
G36*
X115284569Y-222571363D02*
G01*
X115308837Y-222574963D01*
X115332636Y-222580924D01*
X115355735Y-222589189D01*
X115377914Y-222599679D01*
X115398957Y-222612291D01*
X115418663Y-222626906D01*
X115436841Y-222643382D01*
X115453317Y-222661560D01*
X115467932Y-222681266D01*
X115480544Y-222702309D01*
X115491034Y-222724488D01*
X115499299Y-222747587D01*
X115505260Y-222771386D01*
X115508860Y-222795654D01*
X115510064Y-222820158D01*
X115510064Y-223470160D01*
X115508860Y-223494664D01*
X115505260Y-223518932D01*
X115499299Y-223542731D01*
X115491034Y-223565830D01*
X115480544Y-223588009D01*
X115467932Y-223609052D01*
X115453317Y-223628758D01*
X115436841Y-223646936D01*
X115418663Y-223663412D01*
X115398957Y-223678027D01*
X115377914Y-223690639D01*
X115355735Y-223701129D01*
X115332636Y-223709394D01*
X115308837Y-223715355D01*
X115284569Y-223718955D01*
X115260065Y-223720159D01*
X114360063Y-223720159D01*
X114335559Y-223718955D01*
X114311291Y-223715355D01*
X114287492Y-223709394D01*
X114264393Y-223701129D01*
X114242214Y-223690639D01*
X114221171Y-223678027D01*
X114201465Y-223663412D01*
X114183287Y-223646936D01*
X114166811Y-223628758D01*
X114152196Y-223609052D01*
X114139584Y-223588009D01*
X114129094Y-223565830D01*
X114120829Y-223542731D01*
X114114868Y-223518932D01*
X114111268Y-223494664D01*
X114110064Y-223470160D01*
X114110064Y-222820158D01*
X114111268Y-222795654D01*
X114114868Y-222771386D01*
X114120829Y-222747587D01*
X114129094Y-222724488D01*
X114139584Y-222702309D01*
X114152196Y-222681266D01*
X114166811Y-222661560D01*
X114183287Y-222643382D01*
X114201465Y-222626906D01*
X114221171Y-222612291D01*
X114242214Y-222599679D01*
X114264393Y-222589189D01*
X114287492Y-222580924D01*
X114311291Y-222574963D01*
X114335559Y-222571363D01*
X114360063Y-222570159D01*
X115260065Y-222570159D01*
X115284569Y-222571363D01*
G37*
G04 #@! TD.AperFunction*
G04 #@! TA.AperFunction,SMDPad,CuDef*
G36*
X115284569Y-224621363D02*
G01*
X115308837Y-224624963D01*
X115332636Y-224630924D01*
X115355735Y-224639189D01*
X115377914Y-224649679D01*
X115398957Y-224662291D01*
X115418663Y-224676906D01*
X115436841Y-224693382D01*
X115453317Y-224711560D01*
X115467932Y-224731266D01*
X115480544Y-224752309D01*
X115491034Y-224774488D01*
X115499299Y-224797587D01*
X115505260Y-224821386D01*
X115508860Y-224845654D01*
X115510064Y-224870158D01*
X115510064Y-225520160D01*
X115508860Y-225544664D01*
X115505260Y-225568932D01*
X115499299Y-225592731D01*
X115491034Y-225615830D01*
X115480544Y-225638009D01*
X115467932Y-225659052D01*
X115453317Y-225678758D01*
X115436841Y-225696936D01*
X115418663Y-225713412D01*
X115398957Y-225728027D01*
X115377914Y-225740639D01*
X115355735Y-225751129D01*
X115332636Y-225759394D01*
X115308837Y-225765355D01*
X115284569Y-225768955D01*
X115260065Y-225770159D01*
X114360063Y-225770159D01*
X114335559Y-225768955D01*
X114311291Y-225765355D01*
X114287492Y-225759394D01*
X114264393Y-225751129D01*
X114242214Y-225740639D01*
X114221171Y-225728027D01*
X114201465Y-225713412D01*
X114183287Y-225696936D01*
X114166811Y-225678758D01*
X114152196Y-225659052D01*
X114139584Y-225638009D01*
X114129094Y-225615830D01*
X114120829Y-225592731D01*
X114114868Y-225568932D01*
X114111268Y-225544664D01*
X114110064Y-225520160D01*
X114110064Y-224870158D01*
X114111268Y-224845654D01*
X114114868Y-224821386D01*
X114120829Y-224797587D01*
X114129094Y-224774488D01*
X114139584Y-224752309D01*
X114152196Y-224731266D01*
X114166811Y-224711560D01*
X114183287Y-224693382D01*
X114201465Y-224676906D01*
X114221171Y-224662291D01*
X114242214Y-224649679D01*
X114264393Y-224639189D01*
X114287492Y-224630924D01*
X114311291Y-224624963D01*
X114335559Y-224621363D01*
X114360063Y-224620159D01*
X115260065Y-224620159D01*
X115284569Y-224621363D01*
G37*
G04 #@! TD.AperFunction*
G04 #@! TA.AperFunction,SMDPad,CuDef*
G36*
X117197069Y-222571363D02*
G01*
X117221337Y-222574963D01*
X117245136Y-222580924D01*
X117268235Y-222589189D01*
X117290414Y-222599679D01*
X117311457Y-222612291D01*
X117331163Y-222626906D01*
X117349341Y-222643382D01*
X117365817Y-222661560D01*
X117380432Y-222681266D01*
X117393044Y-222702309D01*
X117403534Y-222724488D01*
X117411799Y-222747587D01*
X117417760Y-222771386D01*
X117421360Y-222795654D01*
X117422564Y-222820158D01*
X117422564Y-223470160D01*
X117421360Y-223494664D01*
X117417760Y-223518932D01*
X117411799Y-223542731D01*
X117403534Y-223565830D01*
X117393044Y-223588009D01*
X117380432Y-223609052D01*
X117365817Y-223628758D01*
X117349341Y-223646936D01*
X117331163Y-223663412D01*
X117311457Y-223678027D01*
X117290414Y-223690639D01*
X117268235Y-223701129D01*
X117245136Y-223709394D01*
X117221337Y-223715355D01*
X117197069Y-223718955D01*
X117172565Y-223720159D01*
X116272563Y-223720159D01*
X116248059Y-223718955D01*
X116223791Y-223715355D01*
X116199992Y-223709394D01*
X116176893Y-223701129D01*
X116154714Y-223690639D01*
X116133671Y-223678027D01*
X116113965Y-223663412D01*
X116095787Y-223646936D01*
X116079311Y-223628758D01*
X116064696Y-223609052D01*
X116052084Y-223588009D01*
X116041594Y-223565830D01*
X116033329Y-223542731D01*
X116027368Y-223518932D01*
X116023768Y-223494664D01*
X116022564Y-223470160D01*
X116022564Y-222820158D01*
X116023768Y-222795654D01*
X116027368Y-222771386D01*
X116033329Y-222747587D01*
X116041594Y-222724488D01*
X116052084Y-222702309D01*
X116064696Y-222681266D01*
X116079311Y-222661560D01*
X116095787Y-222643382D01*
X116113965Y-222626906D01*
X116133671Y-222612291D01*
X116154714Y-222599679D01*
X116176893Y-222589189D01*
X116199992Y-222580924D01*
X116223791Y-222574963D01*
X116248059Y-222571363D01*
X116272563Y-222570159D01*
X117172565Y-222570159D01*
X117197069Y-222571363D01*
G37*
G04 #@! TD.AperFunction*
G04 #@! TA.AperFunction,SMDPad,CuDef*
G36*
X117197069Y-224621363D02*
G01*
X117221337Y-224624963D01*
X117245136Y-224630924D01*
X117268235Y-224639189D01*
X117290414Y-224649679D01*
X117311457Y-224662291D01*
X117331163Y-224676906D01*
X117349341Y-224693382D01*
X117365817Y-224711560D01*
X117380432Y-224731266D01*
X117393044Y-224752309D01*
X117403534Y-224774488D01*
X117411799Y-224797587D01*
X117417760Y-224821386D01*
X117421360Y-224845654D01*
X117422564Y-224870158D01*
X117422564Y-225520160D01*
X117421360Y-225544664D01*
X117417760Y-225568932D01*
X117411799Y-225592731D01*
X117403534Y-225615830D01*
X117393044Y-225638009D01*
X117380432Y-225659052D01*
X117365817Y-225678758D01*
X117349341Y-225696936D01*
X117331163Y-225713412D01*
X117311457Y-225728027D01*
X117290414Y-225740639D01*
X117268235Y-225751129D01*
X117245136Y-225759394D01*
X117221337Y-225765355D01*
X117197069Y-225768955D01*
X117172565Y-225770159D01*
X116272563Y-225770159D01*
X116248059Y-225768955D01*
X116223791Y-225765355D01*
X116199992Y-225759394D01*
X116176893Y-225751129D01*
X116154714Y-225740639D01*
X116133671Y-225728027D01*
X116113965Y-225713412D01*
X116095787Y-225696936D01*
X116079311Y-225678758D01*
X116064696Y-225659052D01*
X116052084Y-225638009D01*
X116041594Y-225615830D01*
X116033329Y-225592731D01*
X116027368Y-225568932D01*
X116023768Y-225544664D01*
X116022564Y-225520160D01*
X116022564Y-224870158D01*
X116023768Y-224845654D01*
X116027368Y-224821386D01*
X116033329Y-224797587D01*
X116041594Y-224774488D01*
X116052084Y-224752309D01*
X116064696Y-224731266D01*
X116079311Y-224711560D01*
X116095787Y-224693382D01*
X116113965Y-224676906D01*
X116133671Y-224662291D01*
X116154714Y-224649679D01*
X116176893Y-224639189D01*
X116199992Y-224630924D01*
X116223791Y-224624963D01*
X116248059Y-224621363D01*
X116272563Y-224620159D01*
X117172565Y-224620159D01*
X117197069Y-224621363D01*
G37*
G04 #@! TD.AperFunction*
D14*
X129525000Y-229442500D03*
X129525000Y-223842500D03*
D15*
X125650000Y-225142500D03*
X125650000Y-226142500D03*
X125650000Y-228142500D03*
X125650000Y-227142500D03*
G04 #@! TA.AperFunction,SMDPad,CuDef*
D10*
G36*
X111730142Y-206776174D02*
G01*
X111753803Y-206779684D01*
X111777007Y-206785496D01*
X111799529Y-206793554D01*
X111821153Y-206803782D01*
X111841670Y-206816079D01*
X111860883Y-206830329D01*
X111878607Y-206846393D01*
X111894671Y-206864117D01*
X111908921Y-206883330D01*
X111921218Y-206903847D01*
X111931446Y-206925471D01*
X111939504Y-206947993D01*
X111945316Y-206971197D01*
X111948826Y-206994858D01*
X111950000Y-207018750D01*
X111950000Y-207506250D01*
X111948826Y-207530142D01*
X111945316Y-207553803D01*
X111939504Y-207577007D01*
X111931446Y-207599529D01*
X111921218Y-207621153D01*
X111908921Y-207641670D01*
X111894671Y-207660883D01*
X111878607Y-207678607D01*
X111860883Y-207694671D01*
X111841670Y-207708921D01*
X111821153Y-207721218D01*
X111799529Y-207731446D01*
X111777007Y-207739504D01*
X111753803Y-207745316D01*
X111730142Y-207748826D01*
X111706250Y-207750000D01*
X110793750Y-207750000D01*
X110769858Y-207748826D01*
X110746197Y-207745316D01*
X110722993Y-207739504D01*
X110700471Y-207731446D01*
X110678847Y-207721218D01*
X110658330Y-207708921D01*
X110639117Y-207694671D01*
X110621393Y-207678607D01*
X110605329Y-207660883D01*
X110591079Y-207641670D01*
X110578782Y-207621153D01*
X110568554Y-207599529D01*
X110560496Y-207577007D01*
X110554684Y-207553803D01*
X110551174Y-207530142D01*
X110550000Y-207506250D01*
X110550000Y-207018750D01*
X110551174Y-206994858D01*
X110554684Y-206971197D01*
X110560496Y-206947993D01*
X110568554Y-206925471D01*
X110578782Y-206903847D01*
X110591079Y-206883330D01*
X110605329Y-206864117D01*
X110621393Y-206846393D01*
X110639117Y-206830329D01*
X110658330Y-206816079D01*
X110678847Y-206803782D01*
X110700471Y-206793554D01*
X110722993Y-206785496D01*
X110746197Y-206779684D01*
X110769858Y-206776174D01*
X110793750Y-206775000D01*
X111706250Y-206775000D01*
X111730142Y-206776174D01*
G37*
G04 #@! TD.AperFunction*
G04 #@! TA.AperFunction,SMDPad,CuDef*
G36*
X111730142Y-204901174D02*
G01*
X111753803Y-204904684D01*
X111777007Y-204910496D01*
X111799529Y-204918554D01*
X111821153Y-204928782D01*
X111841670Y-204941079D01*
X111860883Y-204955329D01*
X111878607Y-204971393D01*
X111894671Y-204989117D01*
X111908921Y-205008330D01*
X111921218Y-205028847D01*
X111931446Y-205050471D01*
X111939504Y-205072993D01*
X111945316Y-205096197D01*
X111948826Y-205119858D01*
X111950000Y-205143750D01*
X111950000Y-205631250D01*
X111948826Y-205655142D01*
X111945316Y-205678803D01*
X111939504Y-205702007D01*
X111931446Y-205724529D01*
X111921218Y-205746153D01*
X111908921Y-205766670D01*
X111894671Y-205785883D01*
X111878607Y-205803607D01*
X111860883Y-205819671D01*
X111841670Y-205833921D01*
X111821153Y-205846218D01*
X111799529Y-205856446D01*
X111777007Y-205864504D01*
X111753803Y-205870316D01*
X111730142Y-205873826D01*
X111706250Y-205875000D01*
X110793750Y-205875000D01*
X110769858Y-205873826D01*
X110746197Y-205870316D01*
X110722993Y-205864504D01*
X110700471Y-205856446D01*
X110678847Y-205846218D01*
X110658330Y-205833921D01*
X110639117Y-205819671D01*
X110621393Y-205803607D01*
X110605329Y-205785883D01*
X110591079Y-205766670D01*
X110578782Y-205746153D01*
X110568554Y-205724529D01*
X110560496Y-205702007D01*
X110554684Y-205678803D01*
X110551174Y-205655142D01*
X110550000Y-205631250D01*
X110550000Y-205143750D01*
X110551174Y-205119858D01*
X110554684Y-205096197D01*
X110560496Y-205072993D01*
X110568554Y-205050471D01*
X110578782Y-205028847D01*
X110591079Y-205008330D01*
X110605329Y-204989117D01*
X110621393Y-204971393D01*
X110639117Y-204955329D01*
X110658330Y-204941079D01*
X110678847Y-204928782D01*
X110700471Y-204918554D01*
X110722993Y-204910496D01*
X110746197Y-204904684D01*
X110769858Y-204901174D01*
X110793750Y-204900000D01*
X111706250Y-204900000D01*
X111730142Y-204901174D01*
G37*
G04 #@! TD.AperFunction*
G04 #@! TA.AperFunction,SMDPad,CuDef*
G36*
X112982706Y-219405084D02*
G01*
X113006367Y-219408594D01*
X113029571Y-219414406D01*
X113052093Y-219422464D01*
X113073717Y-219432692D01*
X113094234Y-219444989D01*
X113113447Y-219459239D01*
X113131171Y-219475303D01*
X113147235Y-219493027D01*
X113161485Y-219512240D01*
X113173782Y-219532757D01*
X113184010Y-219554381D01*
X113192068Y-219576903D01*
X113197880Y-219600107D01*
X113201390Y-219623768D01*
X113202564Y-219647660D01*
X113202564Y-220560160D01*
X113201390Y-220584052D01*
X113197880Y-220607713D01*
X113192068Y-220630917D01*
X113184010Y-220653439D01*
X113173782Y-220675063D01*
X113161485Y-220695580D01*
X113147235Y-220714793D01*
X113131171Y-220732517D01*
X113113447Y-220748581D01*
X113094234Y-220762831D01*
X113073717Y-220775128D01*
X113052093Y-220785356D01*
X113029571Y-220793414D01*
X113006367Y-220799226D01*
X112982706Y-220802736D01*
X112958814Y-220803910D01*
X112471314Y-220803910D01*
X112447422Y-220802736D01*
X112423761Y-220799226D01*
X112400557Y-220793414D01*
X112378035Y-220785356D01*
X112356411Y-220775128D01*
X112335894Y-220762831D01*
X112316681Y-220748581D01*
X112298957Y-220732517D01*
X112282893Y-220714793D01*
X112268643Y-220695580D01*
X112256346Y-220675063D01*
X112246118Y-220653439D01*
X112238060Y-220630917D01*
X112232248Y-220607713D01*
X112228738Y-220584052D01*
X112227564Y-220560160D01*
X112227564Y-219647660D01*
X112228738Y-219623768D01*
X112232248Y-219600107D01*
X112238060Y-219576903D01*
X112246118Y-219554381D01*
X112256346Y-219532757D01*
X112268643Y-219512240D01*
X112282893Y-219493027D01*
X112298957Y-219475303D01*
X112316681Y-219459239D01*
X112335894Y-219444989D01*
X112356411Y-219432692D01*
X112378035Y-219422464D01*
X112400557Y-219414406D01*
X112423761Y-219408594D01*
X112447422Y-219405084D01*
X112471314Y-219403910D01*
X112958814Y-219403910D01*
X112982706Y-219405084D01*
G37*
G04 #@! TD.AperFunction*
G04 #@! TA.AperFunction,SMDPad,CuDef*
G36*
X114857706Y-219405084D02*
G01*
X114881367Y-219408594D01*
X114904571Y-219414406D01*
X114927093Y-219422464D01*
X114948717Y-219432692D01*
X114969234Y-219444989D01*
X114988447Y-219459239D01*
X115006171Y-219475303D01*
X115022235Y-219493027D01*
X115036485Y-219512240D01*
X115048782Y-219532757D01*
X115059010Y-219554381D01*
X115067068Y-219576903D01*
X115072880Y-219600107D01*
X115076390Y-219623768D01*
X115077564Y-219647660D01*
X115077564Y-220560160D01*
X115076390Y-220584052D01*
X115072880Y-220607713D01*
X115067068Y-220630917D01*
X115059010Y-220653439D01*
X115048782Y-220675063D01*
X115036485Y-220695580D01*
X115022235Y-220714793D01*
X115006171Y-220732517D01*
X114988447Y-220748581D01*
X114969234Y-220762831D01*
X114948717Y-220775128D01*
X114927093Y-220785356D01*
X114904571Y-220793414D01*
X114881367Y-220799226D01*
X114857706Y-220802736D01*
X114833814Y-220803910D01*
X114346314Y-220803910D01*
X114322422Y-220802736D01*
X114298761Y-220799226D01*
X114275557Y-220793414D01*
X114253035Y-220785356D01*
X114231411Y-220775128D01*
X114210894Y-220762831D01*
X114191681Y-220748581D01*
X114173957Y-220732517D01*
X114157893Y-220714793D01*
X114143643Y-220695580D01*
X114131346Y-220675063D01*
X114121118Y-220653439D01*
X114113060Y-220630917D01*
X114107248Y-220607713D01*
X114103738Y-220584052D01*
X114102564Y-220560160D01*
X114102564Y-219647660D01*
X114103738Y-219623768D01*
X114107248Y-219600107D01*
X114113060Y-219576903D01*
X114121118Y-219554381D01*
X114131346Y-219532757D01*
X114143643Y-219512240D01*
X114157893Y-219493027D01*
X114173957Y-219475303D01*
X114191681Y-219459239D01*
X114210894Y-219444989D01*
X114231411Y-219432692D01*
X114253035Y-219422464D01*
X114275557Y-219414406D01*
X114298761Y-219408594D01*
X114322422Y-219405084D01*
X114346314Y-219403910D01*
X114833814Y-219403910D01*
X114857706Y-219405084D01*
G37*
G04 #@! TD.AperFunction*
G04 #@! TA.AperFunction,SMDPad,CuDef*
G36*
X120837642Y-208521174D02*
G01*
X120861303Y-208524684D01*
X120884507Y-208530496D01*
X120907029Y-208538554D01*
X120928653Y-208548782D01*
X120949170Y-208561079D01*
X120968383Y-208575329D01*
X120986107Y-208591393D01*
X121002171Y-208609117D01*
X121016421Y-208628330D01*
X121028718Y-208648847D01*
X121038946Y-208670471D01*
X121047004Y-208692993D01*
X121052816Y-208716197D01*
X121056326Y-208739858D01*
X121057500Y-208763750D01*
X121057500Y-209676250D01*
X121056326Y-209700142D01*
X121052816Y-209723803D01*
X121047004Y-209747007D01*
X121038946Y-209769529D01*
X121028718Y-209791153D01*
X121016421Y-209811670D01*
X121002171Y-209830883D01*
X120986107Y-209848607D01*
X120968383Y-209864671D01*
X120949170Y-209878921D01*
X120928653Y-209891218D01*
X120907029Y-209901446D01*
X120884507Y-209909504D01*
X120861303Y-209915316D01*
X120837642Y-209918826D01*
X120813750Y-209920000D01*
X120326250Y-209920000D01*
X120302358Y-209918826D01*
X120278697Y-209915316D01*
X120255493Y-209909504D01*
X120232971Y-209901446D01*
X120211347Y-209891218D01*
X120190830Y-209878921D01*
X120171617Y-209864671D01*
X120153893Y-209848607D01*
X120137829Y-209830883D01*
X120123579Y-209811670D01*
X120111282Y-209791153D01*
X120101054Y-209769529D01*
X120092996Y-209747007D01*
X120087184Y-209723803D01*
X120083674Y-209700142D01*
X120082500Y-209676250D01*
X120082500Y-208763750D01*
X120083674Y-208739858D01*
X120087184Y-208716197D01*
X120092996Y-208692993D01*
X120101054Y-208670471D01*
X120111282Y-208648847D01*
X120123579Y-208628330D01*
X120137829Y-208609117D01*
X120153893Y-208591393D01*
X120171617Y-208575329D01*
X120190830Y-208561079D01*
X120211347Y-208548782D01*
X120232971Y-208538554D01*
X120255493Y-208530496D01*
X120278697Y-208524684D01*
X120302358Y-208521174D01*
X120326250Y-208520000D01*
X120813750Y-208520000D01*
X120837642Y-208521174D01*
G37*
G04 #@! TD.AperFunction*
G04 #@! TA.AperFunction,SMDPad,CuDef*
G36*
X122712642Y-208521174D02*
G01*
X122736303Y-208524684D01*
X122759507Y-208530496D01*
X122782029Y-208538554D01*
X122803653Y-208548782D01*
X122824170Y-208561079D01*
X122843383Y-208575329D01*
X122861107Y-208591393D01*
X122877171Y-208609117D01*
X122891421Y-208628330D01*
X122903718Y-208648847D01*
X122913946Y-208670471D01*
X122922004Y-208692993D01*
X122927816Y-208716197D01*
X122931326Y-208739858D01*
X122932500Y-208763750D01*
X122932500Y-209676250D01*
X122931326Y-209700142D01*
X122927816Y-209723803D01*
X122922004Y-209747007D01*
X122913946Y-209769529D01*
X122903718Y-209791153D01*
X122891421Y-209811670D01*
X122877171Y-209830883D01*
X122861107Y-209848607D01*
X122843383Y-209864671D01*
X122824170Y-209878921D01*
X122803653Y-209891218D01*
X122782029Y-209901446D01*
X122759507Y-209909504D01*
X122736303Y-209915316D01*
X122712642Y-209918826D01*
X122688750Y-209920000D01*
X122201250Y-209920000D01*
X122177358Y-209918826D01*
X122153697Y-209915316D01*
X122130493Y-209909504D01*
X122107971Y-209901446D01*
X122086347Y-209891218D01*
X122065830Y-209878921D01*
X122046617Y-209864671D01*
X122028893Y-209848607D01*
X122012829Y-209830883D01*
X121998579Y-209811670D01*
X121986282Y-209791153D01*
X121976054Y-209769529D01*
X121967996Y-209747007D01*
X121962184Y-209723803D01*
X121958674Y-209700142D01*
X121957500Y-209676250D01*
X121957500Y-208763750D01*
X121958674Y-208739858D01*
X121962184Y-208716197D01*
X121967996Y-208692993D01*
X121976054Y-208670471D01*
X121986282Y-208648847D01*
X121998579Y-208628330D01*
X122012829Y-208609117D01*
X122028893Y-208591393D01*
X122046617Y-208575329D01*
X122065830Y-208561079D01*
X122086347Y-208548782D01*
X122107971Y-208538554D01*
X122130493Y-208530496D01*
X122153697Y-208524684D01*
X122177358Y-208521174D01*
X122201250Y-208520000D01*
X122688750Y-208520000D01*
X122712642Y-208521174D01*
G37*
G04 #@! TD.AperFunction*
G04 #@! TA.AperFunction,SMDPad,CuDef*
G36*
X108550206Y-208276334D02*
G01*
X108573867Y-208279844D01*
X108597071Y-208285656D01*
X108619593Y-208293714D01*
X108641217Y-208303942D01*
X108661734Y-208316239D01*
X108680947Y-208330489D01*
X108698671Y-208346553D01*
X108714735Y-208364277D01*
X108728985Y-208383490D01*
X108741282Y-208404007D01*
X108751510Y-208425631D01*
X108759568Y-208448153D01*
X108765380Y-208471357D01*
X108768890Y-208495018D01*
X108770064Y-208518910D01*
X108770064Y-209431410D01*
X108768890Y-209455302D01*
X108765380Y-209478963D01*
X108759568Y-209502167D01*
X108751510Y-209524689D01*
X108741282Y-209546313D01*
X108728985Y-209566830D01*
X108714735Y-209586043D01*
X108698671Y-209603767D01*
X108680947Y-209619831D01*
X108661734Y-209634081D01*
X108641217Y-209646378D01*
X108619593Y-209656606D01*
X108597071Y-209664664D01*
X108573867Y-209670476D01*
X108550206Y-209673986D01*
X108526314Y-209675160D01*
X108038814Y-209675160D01*
X108014922Y-209673986D01*
X107991261Y-209670476D01*
X107968057Y-209664664D01*
X107945535Y-209656606D01*
X107923911Y-209646378D01*
X107903394Y-209634081D01*
X107884181Y-209619831D01*
X107866457Y-209603767D01*
X107850393Y-209586043D01*
X107836143Y-209566830D01*
X107823846Y-209546313D01*
X107813618Y-209524689D01*
X107805560Y-209502167D01*
X107799748Y-209478963D01*
X107796238Y-209455302D01*
X107795064Y-209431410D01*
X107795064Y-208518910D01*
X107796238Y-208495018D01*
X107799748Y-208471357D01*
X107805560Y-208448153D01*
X107813618Y-208425631D01*
X107823846Y-208404007D01*
X107836143Y-208383490D01*
X107850393Y-208364277D01*
X107866457Y-208346553D01*
X107884181Y-208330489D01*
X107903394Y-208316239D01*
X107923911Y-208303942D01*
X107945535Y-208293714D01*
X107968057Y-208285656D01*
X107991261Y-208279844D01*
X108014922Y-208276334D01*
X108038814Y-208275160D01*
X108526314Y-208275160D01*
X108550206Y-208276334D01*
G37*
G04 #@! TD.AperFunction*
G04 #@! TA.AperFunction,SMDPad,CuDef*
G36*
X106675206Y-208276334D02*
G01*
X106698867Y-208279844D01*
X106722071Y-208285656D01*
X106744593Y-208293714D01*
X106766217Y-208303942D01*
X106786734Y-208316239D01*
X106805947Y-208330489D01*
X106823671Y-208346553D01*
X106839735Y-208364277D01*
X106853985Y-208383490D01*
X106866282Y-208404007D01*
X106876510Y-208425631D01*
X106884568Y-208448153D01*
X106890380Y-208471357D01*
X106893890Y-208495018D01*
X106895064Y-208518910D01*
X106895064Y-209431410D01*
X106893890Y-209455302D01*
X106890380Y-209478963D01*
X106884568Y-209502167D01*
X106876510Y-209524689D01*
X106866282Y-209546313D01*
X106853985Y-209566830D01*
X106839735Y-209586043D01*
X106823671Y-209603767D01*
X106805947Y-209619831D01*
X106786734Y-209634081D01*
X106766217Y-209646378D01*
X106744593Y-209656606D01*
X106722071Y-209664664D01*
X106698867Y-209670476D01*
X106675206Y-209673986D01*
X106651314Y-209675160D01*
X106163814Y-209675160D01*
X106139922Y-209673986D01*
X106116261Y-209670476D01*
X106093057Y-209664664D01*
X106070535Y-209656606D01*
X106048911Y-209646378D01*
X106028394Y-209634081D01*
X106009181Y-209619831D01*
X105991457Y-209603767D01*
X105975393Y-209586043D01*
X105961143Y-209566830D01*
X105948846Y-209546313D01*
X105938618Y-209524689D01*
X105930560Y-209502167D01*
X105924748Y-209478963D01*
X105921238Y-209455302D01*
X105920064Y-209431410D01*
X105920064Y-208518910D01*
X105921238Y-208495018D01*
X105924748Y-208471357D01*
X105930560Y-208448153D01*
X105938618Y-208425631D01*
X105948846Y-208404007D01*
X105961143Y-208383490D01*
X105975393Y-208364277D01*
X105991457Y-208346553D01*
X106009181Y-208330489D01*
X106028394Y-208316239D01*
X106048911Y-208303942D01*
X106070535Y-208293714D01*
X106093057Y-208285656D01*
X106116261Y-208279844D01*
X106139922Y-208276334D01*
X106163814Y-208275160D01*
X106651314Y-208275160D01*
X106675206Y-208276334D01*
G37*
G04 #@! TD.AperFunction*
G04 #@! TA.AperFunction,SMDPad,CuDef*
G36*
X106675206Y-214626334D02*
G01*
X106698867Y-214629844D01*
X106722071Y-214635656D01*
X106744593Y-214643714D01*
X106766217Y-214653942D01*
X106786734Y-214666239D01*
X106805947Y-214680489D01*
X106823671Y-214696553D01*
X106839735Y-214714277D01*
X106853985Y-214733490D01*
X106866282Y-214754007D01*
X106876510Y-214775631D01*
X106884568Y-214798153D01*
X106890380Y-214821357D01*
X106893890Y-214845018D01*
X106895064Y-214868910D01*
X106895064Y-215781410D01*
X106893890Y-215805302D01*
X106890380Y-215828963D01*
X106884568Y-215852167D01*
X106876510Y-215874689D01*
X106866282Y-215896313D01*
X106853985Y-215916830D01*
X106839735Y-215936043D01*
X106823671Y-215953767D01*
X106805947Y-215969831D01*
X106786734Y-215984081D01*
X106766217Y-215996378D01*
X106744593Y-216006606D01*
X106722071Y-216014664D01*
X106698867Y-216020476D01*
X106675206Y-216023986D01*
X106651314Y-216025160D01*
X106163814Y-216025160D01*
X106139922Y-216023986D01*
X106116261Y-216020476D01*
X106093057Y-216014664D01*
X106070535Y-216006606D01*
X106048911Y-215996378D01*
X106028394Y-215984081D01*
X106009181Y-215969831D01*
X105991457Y-215953767D01*
X105975393Y-215936043D01*
X105961143Y-215916830D01*
X105948846Y-215896313D01*
X105938618Y-215874689D01*
X105930560Y-215852167D01*
X105924748Y-215828963D01*
X105921238Y-215805302D01*
X105920064Y-215781410D01*
X105920064Y-214868910D01*
X105921238Y-214845018D01*
X105924748Y-214821357D01*
X105930560Y-214798153D01*
X105938618Y-214775631D01*
X105948846Y-214754007D01*
X105961143Y-214733490D01*
X105975393Y-214714277D01*
X105991457Y-214696553D01*
X106009181Y-214680489D01*
X106028394Y-214666239D01*
X106048911Y-214653942D01*
X106070535Y-214643714D01*
X106093057Y-214635656D01*
X106116261Y-214629844D01*
X106139922Y-214626334D01*
X106163814Y-214625160D01*
X106651314Y-214625160D01*
X106675206Y-214626334D01*
G37*
G04 #@! TD.AperFunction*
G04 #@! TA.AperFunction,SMDPad,CuDef*
G36*
X108550206Y-214626334D02*
G01*
X108573867Y-214629844D01*
X108597071Y-214635656D01*
X108619593Y-214643714D01*
X108641217Y-214653942D01*
X108661734Y-214666239D01*
X108680947Y-214680489D01*
X108698671Y-214696553D01*
X108714735Y-214714277D01*
X108728985Y-214733490D01*
X108741282Y-214754007D01*
X108751510Y-214775631D01*
X108759568Y-214798153D01*
X108765380Y-214821357D01*
X108768890Y-214845018D01*
X108770064Y-214868910D01*
X108770064Y-215781410D01*
X108768890Y-215805302D01*
X108765380Y-215828963D01*
X108759568Y-215852167D01*
X108751510Y-215874689D01*
X108741282Y-215896313D01*
X108728985Y-215916830D01*
X108714735Y-215936043D01*
X108698671Y-215953767D01*
X108680947Y-215969831D01*
X108661734Y-215984081D01*
X108641217Y-215996378D01*
X108619593Y-216006606D01*
X108597071Y-216014664D01*
X108573867Y-216020476D01*
X108550206Y-216023986D01*
X108526314Y-216025160D01*
X108038814Y-216025160D01*
X108014922Y-216023986D01*
X107991261Y-216020476D01*
X107968057Y-216014664D01*
X107945535Y-216006606D01*
X107923911Y-215996378D01*
X107903394Y-215984081D01*
X107884181Y-215969831D01*
X107866457Y-215953767D01*
X107850393Y-215936043D01*
X107836143Y-215916830D01*
X107823846Y-215896313D01*
X107813618Y-215874689D01*
X107805560Y-215852167D01*
X107799748Y-215828963D01*
X107796238Y-215805302D01*
X107795064Y-215781410D01*
X107795064Y-214868910D01*
X107796238Y-214845018D01*
X107799748Y-214821357D01*
X107805560Y-214798153D01*
X107813618Y-214775631D01*
X107823846Y-214754007D01*
X107836143Y-214733490D01*
X107850393Y-214714277D01*
X107866457Y-214696553D01*
X107884181Y-214680489D01*
X107903394Y-214666239D01*
X107923911Y-214653942D01*
X107945535Y-214643714D01*
X107968057Y-214635656D01*
X107991261Y-214629844D01*
X108014922Y-214626334D01*
X108038814Y-214625160D01*
X108526314Y-214625160D01*
X108550206Y-214626334D01*
G37*
G04 #@! TD.AperFunction*
G04 #@! TA.AperFunction,SMDPad,CuDef*
G36*
X120230142Y-216311174D02*
G01*
X120253803Y-216314684D01*
X120277007Y-216320496D01*
X120299529Y-216328554D01*
X120321153Y-216338782D01*
X120341670Y-216351079D01*
X120360883Y-216365329D01*
X120378607Y-216381393D01*
X120394671Y-216399117D01*
X120408921Y-216418330D01*
X120421218Y-216438847D01*
X120431446Y-216460471D01*
X120439504Y-216482993D01*
X120445316Y-216506197D01*
X120448826Y-216529858D01*
X120450000Y-216553750D01*
X120450000Y-217041250D01*
X120448826Y-217065142D01*
X120445316Y-217088803D01*
X120439504Y-217112007D01*
X120431446Y-217134529D01*
X120421218Y-217156153D01*
X120408921Y-217176670D01*
X120394671Y-217195883D01*
X120378607Y-217213607D01*
X120360883Y-217229671D01*
X120341670Y-217243921D01*
X120321153Y-217256218D01*
X120299529Y-217266446D01*
X120277007Y-217274504D01*
X120253803Y-217280316D01*
X120230142Y-217283826D01*
X120206250Y-217285000D01*
X119293750Y-217285000D01*
X119269858Y-217283826D01*
X119246197Y-217280316D01*
X119222993Y-217274504D01*
X119200471Y-217266446D01*
X119178847Y-217256218D01*
X119158330Y-217243921D01*
X119139117Y-217229671D01*
X119121393Y-217213607D01*
X119105329Y-217195883D01*
X119091079Y-217176670D01*
X119078782Y-217156153D01*
X119068554Y-217134529D01*
X119060496Y-217112007D01*
X119054684Y-217088803D01*
X119051174Y-217065142D01*
X119050000Y-217041250D01*
X119050000Y-216553750D01*
X119051174Y-216529858D01*
X119054684Y-216506197D01*
X119060496Y-216482993D01*
X119068554Y-216460471D01*
X119078782Y-216438847D01*
X119091079Y-216418330D01*
X119105329Y-216399117D01*
X119121393Y-216381393D01*
X119139117Y-216365329D01*
X119158330Y-216351079D01*
X119178847Y-216338782D01*
X119200471Y-216328554D01*
X119222993Y-216320496D01*
X119246197Y-216314684D01*
X119269858Y-216311174D01*
X119293750Y-216310000D01*
X120206250Y-216310000D01*
X120230142Y-216311174D01*
G37*
G04 #@! TD.AperFunction*
G04 #@! TA.AperFunction,SMDPad,CuDef*
G36*
X120230142Y-214436174D02*
G01*
X120253803Y-214439684D01*
X120277007Y-214445496D01*
X120299529Y-214453554D01*
X120321153Y-214463782D01*
X120341670Y-214476079D01*
X120360883Y-214490329D01*
X120378607Y-214506393D01*
X120394671Y-214524117D01*
X120408921Y-214543330D01*
X120421218Y-214563847D01*
X120431446Y-214585471D01*
X120439504Y-214607993D01*
X120445316Y-214631197D01*
X120448826Y-214654858D01*
X120450000Y-214678750D01*
X120450000Y-215166250D01*
X120448826Y-215190142D01*
X120445316Y-215213803D01*
X120439504Y-215237007D01*
X120431446Y-215259529D01*
X120421218Y-215281153D01*
X120408921Y-215301670D01*
X120394671Y-215320883D01*
X120378607Y-215338607D01*
X120360883Y-215354671D01*
X120341670Y-215368921D01*
X120321153Y-215381218D01*
X120299529Y-215391446D01*
X120277007Y-215399504D01*
X120253803Y-215405316D01*
X120230142Y-215408826D01*
X120206250Y-215410000D01*
X119293750Y-215410000D01*
X119269858Y-215408826D01*
X119246197Y-215405316D01*
X119222993Y-215399504D01*
X119200471Y-215391446D01*
X119178847Y-215381218D01*
X119158330Y-215368921D01*
X119139117Y-215354671D01*
X119121393Y-215338607D01*
X119105329Y-215320883D01*
X119091079Y-215301670D01*
X119078782Y-215281153D01*
X119068554Y-215259529D01*
X119060496Y-215237007D01*
X119054684Y-215213803D01*
X119051174Y-215190142D01*
X119050000Y-215166250D01*
X119050000Y-214678750D01*
X119051174Y-214654858D01*
X119054684Y-214631197D01*
X119060496Y-214607993D01*
X119068554Y-214585471D01*
X119078782Y-214563847D01*
X119091079Y-214543330D01*
X119105329Y-214524117D01*
X119121393Y-214506393D01*
X119139117Y-214490329D01*
X119158330Y-214476079D01*
X119178847Y-214463782D01*
X119200471Y-214453554D01*
X119222993Y-214445496D01*
X119246197Y-214439684D01*
X119269858Y-214436174D01*
X119293750Y-214435000D01*
X120206250Y-214435000D01*
X120230142Y-214436174D01*
G37*
G04 #@! TD.AperFunction*
G04 #@! TA.AperFunction,SMDPad,CuDef*
G36*
X114862706Y-217405084D02*
G01*
X114886367Y-217408594D01*
X114909571Y-217414406D01*
X114932093Y-217422464D01*
X114953717Y-217432692D01*
X114974234Y-217444989D01*
X114993447Y-217459239D01*
X115011171Y-217475303D01*
X115027235Y-217493027D01*
X115041485Y-217512240D01*
X115053782Y-217532757D01*
X115064010Y-217554381D01*
X115072068Y-217576903D01*
X115077880Y-217600107D01*
X115081390Y-217623768D01*
X115082564Y-217647660D01*
X115082564Y-218560160D01*
X115081390Y-218584052D01*
X115077880Y-218607713D01*
X115072068Y-218630917D01*
X115064010Y-218653439D01*
X115053782Y-218675063D01*
X115041485Y-218695580D01*
X115027235Y-218714793D01*
X115011171Y-218732517D01*
X114993447Y-218748581D01*
X114974234Y-218762831D01*
X114953717Y-218775128D01*
X114932093Y-218785356D01*
X114909571Y-218793414D01*
X114886367Y-218799226D01*
X114862706Y-218802736D01*
X114838814Y-218803910D01*
X114351314Y-218803910D01*
X114327422Y-218802736D01*
X114303761Y-218799226D01*
X114280557Y-218793414D01*
X114258035Y-218785356D01*
X114236411Y-218775128D01*
X114215894Y-218762831D01*
X114196681Y-218748581D01*
X114178957Y-218732517D01*
X114162893Y-218714793D01*
X114148643Y-218695580D01*
X114136346Y-218675063D01*
X114126118Y-218653439D01*
X114118060Y-218630917D01*
X114112248Y-218607713D01*
X114108738Y-218584052D01*
X114107564Y-218560160D01*
X114107564Y-217647660D01*
X114108738Y-217623768D01*
X114112248Y-217600107D01*
X114118060Y-217576903D01*
X114126118Y-217554381D01*
X114136346Y-217532757D01*
X114148643Y-217512240D01*
X114162893Y-217493027D01*
X114178957Y-217475303D01*
X114196681Y-217459239D01*
X114215894Y-217444989D01*
X114236411Y-217432692D01*
X114258035Y-217422464D01*
X114280557Y-217414406D01*
X114303761Y-217408594D01*
X114327422Y-217405084D01*
X114351314Y-217403910D01*
X114838814Y-217403910D01*
X114862706Y-217405084D01*
G37*
G04 #@! TD.AperFunction*
G04 #@! TA.AperFunction,SMDPad,CuDef*
G36*
X112987706Y-217405084D02*
G01*
X113011367Y-217408594D01*
X113034571Y-217414406D01*
X113057093Y-217422464D01*
X113078717Y-217432692D01*
X113099234Y-217444989D01*
X113118447Y-217459239D01*
X113136171Y-217475303D01*
X113152235Y-217493027D01*
X113166485Y-217512240D01*
X113178782Y-217532757D01*
X113189010Y-217554381D01*
X113197068Y-217576903D01*
X113202880Y-217600107D01*
X113206390Y-217623768D01*
X113207564Y-217647660D01*
X113207564Y-218560160D01*
X113206390Y-218584052D01*
X113202880Y-218607713D01*
X113197068Y-218630917D01*
X113189010Y-218653439D01*
X113178782Y-218675063D01*
X113166485Y-218695580D01*
X113152235Y-218714793D01*
X113136171Y-218732517D01*
X113118447Y-218748581D01*
X113099234Y-218762831D01*
X113078717Y-218775128D01*
X113057093Y-218785356D01*
X113034571Y-218793414D01*
X113011367Y-218799226D01*
X112987706Y-218802736D01*
X112963814Y-218803910D01*
X112476314Y-218803910D01*
X112452422Y-218802736D01*
X112428761Y-218799226D01*
X112405557Y-218793414D01*
X112383035Y-218785356D01*
X112361411Y-218775128D01*
X112340894Y-218762831D01*
X112321681Y-218748581D01*
X112303957Y-218732517D01*
X112287893Y-218714793D01*
X112273643Y-218695580D01*
X112261346Y-218675063D01*
X112251118Y-218653439D01*
X112243060Y-218630917D01*
X112237248Y-218607713D01*
X112233738Y-218584052D01*
X112232564Y-218560160D01*
X112232564Y-217647660D01*
X112233738Y-217623768D01*
X112237248Y-217600107D01*
X112243060Y-217576903D01*
X112251118Y-217554381D01*
X112261346Y-217532757D01*
X112273643Y-217512240D01*
X112287893Y-217493027D01*
X112303957Y-217475303D01*
X112321681Y-217459239D01*
X112340894Y-217444989D01*
X112361411Y-217432692D01*
X112383035Y-217422464D01*
X112405557Y-217414406D01*
X112428761Y-217408594D01*
X112452422Y-217405084D01*
X112476314Y-217403910D01*
X112963814Y-217403910D01*
X112987706Y-217405084D01*
G37*
G04 #@! TD.AperFunction*
D11*
X119697500Y-196215000D03*
X113347500Y-198755000D03*
X95885000Y-177165000D03*
X89535000Y-179705000D03*
X129222500Y-215265000D03*
X122872500Y-217805000D03*
X148272500Y-215265000D03*
X141922500Y-217805000D03*
D16*
X136207500Y-218695000D03*
X136207500Y-221995000D03*
D11*
X167322500Y-215265000D03*
X160972500Y-217805000D03*
X224472500Y-215265000D03*
X218122500Y-217805000D03*
X262572500Y-215265000D03*
X256222500Y-217805000D03*
X253047500Y-196215000D03*
X246697500Y-198755000D03*
X207803750Y-234315000D03*
X201453750Y-236855000D03*
X117316250Y-234315000D03*
X110966250Y-236855000D03*
D16*
X105251250Y-202945000D03*
X105251250Y-199645000D03*
D11*
X212566250Y-234315000D03*
X206216250Y-236855000D03*
X298291250Y-234315000D03*
X291941250Y-236855000D03*
X276860000Y-234315000D03*
X270510000Y-236855000D03*
X245903750Y-234315000D03*
X239553750Y-236855000D03*
X174466250Y-234315000D03*
X168116250Y-236855000D03*
X138747500Y-234315000D03*
X132397500Y-236855000D03*
X319722500Y-215265000D03*
X313372500Y-217805000D03*
X281622500Y-215265000D03*
X275272500Y-217805000D03*
X243522500Y-215265000D03*
X237172500Y-217805000D03*
X205422500Y-215265000D03*
X199072500Y-217805000D03*
X186372500Y-215265000D03*
X180022500Y-217805000D03*
X103028750Y-215265000D03*
X96678750Y-217805000D03*
X314960000Y-196215000D03*
X308610000Y-198755000D03*
X291147500Y-196215000D03*
X284797500Y-198755000D03*
X272097500Y-196215000D03*
X265747500Y-198755000D03*
X233997500Y-196215000D03*
X227647500Y-198755000D03*
X214947500Y-196215000D03*
X208597500Y-198755000D03*
X195897500Y-196215000D03*
X189547500Y-198755000D03*
X176847500Y-196215000D03*
X170497500Y-198755000D03*
X157797500Y-196215000D03*
X151447500Y-198755000D03*
X138747500Y-196215000D03*
X132397500Y-198755000D03*
X91916250Y-198755000D03*
X98266250Y-196215000D03*
X312578750Y-177165000D03*
X306228750Y-179705000D03*
X286385000Y-177165000D03*
X280035000Y-179705000D03*
X267335000Y-177165000D03*
X260985000Y-179705000D03*
X248285000Y-177165000D03*
X241935000Y-179705000D03*
X229235000Y-177165000D03*
X222885000Y-179705000D03*
X210185000Y-177165000D03*
X203835000Y-179705000D03*
X191135000Y-177165000D03*
X184785000Y-179705000D03*
X172085000Y-177165000D03*
X165735000Y-179705000D03*
X153035000Y-177165000D03*
X146685000Y-179705000D03*
X133985000Y-177165000D03*
X127635000Y-179705000D03*
X114935000Y-177165000D03*
X108585000Y-179705000D03*
D16*
X304938750Y-241045000D03*
X304938750Y-237745000D03*
X285036000Y-241045000D03*
X285036000Y-237745000D03*
X258842250Y-241045000D03*
X258842250Y-237745000D03*
X226695250Y-241045000D03*
X226695250Y-237745000D03*
X188595250Y-241045000D03*
X188595250Y-237745000D03*
X154064000Y-241045000D03*
X154064000Y-237745000D03*
X125492250Y-241045000D03*
X125492250Y-237745000D03*
X325120000Y-221995000D03*
X325120000Y-218695000D03*
X307657500Y-221995000D03*
X307657500Y-218695000D03*
X288607500Y-221995000D03*
X288607500Y-218695000D03*
X269557500Y-221995000D03*
X269557500Y-218695000D03*
X250507500Y-221995000D03*
X250507500Y-218695000D03*
X231457500Y-221995000D03*
X231457500Y-218695000D03*
X212407500Y-221995000D03*
X212407500Y-218695000D03*
X193357500Y-221995000D03*
X193357500Y-218695000D03*
X174307500Y-221995000D03*
X174307500Y-218695000D03*
X155257500Y-221995000D03*
X155257500Y-218695000D03*
X103770000Y-225640000D03*
X103770000Y-222340000D03*
X322739000Y-199645000D03*
X322739000Y-202945000D03*
X300514000Y-202945000D03*
X300514000Y-199645000D03*
X279082500Y-202945000D03*
X279082500Y-199645000D03*
X260032500Y-202945000D03*
X260032500Y-199645000D03*
X240982500Y-202945000D03*
X240982500Y-199645000D03*
X221932500Y-199645000D03*
X221932500Y-202945000D03*
X202882500Y-199645000D03*
X202882500Y-202945000D03*
X183832500Y-199645000D03*
X183832500Y-202945000D03*
X164782500Y-199645000D03*
X164782500Y-202945000D03*
X145732500Y-199645000D03*
X145732500Y-202945000D03*
X126682500Y-199645000D03*
X126682500Y-202945000D03*
X320914000Y-180595000D03*
X320914000Y-183895000D03*
X296941750Y-180595000D03*
X296941750Y-183895000D03*
X274320000Y-180595000D03*
X274320000Y-183895000D03*
X255270000Y-180595000D03*
X255270000Y-183895000D03*
X236220000Y-180595000D03*
X236220000Y-183895000D03*
X217170000Y-180595000D03*
X217170000Y-183895000D03*
X198120000Y-183895000D03*
X198120000Y-180595000D03*
X179070000Y-180595000D03*
X179070000Y-183895000D03*
X160020000Y-183895000D03*
X160020000Y-180595000D03*
X140970000Y-183895000D03*
X140970000Y-180595000D03*
X121920000Y-180595000D03*
X121920000Y-183895000D03*
X102870000Y-180595000D03*
X102870000Y-183895000D03*
D17*
X109720064Y-214047660D03*
X116863814Y-218016410D03*
X111307564Y-218016410D03*
X112860000Y-206072500D03*
X118236250Y-217436250D03*
X119245064Y-208794936D03*
D18*
X108195064Y-212750160D02*
X106495064Y-211050160D01*
X108195065Y-213250160D02*
X108195064Y-212750160D01*
X106407564Y-210962660D02*
X106495064Y-211050160D01*
X106407564Y-208975160D02*
X106407564Y-210962660D01*
X108282563Y-213337659D02*
X108195065Y-213250160D01*
X108282564Y-215325160D02*
X108282563Y-213337659D01*
X108228813Y-213216410D02*
X108195064Y-213250160D01*
X111123814Y-213250160D02*
X111150065Y-213276410D01*
X108195064Y-213250160D02*
X111123814Y-213250160D01*
X117825064Y-210276410D02*
X116487565Y-210276410D01*
X116487565Y-210276410D02*
X114487564Y-212276411D01*
X116487564Y-214276411D02*
X114487564Y-212276411D01*
X117825064Y-214276410D02*
X116487564Y-214276411D01*
X111150065Y-213276410D02*
X113487564Y-213276410D01*
X113487564Y-213276410D02*
X114487564Y-212276411D01*
X111969974Y-208921321D02*
X111969974Y-209758821D01*
X111969974Y-209758821D02*
X114487564Y-212276411D01*
X111987564Y-208938911D02*
X111969974Y-208921321D01*
X111957564Y-208908910D02*
X111987564Y-208938911D01*
X117827565Y-214278910D02*
X117825064Y-214276410D01*
X114570064Y-218128910D02*
X114595064Y-218103910D01*
X114570064Y-220203910D02*
X114570064Y-218128910D01*
X114987563Y-212776410D02*
X114487564Y-212276411D01*
X114987564Y-217684936D02*
X114987563Y-212776410D01*
X114595064Y-218077436D02*
X114987564Y-217684936D01*
X114595064Y-218103910D02*
X114595064Y-218077436D01*
X119103911Y-214276411D02*
X117825064Y-214276411D01*
X119750000Y-214922500D02*
X119103911Y-214276411D01*
X110267590Y-207724194D02*
X110575806Y-208032410D01*
X110267590Y-206369910D02*
X110267590Y-207724194D01*
X111250000Y-205387500D02*
X110267590Y-206369910D01*
X110575806Y-208032410D02*
X111769910Y-208032410D01*
X111987564Y-208250064D02*
X111987564Y-208938911D01*
X111769910Y-208032410D02*
X111987564Y-208250064D01*
X112492401Y-226515299D02*
X112492401Y-222201573D01*
X112492401Y-222201573D02*
X114104537Y-220589437D01*
X111660000Y-227347700D02*
X112492401Y-226515299D01*
X111660000Y-228552500D02*
X111660000Y-227347700D01*
X114104537Y-220589437D02*
X114590064Y-220103910D01*
X113827654Y-225740693D02*
X113827654Y-220866320D01*
X116229461Y-228142500D02*
X113827654Y-225740693D01*
X113827654Y-220866320D02*
X114104537Y-220589437D01*
X125650000Y-228142500D02*
X116229461Y-228142500D01*
X114987564Y-212776411D02*
X114487564Y-212276411D01*
X114987564Y-215613911D02*
X114987564Y-212776411D01*
X122445000Y-207570000D02*
X121845000Y-206970000D01*
X122445000Y-209220000D02*
X122445000Y-207570000D01*
X121388589Y-210276411D02*
X122445000Y-209220000D01*
X117825064Y-210276411D02*
X121388589Y-210276411D01*
X109991313Y-213776411D02*
X109720064Y-214047660D01*
X111150065Y-213776411D02*
X109991313Y-213776411D01*
X116487564Y-217640160D02*
X116863814Y-218016410D01*
X116487564Y-215613912D02*
X116487564Y-217640160D01*
X113987564Y-216724234D02*
X113987564Y-215613911D01*
X113340590Y-217371207D02*
X113987564Y-216724234D01*
X113340590Y-217970884D02*
X113340590Y-217371207D01*
X113207564Y-218103910D02*
X113340590Y-217970884D01*
X112720064Y-218103910D02*
X113207564Y-218103910D01*
X111395064Y-218103910D02*
X111307564Y-218016410D01*
X112720064Y-218103910D02*
X111395064Y-218103910D01*
X119050000Y-216797500D02*
X118750000Y-216497500D01*
X119750000Y-216797500D02*
X119050000Y-216797500D01*
X118750000Y-215701347D02*
X117825064Y-214776411D01*
X118750000Y-216497500D02*
X118750000Y-215701347D01*
X109851474Y-219472500D02*
X111307564Y-218016410D01*
X109500000Y-219472500D02*
X109851474Y-219472500D01*
X117825064Y-209776411D02*
X117888589Y-209776411D01*
X112487564Y-208401411D02*
X112487564Y-208938911D01*
X112487564Y-207800064D02*
X112487564Y-208401411D01*
X111950000Y-207262500D02*
X112487564Y-207800064D01*
X111250000Y-207262500D02*
X111950000Y-207262500D01*
X111670000Y-207262500D02*
X112860000Y-206072500D01*
X111250000Y-207262500D02*
X111670000Y-207262500D01*
X118875000Y-216797500D02*
X118236250Y-217436250D01*
X119750000Y-216797500D02*
X118875000Y-216797500D01*
X120013589Y-209776411D02*
X120570000Y-209220000D01*
X117825064Y-209776411D02*
X120013589Y-209776411D01*
X119670128Y-209220000D02*
X119245064Y-208794936D01*
X120570000Y-209220000D02*
X119670128Y-209220000D01*
X116863814Y-218582095D02*
X116863814Y-218016410D01*
X118080000Y-222400000D02*
X116863814Y-221183814D01*
X118080000Y-225070000D02*
X118080000Y-222400000D01*
X118889590Y-225879590D02*
X118080000Y-225070000D01*
X123854115Y-225879590D02*
X118889590Y-225879590D01*
X124591205Y-225142500D02*
X123854115Y-225879590D01*
X116863814Y-221183814D02*
X116863814Y-218582095D01*
X125650000Y-225142500D02*
X124591205Y-225142500D01*
D19*
X106407564Y-213337660D02*
X106495064Y-213250160D01*
X106407564Y-215325160D02*
X106407564Y-213337660D01*
X108733739Y-208018150D02*
X109027074Y-208311485D01*
X105638063Y-208336477D02*
X105956390Y-208018150D01*
X105956390Y-208018150D02*
X108733739Y-208018150D01*
X109027075Y-210119568D02*
X109436075Y-210528569D01*
X109027074Y-208311485D02*
X109027075Y-210119568D01*
X110612564Y-212276410D02*
X111150065Y-212276410D01*
X109545064Y-212276410D02*
X110612564Y-212276410D01*
X109436075Y-212167422D02*
X109545064Y-212276410D01*
X109436075Y-210528569D02*
X109436075Y-212167422D01*
X106495064Y-213250160D02*
X105980160Y-213250160D01*
X105638063Y-212908063D02*
X105638063Y-208336477D01*
X105980160Y-213250160D02*
X105638063Y-212908063D01*
X108282564Y-210962661D02*
X108195065Y-211050160D01*
X108282564Y-208975160D02*
X108282564Y-210962661D01*
X108220064Y-211050160D02*
X108195065Y-211050160D01*
X108892814Y-210893910D02*
X108351315Y-210893910D01*
X109052065Y-211053161D02*
X108892814Y-210893910D01*
X108351315Y-210893910D02*
X108195065Y-211050160D01*
X109052065Y-212460160D02*
X109052065Y-211053161D01*
X109368315Y-212776410D02*
X109052065Y-212460160D01*
X111150064Y-212776410D02*
X109368315Y-212776410D01*
X114487564Y-216803226D02*
X113750000Y-217540790D01*
X114487564Y-215613911D02*
X114487564Y-216803226D01*
X113750000Y-219068974D02*
X112715064Y-220103910D01*
X113750000Y-217540790D02*
X113750000Y-219068974D01*
X102870000Y-179891000D02*
X102870000Y-180595000D01*
X100144000Y-177165000D02*
X102870000Y-179891000D01*
X95885000Y-177165000D02*
X100144000Y-177165000D01*
D20*
X320085400Y-183895000D02*
X320914000Y-183895000D01*
X319497199Y-184483201D02*
X320085400Y-183895000D01*
X298358551Y-184483201D02*
X319497199Y-184483201D01*
X297770350Y-183895000D02*
X298358551Y-184483201D01*
X296941750Y-183895000D02*
X297770350Y-183895000D01*
X275148600Y-183895000D02*
X274320000Y-183895000D01*
X275827200Y-184573600D02*
X275148600Y-183895000D01*
X295434550Y-184573600D02*
X275827200Y-184573600D01*
X296113150Y-183895000D02*
X295434550Y-184573600D01*
X296941750Y-183895000D02*
X296113150Y-183895000D01*
X273491400Y-183895000D02*
X274320000Y-183895000D01*
X272903199Y-184483201D02*
X273491400Y-183895000D01*
X256098600Y-183895000D02*
X256686801Y-184483201D01*
X256686801Y-184483201D02*
X272903199Y-184483201D01*
X255270000Y-183895000D02*
X256098600Y-183895000D01*
X254441400Y-183895000D02*
X255270000Y-183895000D01*
X253853199Y-184483201D02*
X254441400Y-183895000D01*
X237636801Y-184483201D02*
X253853199Y-184483201D01*
X237048600Y-183895000D02*
X237636801Y-184483201D01*
X236220000Y-183895000D02*
X237048600Y-183895000D01*
X217998600Y-183895000D02*
X217170000Y-183895000D01*
X218586801Y-184483201D02*
X217998600Y-183895000D01*
X234803199Y-184483201D02*
X218586801Y-184483201D01*
X235391400Y-183895000D02*
X234803199Y-184483201D01*
X236220000Y-183895000D02*
X235391400Y-183895000D01*
X198948600Y-183895000D02*
X198120000Y-183895000D01*
X199536801Y-184483201D02*
X198948600Y-183895000D01*
X215753199Y-184483201D02*
X199536801Y-184483201D01*
X216341400Y-183895000D02*
X215753199Y-184483201D01*
X217170000Y-183895000D02*
X216341400Y-183895000D01*
X179898600Y-183895000D02*
X179070000Y-183895000D01*
X180577200Y-184573600D02*
X179898600Y-183895000D01*
X196612800Y-184573600D02*
X180577200Y-184573600D01*
X197291400Y-183895000D02*
X196612800Y-184573600D01*
X198120000Y-183895000D02*
X197291400Y-183895000D01*
X160848600Y-183895000D02*
X160020000Y-183895000D01*
X161527200Y-184573600D02*
X160848600Y-183895000D01*
X177562800Y-184573600D02*
X161527200Y-184573600D01*
X178241400Y-183895000D02*
X177562800Y-184573600D01*
X179070000Y-183895000D02*
X178241400Y-183895000D01*
X159191400Y-183895000D02*
X160020000Y-183895000D01*
X142386801Y-184483201D02*
X158603199Y-184483201D01*
X141798600Y-183895000D02*
X142386801Y-184483201D01*
X158603199Y-184483201D02*
X159191400Y-183895000D01*
X140970000Y-183895000D02*
X141798600Y-183895000D01*
X122748600Y-183895000D02*
X121920000Y-183895000D01*
X139462800Y-184573600D02*
X123427200Y-184573600D01*
X123427200Y-184573600D02*
X122748600Y-183895000D01*
X140141400Y-183895000D02*
X139462800Y-184573600D01*
X140970000Y-183895000D02*
X140141400Y-183895000D01*
X103698600Y-183895000D02*
X102870000Y-183895000D01*
X104286801Y-184483201D02*
X103698600Y-183895000D01*
X120503199Y-184483201D02*
X104286801Y-184483201D01*
X121091400Y-183895000D02*
X120503199Y-184483201D01*
X121920000Y-183895000D02*
X121091400Y-183895000D01*
X101453199Y-184483201D02*
X102041400Y-183895000D01*
X89320000Y-186970000D02*
X91820000Y-184470000D01*
X92570000Y-184470000D02*
X91820000Y-184470000D01*
X92570000Y-184470000D02*
X101453199Y-184483201D01*
X102041400Y-183895000D02*
X102870000Y-183895000D01*
X91888231Y-207288231D02*
X89320000Y-204720000D01*
X109870881Y-209931114D02*
X109870881Y-208123032D01*
X110165993Y-210226226D02*
X109870881Y-209931114D01*
X110165993Y-211065993D02*
X110165993Y-210226226D01*
X109870881Y-208123032D02*
X109036081Y-207288231D01*
X110376411Y-211276411D02*
X110165993Y-211065993D01*
X109036081Y-207288231D02*
X91888231Y-207288231D01*
X111150064Y-211276411D02*
X110376411Y-211276411D01*
X89320000Y-204720000D02*
X89320000Y-186970000D01*
D19*
X121920000Y-179891000D02*
X121920000Y-180595000D01*
X119194000Y-177165000D02*
X121920000Y-179891000D01*
X114935000Y-177165000D02*
X119194000Y-177165000D01*
D20*
X125853900Y-202945000D02*
X126682500Y-202945000D01*
X125265699Y-203533201D02*
X125853900Y-202945000D01*
X106668051Y-203533201D02*
X125265699Y-203533201D01*
X106079850Y-202945000D02*
X106668051Y-203533201D01*
X105251250Y-202945000D02*
X106079850Y-202945000D01*
X144903900Y-202945000D02*
X145732500Y-202945000D01*
X144315699Y-203533201D02*
X144903900Y-202945000D01*
X128099301Y-203533201D02*
X144315699Y-203533201D01*
X127511100Y-202945000D02*
X128099301Y-203533201D01*
X126682500Y-202945000D02*
X127511100Y-202945000D01*
X163953900Y-202945000D02*
X164782500Y-202945000D01*
X163275300Y-203623600D02*
X163953900Y-202945000D01*
X147239700Y-203623600D02*
X163275300Y-203623600D01*
X146561100Y-202945000D02*
X147239700Y-203623600D01*
X145732500Y-202945000D02*
X146561100Y-202945000D01*
X183003900Y-202945000D02*
X183832500Y-202945000D01*
X182415699Y-203533201D02*
X183003900Y-202945000D01*
X165611100Y-202945000D02*
X166199301Y-203533201D01*
X166199301Y-203533201D02*
X182415699Y-203533201D01*
X164782500Y-202945000D02*
X165611100Y-202945000D01*
X201465699Y-203533201D02*
X202053900Y-202945000D01*
X185249301Y-203533201D02*
X201465699Y-203533201D01*
X184661100Y-202945000D02*
X185249301Y-203533201D01*
X202053900Y-202945000D02*
X202882500Y-202945000D01*
X183832500Y-202945000D02*
X184661100Y-202945000D01*
X221103900Y-202945000D02*
X221932500Y-202945000D01*
X220515699Y-203533201D02*
X221103900Y-202945000D01*
X204299301Y-203533201D02*
X220515699Y-203533201D01*
X203711100Y-202945000D02*
X204299301Y-203533201D01*
X202882500Y-202945000D02*
X203711100Y-202945000D01*
X239565699Y-203533201D02*
X240153900Y-202945000D01*
X223349301Y-203533201D02*
X239565699Y-203533201D01*
X222761100Y-202945000D02*
X223349301Y-203533201D01*
X240153900Y-202945000D02*
X240982500Y-202945000D01*
X221932500Y-202945000D02*
X222761100Y-202945000D01*
X258615699Y-203533201D02*
X259203900Y-202945000D01*
X242399301Y-203533201D02*
X258615699Y-203533201D01*
X241811100Y-202945000D02*
X242399301Y-203533201D01*
X259203900Y-202945000D02*
X260032500Y-202945000D01*
X240982500Y-202945000D02*
X241811100Y-202945000D01*
X278253900Y-202945000D02*
X279082500Y-202945000D01*
X261449301Y-203533201D02*
X277665699Y-203533201D01*
X260861100Y-202945000D02*
X261449301Y-203533201D01*
X277665699Y-203533201D02*
X278253900Y-202945000D01*
X260032500Y-202945000D02*
X260861100Y-202945000D01*
X299097199Y-203533201D02*
X299685400Y-202945000D01*
X299685400Y-202945000D02*
X300514000Y-202945000D01*
X280499301Y-203533201D02*
X299097199Y-203533201D01*
X279911100Y-202945000D02*
X280499301Y-203533201D01*
X279082500Y-202945000D02*
X279911100Y-202945000D01*
X301342600Y-202945000D02*
X300514000Y-202945000D01*
X302021200Y-203623600D02*
X301342600Y-202945000D01*
X321231800Y-203623600D02*
X302021200Y-203623600D01*
X321910400Y-202945000D02*
X321231800Y-203623600D01*
X322739000Y-202945000D02*
X321910400Y-202945000D01*
X124693260Y-204105640D02*
X125265699Y-203533201D01*
X118085936Y-204105640D02*
X124693260Y-204105640D01*
X113987564Y-208204012D02*
X118085936Y-204105640D01*
X113987564Y-208938911D02*
X113987564Y-208204012D01*
D19*
X138244000Y-177165000D02*
X140970000Y-179891000D01*
X133985000Y-177165000D02*
X138244000Y-177165000D01*
X140970000Y-179891000D02*
X140970000Y-180595000D01*
D20*
X153840699Y-222583201D02*
X137624301Y-222583201D01*
X154428900Y-221995000D02*
X153840699Y-222583201D01*
X137036100Y-221995000D02*
X136207500Y-221995000D01*
X137624301Y-222583201D02*
X137036100Y-221995000D01*
X155257500Y-221995000D02*
X154428900Y-221995000D01*
X173478900Y-221995000D02*
X174307500Y-221995000D01*
X172890699Y-222583201D02*
X173478900Y-221995000D01*
X156674301Y-222583201D02*
X172890699Y-222583201D01*
X156086100Y-221995000D02*
X156674301Y-222583201D01*
X155257500Y-221995000D02*
X156086100Y-221995000D01*
X192528900Y-221995000D02*
X193357500Y-221995000D01*
X191940699Y-222583201D02*
X192528900Y-221995000D01*
X175724301Y-222583201D02*
X191940699Y-222583201D01*
X175136100Y-221995000D02*
X175724301Y-222583201D01*
X174307500Y-221995000D02*
X175136100Y-221995000D01*
X210990699Y-222583201D02*
X211578900Y-221995000D01*
X194774301Y-222583201D02*
X210990699Y-222583201D01*
X211578900Y-221995000D02*
X212407500Y-221995000D01*
X194186100Y-221995000D02*
X194774301Y-222583201D01*
X193357500Y-221995000D02*
X194186100Y-221995000D01*
X230628900Y-221995000D02*
X231457500Y-221995000D01*
X230040699Y-222583201D02*
X230628900Y-221995000D01*
X213824301Y-222583201D02*
X230040699Y-222583201D01*
X213236100Y-221995000D02*
X213824301Y-222583201D01*
X212407500Y-221995000D02*
X213236100Y-221995000D01*
X249678900Y-221995000D02*
X250507500Y-221995000D01*
X249090699Y-222583201D02*
X249678900Y-221995000D01*
X232874301Y-222583201D02*
X249090699Y-222583201D01*
X232286100Y-221995000D02*
X232874301Y-222583201D01*
X231457500Y-221995000D02*
X232286100Y-221995000D01*
X268728900Y-221995000D02*
X269557500Y-221995000D01*
X268140699Y-222583201D02*
X268728900Y-221995000D01*
X251924301Y-222583201D02*
X268140699Y-222583201D01*
X251336100Y-221995000D02*
X251924301Y-222583201D01*
X250507500Y-221995000D02*
X251336100Y-221995000D01*
X270386100Y-221995000D02*
X269557500Y-221995000D01*
X270974301Y-222583201D02*
X270386100Y-221995000D01*
X287190699Y-222583201D02*
X270974301Y-222583201D01*
X287778900Y-221995000D02*
X287190699Y-222583201D01*
X288607500Y-221995000D02*
X287778900Y-221995000D01*
X306828900Y-221995000D02*
X307657500Y-221995000D01*
X306240699Y-222583201D02*
X306828900Y-221995000D01*
X289436100Y-221995000D02*
X290024301Y-222583201D01*
X290024301Y-222583201D02*
X306240699Y-222583201D01*
X288607500Y-221995000D02*
X289436100Y-221995000D01*
X324291400Y-221995000D02*
X325120000Y-221995000D01*
X323612800Y-222673600D02*
X324291400Y-221995000D01*
X309164700Y-222673600D02*
X323612800Y-222673600D01*
X308486100Y-221995000D02*
X309164700Y-222673600D01*
X307657500Y-221995000D02*
X308486100Y-221995000D01*
X126045699Y-230994301D02*
X135045000Y-221995000D01*
X135045000Y-221995000D02*
X136207500Y-221995000D01*
X106534559Y-230994301D02*
X126045699Y-230994301D01*
X103770000Y-228229742D02*
X106534559Y-230994301D01*
X103770000Y-225640000D02*
X103770000Y-228229742D01*
X117508115Y-217707145D02*
X116987564Y-217186594D01*
X117508115Y-218911681D02*
X117508115Y-217707145D01*
X121179635Y-222583201D02*
X117508115Y-218911681D01*
X116987564Y-217141130D02*
X116987564Y-215613911D01*
X134456799Y-222583201D02*
X121179635Y-222583201D01*
X116987564Y-217186594D02*
X116987564Y-217141130D01*
X135045000Y-221995000D02*
X134456799Y-222583201D01*
D19*
X160020000Y-179891000D02*
X160020000Y-180595000D01*
X157294000Y-177165000D02*
X160020000Y-179891000D01*
X153035000Y-177165000D02*
X157294000Y-177165000D01*
X179070000Y-179891000D02*
X179070000Y-180595000D01*
X176344000Y-177165000D02*
X179070000Y-179891000D01*
X172085000Y-177165000D02*
X176344000Y-177165000D01*
X198120000Y-179891000D02*
X198120000Y-180595000D01*
X195394000Y-177165000D02*
X198120000Y-179891000D01*
X191135000Y-177165000D02*
X195394000Y-177165000D01*
X217170000Y-179891000D02*
X217170000Y-180595000D01*
X214444000Y-177165000D02*
X217170000Y-179891000D01*
X210185000Y-177165000D02*
X214444000Y-177165000D01*
D20*
X304110150Y-241045000D02*
X304938750Y-241045000D01*
X303521949Y-241633201D02*
X304110150Y-241045000D01*
X286452801Y-241633201D02*
X303521949Y-241633201D01*
X285864600Y-241045000D02*
X286452801Y-241633201D01*
X285036000Y-241045000D02*
X285864600Y-241045000D01*
X259670850Y-241045000D02*
X258842250Y-241045000D01*
X260259051Y-241633201D02*
X259670850Y-241045000D01*
X283619199Y-241633201D02*
X260259051Y-241633201D01*
X284207400Y-241045000D02*
X283619199Y-241633201D01*
X285036000Y-241045000D02*
X284207400Y-241045000D01*
X227523850Y-241045000D02*
X226695250Y-241045000D01*
X257425449Y-241633201D02*
X228112051Y-241633201D01*
X228112051Y-241633201D02*
X227523850Y-241045000D01*
X258013650Y-241045000D02*
X257425449Y-241633201D01*
X258842250Y-241045000D02*
X258013650Y-241045000D01*
X190102450Y-241723600D02*
X189423850Y-241045000D01*
X225188050Y-241723600D02*
X190102450Y-241723600D01*
X225866650Y-241045000D02*
X225188050Y-241723600D01*
X189423850Y-241045000D02*
X188595250Y-241045000D01*
X226695250Y-241045000D02*
X225866650Y-241045000D01*
X154892600Y-241045000D02*
X154064000Y-241045000D01*
X155571200Y-241723600D02*
X154892600Y-241045000D01*
X187088050Y-241723600D02*
X155571200Y-241723600D01*
X187766650Y-241045000D02*
X187088050Y-241723600D01*
X188595250Y-241045000D02*
X187766650Y-241045000D01*
X126320850Y-241045000D02*
X125492250Y-241045000D01*
X126909051Y-241633201D02*
X126320850Y-241045000D01*
X152647199Y-241633201D02*
X126909051Y-241633201D01*
X153235400Y-241045000D02*
X152647199Y-241633201D01*
X154064000Y-241045000D02*
X153235400Y-241045000D01*
X124663650Y-241045000D02*
X125492250Y-241045000D01*
X124075449Y-241633201D02*
X124663650Y-241045000D01*
X92233201Y-241633201D02*
X124075449Y-241633201D01*
X89320000Y-238720000D02*
X92233201Y-241633201D01*
X91893160Y-207646840D02*
X89320000Y-210220000D01*
X109398382Y-208157683D02*
X108887540Y-207646840D01*
X108887540Y-207646840D02*
X91893160Y-207646840D01*
X109398383Y-209965766D02*
X109398382Y-208157683D01*
X109807384Y-210374767D02*
X109398383Y-209965766D01*
X110113796Y-211776411D02*
X109807385Y-211470000D01*
X109807385Y-211470000D02*
X109807384Y-210374767D01*
X111150064Y-211776411D02*
X110113796Y-211776411D01*
X89320000Y-210220000D02*
X89320000Y-238720000D01*
D19*
X236220000Y-179891000D02*
X236220000Y-180595000D01*
X233494000Y-177165000D02*
X236220000Y-179891000D01*
X229235000Y-177165000D02*
X233494000Y-177165000D01*
X255270000Y-179891000D02*
X255270000Y-180595000D01*
X252544000Y-177165000D02*
X255270000Y-179891000D01*
X248285000Y-177165000D02*
X252544000Y-177165000D01*
X274320000Y-179891000D02*
X274320000Y-180595000D01*
X271594000Y-177165000D02*
X274320000Y-179891000D01*
X267335000Y-177165000D02*
X271594000Y-177165000D01*
X296941750Y-179891000D02*
X296941750Y-180595000D01*
X294215750Y-177165000D02*
X296941750Y-179891000D01*
X286385000Y-177165000D02*
X294215750Y-177165000D01*
X320914000Y-179891000D02*
X320914000Y-180595000D01*
X318188000Y-177165000D02*
X320914000Y-179891000D01*
X312578750Y-177165000D02*
X318188000Y-177165000D01*
X105251250Y-198941000D02*
X105251250Y-199645000D01*
X102525250Y-196215000D02*
X105251250Y-198941000D01*
X98266250Y-196215000D02*
X102525250Y-196215000D01*
X126682500Y-198941000D02*
X126682500Y-199645000D01*
X123956500Y-196215000D02*
X126682500Y-198941000D01*
X119697500Y-196215000D02*
X123956500Y-196215000D01*
X145732500Y-198941000D02*
X145732500Y-199645000D01*
X143006500Y-196215000D02*
X145732500Y-198941000D01*
X138747500Y-196215000D02*
X143006500Y-196215000D01*
X164782500Y-198941000D02*
X164782500Y-199645000D01*
X162056500Y-196215000D02*
X164782500Y-198941000D01*
X157797500Y-196215000D02*
X162056500Y-196215000D01*
X183832500Y-198941000D02*
X183832500Y-199645000D01*
X181106500Y-196215000D02*
X183832500Y-198941000D01*
X176847500Y-196215000D02*
X181106500Y-196215000D01*
X202882500Y-198941000D02*
X202882500Y-199645000D01*
X200156500Y-196215000D02*
X202882500Y-198941000D01*
X195897500Y-196215000D02*
X200156500Y-196215000D01*
X221932500Y-198941000D02*
X221932500Y-199645000D01*
X219206500Y-196215000D02*
X221932500Y-198941000D01*
X214947500Y-196215000D02*
X219206500Y-196215000D01*
X240982500Y-198941000D02*
X240982500Y-199645000D01*
X238256500Y-196215000D02*
X240982500Y-198941000D01*
X233997500Y-196215000D02*
X238256500Y-196215000D01*
X260032500Y-198941000D02*
X260032500Y-199645000D01*
X257306500Y-196215000D02*
X260032500Y-198941000D01*
X253047500Y-196215000D02*
X257306500Y-196215000D01*
X276356500Y-196215000D02*
X279082500Y-198941000D01*
X272097500Y-196215000D02*
X276356500Y-196215000D01*
X279082500Y-198941000D02*
X279082500Y-199645000D01*
X300514000Y-198941000D02*
X300514000Y-199645000D01*
X297788000Y-196215000D02*
X300514000Y-198941000D01*
X291147500Y-196215000D02*
X297788000Y-196215000D01*
X322739000Y-198941000D02*
X322739000Y-199645000D01*
X320013000Y-196215000D02*
X322739000Y-198941000D01*
X314960000Y-196215000D02*
X320013000Y-196215000D01*
X103770000Y-216006250D02*
X103028750Y-215265000D01*
X103770000Y-222340000D02*
X103770000Y-216006250D01*
X136207500Y-217991000D02*
X136207500Y-218695000D01*
X133481500Y-215265000D02*
X136207500Y-217991000D01*
X129222500Y-215265000D02*
X133481500Y-215265000D01*
X155257500Y-217991000D02*
X155257500Y-218695000D01*
X152531500Y-215265000D02*
X155257500Y-217991000D01*
X148272500Y-215265000D02*
X152531500Y-215265000D01*
X174307500Y-217991000D02*
X174307500Y-218695000D01*
X171581500Y-215265000D02*
X174307500Y-217991000D01*
X167322500Y-215265000D02*
X171581500Y-215265000D01*
X193357500Y-217991000D02*
X193357500Y-218695000D01*
X190631500Y-215265000D02*
X193357500Y-217991000D01*
X186372500Y-215265000D02*
X190631500Y-215265000D01*
X212407500Y-217991000D02*
X212407500Y-218695000D01*
X209681500Y-215265000D02*
X212407500Y-217991000D01*
X205422500Y-215265000D02*
X209681500Y-215265000D01*
X231457500Y-217991000D02*
X231457500Y-218695000D01*
X228731500Y-215265000D02*
X231457500Y-217991000D01*
X224472500Y-215265000D02*
X228731500Y-215265000D01*
X250507500Y-217991000D02*
X250507500Y-218695000D01*
X247781500Y-215265000D02*
X250507500Y-217991000D01*
X243522500Y-215265000D02*
X247781500Y-215265000D01*
X269557500Y-217991000D02*
X269557500Y-218695000D01*
X266831500Y-215265000D02*
X269557500Y-217991000D01*
X262572500Y-215265000D02*
X266831500Y-215265000D01*
X288607500Y-217991000D02*
X288607500Y-218695000D01*
X285881500Y-215265000D02*
X288607500Y-217991000D01*
X281622500Y-215265000D02*
X285881500Y-215265000D01*
X307657500Y-217991000D02*
X307657500Y-218695000D01*
X304931500Y-215265000D02*
X307657500Y-217991000D01*
X300672500Y-215265000D02*
X304931500Y-215265000D01*
X325120000Y-217991000D02*
X325120000Y-218695000D01*
X322394000Y-215265000D02*
X325120000Y-217991000D01*
X319722500Y-215265000D02*
X322394000Y-215265000D01*
X122766250Y-234315000D02*
X125492250Y-237041000D01*
X125492250Y-237041000D02*
X125492250Y-237745000D01*
X117316250Y-234315000D02*
X122766250Y-234315000D01*
X151338000Y-234315000D02*
X154064000Y-237041000D01*
X154064000Y-237041000D02*
X154064000Y-237745000D01*
X138747500Y-234315000D02*
X151338000Y-234315000D01*
X188595250Y-237041000D02*
X188595250Y-237745000D01*
X185869250Y-234315000D02*
X188595250Y-237041000D01*
X174466250Y-234315000D02*
X185869250Y-234315000D01*
X207803750Y-234315000D02*
X212566250Y-234315000D01*
X226695250Y-237041000D02*
X226695250Y-237745000D01*
X223969250Y-234315000D02*
X226695250Y-237041000D01*
X212566250Y-234315000D02*
X223969250Y-234315000D01*
X258842250Y-237041000D02*
X258842250Y-237745000D01*
X256116250Y-234315000D02*
X258842250Y-237041000D01*
X245903750Y-234315000D02*
X256116250Y-234315000D01*
X285036000Y-237041000D02*
X285036000Y-237745000D01*
X282310000Y-234315000D02*
X285036000Y-237041000D01*
X276860000Y-234315000D02*
X282310000Y-234315000D01*
X304938750Y-237041000D02*
X304938750Y-237745000D01*
X302212750Y-234315000D02*
X304938750Y-237041000D01*
X298291250Y-234315000D02*
X302212750Y-234315000D01*
X113487564Y-208938911D02*
X113487564Y-208178902D01*
X113487564Y-208178902D02*
X113616256Y-208050210D01*
X113616256Y-208050210D02*
X115023858Y-206642608D01*
X115023858Y-206642608D02*
X115026250Y-206640216D01*
X91916250Y-200345990D02*
X91916250Y-198755000D01*
X91916250Y-200816334D02*
X91916250Y-200345990D01*
X116754511Y-203904511D02*
X95004427Y-203904511D01*
X117070000Y-204220000D02*
X116754511Y-203904511D01*
X95004427Y-203904511D02*
X91916250Y-200816334D01*
X117070000Y-204596466D02*
X117070000Y-204220000D01*
X115023858Y-206642608D02*
X117070000Y-204596466D01*
X122872500Y-216214010D02*
X122872500Y-217805000D01*
X119934901Y-213276411D02*
X122872500Y-216214010D01*
X117825064Y-213276411D02*
X119934901Y-213276411D01*
X136893911Y-212776411D02*
X117825064Y-212776411D01*
X141922500Y-217805000D02*
X136893911Y-212776411D01*
X155443911Y-212276411D02*
X117825064Y-212276411D01*
X160972500Y-217805000D02*
X155443911Y-212276411D01*
X173993911Y-211776411D02*
X117825064Y-211776411D01*
X180022500Y-217805000D02*
X173993911Y-211776411D01*
X118362564Y-211276411D02*
X117825064Y-211276411D01*
X192543911Y-211276411D02*
X118362564Y-211276411D01*
X199072500Y-217805000D02*
X192543911Y-211276411D01*
X211093911Y-210776411D02*
X218122500Y-217805000D01*
X117825064Y-210776411D02*
X211093911Y-210776411D01*
X116487564Y-208401411D02*
X118875985Y-206012990D01*
X116487564Y-208938911D02*
X116487564Y-208401411D01*
X225380490Y-206012990D02*
X237172500Y-217805000D01*
X118875985Y-206012990D02*
X225380490Y-206012990D01*
X115987564Y-208358339D02*
X118716923Y-205628980D01*
X115987564Y-208938911D02*
X115987564Y-208358339D01*
X244046480Y-205628980D02*
X256222500Y-217805000D01*
X118716923Y-205628980D02*
X244046480Y-205628980D01*
X115487564Y-208315267D02*
X118557861Y-205244970D01*
X115487564Y-208938911D02*
X115487564Y-208315267D01*
X262712470Y-205244970D02*
X275272500Y-217805000D01*
X118557861Y-205244970D02*
X262712470Y-205244970D01*
X114987564Y-208272195D02*
X118398799Y-204860960D01*
X114987564Y-208938911D02*
X114987564Y-208272195D01*
X281378460Y-204860960D02*
X294322500Y-217805000D01*
X118398799Y-204860960D02*
X281378460Y-204860960D01*
X114487564Y-208229123D02*
X118239737Y-204476950D01*
X114487564Y-208938911D02*
X114487564Y-208229123D01*
X300044450Y-204476950D02*
X313372500Y-217805000D01*
X118239737Y-204476950D02*
X300044450Y-204476950D01*
X116720064Y-222120160D02*
X116720064Y-223145159D01*
X115987564Y-221387660D02*
X116720064Y-222120160D01*
X115987564Y-215613911D02*
X115987564Y-221387660D01*
X114810064Y-223145159D02*
X114810064Y-222120160D01*
X114810064Y-222120160D02*
X115487564Y-221442660D01*
X115487564Y-219021410D02*
X115487564Y-215613910D01*
X115487564Y-221442660D02*
X115487564Y-219021410D01*
D20*
X110612564Y-214276411D02*
X111150064Y-214276411D01*
X109500000Y-215388975D02*
X110612564Y-214276411D01*
X109500000Y-217422500D02*
X109500000Y-215388975D01*
X107960000Y-218262500D02*
X108800000Y-217422500D01*
X108800000Y-217422500D02*
X109500000Y-217422500D01*
X107960000Y-222352500D02*
X107960000Y-218262500D01*
D19*
X118956475Y-206970000D02*
X116987564Y-208938911D01*
X119795000Y-206970000D02*
X118956475Y-206970000D01*
D21*
X116722564Y-225770159D02*
X117304905Y-226352500D01*
X116722564Y-225195159D02*
X116722564Y-225770159D01*
X117304905Y-226352500D02*
X124050000Y-226352500D01*
X124260000Y-226142500D02*
X125650000Y-226142500D01*
X124050000Y-226352500D02*
X124260000Y-226142500D01*
X124360000Y-227142500D02*
X125650000Y-227142500D01*
X124081010Y-226863510D02*
X124360000Y-227142500D01*
X115903415Y-226863510D02*
X124081010Y-226863510D01*
X114810064Y-225770159D02*
X115903415Y-226863510D01*
X114810064Y-225195159D02*
X114810064Y-225770159D01*
D19*
G36*
X108322064Y-213123160D02*
G01*
X108342064Y-213123160D01*
X108342064Y-213377160D01*
X108322064Y-213377160D01*
X108322064Y-214426410D01*
X108409564Y-214513910D01*
X108409564Y-215198160D01*
X108429564Y-215198160D01*
X108429564Y-215452160D01*
X108409564Y-215452160D01*
X108409564Y-215472160D01*
X108155564Y-215472160D01*
X108155564Y-215452160D01*
X108135564Y-215452160D01*
X108135564Y-215198160D01*
X108155564Y-215198160D01*
X108155564Y-214148910D01*
X108068064Y-214061410D01*
X108068064Y-213377160D01*
X108048064Y-213377160D01*
X108048064Y-213123160D01*
X108068064Y-213123160D01*
X108068064Y-213103160D01*
X108322064Y-213103160D01*
X108322064Y-213123160D01*
G37*
X108322064Y-213123160D02*
X108342064Y-213123160D01*
X108342064Y-213377160D01*
X108322064Y-213377160D01*
X108322064Y-214426410D01*
X108409564Y-214513910D01*
X108409564Y-215198160D01*
X108429564Y-215198160D01*
X108429564Y-215452160D01*
X108409564Y-215452160D01*
X108409564Y-215472160D01*
X108155564Y-215472160D01*
X108155564Y-215452160D01*
X108135564Y-215452160D01*
X108135564Y-215198160D01*
X108155564Y-215198160D01*
X108155564Y-214148910D01*
X108068064Y-214061410D01*
X108068064Y-213377160D01*
X108048064Y-213377160D01*
X108048064Y-213123160D01*
X108068064Y-213123160D01*
X108068064Y-213103160D01*
X108322064Y-213103160D01*
X108322064Y-213123160D01*
G36*
X106534564Y-208848160D02*
G01*
X106554564Y-208848160D01*
X106554564Y-209102160D01*
X106534564Y-209102160D01*
X106534564Y-210151410D01*
X106622064Y-210238910D01*
X106622064Y-210923160D01*
X106642064Y-210923160D01*
X106642064Y-211177160D01*
X106622064Y-211177160D01*
X106622064Y-211197160D01*
X106400063Y-211197160D01*
X106400063Y-208828160D01*
X106534564Y-208828160D01*
X106534564Y-208848160D01*
G37*
X106534564Y-208848160D02*
X106554564Y-208848160D01*
X106554564Y-209102160D01*
X106534564Y-209102160D01*
X106534564Y-210151410D01*
X106622064Y-210238910D01*
X106622064Y-210923160D01*
X106642064Y-210923160D01*
X106642064Y-211177160D01*
X106622064Y-211177160D01*
X106622064Y-211197160D01*
X106400063Y-211197160D01*
X106400063Y-208828160D01*
X106534564Y-208828160D01*
X106534564Y-208848160D01*
M02*
