G04 #@! TF.GenerationSoftware,KiCad,Pcbnew,(5.1.8)-1*
G04 #@! TF.CreationDate,2021-02-07T18:58:11+03:00*
G04 #@! TF.ProjectId,Rynok40,52796e6f-6b34-4302-9e6b-696361645f70,rev?*
G04 #@! TF.SameCoordinates,Original*
G04 #@! TF.FileFunction,Soldermask,Bot*
G04 #@! TF.FilePolarity,Negative*
%FSLAX46Y46*%
G04 Gerber Fmt 4.6, Leading zero omitted, Abs format (unit mm)*
G04 Created by KiCad (PCBNEW (5.1.8)-1) date 2021-02-07 18:58:11*
%MOMM*%
%LPD*%
G01*
G04 APERTURE LIST*
%ADD10C,2.352000*%
%ADD11C,4.089800*%
%ADD12C,1.852000*%
%ADD13C,3.150000*%
%ADD14C,0.100000*%
G04 APERTURE END LIST*
D10*
X119697500Y-196215000D03*
D11*
X117157500Y-201295000D03*
D10*
X113347500Y-198755000D03*
D12*
X112077500Y-201295000D03*
X122237500Y-201295000D03*
D10*
X148272500Y-215265000D03*
D11*
X145732500Y-220345000D03*
D10*
X141922500Y-217805000D03*
D12*
X140652500Y-220345000D03*
X150812500Y-220345000D03*
D10*
X224472500Y-215265000D03*
D11*
X221932500Y-220345000D03*
D10*
X218122500Y-217805000D03*
D12*
X216852500Y-220345000D03*
X227012500Y-220345000D03*
D10*
X186372500Y-215265000D03*
D11*
X183832500Y-220345000D03*
D10*
X180022500Y-217805000D03*
D12*
X178752500Y-220345000D03*
X188912500Y-220345000D03*
G36*
G01*
X308257500Y-222496000D02*
X307057500Y-222496000D01*
G75*
G02*
X307006500Y-222445000I0J51000D01*
G01*
X307006500Y-221545000D01*
G75*
G02*
X307057500Y-221494000I51000J0D01*
G01*
X308257500Y-221494000D01*
G75*
G02*
X308308500Y-221545000I0J-51000D01*
G01*
X308308500Y-222445000D01*
G75*
G02*
X308257500Y-222496000I-51000J0D01*
G01*
G37*
G36*
G01*
X308257500Y-219196000D02*
X307057500Y-219196000D01*
G75*
G02*
X307006500Y-219145000I0J51000D01*
G01*
X307006500Y-218245000D01*
G75*
G02*
X307057500Y-218194000I51000J0D01*
G01*
X308257500Y-218194000D01*
G75*
G02*
X308308500Y-218245000I0J-51000D01*
G01*
X308308500Y-219145000D01*
G75*
G02*
X308257500Y-219196000I-51000J0D01*
G01*
G37*
X155575000Y-182245000D03*
X145415000Y-182245000D03*
D10*
X146685000Y-179705000D03*
D11*
X150495000Y-182245000D03*
D10*
X153035000Y-177165000D03*
X103028750Y-215265000D03*
D11*
X100488750Y-220345000D03*
D10*
X96678750Y-217805000D03*
D12*
X95408750Y-220345000D03*
X105568750Y-220345000D03*
D10*
X129222500Y-215265000D03*
D11*
X126682500Y-220345000D03*
D10*
X122872500Y-217805000D03*
D12*
X121602500Y-220345000D03*
X131762500Y-220345000D03*
D10*
X298291250Y-234315000D03*
D11*
X295751250Y-239395000D03*
D10*
X291941250Y-236855000D03*
D12*
X290671250Y-239395000D03*
X300831250Y-239395000D03*
D10*
X281622500Y-215265000D03*
D11*
X279082500Y-220345000D03*
D10*
X275272500Y-217805000D03*
D12*
X274002500Y-220345000D03*
X284162500Y-220345000D03*
D10*
X272097500Y-196215000D03*
D11*
X269557500Y-201295000D03*
D10*
X265747500Y-198755000D03*
D12*
X264477500Y-201295000D03*
X274637500Y-201295000D03*
D10*
X214947500Y-196215000D03*
D11*
X212407500Y-201295000D03*
D10*
X208597500Y-198755000D03*
D12*
X207327500Y-201295000D03*
X217487500Y-201295000D03*
D10*
X314960000Y-196215000D03*
D11*
X312420000Y-201295000D03*
D10*
X308610000Y-198755000D03*
D12*
X307340000Y-201295000D03*
X317500000Y-201295000D03*
D10*
X233997500Y-196215000D03*
D11*
X231457500Y-201295000D03*
D10*
X227647500Y-198755000D03*
D12*
X226377500Y-201295000D03*
X236537500Y-201295000D03*
D10*
X114935000Y-177165000D03*
D11*
X112395000Y-182245000D03*
D10*
X108585000Y-179705000D03*
D12*
X107315000Y-182245000D03*
X117475000Y-182245000D03*
D10*
X138747500Y-196215000D03*
D11*
X136207500Y-201295000D03*
D10*
X132397500Y-198755000D03*
D12*
X131127500Y-201295000D03*
X141287500Y-201295000D03*
G36*
G01*
X118325564Y-214952411D02*
X117324564Y-214952411D01*
G75*
G02*
X117236564Y-214864411I0J88000D01*
G01*
X117236564Y-214688411D01*
G75*
G02*
X117324564Y-214600411I88000J0D01*
G01*
X118325564Y-214600411D01*
G75*
G02*
X118413564Y-214688411I0J-88000D01*
G01*
X118413564Y-214864411D01*
G75*
G02*
X118325564Y-214952411I-88000J0D01*
G01*
G37*
G36*
G01*
X118325564Y-214452411D02*
X117324564Y-214452411D01*
G75*
G02*
X117236564Y-214364411I0J88000D01*
G01*
X117236564Y-214188411D01*
G75*
G02*
X117324564Y-214100411I88000J0D01*
G01*
X118325564Y-214100411D01*
G75*
G02*
X118413564Y-214188411I0J-88000D01*
G01*
X118413564Y-214364411D01*
G75*
G02*
X118325564Y-214452411I-88000J0D01*
G01*
G37*
G36*
G01*
X118325564Y-213952411D02*
X117324564Y-213952411D01*
G75*
G02*
X117236564Y-213864411I0J88000D01*
G01*
X117236564Y-213688411D01*
G75*
G02*
X117324564Y-213600411I88000J0D01*
G01*
X118325564Y-213600411D01*
G75*
G02*
X118413564Y-213688411I0J-88000D01*
G01*
X118413564Y-213864411D01*
G75*
G02*
X118325564Y-213952411I-88000J0D01*
G01*
G37*
G36*
G01*
X118325564Y-213452411D02*
X117324564Y-213452411D01*
G75*
G02*
X117236564Y-213364411I0J88000D01*
G01*
X117236564Y-213188411D01*
G75*
G02*
X117324564Y-213100411I88000J0D01*
G01*
X118325564Y-213100411D01*
G75*
G02*
X118413564Y-213188411I0J-88000D01*
G01*
X118413564Y-213364411D01*
G75*
G02*
X118325564Y-213452411I-88000J0D01*
G01*
G37*
G36*
G01*
X118325564Y-212952411D02*
X117324564Y-212952411D01*
G75*
G02*
X117236564Y-212864411I0J88000D01*
G01*
X117236564Y-212688411D01*
G75*
G02*
X117324564Y-212600411I88000J0D01*
G01*
X118325564Y-212600411D01*
G75*
G02*
X118413564Y-212688411I0J-88000D01*
G01*
X118413564Y-212864411D01*
G75*
G02*
X118325564Y-212952411I-88000J0D01*
G01*
G37*
G36*
G01*
X118325564Y-212452411D02*
X117324564Y-212452411D01*
G75*
G02*
X117236564Y-212364411I0J88000D01*
G01*
X117236564Y-212188411D01*
G75*
G02*
X117324564Y-212100411I88000J0D01*
G01*
X118325564Y-212100411D01*
G75*
G02*
X118413564Y-212188411I0J-88000D01*
G01*
X118413564Y-212364411D01*
G75*
G02*
X118325564Y-212452411I-88000J0D01*
G01*
G37*
G36*
G01*
X118325564Y-211952411D02*
X117324564Y-211952411D01*
G75*
G02*
X117236564Y-211864411I0J88000D01*
G01*
X117236564Y-211688411D01*
G75*
G02*
X117324564Y-211600411I88000J0D01*
G01*
X118325564Y-211600411D01*
G75*
G02*
X118413564Y-211688411I0J-88000D01*
G01*
X118413564Y-211864411D01*
G75*
G02*
X118325564Y-211952411I-88000J0D01*
G01*
G37*
G36*
G01*
X118325564Y-211452411D02*
X117324564Y-211452411D01*
G75*
G02*
X117236564Y-211364411I0J88000D01*
G01*
X117236564Y-211188411D01*
G75*
G02*
X117324564Y-211100411I88000J0D01*
G01*
X118325564Y-211100411D01*
G75*
G02*
X118413564Y-211188411I0J-88000D01*
G01*
X118413564Y-211364411D01*
G75*
G02*
X118325564Y-211452411I-88000J0D01*
G01*
G37*
G36*
G01*
X118325564Y-210952411D02*
X117324564Y-210952411D01*
G75*
G02*
X117236564Y-210864411I0J88000D01*
G01*
X117236564Y-210688411D01*
G75*
G02*
X117324564Y-210600411I88000J0D01*
G01*
X118325564Y-210600411D01*
G75*
G02*
X118413564Y-210688411I0J-88000D01*
G01*
X118413564Y-210864411D01*
G75*
G02*
X118325564Y-210952411I-88000J0D01*
G01*
G37*
G36*
G01*
X118325564Y-210452411D02*
X117324564Y-210452411D01*
G75*
G02*
X117236564Y-210364411I0J88000D01*
G01*
X117236564Y-210188411D01*
G75*
G02*
X117324564Y-210100411I88000J0D01*
G01*
X118325564Y-210100411D01*
G75*
G02*
X118413564Y-210188411I0J-88000D01*
G01*
X118413564Y-210364411D01*
G75*
G02*
X118325564Y-210452411I-88000J0D01*
G01*
G37*
G36*
G01*
X118325564Y-209952411D02*
X117324564Y-209952411D01*
G75*
G02*
X117236564Y-209864411I0J88000D01*
G01*
X117236564Y-209688411D01*
G75*
G02*
X117324564Y-209600411I88000J0D01*
G01*
X118325564Y-209600411D01*
G75*
G02*
X118413564Y-209688411I0J-88000D01*
G01*
X118413564Y-209864411D01*
G75*
G02*
X118325564Y-209952411I-88000J0D01*
G01*
G37*
G36*
G01*
X117075564Y-209527411D02*
X116899564Y-209527411D01*
G75*
G02*
X116811564Y-209439411I0J88000D01*
G01*
X116811564Y-208438411D01*
G75*
G02*
X116899564Y-208350411I88000J0D01*
G01*
X117075564Y-208350411D01*
G75*
G02*
X117163564Y-208438411I0J-88000D01*
G01*
X117163564Y-209439411D01*
G75*
G02*
X117075564Y-209527411I-88000J0D01*
G01*
G37*
G36*
G01*
X116575564Y-209527411D02*
X116399564Y-209527411D01*
G75*
G02*
X116311564Y-209439411I0J88000D01*
G01*
X116311564Y-208438411D01*
G75*
G02*
X116399564Y-208350411I88000J0D01*
G01*
X116575564Y-208350411D01*
G75*
G02*
X116663564Y-208438411I0J-88000D01*
G01*
X116663564Y-209439411D01*
G75*
G02*
X116575564Y-209527411I-88000J0D01*
G01*
G37*
G36*
G01*
X116075564Y-209527411D02*
X115899564Y-209527411D01*
G75*
G02*
X115811564Y-209439411I0J88000D01*
G01*
X115811564Y-208438411D01*
G75*
G02*
X115899564Y-208350411I88000J0D01*
G01*
X116075564Y-208350411D01*
G75*
G02*
X116163564Y-208438411I0J-88000D01*
G01*
X116163564Y-209439411D01*
G75*
G02*
X116075564Y-209527411I-88000J0D01*
G01*
G37*
G36*
G01*
X115575564Y-209527411D02*
X115399564Y-209527411D01*
G75*
G02*
X115311564Y-209439411I0J88000D01*
G01*
X115311564Y-208438411D01*
G75*
G02*
X115399564Y-208350411I88000J0D01*
G01*
X115575564Y-208350411D01*
G75*
G02*
X115663564Y-208438411I0J-88000D01*
G01*
X115663564Y-209439411D01*
G75*
G02*
X115575564Y-209527411I-88000J0D01*
G01*
G37*
G36*
G01*
X115075564Y-209527411D02*
X114899564Y-209527411D01*
G75*
G02*
X114811564Y-209439411I0J88000D01*
G01*
X114811564Y-208438411D01*
G75*
G02*
X114899564Y-208350411I88000J0D01*
G01*
X115075564Y-208350411D01*
G75*
G02*
X115163564Y-208438411I0J-88000D01*
G01*
X115163564Y-209439411D01*
G75*
G02*
X115075564Y-209527411I-88000J0D01*
G01*
G37*
G36*
G01*
X114575564Y-209527411D02*
X114399564Y-209527411D01*
G75*
G02*
X114311564Y-209439411I0J88000D01*
G01*
X114311564Y-208438411D01*
G75*
G02*
X114399564Y-208350411I88000J0D01*
G01*
X114575564Y-208350411D01*
G75*
G02*
X114663564Y-208438411I0J-88000D01*
G01*
X114663564Y-209439411D01*
G75*
G02*
X114575564Y-209527411I-88000J0D01*
G01*
G37*
G36*
G01*
X114075564Y-209527411D02*
X113899564Y-209527411D01*
G75*
G02*
X113811564Y-209439411I0J88000D01*
G01*
X113811564Y-208438411D01*
G75*
G02*
X113899564Y-208350411I88000J0D01*
G01*
X114075564Y-208350411D01*
G75*
G02*
X114163564Y-208438411I0J-88000D01*
G01*
X114163564Y-209439411D01*
G75*
G02*
X114075564Y-209527411I-88000J0D01*
G01*
G37*
G36*
G01*
X113575564Y-209527411D02*
X113399564Y-209527411D01*
G75*
G02*
X113311564Y-209439411I0J88000D01*
G01*
X113311564Y-208438411D01*
G75*
G02*
X113399564Y-208350411I88000J0D01*
G01*
X113575564Y-208350411D01*
G75*
G02*
X113663564Y-208438411I0J-88000D01*
G01*
X113663564Y-209439411D01*
G75*
G02*
X113575564Y-209527411I-88000J0D01*
G01*
G37*
G36*
G01*
X113075564Y-209527411D02*
X112899564Y-209527411D01*
G75*
G02*
X112811564Y-209439411I0J88000D01*
G01*
X112811564Y-208438411D01*
G75*
G02*
X112899564Y-208350411I88000J0D01*
G01*
X113075564Y-208350411D01*
G75*
G02*
X113163564Y-208438411I0J-88000D01*
G01*
X113163564Y-209439411D01*
G75*
G02*
X113075564Y-209527411I-88000J0D01*
G01*
G37*
G36*
G01*
X112575564Y-209527411D02*
X112399564Y-209527411D01*
G75*
G02*
X112311564Y-209439411I0J88000D01*
G01*
X112311564Y-208438411D01*
G75*
G02*
X112399564Y-208350411I88000J0D01*
G01*
X112575564Y-208350411D01*
G75*
G02*
X112663564Y-208438411I0J-88000D01*
G01*
X112663564Y-209439411D01*
G75*
G02*
X112575564Y-209527411I-88000J0D01*
G01*
G37*
G36*
G01*
X112075564Y-209527411D02*
X111899564Y-209527411D01*
G75*
G02*
X111811564Y-209439411I0J88000D01*
G01*
X111811564Y-208438411D01*
G75*
G02*
X111899564Y-208350411I88000J0D01*
G01*
X112075564Y-208350411D01*
G75*
G02*
X112163564Y-208438411I0J-88000D01*
G01*
X112163564Y-209439411D01*
G75*
G02*
X112075564Y-209527411I-88000J0D01*
G01*
G37*
G36*
G01*
X111650564Y-209952411D02*
X110649564Y-209952411D01*
G75*
G02*
X110561564Y-209864411I0J88000D01*
G01*
X110561564Y-209688411D01*
G75*
G02*
X110649564Y-209600411I88000J0D01*
G01*
X111650564Y-209600411D01*
G75*
G02*
X111738564Y-209688411I0J-88000D01*
G01*
X111738564Y-209864411D01*
G75*
G02*
X111650564Y-209952411I-88000J0D01*
G01*
G37*
G36*
G01*
X111650564Y-210452411D02*
X110649564Y-210452411D01*
G75*
G02*
X110561564Y-210364411I0J88000D01*
G01*
X110561564Y-210188411D01*
G75*
G02*
X110649564Y-210100411I88000J0D01*
G01*
X111650564Y-210100411D01*
G75*
G02*
X111738564Y-210188411I0J-88000D01*
G01*
X111738564Y-210364411D01*
G75*
G02*
X111650564Y-210452411I-88000J0D01*
G01*
G37*
G36*
G01*
X111650564Y-210952411D02*
X110649564Y-210952411D01*
G75*
G02*
X110561564Y-210864411I0J88000D01*
G01*
X110561564Y-210688411D01*
G75*
G02*
X110649564Y-210600411I88000J0D01*
G01*
X111650564Y-210600411D01*
G75*
G02*
X111738564Y-210688411I0J-88000D01*
G01*
X111738564Y-210864411D01*
G75*
G02*
X111650564Y-210952411I-88000J0D01*
G01*
G37*
G36*
G01*
X111650564Y-211452411D02*
X110649564Y-211452411D01*
G75*
G02*
X110561564Y-211364411I0J88000D01*
G01*
X110561564Y-211188411D01*
G75*
G02*
X110649564Y-211100411I88000J0D01*
G01*
X111650564Y-211100411D01*
G75*
G02*
X111738564Y-211188411I0J-88000D01*
G01*
X111738564Y-211364411D01*
G75*
G02*
X111650564Y-211452411I-88000J0D01*
G01*
G37*
G36*
G01*
X111650564Y-211952411D02*
X110649564Y-211952411D01*
G75*
G02*
X110561564Y-211864411I0J88000D01*
G01*
X110561564Y-211688411D01*
G75*
G02*
X110649564Y-211600411I88000J0D01*
G01*
X111650564Y-211600411D01*
G75*
G02*
X111738564Y-211688411I0J-88000D01*
G01*
X111738564Y-211864411D01*
G75*
G02*
X111650564Y-211952411I-88000J0D01*
G01*
G37*
G36*
G01*
X111650564Y-212452411D02*
X110649564Y-212452411D01*
G75*
G02*
X110561564Y-212364411I0J88000D01*
G01*
X110561564Y-212188411D01*
G75*
G02*
X110649564Y-212100411I88000J0D01*
G01*
X111650564Y-212100411D01*
G75*
G02*
X111738564Y-212188411I0J-88000D01*
G01*
X111738564Y-212364411D01*
G75*
G02*
X111650564Y-212452411I-88000J0D01*
G01*
G37*
G36*
G01*
X111650564Y-212952411D02*
X110649564Y-212952411D01*
G75*
G02*
X110561564Y-212864411I0J88000D01*
G01*
X110561564Y-212688411D01*
G75*
G02*
X110649564Y-212600411I88000J0D01*
G01*
X111650564Y-212600411D01*
G75*
G02*
X111738564Y-212688411I0J-88000D01*
G01*
X111738564Y-212864411D01*
G75*
G02*
X111650564Y-212952411I-88000J0D01*
G01*
G37*
G36*
G01*
X111650564Y-213452411D02*
X110649564Y-213452411D01*
G75*
G02*
X110561564Y-213364411I0J88000D01*
G01*
X110561564Y-213188411D01*
G75*
G02*
X110649564Y-213100411I88000J0D01*
G01*
X111650564Y-213100411D01*
G75*
G02*
X111738564Y-213188411I0J-88000D01*
G01*
X111738564Y-213364411D01*
G75*
G02*
X111650564Y-213452411I-88000J0D01*
G01*
G37*
G36*
G01*
X111650564Y-213952411D02*
X110649564Y-213952411D01*
G75*
G02*
X110561564Y-213864411I0J88000D01*
G01*
X110561564Y-213688411D01*
G75*
G02*
X110649564Y-213600411I88000J0D01*
G01*
X111650564Y-213600411D01*
G75*
G02*
X111738564Y-213688411I0J-88000D01*
G01*
X111738564Y-213864411D01*
G75*
G02*
X111650564Y-213952411I-88000J0D01*
G01*
G37*
G36*
G01*
X111650564Y-214452411D02*
X110649564Y-214452411D01*
G75*
G02*
X110561564Y-214364411I0J88000D01*
G01*
X110561564Y-214188411D01*
G75*
G02*
X110649564Y-214100411I88000J0D01*
G01*
X111650564Y-214100411D01*
G75*
G02*
X111738564Y-214188411I0J-88000D01*
G01*
X111738564Y-214364411D01*
G75*
G02*
X111650564Y-214452411I-88000J0D01*
G01*
G37*
G36*
G01*
X111650564Y-214952411D02*
X110649564Y-214952411D01*
G75*
G02*
X110561564Y-214864411I0J88000D01*
G01*
X110561564Y-214688411D01*
G75*
G02*
X110649564Y-214600411I88000J0D01*
G01*
X111650564Y-214600411D01*
G75*
G02*
X111738564Y-214688411I0J-88000D01*
G01*
X111738564Y-214864411D01*
G75*
G02*
X111650564Y-214952411I-88000J0D01*
G01*
G37*
G36*
G01*
X112075564Y-216202411D02*
X111899564Y-216202411D01*
G75*
G02*
X111811564Y-216114411I0J88000D01*
G01*
X111811564Y-215113411D01*
G75*
G02*
X111899564Y-215025411I88000J0D01*
G01*
X112075564Y-215025411D01*
G75*
G02*
X112163564Y-215113411I0J-88000D01*
G01*
X112163564Y-216114411D01*
G75*
G02*
X112075564Y-216202411I-88000J0D01*
G01*
G37*
G36*
G01*
X112575564Y-216202411D02*
X112399564Y-216202411D01*
G75*
G02*
X112311564Y-216114411I0J88000D01*
G01*
X112311564Y-215113411D01*
G75*
G02*
X112399564Y-215025411I88000J0D01*
G01*
X112575564Y-215025411D01*
G75*
G02*
X112663564Y-215113411I0J-88000D01*
G01*
X112663564Y-216114411D01*
G75*
G02*
X112575564Y-216202411I-88000J0D01*
G01*
G37*
G36*
G01*
X113075564Y-216202411D02*
X112899564Y-216202411D01*
G75*
G02*
X112811564Y-216114411I0J88000D01*
G01*
X112811564Y-215113411D01*
G75*
G02*
X112899564Y-215025411I88000J0D01*
G01*
X113075564Y-215025411D01*
G75*
G02*
X113163564Y-215113411I0J-88000D01*
G01*
X113163564Y-216114411D01*
G75*
G02*
X113075564Y-216202411I-88000J0D01*
G01*
G37*
G36*
G01*
X113575564Y-216202411D02*
X113399564Y-216202411D01*
G75*
G02*
X113311564Y-216114411I0J88000D01*
G01*
X113311564Y-215113411D01*
G75*
G02*
X113399564Y-215025411I88000J0D01*
G01*
X113575564Y-215025411D01*
G75*
G02*
X113663564Y-215113411I0J-88000D01*
G01*
X113663564Y-216114411D01*
G75*
G02*
X113575564Y-216202411I-88000J0D01*
G01*
G37*
G36*
G01*
X114075564Y-216202411D02*
X113899564Y-216202411D01*
G75*
G02*
X113811564Y-216114411I0J88000D01*
G01*
X113811564Y-215113411D01*
G75*
G02*
X113899564Y-215025411I88000J0D01*
G01*
X114075564Y-215025411D01*
G75*
G02*
X114163564Y-215113411I0J-88000D01*
G01*
X114163564Y-216114411D01*
G75*
G02*
X114075564Y-216202411I-88000J0D01*
G01*
G37*
G36*
G01*
X114575564Y-216202411D02*
X114399564Y-216202411D01*
G75*
G02*
X114311564Y-216114411I0J88000D01*
G01*
X114311564Y-215113411D01*
G75*
G02*
X114399564Y-215025411I88000J0D01*
G01*
X114575564Y-215025411D01*
G75*
G02*
X114663564Y-215113411I0J-88000D01*
G01*
X114663564Y-216114411D01*
G75*
G02*
X114575564Y-216202411I-88000J0D01*
G01*
G37*
G36*
G01*
X115075564Y-216202411D02*
X114899564Y-216202411D01*
G75*
G02*
X114811564Y-216114411I0J88000D01*
G01*
X114811564Y-215113411D01*
G75*
G02*
X114899564Y-215025411I88000J0D01*
G01*
X115075564Y-215025411D01*
G75*
G02*
X115163564Y-215113411I0J-88000D01*
G01*
X115163564Y-216114411D01*
G75*
G02*
X115075564Y-216202411I-88000J0D01*
G01*
G37*
G36*
G01*
X115575564Y-216202411D02*
X115399564Y-216202411D01*
G75*
G02*
X115311564Y-216114411I0J88000D01*
G01*
X115311564Y-215113411D01*
G75*
G02*
X115399564Y-215025411I88000J0D01*
G01*
X115575564Y-215025411D01*
G75*
G02*
X115663564Y-215113411I0J-88000D01*
G01*
X115663564Y-216114411D01*
G75*
G02*
X115575564Y-216202411I-88000J0D01*
G01*
G37*
G36*
G01*
X116075564Y-216202411D02*
X115899564Y-216202411D01*
G75*
G02*
X115811564Y-216114411I0J88000D01*
G01*
X115811564Y-215113411D01*
G75*
G02*
X115899564Y-215025411I88000J0D01*
G01*
X116075564Y-215025411D01*
G75*
G02*
X116163564Y-215113411I0J-88000D01*
G01*
X116163564Y-216114411D01*
G75*
G02*
X116075564Y-216202411I-88000J0D01*
G01*
G37*
G36*
G01*
X116575564Y-216202411D02*
X116399564Y-216202411D01*
G75*
G02*
X116311564Y-216114411I0J88000D01*
G01*
X116311564Y-215113411D01*
G75*
G02*
X116399564Y-215025411I88000J0D01*
G01*
X116575564Y-215025411D01*
G75*
G02*
X116663564Y-215113411I0J-88000D01*
G01*
X116663564Y-216114411D01*
G75*
G02*
X116575564Y-216202411I-88000J0D01*
G01*
G37*
G36*
G01*
X117075564Y-216202411D02*
X116899564Y-216202411D01*
G75*
G02*
X116811564Y-216114411I0J88000D01*
G01*
X116811564Y-215113411D01*
G75*
G02*
X116899564Y-215025411I88000J0D01*
G01*
X117075564Y-215025411D01*
G75*
G02*
X117163564Y-215113411I0J-88000D01*
G01*
X117163564Y-216114411D01*
G75*
G02*
X117075564Y-216202411I-88000J0D01*
G01*
G37*
G36*
G01*
X116883661Y-214927411D02*
X112091467Y-214927411D01*
G75*
G02*
X111836564Y-214672508I0J254903D01*
G01*
X111836564Y-209880314D01*
G75*
G02*
X112091467Y-209625411I254903J0D01*
G01*
X116883661Y-209625411D01*
G75*
G02*
X117138564Y-209880314I0J-254903D01*
G01*
X117138564Y-214672508D01*
G75*
G02*
X116883661Y-214927411I-254903J0D01*
G01*
G37*
D10*
X300672500Y-215265000D03*
D11*
X298132500Y-220345000D03*
D10*
X294322500Y-217805000D03*
D12*
X293052500Y-220345000D03*
X303212500Y-220345000D03*
G36*
G01*
X107095065Y-214001160D02*
X105895063Y-214001160D01*
G75*
G02*
X105844064Y-213950161I0J50999D01*
G01*
X105844064Y-212550159D01*
G75*
G02*
X105895063Y-212499160I50999J0D01*
G01*
X107095065Y-212499160D01*
G75*
G02*
X107146064Y-212550159I0J-50999D01*
G01*
X107146064Y-213950161D01*
G75*
G02*
X107095065Y-214001160I-50999J0D01*
G01*
G37*
G36*
G01*
X107095065Y-211801160D02*
X105895063Y-211801160D01*
G75*
G02*
X105844064Y-211750161I0J50999D01*
G01*
X105844064Y-210350159D01*
G75*
G02*
X105895063Y-210299160I50999J0D01*
G01*
X107095065Y-210299160D01*
G75*
G02*
X107146064Y-210350159I0J-50999D01*
G01*
X107146064Y-211750161D01*
G75*
G02*
X107095065Y-211801160I-50999J0D01*
G01*
G37*
G36*
G01*
X108795065Y-211801160D02*
X107595063Y-211801160D01*
G75*
G02*
X107544064Y-211750161I0J50999D01*
G01*
X107544064Y-210350159D01*
G75*
G02*
X107595063Y-210299160I50999J0D01*
G01*
X108795065Y-210299160D01*
G75*
G02*
X108846064Y-210350159I0J-50999D01*
G01*
X108846064Y-211750161D01*
G75*
G02*
X108795065Y-211801160I-50999J0D01*
G01*
G37*
G36*
G01*
X108795065Y-214001160D02*
X107595063Y-214001160D01*
G75*
G02*
X107544064Y-213950161I0J50999D01*
G01*
X107544064Y-212550159D01*
G75*
G02*
X107595063Y-212499160I50999J0D01*
G01*
X108795065Y-212499160D01*
G75*
G02*
X108846064Y-212550159I0J-50999D01*
G01*
X108846064Y-213950161D01*
G75*
G02*
X108795065Y-214001160I-50999J0D01*
G01*
G37*
G36*
G01*
X110757100Y-221395520D02*
X111857100Y-221395520D01*
G75*
G02*
X111908100Y-221446520I0J-51000D01*
G01*
X111908100Y-223246520D01*
G75*
G02*
X111857100Y-223297520I-51000J0D01*
G01*
X110757100Y-223297520D01*
G75*
G02*
X110706100Y-223246520I0J51000D01*
G01*
X110706100Y-221446520D01*
G75*
G02*
X110757100Y-221395520I51000J0D01*
G01*
G37*
G36*
G01*
X107057100Y-227595520D02*
X108157100Y-227595520D01*
G75*
G02*
X108208100Y-227646520I0J-51000D01*
G01*
X108208100Y-229446520D01*
G75*
G02*
X108157100Y-229497520I-51000J0D01*
G01*
X107057100Y-229497520D01*
G75*
G02*
X107006100Y-229446520I0J51000D01*
G01*
X107006100Y-227646520D01*
G75*
G02*
X107057100Y-227595520I51000J0D01*
G01*
G37*
G36*
G01*
X107057100Y-221395520D02*
X108157100Y-221395520D01*
G75*
G02*
X108208100Y-221446520I0J-51000D01*
G01*
X108208100Y-223246520D01*
G75*
G02*
X108157100Y-223297520I-51000J0D01*
G01*
X107057100Y-223297520D01*
G75*
G02*
X107006100Y-223246520I0J51000D01*
G01*
X107006100Y-221446520D01*
G75*
G02*
X107057100Y-221395520I51000J0D01*
G01*
G37*
G36*
G01*
X110757100Y-227595520D02*
X111857100Y-227595520D01*
G75*
G02*
X111908100Y-227646520I0J-51000D01*
G01*
X111908100Y-229446520D01*
G75*
G02*
X111857100Y-229497520I-51000J0D01*
G01*
X110757100Y-229497520D01*
G75*
G02*
X110706100Y-229446520I0J51000D01*
G01*
X110706100Y-227646520D01*
G75*
G02*
X110757100Y-227595520I51000J0D01*
G01*
G37*
G36*
G01*
X119566800Y-207742828D02*
X119566800Y-206785172D01*
G75*
G02*
X119838972Y-206513000I272172J0D01*
G01*
X120546628Y-206513000D01*
G75*
G02*
X120818800Y-206785172I0J-272172D01*
G01*
X120818800Y-207742828D01*
G75*
G02*
X120546628Y-208015000I-272172J0D01*
G01*
X119838972Y-208015000D01*
G75*
G02*
X119566800Y-207742828I0J272172D01*
G01*
G37*
G36*
G01*
X121616800Y-207742828D02*
X121616800Y-206785172D01*
G75*
G02*
X121888972Y-206513000I272172J0D01*
G01*
X122596628Y-206513000D01*
G75*
G02*
X122868800Y-206785172I0J-272172D01*
G01*
X122868800Y-207742828D01*
G75*
G02*
X122596628Y-208015000I-272172J0D01*
G01*
X121888972Y-208015000D01*
G75*
G02*
X121616800Y-207742828I0J272172D01*
G01*
G37*
G36*
G01*
X109800428Y-220049200D02*
X108842772Y-220049200D01*
G75*
G02*
X108570600Y-219777028I0J272172D01*
G01*
X108570600Y-219069372D01*
G75*
G02*
X108842772Y-218797200I272172J0D01*
G01*
X109800428Y-218797200D01*
G75*
G02*
X110072600Y-219069372I0J-272172D01*
G01*
X110072600Y-219777028D01*
G75*
G02*
X109800428Y-220049200I-272172J0D01*
G01*
G37*
G36*
G01*
X109800428Y-217999200D02*
X108842772Y-217999200D01*
G75*
G02*
X108570600Y-217727028I0J272172D01*
G01*
X108570600Y-217019372D01*
G75*
G02*
X108842772Y-216747200I272172J0D01*
G01*
X109800428Y-216747200D01*
G75*
G02*
X110072600Y-217019372I0J-272172D01*
G01*
X110072600Y-217727028D01*
G75*
G02*
X109800428Y-217999200I-272172J0D01*
G01*
G37*
G36*
G01*
X114331236Y-222519159D02*
X115288892Y-222519159D01*
G75*
G02*
X115561064Y-222791331I0J-272172D01*
G01*
X115561064Y-223498987D01*
G75*
G02*
X115288892Y-223771159I-272172J0D01*
G01*
X114331236Y-223771159D01*
G75*
G02*
X114059064Y-223498987I0J272172D01*
G01*
X114059064Y-222791331D01*
G75*
G02*
X114331236Y-222519159I272172J0D01*
G01*
G37*
G36*
G01*
X114331236Y-224569159D02*
X115288892Y-224569159D01*
G75*
G02*
X115561064Y-224841331I0J-272172D01*
G01*
X115561064Y-225548987D01*
G75*
G02*
X115288892Y-225821159I-272172J0D01*
G01*
X114331236Y-225821159D01*
G75*
G02*
X114059064Y-225548987I0J272172D01*
G01*
X114059064Y-224841331D01*
G75*
G02*
X114331236Y-224569159I272172J0D01*
G01*
G37*
G36*
G01*
X116243736Y-222519159D02*
X117201392Y-222519159D01*
G75*
G02*
X117473564Y-222791331I0J-272172D01*
G01*
X117473564Y-223498987D01*
G75*
G02*
X117201392Y-223771159I-272172J0D01*
G01*
X116243736Y-223771159D01*
G75*
G02*
X115971564Y-223498987I0J272172D01*
G01*
X115971564Y-222791331D01*
G75*
G02*
X116243736Y-222519159I272172J0D01*
G01*
G37*
G36*
G01*
X116243736Y-224569159D02*
X117201392Y-224569159D01*
G75*
G02*
X117473564Y-224841331I0J-272172D01*
G01*
X117473564Y-225548987D01*
G75*
G02*
X117201392Y-225821159I-272172J0D01*
G01*
X116243736Y-225821159D01*
G75*
G02*
X115971564Y-225548987I0J272172D01*
G01*
X115971564Y-224841331D01*
G75*
G02*
X116243736Y-224569159I272172J0D01*
G01*
G37*
G36*
G01*
X128624999Y-228791500D02*
X130425001Y-228791500D01*
G75*
G02*
X130476000Y-228842499I0J-50999D01*
G01*
X130476000Y-230042501D01*
G75*
G02*
X130425001Y-230093500I-50999J0D01*
G01*
X128624999Y-230093500D01*
G75*
G02*
X128574000Y-230042501I0J50999D01*
G01*
X128574000Y-228842499D01*
G75*
G02*
X128624999Y-228791500I50999J0D01*
G01*
G37*
G36*
G01*
X128624999Y-223191500D02*
X130425001Y-223191500D01*
G75*
G02*
X130476000Y-223242499I0J-50999D01*
G01*
X130476000Y-224442501D01*
G75*
G02*
X130425001Y-224493500I-50999J0D01*
G01*
X128624999Y-224493500D01*
G75*
G02*
X128574000Y-224442501I0J50999D01*
G01*
X128574000Y-223242499D01*
G75*
G02*
X128624999Y-223191500I50999J0D01*
G01*
G37*
G36*
G01*
X124875000Y-224791500D02*
X126425000Y-224791500D01*
G75*
G02*
X126476000Y-224842500I0J-51000D01*
G01*
X126476000Y-225442500D01*
G75*
G02*
X126425000Y-225493500I-51000J0D01*
G01*
X124875000Y-225493500D01*
G75*
G02*
X124824000Y-225442500I0J51000D01*
G01*
X124824000Y-224842500D01*
G75*
G02*
X124875000Y-224791500I51000J0D01*
G01*
G37*
G36*
G01*
X124875000Y-225791500D02*
X126425000Y-225791500D01*
G75*
G02*
X126476000Y-225842500I0J-51000D01*
G01*
X126476000Y-226442500D01*
G75*
G02*
X126425000Y-226493500I-51000J0D01*
G01*
X124875000Y-226493500D01*
G75*
G02*
X124824000Y-226442500I0J51000D01*
G01*
X124824000Y-225842500D01*
G75*
G02*
X124875000Y-225791500I51000J0D01*
G01*
G37*
G36*
G01*
X124875000Y-227791500D02*
X126425000Y-227791500D01*
G75*
G02*
X126476000Y-227842500I0J-51000D01*
G01*
X126476000Y-228442500D01*
G75*
G02*
X126425000Y-228493500I-51000J0D01*
G01*
X124875000Y-228493500D01*
G75*
G02*
X124824000Y-228442500I0J51000D01*
G01*
X124824000Y-227842500D01*
G75*
G02*
X124875000Y-227791500I51000J0D01*
G01*
G37*
G36*
G01*
X124875000Y-226791500D02*
X126425000Y-226791500D01*
G75*
G02*
X126476000Y-226842500I0J-51000D01*
G01*
X126476000Y-227442500D01*
G75*
G02*
X126425000Y-227493500I-51000J0D01*
G01*
X124875000Y-227493500D01*
G75*
G02*
X124824000Y-227442500I0J51000D01*
G01*
X124824000Y-226842500D01*
G75*
G02*
X124875000Y-226791500I51000J0D01*
G01*
G37*
G36*
G01*
X113720900Y-205817050D02*
X113720900Y-206780550D01*
G75*
G02*
X113451650Y-207049800I-269250J0D01*
G01*
X112913150Y-207049800D01*
G75*
G02*
X112643900Y-206780550I0J269250D01*
G01*
X112643900Y-205817050D01*
G75*
G02*
X112913150Y-205547800I269250J0D01*
G01*
X113451650Y-205547800D01*
G75*
G02*
X113720900Y-205817050I0J-269250D01*
G01*
G37*
G36*
G01*
X111845900Y-205817050D02*
X111845900Y-206780550D01*
G75*
G02*
X111576650Y-207049800I-269250J0D01*
G01*
X111038150Y-207049800D01*
G75*
G02*
X110768900Y-206780550I0J269250D01*
G01*
X110768900Y-205817050D01*
G75*
G02*
X111038150Y-205547800I269250J0D01*
G01*
X111576650Y-205547800D01*
G75*
G02*
X111845900Y-205817050I0J-269250D01*
G01*
G37*
G36*
G01*
X112176564Y-220585660D02*
X112176564Y-219622160D01*
G75*
G02*
X112445814Y-219352910I269250J0D01*
G01*
X112984314Y-219352910D01*
G75*
G02*
X113253564Y-219622160I0J-269250D01*
G01*
X113253564Y-220585660D01*
G75*
G02*
X112984314Y-220854910I-269250J0D01*
G01*
X112445814Y-220854910D01*
G75*
G02*
X112176564Y-220585660I0J269250D01*
G01*
G37*
G36*
G01*
X114051564Y-220585660D02*
X114051564Y-219622160D01*
G75*
G02*
X114320814Y-219352910I269250J0D01*
G01*
X114859314Y-219352910D01*
G75*
G02*
X115128564Y-219622160I0J-269250D01*
G01*
X115128564Y-220585660D01*
G75*
G02*
X114859314Y-220854910I-269250J0D01*
G01*
X114320814Y-220854910D01*
G75*
G02*
X114051564Y-220585660I0J269250D01*
G01*
G37*
G36*
G01*
X119755900Y-209777750D02*
X119755900Y-208814250D01*
G75*
G02*
X120025150Y-208545000I269250J0D01*
G01*
X120563650Y-208545000D01*
G75*
G02*
X120832900Y-208814250I0J-269250D01*
G01*
X120832900Y-209777750D01*
G75*
G02*
X120563650Y-210047000I-269250J0D01*
G01*
X120025150Y-210047000D01*
G75*
G02*
X119755900Y-209777750I0J269250D01*
G01*
G37*
G36*
G01*
X121630900Y-209777750D02*
X121630900Y-208814250D01*
G75*
G02*
X121900150Y-208545000I269250J0D01*
G01*
X122438650Y-208545000D01*
G75*
G02*
X122707900Y-208814250I0J-269250D01*
G01*
X122707900Y-209777750D01*
G75*
G02*
X122438650Y-210047000I-269250J0D01*
G01*
X121900150Y-210047000D01*
G75*
G02*
X121630900Y-209777750I0J269250D01*
G01*
G37*
G36*
G01*
X108821064Y-208493410D02*
X108821064Y-209456910D01*
G75*
G02*
X108551814Y-209726160I-269250J0D01*
G01*
X108013314Y-209726160D01*
G75*
G02*
X107744064Y-209456910I0J269250D01*
G01*
X107744064Y-208493410D01*
G75*
G02*
X108013314Y-208224160I269250J0D01*
G01*
X108551814Y-208224160D01*
G75*
G02*
X108821064Y-208493410I0J-269250D01*
G01*
G37*
G36*
G01*
X106946064Y-208493410D02*
X106946064Y-209456910D01*
G75*
G02*
X106676814Y-209726160I-269250J0D01*
G01*
X106138314Y-209726160D01*
G75*
G02*
X105869064Y-209456910I0J269250D01*
G01*
X105869064Y-208493410D01*
G75*
G02*
X106138314Y-208224160I269250J0D01*
G01*
X106676814Y-208224160D01*
G75*
G02*
X106946064Y-208493410I0J-269250D01*
G01*
G37*
G36*
G01*
X105869064Y-215806910D02*
X105869064Y-214843410D01*
G75*
G02*
X106138314Y-214574160I269250J0D01*
G01*
X106676814Y-214574160D01*
G75*
G02*
X106946064Y-214843410I0J-269250D01*
G01*
X106946064Y-215806910D01*
G75*
G02*
X106676814Y-216076160I-269250J0D01*
G01*
X106138314Y-216076160D01*
G75*
G02*
X105869064Y-215806910I0J269250D01*
G01*
G37*
G36*
G01*
X107744064Y-215806910D02*
X107744064Y-214843410D01*
G75*
G02*
X108013314Y-214574160I269250J0D01*
G01*
X108551814Y-214574160D01*
G75*
G02*
X108821064Y-214843410I0J-269250D01*
G01*
X108821064Y-215806910D01*
G75*
G02*
X108551814Y-216076160I-269250J0D01*
G01*
X108013314Y-216076160D01*
G75*
G02*
X107744064Y-215806910I0J269250D01*
G01*
G37*
G36*
G01*
X120471350Y-217043500D02*
X119507850Y-217043500D01*
G75*
G02*
X119238600Y-216774250I0J269250D01*
G01*
X119238600Y-216235750D01*
G75*
G02*
X119507850Y-215966500I269250J0D01*
G01*
X120471350Y-215966500D01*
G75*
G02*
X120740600Y-216235750I0J-269250D01*
G01*
X120740600Y-216774250D01*
G75*
G02*
X120471350Y-217043500I-269250J0D01*
G01*
G37*
G36*
G01*
X120471350Y-215168500D02*
X119507850Y-215168500D01*
G75*
G02*
X119238600Y-214899250I0J269250D01*
G01*
X119238600Y-214360750D01*
G75*
G02*
X119507850Y-214091500I269250J0D01*
G01*
X120471350Y-214091500D01*
G75*
G02*
X120740600Y-214360750I0J-269250D01*
G01*
X120740600Y-214899250D01*
G75*
G02*
X120471350Y-215168500I-269250J0D01*
G01*
G37*
G36*
G01*
X114056564Y-218585660D02*
X114056564Y-217622160D01*
G75*
G02*
X114325814Y-217352910I269250J0D01*
G01*
X114864314Y-217352910D01*
G75*
G02*
X115133564Y-217622160I0J-269250D01*
G01*
X115133564Y-218585660D01*
G75*
G02*
X114864314Y-218854910I-269250J0D01*
G01*
X114325814Y-218854910D01*
G75*
G02*
X114056564Y-218585660I0J269250D01*
G01*
G37*
G36*
G01*
X112181564Y-218585660D02*
X112181564Y-217622160D01*
G75*
G02*
X112450814Y-217352910I269250J0D01*
G01*
X112989314Y-217352910D01*
G75*
G02*
X113258564Y-217622160I0J-269250D01*
G01*
X113258564Y-218585660D01*
G75*
G02*
X112989314Y-218854910I-269250J0D01*
G01*
X112450814Y-218854910D01*
G75*
G02*
X112181564Y-218585660I0J269250D01*
G01*
G37*
D10*
X95885000Y-177165000D03*
D11*
X93345000Y-182245000D03*
D10*
X89535000Y-179705000D03*
D12*
X88265000Y-182245000D03*
X98425000Y-182245000D03*
G36*
G01*
X136807500Y-219196000D02*
X135607500Y-219196000D01*
G75*
G02*
X135556500Y-219145000I0J51000D01*
G01*
X135556500Y-218245000D01*
G75*
G02*
X135607500Y-218194000I51000J0D01*
G01*
X136807500Y-218194000D01*
G75*
G02*
X136858500Y-218245000I0J-51000D01*
G01*
X136858500Y-219145000D01*
G75*
G02*
X136807500Y-219196000I-51000J0D01*
G01*
G37*
G36*
G01*
X136807500Y-222496000D02*
X135607500Y-222496000D01*
G75*
G02*
X135556500Y-222445000I0J51000D01*
G01*
X135556500Y-221545000D01*
G75*
G02*
X135607500Y-221494000I51000J0D01*
G01*
X136807500Y-221494000D01*
G75*
G02*
X136858500Y-221545000I0J-51000D01*
G01*
X136858500Y-222445000D01*
G75*
G02*
X136807500Y-222496000I-51000J0D01*
G01*
G37*
D10*
X167322500Y-215265000D03*
D11*
X164782500Y-220345000D03*
D10*
X160972500Y-217805000D03*
D12*
X159702500Y-220345000D03*
X169862500Y-220345000D03*
D10*
X262572500Y-215265000D03*
D11*
X260032500Y-220345000D03*
D10*
X256222500Y-217805000D03*
D12*
X254952500Y-220345000D03*
X265112500Y-220345000D03*
D10*
X253047500Y-196215000D03*
D11*
X250507500Y-201295000D03*
D10*
X246697500Y-198755000D03*
D12*
X245427500Y-201295000D03*
X255587500Y-201295000D03*
D10*
X207803750Y-234315000D03*
D11*
X205263750Y-239395000D03*
D10*
X201453750Y-236855000D03*
D12*
X200183750Y-239395000D03*
X210343750Y-239395000D03*
D13*
X155263850Y-246380000D03*
X255263650Y-246380000D03*
D11*
X155263850Y-231140000D03*
X255263650Y-231140000D03*
D10*
X117316250Y-234315000D03*
D11*
X114776250Y-239395000D03*
D10*
X110966250Y-236855000D03*
D12*
X109696250Y-239395000D03*
X119856250Y-239395000D03*
G36*
G01*
X107042050Y-203446000D02*
X105842050Y-203446000D01*
G75*
G02*
X105791050Y-203395000I0J51000D01*
G01*
X105791050Y-202495000D01*
G75*
G02*
X105842050Y-202444000I51000J0D01*
G01*
X107042050Y-202444000D01*
G75*
G02*
X107093050Y-202495000I0J-51000D01*
G01*
X107093050Y-203395000D01*
G75*
G02*
X107042050Y-203446000I-51000J0D01*
G01*
G37*
G36*
G01*
X107042050Y-200146000D02*
X105842050Y-200146000D01*
G75*
G02*
X105791050Y-200095000I0J51000D01*
G01*
X105791050Y-199195000D01*
G75*
G02*
X105842050Y-199144000I51000J0D01*
G01*
X107042050Y-199144000D01*
G75*
G02*
X107093050Y-199195000I0J-51000D01*
G01*
X107093050Y-200095000D01*
G75*
G02*
X107042050Y-200146000I-51000J0D01*
G01*
G37*
D10*
X212566250Y-234315000D03*
D11*
X210026250Y-239395000D03*
D10*
X206216250Y-236855000D03*
D12*
X204946250Y-239395000D03*
X215106250Y-239395000D03*
D10*
X276860000Y-234315000D03*
D11*
X274320000Y-239395000D03*
D10*
X270510000Y-236855000D03*
D12*
X269240000Y-239395000D03*
X279400000Y-239395000D03*
D10*
X245903750Y-234315000D03*
D11*
X243363750Y-239395000D03*
D10*
X239553750Y-236855000D03*
D12*
X238283750Y-239395000D03*
X248443750Y-239395000D03*
D13*
X231457500Y-246380000D03*
X255270000Y-246380000D03*
D11*
X231457500Y-231140000D03*
X255270000Y-231140000D03*
D10*
X174466250Y-234315000D03*
D11*
X171926250Y-239395000D03*
D10*
X168116250Y-236855000D03*
D12*
X166846250Y-239395000D03*
X177006250Y-239395000D03*
D13*
X160020000Y-246380000D03*
X183832500Y-246380000D03*
D11*
X160020000Y-231140000D03*
X183832500Y-231140000D03*
D10*
X138747500Y-234315000D03*
D11*
X136207500Y-239395000D03*
D10*
X132397500Y-236855000D03*
D12*
X131127500Y-239395000D03*
X141287500Y-239395000D03*
D10*
X319722500Y-215265000D03*
D11*
X317182500Y-220345000D03*
D10*
X313372500Y-217805000D03*
D12*
X312102500Y-220345000D03*
X322262500Y-220345000D03*
D10*
X243522500Y-215265000D03*
D11*
X240982500Y-220345000D03*
D10*
X237172500Y-217805000D03*
D12*
X235902500Y-220345000D03*
X246062500Y-220345000D03*
D10*
X205422500Y-215265000D03*
D11*
X202882500Y-220345000D03*
D10*
X199072500Y-217805000D03*
D12*
X197802500Y-220345000D03*
X207962500Y-220345000D03*
D10*
X291147500Y-196215000D03*
D11*
X288607500Y-201295000D03*
D10*
X284797500Y-198755000D03*
D12*
X283527500Y-201295000D03*
X293687500Y-201295000D03*
D10*
X195897500Y-196215000D03*
D11*
X193357500Y-201295000D03*
D10*
X189547500Y-198755000D03*
D12*
X188277500Y-201295000D03*
X198437500Y-201295000D03*
D10*
X176847500Y-196215000D03*
D11*
X174307500Y-201295000D03*
D10*
X170497500Y-198755000D03*
D12*
X169227500Y-201295000D03*
X179387500Y-201295000D03*
D10*
X157797500Y-196215000D03*
D11*
X155257500Y-201295000D03*
D10*
X151447500Y-198755000D03*
D12*
X150177500Y-201295000D03*
X160337500Y-201295000D03*
X100806250Y-201295000D03*
X90646250Y-201295000D03*
D10*
X91916250Y-198755000D03*
D11*
X95726250Y-201295000D03*
D10*
X98266250Y-196215000D03*
X312578750Y-177165000D03*
D11*
X310038750Y-182245000D03*
D10*
X306228750Y-179705000D03*
D12*
X304958750Y-182245000D03*
X315118750Y-182245000D03*
D10*
X286385000Y-177165000D03*
D11*
X283845000Y-182245000D03*
D10*
X280035000Y-179705000D03*
D12*
X278765000Y-182245000D03*
X288925000Y-182245000D03*
D10*
X267335000Y-177165000D03*
D11*
X264795000Y-182245000D03*
D10*
X260985000Y-179705000D03*
D12*
X259715000Y-182245000D03*
X269875000Y-182245000D03*
D10*
X248285000Y-177165000D03*
D11*
X245745000Y-182245000D03*
D10*
X241935000Y-179705000D03*
D12*
X240665000Y-182245000D03*
X250825000Y-182245000D03*
D10*
X229235000Y-177165000D03*
D11*
X226695000Y-182245000D03*
D10*
X222885000Y-179705000D03*
D12*
X221615000Y-182245000D03*
X231775000Y-182245000D03*
D10*
X210185000Y-177165000D03*
D11*
X207645000Y-182245000D03*
D10*
X203835000Y-179705000D03*
D12*
X202565000Y-182245000D03*
X212725000Y-182245000D03*
D10*
X191135000Y-177165000D03*
D11*
X188595000Y-182245000D03*
D10*
X184785000Y-179705000D03*
D12*
X183515000Y-182245000D03*
X193675000Y-182245000D03*
D10*
X172085000Y-177165000D03*
D11*
X169545000Y-182245000D03*
D10*
X165735000Y-179705000D03*
D12*
X164465000Y-182245000D03*
X174625000Y-182245000D03*
D10*
X133985000Y-177165000D03*
D11*
X131445000Y-182245000D03*
D10*
X127635000Y-179705000D03*
D12*
X126365000Y-182245000D03*
X136525000Y-182245000D03*
G36*
G01*
X305538750Y-241546000D02*
X304338750Y-241546000D01*
G75*
G02*
X304287750Y-241495000I0J51000D01*
G01*
X304287750Y-240595000D01*
G75*
G02*
X304338750Y-240544000I51000J0D01*
G01*
X305538750Y-240544000D01*
G75*
G02*
X305589750Y-240595000I0J-51000D01*
G01*
X305589750Y-241495000D01*
G75*
G02*
X305538750Y-241546000I-51000J0D01*
G01*
G37*
G36*
G01*
X305538750Y-238246000D02*
X304338750Y-238246000D01*
G75*
G02*
X304287750Y-238195000I0J51000D01*
G01*
X304287750Y-237295000D01*
G75*
G02*
X304338750Y-237244000I51000J0D01*
G01*
X305538750Y-237244000D01*
G75*
G02*
X305589750Y-237295000I0J-51000D01*
G01*
X305589750Y-238195000D01*
G75*
G02*
X305538750Y-238246000I-51000J0D01*
G01*
G37*
G36*
G01*
X285636000Y-241546000D02*
X284436000Y-241546000D01*
G75*
G02*
X284385000Y-241495000I0J51000D01*
G01*
X284385000Y-240595000D01*
G75*
G02*
X284436000Y-240544000I51000J0D01*
G01*
X285636000Y-240544000D01*
G75*
G02*
X285687000Y-240595000I0J-51000D01*
G01*
X285687000Y-241495000D01*
G75*
G02*
X285636000Y-241546000I-51000J0D01*
G01*
G37*
G36*
G01*
X285636000Y-238246000D02*
X284436000Y-238246000D01*
G75*
G02*
X284385000Y-238195000I0J51000D01*
G01*
X284385000Y-237295000D01*
G75*
G02*
X284436000Y-237244000I51000J0D01*
G01*
X285636000Y-237244000D01*
G75*
G02*
X285687000Y-237295000I0J-51000D01*
G01*
X285687000Y-238195000D01*
G75*
G02*
X285636000Y-238246000I-51000J0D01*
G01*
G37*
G36*
G01*
X259442250Y-241546000D02*
X258242250Y-241546000D01*
G75*
G02*
X258191250Y-241495000I0J51000D01*
G01*
X258191250Y-240595000D01*
G75*
G02*
X258242250Y-240544000I51000J0D01*
G01*
X259442250Y-240544000D01*
G75*
G02*
X259493250Y-240595000I0J-51000D01*
G01*
X259493250Y-241495000D01*
G75*
G02*
X259442250Y-241546000I-51000J0D01*
G01*
G37*
G36*
G01*
X259442250Y-238246000D02*
X258242250Y-238246000D01*
G75*
G02*
X258191250Y-238195000I0J51000D01*
G01*
X258191250Y-237295000D01*
G75*
G02*
X258242250Y-237244000I51000J0D01*
G01*
X259442250Y-237244000D01*
G75*
G02*
X259493250Y-237295000I0J-51000D01*
G01*
X259493250Y-238195000D01*
G75*
G02*
X259442250Y-238246000I-51000J0D01*
G01*
G37*
G36*
G01*
X227295250Y-241546000D02*
X226095250Y-241546000D01*
G75*
G02*
X226044250Y-241495000I0J51000D01*
G01*
X226044250Y-240595000D01*
G75*
G02*
X226095250Y-240544000I51000J0D01*
G01*
X227295250Y-240544000D01*
G75*
G02*
X227346250Y-240595000I0J-51000D01*
G01*
X227346250Y-241495000D01*
G75*
G02*
X227295250Y-241546000I-51000J0D01*
G01*
G37*
G36*
G01*
X227295250Y-238246000D02*
X226095250Y-238246000D01*
G75*
G02*
X226044250Y-238195000I0J51000D01*
G01*
X226044250Y-237295000D01*
G75*
G02*
X226095250Y-237244000I51000J0D01*
G01*
X227295250Y-237244000D01*
G75*
G02*
X227346250Y-237295000I0J-51000D01*
G01*
X227346250Y-238195000D01*
G75*
G02*
X227295250Y-238246000I-51000J0D01*
G01*
G37*
G36*
G01*
X189195250Y-241546000D02*
X187995250Y-241546000D01*
G75*
G02*
X187944250Y-241495000I0J51000D01*
G01*
X187944250Y-240595000D01*
G75*
G02*
X187995250Y-240544000I51000J0D01*
G01*
X189195250Y-240544000D01*
G75*
G02*
X189246250Y-240595000I0J-51000D01*
G01*
X189246250Y-241495000D01*
G75*
G02*
X189195250Y-241546000I-51000J0D01*
G01*
G37*
G36*
G01*
X189195250Y-238246000D02*
X187995250Y-238246000D01*
G75*
G02*
X187944250Y-238195000I0J51000D01*
G01*
X187944250Y-237295000D01*
G75*
G02*
X187995250Y-237244000I51000J0D01*
G01*
X189195250Y-237244000D01*
G75*
G02*
X189246250Y-237295000I0J-51000D01*
G01*
X189246250Y-238195000D01*
G75*
G02*
X189195250Y-238246000I-51000J0D01*
G01*
G37*
G36*
G01*
X154664000Y-241546000D02*
X153464000Y-241546000D01*
G75*
G02*
X153413000Y-241495000I0J51000D01*
G01*
X153413000Y-240595000D01*
G75*
G02*
X153464000Y-240544000I51000J0D01*
G01*
X154664000Y-240544000D01*
G75*
G02*
X154715000Y-240595000I0J-51000D01*
G01*
X154715000Y-241495000D01*
G75*
G02*
X154664000Y-241546000I-51000J0D01*
G01*
G37*
G36*
G01*
X154664000Y-238246000D02*
X153464000Y-238246000D01*
G75*
G02*
X153413000Y-238195000I0J51000D01*
G01*
X153413000Y-237295000D01*
G75*
G02*
X153464000Y-237244000I51000J0D01*
G01*
X154664000Y-237244000D01*
G75*
G02*
X154715000Y-237295000I0J-51000D01*
G01*
X154715000Y-238195000D01*
G75*
G02*
X154664000Y-238246000I-51000J0D01*
G01*
G37*
G36*
G01*
X126092250Y-241546000D02*
X124892250Y-241546000D01*
G75*
G02*
X124841250Y-241495000I0J51000D01*
G01*
X124841250Y-240595000D01*
G75*
G02*
X124892250Y-240544000I51000J0D01*
G01*
X126092250Y-240544000D01*
G75*
G02*
X126143250Y-240595000I0J-51000D01*
G01*
X126143250Y-241495000D01*
G75*
G02*
X126092250Y-241546000I-51000J0D01*
G01*
G37*
G36*
G01*
X126092250Y-238246000D02*
X124892250Y-238246000D01*
G75*
G02*
X124841250Y-238195000I0J51000D01*
G01*
X124841250Y-237295000D01*
G75*
G02*
X124892250Y-237244000I51000J0D01*
G01*
X126092250Y-237244000D01*
G75*
G02*
X126143250Y-237295000I0J-51000D01*
G01*
X126143250Y-238195000D01*
G75*
G02*
X126092250Y-238246000I-51000J0D01*
G01*
G37*
G36*
G01*
X325720000Y-222496000D02*
X324520000Y-222496000D01*
G75*
G02*
X324469000Y-222445000I0J51000D01*
G01*
X324469000Y-221545000D01*
G75*
G02*
X324520000Y-221494000I51000J0D01*
G01*
X325720000Y-221494000D01*
G75*
G02*
X325771000Y-221545000I0J-51000D01*
G01*
X325771000Y-222445000D01*
G75*
G02*
X325720000Y-222496000I-51000J0D01*
G01*
G37*
G36*
G01*
X325720000Y-219196000D02*
X324520000Y-219196000D01*
G75*
G02*
X324469000Y-219145000I0J51000D01*
G01*
X324469000Y-218245000D01*
G75*
G02*
X324520000Y-218194000I51000J0D01*
G01*
X325720000Y-218194000D01*
G75*
G02*
X325771000Y-218245000I0J-51000D01*
G01*
X325771000Y-219145000D01*
G75*
G02*
X325720000Y-219196000I-51000J0D01*
G01*
G37*
G36*
G01*
X289207500Y-222496000D02*
X288007500Y-222496000D01*
G75*
G02*
X287956500Y-222445000I0J51000D01*
G01*
X287956500Y-221545000D01*
G75*
G02*
X288007500Y-221494000I51000J0D01*
G01*
X289207500Y-221494000D01*
G75*
G02*
X289258500Y-221545000I0J-51000D01*
G01*
X289258500Y-222445000D01*
G75*
G02*
X289207500Y-222496000I-51000J0D01*
G01*
G37*
G36*
G01*
X289207500Y-219196000D02*
X288007500Y-219196000D01*
G75*
G02*
X287956500Y-219145000I0J51000D01*
G01*
X287956500Y-218245000D01*
G75*
G02*
X288007500Y-218194000I51000J0D01*
G01*
X289207500Y-218194000D01*
G75*
G02*
X289258500Y-218245000I0J-51000D01*
G01*
X289258500Y-219145000D01*
G75*
G02*
X289207500Y-219196000I-51000J0D01*
G01*
G37*
G36*
G01*
X270157500Y-222496000D02*
X268957500Y-222496000D01*
G75*
G02*
X268906500Y-222445000I0J51000D01*
G01*
X268906500Y-221545000D01*
G75*
G02*
X268957500Y-221494000I51000J0D01*
G01*
X270157500Y-221494000D01*
G75*
G02*
X270208500Y-221545000I0J-51000D01*
G01*
X270208500Y-222445000D01*
G75*
G02*
X270157500Y-222496000I-51000J0D01*
G01*
G37*
G36*
G01*
X270157500Y-219196000D02*
X268957500Y-219196000D01*
G75*
G02*
X268906500Y-219145000I0J51000D01*
G01*
X268906500Y-218245000D01*
G75*
G02*
X268957500Y-218194000I51000J0D01*
G01*
X270157500Y-218194000D01*
G75*
G02*
X270208500Y-218245000I0J-51000D01*
G01*
X270208500Y-219145000D01*
G75*
G02*
X270157500Y-219196000I-51000J0D01*
G01*
G37*
G36*
G01*
X251107500Y-222496000D02*
X249907500Y-222496000D01*
G75*
G02*
X249856500Y-222445000I0J51000D01*
G01*
X249856500Y-221545000D01*
G75*
G02*
X249907500Y-221494000I51000J0D01*
G01*
X251107500Y-221494000D01*
G75*
G02*
X251158500Y-221545000I0J-51000D01*
G01*
X251158500Y-222445000D01*
G75*
G02*
X251107500Y-222496000I-51000J0D01*
G01*
G37*
G36*
G01*
X251107500Y-219196000D02*
X249907500Y-219196000D01*
G75*
G02*
X249856500Y-219145000I0J51000D01*
G01*
X249856500Y-218245000D01*
G75*
G02*
X249907500Y-218194000I51000J0D01*
G01*
X251107500Y-218194000D01*
G75*
G02*
X251158500Y-218245000I0J-51000D01*
G01*
X251158500Y-219145000D01*
G75*
G02*
X251107500Y-219196000I-51000J0D01*
G01*
G37*
G36*
G01*
X232057500Y-222496000D02*
X230857500Y-222496000D01*
G75*
G02*
X230806500Y-222445000I0J51000D01*
G01*
X230806500Y-221545000D01*
G75*
G02*
X230857500Y-221494000I51000J0D01*
G01*
X232057500Y-221494000D01*
G75*
G02*
X232108500Y-221545000I0J-51000D01*
G01*
X232108500Y-222445000D01*
G75*
G02*
X232057500Y-222496000I-51000J0D01*
G01*
G37*
G36*
G01*
X232057500Y-219196000D02*
X230857500Y-219196000D01*
G75*
G02*
X230806500Y-219145000I0J51000D01*
G01*
X230806500Y-218245000D01*
G75*
G02*
X230857500Y-218194000I51000J0D01*
G01*
X232057500Y-218194000D01*
G75*
G02*
X232108500Y-218245000I0J-51000D01*
G01*
X232108500Y-219145000D01*
G75*
G02*
X232057500Y-219196000I-51000J0D01*
G01*
G37*
G36*
G01*
X213007500Y-222496000D02*
X211807500Y-222496000D01*
G75*
G02*
X211756500Y-222445000I0J51000D01*
G01*
X211756500Y-221545000D01*
G75*
G02*
X211807500Y-221494000I51000J0D01*
G01*
X213007500Y-221494000D01*
G75*
G02*
X213058500Y-221545000I0J-51000D01*
G01*
X213058500Y-222445000D01*
G75*
G02*
X213007500Y-222496000I-51000J0D01*
G01*
G37*
G36*
G01*
X213007500Y-219196000D02*
X211807500Y-219196000D01*
G75*
G02*
X211756500Y-219145000I0J51000D01*
G01*
X211756500Y-218245000D01*
G75*
G02*
X211807500Y-218194000I51000J0D01*
G01*
X213007500Y-218194000D01*
G75*
G02*
X213058500Y-218245000I0J-51000D01*
G01*
X213058500Y-219145000D01*
G75*
G02*
X213007500Y-219196000I-51000J0D01*
G01*
G37*
G36*
G01*
X193957500Y-222496000D02*
X192757500Y-222496000D01*
G75*
G02*
X192706500Y-222445000I0J51000D01*
G01*
X192706500Y-221545000D01*
G75*
G02*
X192757500Y-221494000I51000J0D01*
G01*
X193957500Y-221494000D01*
G75*
G02*
X194008500Y-221545000I0J-51000D01*
G01*
X194008500Y-222445000D01*
G75*
G02*
X193957500Y-222496000I-51000J0D01*
G01*
G37*
G36*
G01*
X193957500Y-219196000D02*
X192757500Y-219196000D01*
G75*
G02*
X192706500Y-219145000I0J51000D01*
G01*
X192706500Y-218245000D01*
G75*
G02*
X192757500Y-218194000I51000J0D01*
G01*
X193957500Y-218194000D01*
G75*
G02*
X194008500Y-218245000I0J-51000D01*
G01*
X194008500Y-219145000D01*
G75*
G02*
X193957500Y-219196000I-51000J0D01*
G01*
G37*
G36*
G01*
X174907500Y-222496000D02*
X173707500Y-222496000D01*
G75*
G02*
X173656500Y-222445000I0J51000D01*
G01*
X173656500Y-221545000D01*
G75*
G02*
X173707500Y-221494000I51000J0D01*
G01*
X174907500Y-221494000D01*
G75*
G02*
X174958500Y-221545000I0J-51000D01*
G01*
X174958500Y-222445000D01*
G75*
G02*
X174907500Y-222496000I-51000J0D01*
G01*
G37*
G36*
G01*
X174907500Y-219196000D02*
X173707500Y-219196000D01*
G75*
G02*
X173656500Y-219145000I0J51000D01*
G01*
X173656500Y-218245000D01*
G75*
G02*
X173707500Y-218194000I51000J0D01*
G01*
X174907500Y-218194000D01*
G75*
G02*
X174958500Y-218245000I0J-51000D01*
G01*
X174958500Y-219145000D01*
G75*
G02*
X174907500Y-219196000I-51000J0D01*
G01*
G37*
G36*
G01*
X155857500Y-222496000D02*
X154657500Y-222496000D01*
G75*
G02*
X154606500Y-222445000I0J51000D01*
G01*
X154606500Y-221545000D01*
G75*
G02*
X154657500Y-221494000I51000J0D01*
G01*
X155857500Y-221494000D01*
G75*
G02*
X155908500Y-221545000I0J-51000D01*
G01*
X155908500Y-222445000D01*
G75*
G02*
X155857500Y-222496000I-51000J0D01*
G01*
G37*
G36*
G01*
X155857500Y-219196000D02*
X154657500Y-219196000D01*
G75*
G02*
X154606500Y-219145000I0J51000D01*
G01*
X154606500Y-218245000D01*
G75*
G02*
X154657500Y-218194000I51000J0D01*
G01*
X155857500Y-218194000D01*
G75*
G02*
X155908500Y-218245000I0J-51000D01*
G01*
X155908500Y-219145000D01*
G75*
G02*
X155857500Y-219196000I-51000J0D01*
G01*
G37*
G36*
G01*
X104370000Y-226141000D02*
X103170000Y-226141000D01*
G75*
G02*
X103119000Y-226090000I0J51000D01*
G01*
X103119000Y-225190000D01*
G75*
G02*
X103170000Y-225139000I51000J0D01*
G01*
X104370000Y-225139000D01*
G75*
G02*
X104421000Y-225190000I0J-51000D01*
G01*
X104421000Y-226090000D01*
G75*
G02*
X104370000Y-226141000I-51000J0D01*
G01*
G37*
G36*
G01*
X104370000Y-222841000D02*
X103170000Y-222841000D01*
G75*
G02*
X103119000Y-222790000I0J51000D01*
G01*
X103119000Y-221890000D01*
G75*
G02*
X103170000Y-221839000I51000J0D01*
G01*
X104370000Y-221839000D01*
G75*
G02*
X104421000Y-221890000I0J-51000D01*
G01*
X104421000Y-222790000D01*
G75*
G02*
X104370000Y-222841000I-51000J0D01*
G01*
G37*
G36*
G01*
X323339000Y-200146000D02*
X322139000Y-200146000D01*
G75*
G02*
X322088000Y-200095000I0J51000D01*
G01*
X322088000Y-199195000D01*
G75*
G02*
X322139000Y-199144000I51000J0D01*
G01*
X323339000Y-199144000D01*
G75*
G02*
X323390000Y-199195000I0J-51000D01*
G01*
X323390000Y-200095000D01*
G75*
G02*
X323339000Y-200146000I-51000J0D01*
G01*
G37*
G36*
G01*
X323339000Y-203446000D02*
X322139000Y-203446000D01*
G75*
G02*
X322088000Y-203395000I0J51000D01*
G01*
X322088000Y-202495000D01*
G75*
G02*
X322139000Y-202444000I51000J0D01*
G01*
X323339000Y-202444000D01*
G75*
G02*
X323390000Y-202495000I0J-51000D01*
G01*
X323390000Y-203395000D01*
G75*
G02*
X323339000Y-203446000I-51000J0D01*
G01*
G37*
G36*
G01*
X301114000Y-203446000D02*
X299914000Y-203446000D01*
G75*
G02*
X299863000Y-203395000I0J51000D01*
G01*
X299863000Y-202495000D01*
G75*
G02*
X299914000Y-202444000I51000J0D01*
G01*
X301114000Y-202444000D01*
G75*
G02*
X301165000Y-202495000I0J-51000D01*
G01*
X301165000Y-203395000D01*
G75*
G02*
X301114000Y-203446000I-51000J0D01*
G01*
G37*
G36*
G01*
X301114000Y-200146000D02*
X299914000Y-200146000D01*
G75*
G02*
X299863000Y-200095000I0J51000D01*
G01*
X299863000Y-199195000D01*
G75*
G02*
X299914000Y-199144000I51000J0D01*
G01*
X301114000Y-199144000D01*
G75*
G02*
X301165000Y-199195000I0J-51000D01*
G01*
X301165000Y-200095000D01*
G75*
G02*
X301114000Y-200146000I-51000J0D01*
G01*
G37*
G36*
G01*
X279682500Y-203446000D02*
X278482500Y-203446000D01*
G75*
G02*
X278431500Y-203395000I0J51000D01*
G01*
X278431500Y-202495000D01*
G75*
G02*
X278482500Y-202444000I51000J0D01*
G01*
X279682500Y-202444000D01*
G75*
G02*
X279733500Y-202495000I0J-51000D01*
G01*
X279733500Y-203395000D01*
G75*
G02*
X279682500Y-203446000I-51000J0D01*
G01*
G37*
G36*
G01*
X279682500Y-200146000D02*
X278482500Y-200146000D01*
G75*
G02*
X278431500Y-200095000I0J51000D01*
G01*
X278431500Y-199195000D01*
G75*
G02*
X278482500Y-199144000I51000J0D01*
G01*
X279682500Y-199144000D01*
G75*
G02*
X279733500Y-199195000I0J-51000D01*
G01*
X279733500Y-200095000D01*
G75*
G02*
X279682500Y-200146000I-51000J0D01*
G01*
G37*
G36*
G01*
X260632500Y-203446000D02*
X259432500Y-203446000D01*
G75*
G02*
X259381500Y-203395000I0J51000D01*
G01*
X259381500Y-202495000D01*
G75*
G02*
X259432500Y-202444000I51000J0D01*
G01*
X260632500Y-202444000D01*
G75*
G02*
X260683500Y-202495000I0J-51000D01*
G01*
X260683500Y-203395000D01*
G75*
G02*
X260632500Y-203446000I-51000J0D01*
G01*
G37*
G36*
G01*
X260632500Y-200146000D02*
X259432500Y-200146000D01*
G75*
G02*
X259381500Y-200095000I0J51000D01*
G01*
X259381500Y-199195000D01*
G75*
G02*
X259432500Y-199144000I51000J0D01*
G01*
X260632500Y-199144000D01*
G75*
G02*
X260683500Y-199195000I0J-51000D01*
G01*
X260683500Y-200095000D01*
G75*
G02*
X260632500Y-200146000I-51000J0D01*
G01*
G37*
G36*
G01*
X241582500Y-203446000D02*
X240382500Y-203446000D01*
G75*
G02*
X240331500Y-203395000I0J51000D01*
G01*
X240331500Y-202495000D01*
G75*
G02*
X240382500Y-202444000I51000J0D01*
G01*
X241582500Y-202444000D01*
G75*
G02*
X241633500Y-202495000I0J-51000D01*
G01*
X241633500Y-203395000D01*
G75*
G02*
X241582500Y-203446000I-51000J0D01*
G01*
G37*
G36*
G01*
X241582500Y-200146000D02*
X240382500Y-200146000D01*
G75*
G02*
X240331500Y-200095000I0J51000D01*
G01*
X240331500Y-199195000D01*
G75*
G02*
X240382500Y-199144000I51000J0D01*
G01*
X241582500Y-199144000D01*
G75*
G02*
X241633500Y-199195000I0J-51000D01*
G01*
X241633500Y-200095000D01*
G75*
G02*
X241582500Y-200146000I-51000J0D01*
G01*
G37*
G36*
G01*
X222532500Y-200146000D02*
X221332500Y-200146000D01*
G75*
G02*
X221281500Y-200095000I0J51000D01*
G01*
X221281500Y-199195000D01*
G75*
G02*
X221332500Y-199144000I51000J0D01*
G01*
X222532500Y-199144000D01*
G75*
G02*
X222583500Y-199195000I0J-51000D01*
G01*
X222583500Y-200095000D01*
G75*
G02*
X222532500Y-200146000I-51000J0D01*
G01*
G37*
G36*
G01*
X222532500Y-203446000D02*
X221332500Y-203446000D01*
G75*
G02*
X221281500Y-203395000I0J51000D01*
G01*
X221281500Y-202495000D01*
G75*
G02*
X221332500Y-202444000I51000J0D01*
G01*
X222532500Y-202444000D01*
G75*
G02*
X222583500Y-202495000I0J-51000D01*
G01*
X222583500Y-203395000D01*
G75*
G02*
X222532500Y-203446000I-51000J0D01*
G01*
G37*
G36*
G01*
X203482500Y-200146000D02*
X202282500Y-200146000D01*
G75*
G02*
X202231500Y-200095000I0J51000D01*
G01*
X202231500Y-199195000D01*
G75*
G02*
X202282500Y-199144000I51000J0D01*
G01*
X203482500Y-199144000D01*
G75*
G02*
X203533500Y-199195000I0J-51000D01*
G01*
X203533500Y-200095000D01*
G75*
G02*
X203482500Y-200146000I-51000J0D01*
G01*
G37*
G36*
G01*
X203482500Y-203446000D02*
X202282500Y-203446000D01*
G75*
G02*
X202231500Y-203395000I0J51000D01*
G01*
X202231500Y-202495000D01*
G75*
G02*
X202282500Y-202444000I51000J0D01*
G01*
X203482500Y-202444000D01*
G75*
G02*
X203533500Y-202495000I0J-51000D01*
G01*
X203533500Y-203395000D01*
G75*
G02*
X203482500Y-203446000I-51000J0D01*
G01*
G37*
G36*
G01*
X184432500Y-200146000D02*
X183232500Y-200146000D01*
G75*
G02*
X183181500Y-200095000I0J51000D01*
G01*
X183181500Y-199195000D01*
G75*
G02*
X183232500Y-199144000I51000J0D01*
G01*
X184432500Y-199144000D01*
G75*
G02*
X184483500Y-199195000I0J-51000D01*
G01*
X184483500Y-200095000D01*
G75*
G02*
X184432500Y-200146000I-51000J0D01*
G01*
G37*
G36*
G01*
X184432500Y-203446000D02*
X183232500Y-203446000D01*
G75*
G02*
X183181500Y-203395000I0J51000D01*
G01*
X183181500Y-202495000D01*
G75*
G02*
X183232500Y-202444000I51000J0D01*
G01*
X184432500Y-202444000D01*
G75*
G02*
X184483500Y-202495000I0J-51000D01*
G01*
X184483500Y-203395000D01*
G75*
G02*
X184432500Y-203446000I-51000J0D01*
G01*
G37*
G36*
G01*
X165382500Y-200146000D02*
X164182500Y-200146000D01*
G75*
G02*
X164131500Y-200095000I0J51000D01*
G01*
X164131500Y-199195000D01*
G75*
G02*
X164182500Y-199144000I51000J0D01*
G01*
X165382500Y-199144000D01*
G75*
G02*
X165433500Y-199195000I0J-51000D01*
G01*
X165433500Y-200095000D01*
G75*
G02*
X165382500Y-200146000I-51000J0D01*
G01*
G37*
G36*
G01*
X165382500Y-203446000D02*
X164182500Y-203446000D01*
G75*
G02*
X164131500Y-203395000I0J51000D01*
G01*
X164131500Y-202495000D01*
G75*
G02*
X164182500Y-202444000I51000J0D01*
G01*
X165382500Y-202444000D01*
G75*
G02*
X165433500Y-202495000I0J-51000D01*
G01*
X165433500Y-203395000D01*
G75*
G02*
X165382500Y-203446000I-51000J0D01*
G01*
G37*
G36*
G01*
X146332500Y-200146000D02*
X145132500Y-200146000D01*
G75*
G02*
X145081500Y-200095000I0J51000D01*
G01*
X145081500Y-199195000D01*
G75*
G02*
X145132500Y-199144000I51000J0D01*
G01*
X146332500Y-199144000D01*
G75*
G02*
X146383500Y-199195000I0J-51000D01*
G01*
X146383500Y-200095000D01*
G75*
G02*
X146332500Y-200146000I-51000J0D01*
G01*
G37*
G36*
G01*
X146332500Y-203446000D02*
X145132500Y-203446000D01*
G75*
G02*
X145081500Y-203395000I0J51000D01*
G01*
X145081500Y-202495000D01*
G75*
G02*
X145132500Y-202444000I51000J0D01*
G01*
X146332500Y-202444000D01*
G75*
G02*
X146383500Y-202495000I0J-51000D01*
G01*
X146383500Y-203395000D01*
G75*
G02*
X146332500Y-203446000I-51000J0D01*
G01*
G37*
G36*
G01*
X127282500Y-200146000D02*
X126082500Y-200146000D01*
G75*
G02*
X126031500Y-200095000I0J51000D01*
G01*
X126031500Y-199195000D01*
G75*
G02*
X126082500Y-199144000I51000J0D01*
G01*
X127282500Y-199144000D01*
G75*
G02*
X127333500Y-199195000I0J-51000D01*
G01*
X127333500Y-200095000D01*
G75*
G02*
X127282500Y-200146000I-51000J0D01*
G01*
G37*
G36*
G01*
X127282500Y-203446000D02*
X126082500Y-203446000D01*
G75*
G02*
X126031500Y-203395000I0J51000D01*
G01*
X126031500Y-202495000D01*
G75*
G02*
X126082500Y-202444000I51000J0D01*
G01*
X127282500Y-202444000D01*
G75*
G02*
X127333500Y-202495000I0J-51000D01*
G01*
X127333500Y-203395000D01*
G75*
G02*
X127282500Y-203446000I-51000J0D01*
G01*
G37*
G36*
G01*
X321514000Y-181096000D02*
X320314000Y-181096000D01*
G75*
G02*
X320263000Y-181045000I0J51000D01*
G01*
X320263000Y-180145000D01*
G75*
G02*
X320314000Y-180094000I51000J0D01*
G01*
X321514000Y-180094000D01*
G75*
G02*
X321565000Y-180145000I0J-51000D01*
G01*
X321565000Y-181045000D01*
G75*
G02*
X321514000Y-181096000I-51000J0D01*
G01*
G37*
G36*
G01*
X321514000Y-184396000D02*
X320314000Y-184396000D01*
G75*
G02*
X320263000Y-184345000I0J51000D01*
G01*
X320263000Y-183445000D01*
G75*
G02*
X320314000Y-183394000I51000J0D01*
G01*
X321514000Y-183394000D01*
G75*
G02*
X321565000Y-183445000I0J-51000D01*
G01*
X321565000Y-184345000D01*
G75*
G02*
X321514000Y-184396000I-51000J0D01*
G01*
G37*
G36*
G01*
X297541750Y-181096000D02*
X296341750Y-181096000D01*
G75*
G02*
X296290750Y-181045000I0J51000D01*
G01*
X296290750Y-180145000D01*
G75*
G02*
X296341750Y-180094000I51000J0D01*
G01*
X297541750Y-180094000D01*
G75*
G02*
X297592750Y-180145000I0J-51000D01*
G01*
X297592750Y-181045000D01*
G75*
G02*
X297541750Y-181096000I-51000J0D01*
G01*
G37*
G36*
G01*
X297541750Y-184396000D02*
X296341750Y-184396000D01*
G75*
G02*
X296290750Y-184345000I0J51000D01*
G01*
X296290750Y-183445000D01*
G75*
G02*
X296341750Y-183394000I51000J0D01*
G01*
X297541750Y-183394000D01*
G75*
G02*
X297592750Y-183445000I0J-51000D01*
G01*
X297592750Y-184345000D01*
G75*
G02*
X297541750Y-184396000I-51000J0D01*
G01*
G37*
G36*
G01*
X274920000Y-181096000D02*
X273720000Y-181096000D01*
G75*
G02*
X273669000Y-181045000I0J51000D01*
G01*
X273669000Y-180145000D01*
G75*
G02*
X273720000Y-180094000I51000J0D01*
G01*
X274920000Y-180094000D01*
G75*
G02*
X274971000Y-180145000I0J-51000D01*
G01*
X274971000Y-181045000D01*
G75*
G02*
X274920000Y-181096000I-51000J0D01*
G01*
G37*
G36*
G01*
X274920000Y-184396000D02*
X273720000Y-184396000D01*
G75*
G02*
X273669000Y-184345000I0J51000D01*
G01*
X273669000Y-183445000D01*
G75*
G02*
X273720000Y-183394000I51000J0D01*
G01*
X274920000Y-183394000D01*
G75*
G02*
X274971000Y-183445000I0J-51000D01*
G01*
X274971000Y-184345000D01*
G75*
G02*
X274920000Y-184396000I-51000J0D01*
G01*
G37*
G36*
G01*
X255870000Y-181096000D02*
X254670000Y-181096000D01*
G75*
G02*
X254619000Y-181045000I0J51000D01*
G01*
X254619000Y-180145000D01*
G75*
G02*
X254670000Y-180094000I51000J0D01*
G01*
X255870000Y-180094000D01*
G75*
G02*
X255921000Y-180145000I0J-51000D01*
G01*
X255921000Y-181045000D01*
G75*
G02*
X255870000Y-181096000I-51000J0D01*
G01*
G37*
G36*
G01*
X255870000Y-184396000D02*
X254670000Y-184396000D01*
G75*
G02*
X254619000Y-184345000I0J51000D01*
G01*
X254619000Y-183445000D01*
G75*
G02*
X254670000Y-183394000I51000J0D01*
G01*
X255870000Y-183394000D01*
G75*
G02*
X255921000Y-183445000I0J-51000D01*
G01*
X255921000Y-184345000D01*
G75*
G02*
X255870000Y-184396000I-51000J0D01*
G01*
G37*
G36*
G01*
X236820000Y-181096000D02*
X235620000Y-181096000D01*
G75*
G02*
X235569000Y-181045000I0J51000D01*
G01*
X235569000Y-180145000D01*
G75*
G02*
X235620000Y-180094000I51000J0D01*
G01*
X236820000Y-180094000D01*
G75*
G02*
X236871000Y-180145000I0J-51000D01*
G01*
X236871000Y-181045000D01*
G75*
G02*
X236820000Y-181096000I-51000J0D01*
G01*
G37*
G36*
G01*
X236820000Y-184396000D02*
X235620000Y-184396000D01*
G75*
G02*
X235569000Y-184345000I0J51000D01*
G01*
X235569000Y-183445000D01*
G75*
G02*
X235620000Y-183394000I51000J0D01*
G01*
X236820000Y-183394000D01*
G75*
G02*
X236871000Y-183445000I0J-51000D01*
G01*
X236871000Y-184345000D01*
G75*
G02*
X236820000Y-184396000I-51000J0D01*
G01*
G37*
G36*
G01*
X217770000Y-181096000D02*
X216570000Y-181096000D01*
G75*
G02*
X216519000Y-181045000I0J51000D01*
G01*
X216519000Y-180145000D01*
G75*
G02*
X216570000Y-180094000I51000J0D01*
G01*
X217770000Y-180094000D01*
G75*
G02*
X217821000Y-180145000I0J-51000D01*
G01*
X217821000Y-181045000D01*
G75*
G02*
X217770000Y-181096000I-51000J0D01*
G01*
G37*
G36*
G01*
X217770000Y-184396000D02*
X216570000Y-184396000D01*
G75*
G02*
X216519000Y-184345000I0J51000D01*
G01*
X216519000Y-183445000D01*
G75*
G02*
X216570000Y-183394000I51000J0D01*
G01*
X217770000Y-183394000D01*
G75*
G02*
X217821000Y-183445000I0J-51000D01*
G01*
X217821000Y-184345000D01*
G75*
G02*
X217770000Y-184396000I-51000J0D01*
G01*
G37*
G36*
G01*
X198720000Y-184396000D02*
X197520000Y-184396000D01*
G75*
G02*
X197469000Y-184345000I0J51000D01*
G01*
X197469000Y-183445000D01*
G75*
G02*
X197520000Y-183394000I51000J0D01*
G01*
X198720000Y-183394000D01*
G75*
G02*
X198771000Y-183445000I0J-51000D01*
G01*
X198771000Y-184345000D01*
G75*
G02*
X198720000Y-184396000I-51000J0D01*
G01*
G37*
G36*
G01*
X198720000Y-181096000D02*
X197520000Y-181096000D01*
G75*
G02*
X197469000Y-181045000I0J51000D01*
G01*
X197469000Y-180145000D01*
G75*
G02*
X197520000Y-180094000I51000J0D01*
G01*
X198720000Y-180094000D01*
G75*
G02*
X198771000Y-180145000I0J-51000D01*
G01*
X198771000Y-181045000D01*
G75*
G02*
X198720000Y-181096000I-51000J0D01*
G01*
G37*
G36*
G01*
X179670000Y-181096000D02*
X178470000Y-181096000D01*
G75*
G02*
X178419000Y-181045000I0J51000D01*
G01*
X178419000Y-180145000D01*
G75*
G02*
X178470000Y-180094000I51000J0D01*
G01*
X179670000Y-180094000D01*
G75*
G02*
X179721000Y-180145000I0J-51000D01*
G01*
X179721000Y-181045000D01*
G75*
G02*
X179670000Y-181096000I-51000J0D01*
G01*
G37*
G36*
G01*
X179670000Y-184396000D02*
X178470000Y-184396000D01*
G75*
G02*
X178419000Y-184345000I0J51000D01*
G01*
X178419000Y-183445000D01*
G75*
G02*
X178470000Y-183394000I51000J0D01*
G01*
X179670000Y-183394000D01*
G75*
G02*
X179721000Y-183445000I0J-51000D01*
G01*
X179721000Y-184345000D01*
G75*
G02*
X179670000Y-184396000I-51000J0D01*
G01*
G37*
G36*
G01*
X160620000Y-184396000D02*
X159420000Y-184396000D01*
G75*
G02*
X159369000Y-184345000I0J51000D01*
G01*
X159369000Y-183445000D01*
G75*
G02*
X159420000Y-183394000I51000J0D01*
G01*
X160620000Y-183394000D01*
G75*
G02*
X160671000Y-183445000I0J-51000D01*
G01*
X160671000Y-184345000D01*
G75*
G02*
X160620000Y-184396000I-51000J0D01*
G01*
G37*
G36*
G01*
X160620000Y-181096000D02*
X159420000Y-181096000D01*
G75*
G02*
X159369000Y-181045000I0J51000D01*
G01*
X159369000Y-180145000D01*
G75*
G02*
X159420000Y-180094000I51000J0D01*
G01*
X160620000Y-180094000D01*
G75*
G02*
X160671000Y-180145000I0J-51000D01*
G01*
X160671000Y-181045000D01*
G75*
G02*
X160620000Y-181096000I-51000J0D01*
G01*
G37*
G36*
G01*
X141570000Y-184396000D02*
X140370000Y-184396000D01*
G75*
G02*
X140319000Y-184345000I0J51000D01*
G01*
X140319000Y-183445000D01*
G75*
G02*
X140370000Y-183394000I51000J0D01*
G01*
X141570000Y-183394000D01*
G75*
G02*
X141621000Y-183445000I0J-51000D01*
G01*
X141621000Y-184345000D01*
G75*
G02*
X141570000Y-184396000I-51000J0D01*
G01*
G37*
G36*
G01*
X141570000Y-181096000D02*
X140370000Y-181096000D01*
G75*
G02*
X140319000Y-181045000I0J51000D01*
G01*
X140319000Y-180145000D01*
G75*
G02*
X140370000Y-180094000I51000J0D01*
G01*
X141570000Y-180094000D01*
G75*
G02*
X141621000Y-180145000I0J-51000D01*
G01*
X141621000Y-181045000D01*
G75*
G02*
X141570000Y-181096000I-51000J0D01*
G01*
G37*
G36*
G01*
X122520000Y-181096000D02*
X121320000Y-181096000D01*
G75*
G02*
X121269000Y-181045000I0J51000D01*
G01*
X121269000Y-180145000D01*
G75*
G02*
X121320000Y-180094000I51000J0D01*
G01*
X122520000Y-180094000D01*
G75*
G02*
X122571000Y-180145000I0J-51000D01*
G01*
X122571000Y-181045000D01*
G75*
G02*
X122520000Y-181096000I-51000J0D01*
G01*
G37*
G36*
G01*
X122520000Y-184396000D02*
X121320000Y-184396000D01*
G75*
G02*
X121269000Y-184345000I0J51000D01*
G01*
X121269000Y-183445000D01*
G75*
G02*
X121320000Y-183394000I51000J0D01*
G01*
X122520000Y-183394000D01*
G75*
G02*
X122571000Y-183445000I0J-51000D01*
G01*
X122571000Y-184345000D01*
G75*
G02*
X122520000Y-184396000I-51000J0D01*
G01*
G37*
G36*
G01*
X103470000Y-181096000D02*
X102270000Y-181096000D01*
G75*
G02*
X102219000Y-181045000I0J51000D01*
G01*
X102219000Y-180145000D01*
G75*
G02*
X102270000Y-180094000I51000J0D01*
G01*
X103470000Y-180094000D01*
G75*
G02*
X103521000Y-180145000I0J-51000D01*
G01*
X103521000Y-181045000D01*
G75*
G02*
X103470000Y-181096000I-51000J0D01*
G01*
G37*
G36*
G01*
X103470000Y-184396000D02*
X102270000Y-184396000D01*
G75*
G02*
X102219000Y-184345000I0J51000D01*
G01*
X102219000Y-183445000D01*
G75*
G02*
X102270000Y-183394000I51000J0D01*
G01*
X103470000Y-183394000D01*
G75*
G02*
X103521000Y-183445000I0J-51000D01*
G01*
X103521000Y-184345000D01*
G75*
G02*
X103470000Y-184396000I-51000J0D01*
G01*
G37*
D14*
G36*
X112132119Y-208348421D02*
G01*
X112143115Y-208349504D01*
X112143500Y-208349580D01*
X112148174Y-208350998D01*
X112148536Y-208351148D01*
X112152837Y-208353447D01*
X112153163Y-208353665D01*
X112159460Y-208358832D01*
X112179587Y-208372281D01*
X112201861Y-208381507D01*
X112225512Y-208386211D01*
X112249618Y-208386211D01*
X112273268Y-208381506D01*
X112295542Y-208372280D01*
X112315668Y-208358832D01*
X112321965Y-208353665D01*
X112322291Y-208353447D01*
X112326592Y-208351148D01*
X112326954Y-208350998D01*
X112331628Y-208349580D01*
X112332013Y-208349504D01*
X112343009Y-208348421D01*
X112343205Y-208348411D01*
X112399564Y-208348411D01*
X112401296Y-208349411D01*
X112401296Y-208351411D01*
X112399760Y-208352401D01*
X112382791Y-208354072D01*
X112366657Y-208358967D01*
X112351790Y-208366913D01*
X112338760Y-208377607D01*
X112328066Y-208390637D01*
X112320120Y-208405504D01*
X112315225Y-208421638D01*
X112313564Y-208438505D01*
X112313564Y-209439317D01*
X112315225Y-209456184D01*
X112320120Y-209472318D01*
X112328066Y-209487185D01*
X112338760Y-209500215D01*
X112351790Y-209510909D01*
X112366657Y-209518855D01*
X112382791Y-209523750D01*
X112399658Y-209525411D01*
X112575470Y-209525411D01*
X112592337Y-209523750D01*
X112608471Y-209518855D01*
X112623338Y-209510909D01*
X112636368Y-209500215D01*
X112647062Y-209487185D01*
X112655008Y-209472318D01*
X112659903Y-209456184D01*
X112661564Y-209439317D01*
X112661564Y-208438505D01*
X112659903Y-208421638D01*
X112655008Y-208405504D01*
X112647062Y-208390637D01*
X112636368Y-208377607D01*
X112623338Y-208366913D01*
X112608471Y-208358967D01*
X112592337Y-208354072D01*
X112575368Y-208352401D01*
X112573742Y-208351236D01*
X112573938Y-208349246D01*
X112575564Y-208348411D01*
X112631923Y-208348411D01*
X112632119Y-208348421D01*
X112643115Y-208349504D01*
X112643500Y-208349580D01*
X112648174Y-208350998D01*
X112648536Y-208351148D01*
X112652837Y-208353447D01*
X112653163Y-208353665D01*
X112659460Y-208358832D01*
X112679587Y-208372281D01*
X112701861Y-208381507D01*
X112725512Y-208386211D01*
X112749618Y-208386211D01*
X112773268Y-208381506D01*
X112795542Y-208372280D01*
X112815668Y-208358832D01*
X112821965Y-208353665D01*
X112822291Y-208353447D01*
X112826592Y-208351148D01*
X112826954Y-208350998D01*
X112831628Y-208349580D01*
X112832013Y-208349504D01*
X112843009Y-208348421D01*
X112843205Y-208348411D01*
X112899564Y-208348411D01*
X112901296Y-208349411D01*
X112901296Y-208351411D01*
X112899760Y-208352401D01*
X112882791Y-208354072D01*
X112866657Y-208358967D01*
X112851790Y-208366913D01*
X112838760Y-208377607D01*
X112828066Y-208390637D01*
X112820120Y-208405504D01*
X112815225Y-208421638D01*
X112813564Y-208438505D01*
X112813564Y-209439317D01*
X112815225Y-209456184D01*
X112820120Y-209472318D01*
X112828066Y-209487185D01*
X112838760Y-209500215D01*
X112851790Y-209510909D01*
X112866657Y-209518855D01*
X112882791Y-209523750D01*
X112899658Y-209525411D01*
X113075470Y-209525411D01*
X113092337Y-209523750D01*
X113108471Y-209518855D01*
X113123338Y-209510909D01*
X113136368Y-209500215D01*
X113147062Y-209487185D01*
X113155008Y-209472318D01*
X113159903Y-209456184D01*
X113161564Y-209439317D01*
X113161564Y-208438505D01*
X113159903Y-208421638D01*
X113155008Y-208405504D01*
X113147062Y-208390637D01*
X113136368Y-208377607D01*
X113123338Y-208366913D01*
X113108471Y-208358967D01*
X113092337Y-208354072D01*
X113075368Y-208352401D01*
X113073742Y-208351236D01*
X113073938Y-208349246D01*
X113075564Y-208348411D01*
X113131923Y-208348411D01*
X113132119Y-208348421D01*
X113143115Y-208349504D01*
X113143500Y-208349580D01*
X113148174Y-208350998D01*
X113148536Y-208351148D01*
X113152837Y-208353447D01*
X113153163Y-208353665D01*
X113159460Y-208358832D01*
X113179587Y-208372281D01*
X113201861Y-208381507D01*
X113225512Y-208386211D01*
X113249618Y-208386211D01*
X113273268Y-208381506D01*
X113295542Y-208372280D01*
X113315668Y-208358832D01*
X113321965Y-208353665D01*
X113322291Y-208353447D01*
X113326592Y-208351148D01*
X113326954Y-208350998D01*
X113331628Y-208349580D01*
X113332013Y-208349504D01*
X113343009Y-208348421D01*
X113343205Y-208348411D01*
X113399564Y-208348411D01*
X113401296Y-208349411D01*
X113401296Y-208351411D01*
X113399760Y-208352401D01*
X113382791Y-208354072D01*
X113366657Y-208358967D01*
X113351790Y-208366913D01*
X113338760Y-208377607D01*
X113328066Y-208390637D01*
X113320120Y-208405504D01*
X113315225Y-208421638D01*
X113313564Y-208438505D01*
X113313564Y-209439317D01*
X113315225Y-209456184D01*
X113320120Y-209472318D01*
X113328066Y-209487185D01*
X113338760Y-209500215D01*
X113351790Y-209510909D01*
X113366657Y-209518855D01*
X113382791Y-209523750D01*
X113399658Y-209525411D01*
X113575470Y-209525411D01*
X113592337Y-209523750D01*
X113608471Y-209518855D01*
X113623338Y-209510909D01*
X113636368Y-209500215D01*
X113647062Y-209487185D01*
X113655008Y-209472318D01*
X113659903Y-209456184D01*
X113661564Y-209439317D01*
X113661564Y-208438505D01*
X113659903Y-208421638D01*
X113655008Y-208405504D01*
X113647062Y-208390637D01*
X113636368Y-208377607D01*
X113623338Y-208366913D01*
X113608471Y-208358967D01*
X113592337Y-208354072D01*
X113575368Y-208352401D01*
X113573742Y-208351236D01*
X113573938Y-208349246D01*
X113575564Y-208348411D01*
X113631923Y-208348411D01*
X113632119Y-208348421D01*
X113643115Y-208349504D01*
X113643500Y-208349580D01*
X113648174Y-208350998D01*
X113648536Y-208351148D01*
X113652837Y-208353447D01*
X113653163Y-208353665D01*
X113659460Y-208358832D01*
X113679587Y-208372281D01*
X113701861Y-208381507D01*
X113725512Y-208386211D01*
X113749618Y-208386211D01*
X113773268Y-208381506D01*
X113795542Y-208372280D01*
X113815668Y-208358832D01*
X113821965Y-208353665D01*
X113822291Y-208353447D01*
X113826592Y-208351148D01*
X113826954Y-208350998D01*
X113831628Y-208349580D01*
X113832013Y-208349504D01*
X113843009Y-208348421D01*
X113843205Y-208348411D01*
X113899564Y-208348411D01*
X113901296Y-208349411D01*
X113901296Y-208351411D01*
X113899760Y-208352401D01*
X113882791Y-208354072D01*
X113866657Y-208358967D01*
X113851790Y-208366913D01*
X113838760Y-208377607D01*
X113828066Y-208390637D01*
X113820120Y-208405504D01*
X113815225Y-208421638D01*
X113813564Y-208438505D01*
X113813564Y-209439317D01*
X113815225Y-209456184D01*
X113820120Y-209472318D01*
X113828066Y-209487185D01*
X113838760Y-209500215D01*
X113851790Y-209510909D01*
X113866657Y-209518855D01*
X113882791Y-209523750D01*
X113899658Y-209525411D01*
X114075470Y-209525411D01*
X114092337Y-209523750D01*
X114108471Y-209518855D01*
X114123338Y-209510909D01*
X114136368Y-209500215D01*
X114147062Y-209487185D01*
X114155008Y-209472318D01*
X114159903Y-209456184D01*
X114161564Y-209439317D01*
X114161564Y-208438505D01*
X114159903Y-208421638D01*
X114155008Y-208405504D01*
X114147062Y-208390637D01*
X114136368Y-208377607D01*
X114123338Y-208366913D01*
X114108471Y-208358967D01*
X114092337Y-208354072D01*
X114075368Y-208352401D01*
X114073742Y-208351236D01*
X114073938Y-208349246D01*
X114075564Y-208348411D01*
X114131923Y-208348411D01*
X114132119Y-208348421D01*
X114143115Y-208349504D01*
X114143500Y-208349580D01*
X114148174Y-208350998D01*
X114148536Y-208351148D01*
X114152837Y-208353447D01*
X114153163Y-208353665D01*
X114159460Y-208358832D01*
X114179587Y-208372281D01*
X114201861Y-208381507D01*
X114225512Y-208386211D01*
X114249618Y-208386211D01*
X114273268Y-208381506D01*
X114295542Y-208372280D01*
X114315668Y-208358832D01*
X114321965Y-208353665D01*
X114322291Y-208353447D01*
X114326592Y-208351148D01*
X114326954Y-208350998D01*
X114331628Y-208349580D01*
X114332013Y-208349504D01*
X114343009Y-208348421D01*
X114343205Y-208348411D01*
X114399564Y-208348411D01*
X114401296Y-208349411D01*
X114401296Y-208351411D01*
X114399760Y-208352401D01*
X114382791Y-208354072D01*
X114366657Y-208358967D01*
X114351790Y-208366913D01*
X114338760Y-208377607D01*
X114328066Y-208390637D01*
X114320120Y-208405504D01*
X114315225Y-208421638D01*
X114313564Y-208438505D01*
X114313564Y-209439317D01*
X114315225Y-209456184D01*
X114320120Y-209472318D01*
X114328066Y-209487185D01*
X114338760Y-209500215D01*
X114351790Y-209510909D01*
X114366657Y-209518855D01*
X114382791Y-209523750D01*
X114399658Y-209525411D01*
X114575470Y-209525411D01*
X114592337Y-209523750D01*
X114608471Y-209518855D01*
X114623338Y-209510909D01*
X114636368Y-209500215D01*
X114647062Y-209487185D01*
X114655008Y-209472318D01*
X114659903Y-209456184D01*
X114661564Y-209439317D01*
X114661564Y-208438505D01*
X114659903Y-208421638D01*
X114655008Y-208405504D01*
X114647062Y-208390637D01*
X114636368Y-208377607D01*
X114623338Y-208366913D01*
X114608471Y-208358967D01*
X114592337Y-208354072D01*
X114575368Y-208352401D01*
X114573742Y-208351236D01*
X114573938Y-208349246D01*
X114575564Y-208348411D01*
X114631923Y-208348411D01*
X114632119Y-208348421D01*
X114643115Y-208349504D01*
X114643500Y-208349580D01*
X114648174Y-208350998D01*
X114648536Y-208351148D01*
X114652837Y-208353447D01*
X114653163Y-208353665D01*
X114659460Y-208358832D01*
X114679587Y-208372281D01*
X114701861Y-208381507D01*
X114725512Y-208386211D01*
X114749618Y-208386211D01*
X114773268Y-208381506D01*
X114795542Y-208372280D01*
X114815668Y-208358832D01*
X114821965Y-208353665D01*
X114822291Y-208353447D01*
X114826592Y-208351148D01*
X114826954Y-208350998D01*
X114831628Y-208349580D01*
X114832013Y-208349504D01*
X114843009Y-208348421D01*
X114843205Y-208348411D01*
X114899564Y-208348411D01*
X114901296Y-208349411D01*
X114901296Y-208351411D01*
X114899760Y-208352401D01*
X114882791Y-208354072D01*
X114866657Y-208358967D01*
X114851790Y-208366913D01*
X114838760Y-208377607D01*
X114828066Y-208390637D01*
X114820120Y-208405504D01*
X114815225Y-208421638D01*
X114813564Y-208438505D01*
X114813564Y-209439317D01*
X114815225Y-209456184D01*
X114820120Y-209472318D01*
X114828066Y-209487185D01*
X114838760Y-209500215D01*
X114851790Y-209510909D01*
X114866657Y-209518855D01*
X114882791Y-209523750D01*
X114899658Y-209525411D01*
X115075470Y-209525411D01*
X115092337Y-209523750D01*
X115108471Y-209518855D01*
X115123338Y-209510909D01*
X115136368Y-209500215D01*
X115147062Y-209487185D01*
X115155008Y-209472318D01*
X115159903Y-209456184D01*
X115161564Y-209439317D01*
X115161564Y-208438505D01*
X115159903Y-208421638D01*
X115155008Y-208405504D01*
X115147062Y-208390637D01*
X115136368Y-208377607D01*
X115123338Y-208366913D01*
X115108471Y-208358967D01*
X115092337Y-208354072D01*
X115075368Y-208352401D01*
X115073742Y-208351236D01*
X115073938Y-208349246D01*
X115075564Y-208348411D01*
X115131923Y-208348411D01*
X115132119Y-208348421D01*
X115143115Y-208349504D01*
X115143500Y-208349580D01*
X115148174Y-208350998D01*
X115148536Y-208351148D01*
X115152837Y-208353447D01*
X115153163Y-208353665D01*
X115159460Y-208358832D01*
X115179587Y-208372281D01*
X115201861Y-208381507D01*
X115225512Y-208386211D01*
X115249618Y-208386211D01*
X115273268Y-208381506D01*
X115295542Y-208372280D01*
X115315668Y-208358832D01*
X115321965Y-208353665D01*
X115322291Y-208353447D01*
X115326592Y-208351148D01*
X115326954Y-208350998D01*
X115331628Y-208349580D01*
X115332013Y-208349504D01*
X115343009Y-208348421D01*
X115343205Y-208348411D01*
X115399564Y-208348411D01*
X115401296Y-208349411D01*
X115401296Y-208351411D01*
X115399760Y-208352401D01*
X115382791Y-208354072D01*
X115366657Y-208358967D01*
X115351790Y-208366913D01*
X115338760Y-208377607D01*
X115328066Y-208390637D01*
X115320120Y-208405504D01*
X115315225Y-208421638D01*
X115313564Y-208438505D01*
X115313564Y-209439317D01*
X115315225Y-209456184D01*
X115320120Y-209472318D01*
X115328066Y-209487185D01*
X115338760Y-209500215D01*
X115351790Y-209510909D01*
X115366657Y-209518855D01*
X115382791Y-209523750D01*
X115399658Y-209525411D01*
X115575470Y-209525411D01*
X115592337Y-209523750D01*
X115608471Y-209518855D01*
X115623338Y-209510909D01*
X115636368Y-209500215D01*
X115647062Y-209487185D01*
X115655008Y-209472318D01*
X115659903Y-209456184D01*
X115661564Y-209439317D01*
X115661564Y-208438505D01*
X115659903Y-208421638D01*
X115655008Y-208405504D01*
X115647062Y-208390637D01*
X115636368Y-208377607D01*
X115623338Y-208366913D01*
X115608471Y-208358967D01*
X115592337Y-208354072D01*
X115575368Y-208352401D01*
X115573742Y-208351236D01*
X115573938Y-208349246D01*
X115575564Y-208348411D01*
X115631923Y-208348411D01*
X115632119Y-208348421D01*
X115643115Y-208349504D01*
X115643500Y-208349580D01*
X115648174Y-208350998D01*
X115648536Y-208351148D01*
X115652837Y-208353447D01*
X115653163Y-208353665D01*
X115659460Y-208358832D01*
X115679587Y-208372281D01*
X115701861Y-208381507D01*
X115725512Y-208386211D01*
X115749618Y-208386211D01*
X115773268Y-208381506D01*
X115795542Y-208372280D01*
X115815668Y-208358832D01*
X115821965Y-208353665D01*
X115822291Y-208353447D01*
X115826592Y-208351148D01*
X115826954Y-208350998D01*
X115831628Y-208349580D01*
X115832013Y-208349504D01*
X115843009Y-208348421D01*
X115843205Y-208348411D01*
X115899564Y-208348411D01*
X115901296Y-208349411D01*
X115901296Y-208351411D01*
X115899760Y-208352401D01*
X115882791Y-208354072D01*
X115866657Y-208358967D01*
X115851790Y-208366913D01*
X115838760Y-208377607D01*
X115828066Y-208390637D01*
X115820120Y-208405504D01*
X115815225Y-208421638D01*
X115813564Y-208438505D01*
X115813564Y-209439317D01*
X115815225Y-209456184D01*
X115820120Y-209472318D01*
X115828066Y-209487185D01*
X115838760Y-209500215D01*
X115851790Y-209510909D01*
X115866657Y-209518855D01*
X115882791Y-209523750D01*
X115899658Y-209525411D01*
X116075470Y-209525411D01*
X116092337Y-209523750D01*
X116108471Y-209518855D01*
X116123338Y-209510909D01*
X116136368Y-209500215D01*
X116147062Y-209487185D01*
X116155008Y-209472318D01*
X116159903Y-209456184D01*
X116161564Y-209439317D01*
X116161564Y-208438505D01*
X116159903Y-208421638D01*
X116155008Y-208405504D01*
X116147062Y-208390637D01*
X116136368Y-208377607D01*
X116123338Y-208366913D01*
X116108471Y-208358967D01*
X116092337Y-208354072D01*
X116075368Y-208352401D01*
X116073742Y-208351236D01*
X116073938Y-208349246D01*
X116075564Y-208348411D01*
X116131923Y-208348411D01*
X116132119Y-208348421D01*
X116143115Y-208349504D01*
X116143500Y-208349580D01*
X116148174Y-208350998D01*
X116148536Y-208351148D01*
X116152837Y-208353447D01*
X116153163Y-208353665D01*
X116159460Y-208358832D01*
X116179587Y-208372281D01*
X116201861Y-208381507D01*
X116225512Y-208386211D01*
X116249618Y-208386211D01*
X116273268Y-208381506D01*
X116295542Y-208372280D01*
X116315668Y-208358832D01*
X116321965Y-208353665D01*
X116322291Y-208353447D01*
X116326592Y-208351148D01*
X116326954Y-208350998D01*
X116331628Y-208349580D01*
X116332013Y-208349504D01*
X116343009Y-208348421D01*
X116343205Y-208348411D01*
X116399564Y-208348411D01*
X116401296Y-208349411D01*
X116401296Y-208351411D01*
X116399760Y-208352401D01*
X116382791Y-208354072D01*
X116366657Y-208358967D01*
X116351790Y-208366913D01*
X116338760Y-208377607D01*
X116328066Y-208390637D01*
X116320120Y-208405504D01*
X116315225Y-208421638D01*
X116313564Y-208438505D01*
X116313564Y-209439317D01*
X116315225Y-209456184D01*
X116320120Y-209472318D01*
X116328066Y-209487185D01*
X116338760Y-209500215D01*
X116351790Y-209510909D01*
X116366657Y-209518855D01*
X116382791Y-209523750D01*
X116399658Y-209525411D01*
X116575470Y-209525411D01*
X116592337Y-209523750D01*
X116608471Y-209518855D01*
X116623338Y-209510909D01*
X116636368Y-209500215D01*
X116647062Y-209487185D01*
X116655008Y-209472318D01*
X116659903Y-209456184D01*
X116661564Y-209439317D01*
X116661564Y-208438505D01*
X116659903Y-208421638D01*
X116655008Y-208405504D01*
X116647062Y-208390637D01*
X116636368Y-208377607D01*
X116623338Y-208366913D01*
X116608471Y-208358967D01*
X116592337Y-208354072D01*
X116575368Y-208352401D01*
X116573742Y-208351236D01*
X116573938Y-208349246D01*
X116575564Y-208348411D01*
X116631923Y-208348411D01*
X116632119Y-208348421D01*
X116643115Y-208349504D01*
X116643500Y-208349580D01*
X116648174Y-208350998D01*
X116648536Y-208351148D01*
X116652837Y-208353447D01*
X116653163Y-208353665D01*
X116659460Y-208358832D01*
X116679587Y-208372281D01*
X116701861Y-208381507D01*
X116725512Y-208386211D01*
X116749618Y-208386211D01*
X116773268Y-208381506D01*
X116795542Y-208372280D01*
X116815668Y-208358832D01*
X116821965Y-208353665D01*
X116822291Y-208353447D01*
X116826592Y-208351148D01*
X116826954Y-208350998D01*
X116831628Y-208349580D01*
X116832013Y-208349504D01*
X116843009Y-208348421D01*
X116843205Y-208348411D01*
X116899564Y-208348411D01*
X116901296Y-208349411D01*
X116901296Y-208351411D01*
X116899760Y-208352401D01*
X116882791Y-208354072D01*
X116866657Y-208358967D01*
X116851790Y-208366913D01*
X116838760Y-208377607D01*
X116828066Y-208390637D01*
X116820120Y-208405504D01*
X116815225Y-208421638D01*
X116813564Y-208438505D01*
X116813564Y-209439317D01*
X116815225Y-209456184D01*
X116820120Y-209472318D01*
X116828066Y-209487185D01*
X116838760Y-209500215D01*
X116851790Y-209510909D01*
X116866657Y-209518855D01*
X116882791Y-209523750D01*
X116899658Y-209525411D01*
X117075470Y-209525411D01*
X117092337Y-209523750D01*
X117108471Y-209518855D01*
X117123338Y-209510909D01*
X117136368Y-209500215D01*
X117147062Y-209487185D01*
X117155008Y-209472318D01*
X117159903Y-209456184D01*
X117161574Y-209439215D01*
X117162739Y-209437589D01*
X117164729Y-209437785D01*
X117165564Y-209439411D01*
X117165564Y-209475318D01*
X117167936Y-209499403D01*
X117174936Y-209522478D01*
X117186301Y-209543742D01*
X117201596Y-209562379D01*
X117220233Y-209577674D01*
X117241497Y-209589039D01*
X117264572Y-209596039D01*
X117288657Y-209598411D01*
X117324564Y-209598411D01*
X117326296Y-209599411D01*
X117326296Y-209601411D01*
X117324760Y-209602401D01*
X117307791Y-209604072D01*
X117291657Y-209608967D01*
X117276790Y-209616913D01*
X117263760Y-209627607D01*
X117253066Y-209640637D01*
X117245120Y-209655504D01*
X117240225Y-209671638D01*
X117238564Y-209688505D01*
X117238564Y-209864317D01*
X117240225Y-209881184D01*
X117245120Y-209897318D01*
X117253066Y-209912185D01*
X117263760Y-209925215D01*
X117276790Y-209935909D01*
X117291657Y-209943855D01*
X117307791Y-209948750D01*
X117324658Y-209950411D01*
X118325470Y-209950411D01*
X118342337Y-209948750D01*
X118358471Y-209943855D01*
X118373338Y-209935909D01*
X118386368Y-209925215D01*
X118397062Y-209912185D01*
X118405008Y-209897318D01*
X118409903Y-209881184D01*
X118411574Y-209864215D01*
X118412739Y-209862589D01*
X118414729Y-209862785D01*
X118415564Y-209864411D01*
X118415564Y-209920770D01*
X118415554Y-209920966D01*
X118414471Y-209931962D01*
X118414395Y-209932347D01*
X118412977Y-209937021D01*
X118412827Y-209937383D01*
X118410528Y-209941684D01*
X118410310Y-209942010D01*
X118405143Y-209948307D01*
X118391694Y-209968434D01*
X118382468Y-209990708D01*
X118377764Y-210014359D01*
X118377764Y-210038465D01*
X118382469Y-210062115D01*
X118391695Y-210084389D01*
X118405143Y-210104515D01*
X118410310Y-210110812D01*
X118410528Y-210111138D01*
X118412827Y-210115439D01*
X118412977Y-210115801D01*
X118414395Y-210120475D01*
X118414471Y-210120860D01*
X118415554Y-210131856D01*
X118415564Y-210132052D01*
X118415564Y-210188411D01*
X118414564Y-210190143D01*
X118412564Y-210190143D01*
X118411574Y-210188607D01*
X118409903Y-210171638D01*
X118405008Y-210155504D01*
X118397062Y-210140637D01*
X118386368Y-210127607D01*
X118373338Y-210116913D01*
X118358471Y-210108967D01*
X118342337Y-210104072D01*
X118325470Y-210102411D01*
X117324658Y-210102411D01*
X117307791Y-210104072D01*
X117291657Y-210108967D01*
X117276790Y-210116913D01*
X117263760Y-210127607D01*
X117253066Y-210140637D01*
X117245120Y-210155504D01*
X117240225Y-210171638D01*
X117238564Y-210188505D01*
X117238564Y-210364317D01*
X117240225Y-210381184D01*
X117245120Y-210397318D01*
X117253066Y-210412185D01*
X117263760Y-210425215D01*
X117276790Y-210435909D01*
X117291657Y-210443855D01*
X117307791Y-210448750D01*
X117324658Y-210450411D01*
X118325470Y-210450411D01*
X118342337Y-210448750D01*
X118358471Y-210443855D01*
X118373338Y-210435909D01*
X118386368Y-210425215D01*
X118397062Y-210412185D01*
X118405008Y-210397318D01*
X118409903Y-210381184D01*
X118411574Y-210364215D01*
X118412739Y-210362589D01*
X118414729Y-210362785D01*
X118415564Y-210364411D01*
X118415564Y-210420770D01*
X118415554Y-210420966D01*
X118414471Y-210431962D01*
X118414395Y-210432347D01*
X118412977Y-210437021D01*
X118412827Y-210437383D01*
X118410528Y-210441684D01*
X118410310Y-210442010D01*
X118405143Y-210448307D01*
X118391694Y-210468434D01*
X118382468Y-210490708D01*
X118377764Y-210514359D01*
X118377764Y-210538465D01*
X118382469Y-210562115D01*
X118391695Y-210584389D01*
X118405143Y-210604515D01*
X118410310Y-210610812D01*
X118410528Y-210611138D01*
X118412827Y-210615439D01*
X118412977Y-210615801D01*
X118414395Y-210620475D01*
X118414471Y-210620860D01*
X118415554Y-210631856D01*
X118415564Y-210632052D01*
X118415564Y-210688411D01*
X118414564Y-210690143D01*
X118412564Y-210690143D01*
X118411574Y-210688607D01*
X118409903Y-210671638D01*
X118405008Y-210655504D01*
X118397062Y-210640637D01*
X118386368Y-210627607D01*
X118373338Y-210616913D01*
X118358471Y-210608967D01*
X118342337Y-210604072D01*
X118325470Y-210602411D01*
X117324658Y-210602411D01*
X117307791Y-210604072D01*
X117291657Y-210608967D01*
X117276790Y-210616913D01*
X117263760Y-210627607D01*
X117253066Y-210640637D01*
X117245120Y-210655504D01*
X117240225Y-210671638D01*
X117238564Y-210688505D01*
X117238564Y-210864317D01*
X117240225Y-210881184D01*
X117245120Y-210897318D01*
X117253066Y-210912185D01*
X117263760Y-210925215D01*
X117276790Y-210935909D01*
X117291657Y-210943855D01*
X117307791Y-210948750D01*
X117324658Y-210950411D01*
X118325470Y-210950411D01*
X118342337Y-210948750D01*
X118358471Y-210943855D01*
X118373338Y-210935909D01*
X118386368Y-210925215D01*
X118397062Y-210912185D01*
X118405008Y-210897318D01*
X118409903Y-210881184D01*
X118411574Y-210864215D01*
X118412739Y-210862589D01*
X118414729Y-210862785D01*
X118415564Y-210864411D01*
X118415564Y-210920770D01*
X118415554Y-210920966D01*
X118414471Y-210931962D01*
X118414395Y-210932347D01*
X118412977Y-210937021D01*
X118412827Y-210937383D01*
X118410528Y-210941684D01*
X118410310Y-210942010D01*
X118405143Y-210948307D01*
X118391694Y-210968434D01*
X118382468Y-210990708D01*
X118377764Y-211014359D01*
X118377764Y-211038465D01*
X118382469Y-211062115D01*
X118391695Y-211084389D01*
X118405143Y-211104515D01*
X118410310Y-211110812D01*
X118410528Y-211111138D01*
X118412827Y-211115439D01*
X118412977Y-211115801D01*
X118414395Y-211120475D01*
X118414471Y-211120860D01*
X118415554Y-211131856D01*
X118415564Y-211132052D01*
X118415564Y-211188411D01*
X118414564Y-211190143D01*
X118412564Y-211190143D01*
X118411574Y-211188607D01*
X118409903Y-211171638D01*
X118405008Y-211155504D01*
X118397062Y-211140637D01*
X118386368Y-211127607D01*
X118373338Y-211116913D01*
X118358471Y-211108967D01*
X118342337Y-211104072D01*
X118325470Y-211102411D01*
X117324658Y-211102411D01*
X117307791Y-211104072D01*
X117291657Y-211108967D01*
X117276790Y-211116913D01*
X117263760Y-211127607D01*
X117253066Y-211140637D01*
X117245120Y-211155504D01*
X117240225Y-211171638D01*
X117238564Y-211188505D01*
X117238564Y-211364317D01*
X117240225Y-211381184D01*
X117245120Y-211397318D01*
X117253066Y-211412185D01*
X117263760Y-211425215D01*
X117276790Y-211435909D01*
X117291657Y-211443855D01*
X117307791Y-211448750D01*
X117324658Y-211450411D01*
X118325470Y-211450411D01*
X118342337Y-211448750D01*
X118358471Y-211443855D01*
X118373338Y-211435909D01*
X118386368Y-211425215D01*
X118397062Y-211412185D01*
X118405008Y-211397318D01*
X118409903Y-211381184D01*
X118411574Y-211364215D01*
X118412739Y-211362589D01*
X118414729Y-211362785D01*
X118415564Y-211364411D01*
X118415564Y-211420770D01*
X118415554Y-211420966D01*
X118414471Y-211431962D01*
X118414395Y-211432347D01*
X118412977Y-211437021D01*
X118412827Y-211437383D01*
X118410528Y-211441684D01*
X118410310Y-211442010D01*
X118405143Y-211448307D01*
X118391694Y-211468434D01*
X118382468Y-211490708D01*
X118377764Y-211514359D01*
X118377764Y-211538465D01*
X118382469Y-211562115D01*
X118391695Y-211584389D01*
X118405143Y-211604515D01*
X118410310Y-211610812D01*
X118410528Y-211611138D01*
X118412827Y-211615439D01*
X118412977Y-211615801D01*
X118414395Y-211620475D01*
X118414471Y-211620860D01*
X118415554Y-211631856D01*
X118415564Y-211632052D01*
X118415564Y-211688411D01*
X118414564Y-211690143D01*
X118412564Y-211690143D01*
X118411574Y-211688607D01*
X118409903Y-211671638D01*
X118405008Y-211655504D01*
X118397062Y-211640637D01*
X118386368Y-211627607D01*
X118373338Y-211616913D01*
X118358471Y-211608967D01*
X118342337Y-211604072D01*
X118325470Y-211602411D01*
X117324658Y-211602411D01*
X117307791Y-211604072D01*
X117291657Y-211608967D01*
X117276790Y-211616913D01*
X117263760Y-211627607D01*
X117253066Y-211640637D01*
X117245120Y-211655504D01*
X117240225Y-211671638D01*
X117238564Y-211688505D01*
X117238564Y-211864317D01*
X117240225Y-211881184D01*
X117245120Y-211897318D01*
X117253066Y-211912185D01*
X117263760Y-211925215D01*
X117276790Y-211935909D01*
X117291657Y-211943855D01*
X117307791Y-211948750D01*
X117324658Y-211950411D01*
X118325470Y-211950411D01*
X118342337Y-211948750D01*
X118358471Y-211943855D01*
X118373338Y-211935909D01*
X118386368Y-211925215D01*
X118397062Y-211912185D01*
X118405008Y-211897318D01*
X118409903Y-211881184D01*
X118411574Y-211864215D01*
X118412739Y-211862589D01*
X118414729Y-211862785D01*
X118415564Y-211864411D01*
X118415564Y-211920770D01*
X118415554Y-211920966D01*
X118414471Y-211931962D01*
X118414395Y-211932347D01*
X118412977Y-211937021D01*
X118412827Y-211937383D01*
X118410528Y-211941684D01*
X118410310Y-211942010D01*
X118405143Y-211948307D01*
X118391694Y-211968434D01*
X118382468Y-211990708D01*
X118377764Y-212014359D01*
X118377764Y-212038465D01*
X118382469Y-212062115D01*
X118391695Y-212084389D01*
X118405143Y-212104515D01*
X118410310Y-212110812D01*
X118410528Y-212111138D01*
X118412827Y-212115439D01*
X118412977Y-212115801D01*
X118414395Y-212120475D01*
X118414471Y-212120860D01*
X118415554Y-212131856D01*
X118415564Y-212132052D01*
X118415564Y-212188411D01*
X118414564Y-212190143D01*
X118412564Y-212190143D01*
X118411574Y-212188607D01*
X118409903Y-212171638D01*
X118405008Y-212155504D01*
X118397062Y-212140637D01*
X118386368Y-212127607D01*
X118373338Y-212116913D01*
X118358471Y-212108967D01*
X118342337Y-212104072D01*
X118325470Y-212102411D01*
X117324658Y-212102411D01*
X117307791Y-212104072D01*
X117291657Y-212108967D01*
X117276790Y-212116913D01*
X117263760Y-212127607D01*
X117253066Y-212140637D01*
X117245120Y-212155504D01*
X117240225Y-212171638D01*
X117238564Y-212188505D01*
X117238564Y-212364317D01*
X117240225Y-212381184D01*
X117245120Y-212397318D01*
X117253066Y-212412185D01*
X117263760Y-212425215D01*
X117276790Y-212435909D01*
X117291657Y-212443855D01*
X117307791Y-212448750D01*
X117324658Y-212450411D01*
X118325470Y-212450411D01*
X118342337Y-212448750D01*
X118358471Y-212443855D01*
X118373338Y-212435909D01*
X118386368Y-212425215D01*
X118397062Y-212412185D01*
X118405008Y-212397318D01*
X118409903Y-212381184D01*
X118411574Y-212364215D01*
X118412739Y-212362589D01*
X118414729Y-212362785D01*
X118415564Y-212364411D01*
X118415564Y-212420770D01*
X118415554Y-212420966D01*
X118414471Y-212431962D01*
X118414395Y-212432347D01*
X118412977Y-212437021D01*
X118412827Y-212437383D01*
X118410528Y-212441684D01*
X118410310Y-212442010D01*
X118405143Y-212448307D01*
X118391694Y-212468434D01*
X118382468Y-212490708D01*
X118377764Y-212514359D01*
X118377764Y-212538465D01*
X118382469Y-212562115D01*
X118391695Y-212584389D01*
X118405143Y-212604515D01*
X118410310Y-212610812D01*
X118410528Y-212611138D01*
X118412827Y-212615439D01*
X118412977Y-212615801D01*
X118414395Y-212620475D01*
X118414471Y-212620860D01*
X118415554Y-212631856D01*
X118415564Y-212632052D01*
X118415564Y-212688411D01*
X118414564Y-212690143D01*
X118412564Y-212690143D01*
X118411574Y-212688607D01*
X118409903Y-212671638D01*
X118405008Y-212655504D01*
X118397062Y-212640637D01*
X118386368Y-212627607D01*
X118373338Y-212616913D01*
X118358471Y-212608967D01*
X118342337Y-212604072D01*
X118325470Y-212602411D01*
X117324658Y-212602411D01*
X117307791Y-212604072D01*
X117291657Y-212608967D01*
X117276790Y-212616913D01*
X117263760Y-212627607D01*
X117253066Y-212640637D01*
X117245120Y-212655504D01*
X117240225Y-212671638D01*
X117238564Y-212688505D01*
X117238564Y-212864317D01*
X117240225Y-212881184D01*
X117245120Y-212897318D01*
X117253066Y-212912185D01*
X117263760Y-212925215D01*
X117276790Y-212935909D01*
X117291657Y-212943855D01*
X117307791Y-212948750D01*
X117324658Y-212950411D01*
X118325470Y-212950411D01*
X118342337Y-212948750D01*
X118358471Y-212943855D01*
X118373338Y-212935909D01*
X118386368Y-212925215D01*
X118397062Y-212912185D01*
X118405008Y-212897318D01*
X118409903Y-212881184D01*
X118411574Y-212864215D01*
X118412739Y-212862589D01*
X118414729Y-212862785D01*
X118415564Y-212864411D01*
X118415564Y-212920770D01*
X118415554Y-212920966D01*
X118414471Y-212931962D01*
X118414395Y-212932347D01*
X118412977Y-212937021D01*
X118412827Y-212937383D01*
X118410528Y-212941684D01*
X118410310Y-212942010D01*
X118405143Y-212948307D01*
X118391694Y-212968434D01*
X118382468Y-212990708D01*
X118377764Y-213014359D01*
X118377764Y-213038465D01*
X118382469Y-213062115D01*
X118391695Y-213084389D01*
X118405143Y-213104515D01*
X118410310Y-213110812D01*
X118410528Y-213111138D01*
X118412827Y-213115439D01*
X118412977Y-213115801D01*
X118414395Y-213120475D01*
X118414471Y-213120860D01*
X118415554Y-213131856D01*
X118415564Y-213132052D01*
X118415564Y-213188411D01*
X118414564Y-213190143D01*
X118412564Y-213190143D01*
X118411574Y-213188607D01*
X118409903Y-213171638D01*
X118405008Y-213155504D01*
X118397062Y-213140637D01*
X118386368Y-213127607D01*
X118373338Y-213116913D01*
X118358471Y-213108967D01*
X118342337Y-213104072D01*
X118325470Y-213102411D01*
X117324658Y-213102411D01*
X117307791Y-213104072D01*
X117291657Y-213108967D01*
X117276790Y-213116913D01*
X117263760Y-213127607D01*
X117253066Y-213140637D01*
X117245120Y-213155504D01*
X117240225Y-213171638D01*
X117238564Y-213188505D01*
X117238564Y-213364317D01*
X117240225Y-213381184D01*
X117245120Y-213397318D01*
X117253066Y-213412185D01*
X117263760Y-213425215D01*
X117276790Y-213435909D01*
X117291657Y-213443855D01*
X117307791Y-213448750D01*
X117324658Y-213450411D01*
X118325470Y-213450411D01*
X118342337Y-213448750D01*
X118358471Y-213443855D01*
X118373338Y-213435909D01*
X118386368Y-213425215D01*
X118397062Y-213412185D01*
X118405008Y-213397318D01*
X118409903Y-213381184D01*
X118411574Y-213364215D01*
X118412739Y-213362589D01*
X118414729Y-213362785D01*
X118415564Y-213364411D01*
X118415564Y-213420770D01*
X118415554Y-213420966D01*
X118414471Y-213431962D01*
X118414395Y-213432347D01*
X118412977Y-213437021D01*
X118412827Y-213437383D01*
X118410528Y-213441684D01*
X118410310Y-213442010D01*
X118405143Y-213448307D01*
X118391694Y-213468434D01*
X118382468Y-213490708D01*
X118377764Y-213514359D01*
X118377764Y-213538465D01*
X118382469Y-213562115D01*
X118391695Y-213584389D01*
X118405143Y-213604515D01*
X118410310Y-213610812D01*
X118410528Y-213611138D01*
X118412827Y-213615439D01*
X118412977Y-213615801D01*
X118414395Y-213620475D01*
X118414471Y-213620860D01*
X118415554Y-213631856D01*
X118415564Y-213632052D01*
X118415564Y-213688411D01*
X118414564Y-213690143D01*
X118412564Y-213690143D01*
X118411574Y-213688607D01*
X118409903Y-213671638D01*
X118405008Y-213655504D01*
X118397062Y-213640637D01*
X118386368Y-213627607D01*
X118373338Y-213616913D01*
X118358471Y-213608967D01*
X118342337Y-213604072D01*
X118325470Y-213602411D01*
X117324658Y-213602411D01*
X117307791Y-213604072D01*
X117291657Y-213608967D01*
X117276790Y-213616913D01*
X117263760Y-213627607D01*
X117253066Y-213640637D01*
X117245120Y-213655504D01*
X117240225Y-213671638D01*
X117238564Y-213688505D01*
X117238564Y-213864317D01*
X117240225Y-213881184D01*
X117245120Y-213897318D01*
X117253066Y-213912185D01*
X117263760Y-213925215D01*
X117276790Y-213935909D01*
X117291657Y-213943855D01*
X117307791Y-213948750D01*
X117324658Y-213950411D01*
X118325470Y-213950411D01*
X118342337Y-213948750D01*
X118358471Y-213943855D01*
X118373338Y-213935909D01*
X118386368Y-213925215D01*
X118397062Y-213912185D01*
X118405008Y-213897318D01*
X118409903Y-213881184D01*
X118411574Y-213864215D01*
X118412739Y-213862589D01*
X118414729Y-213862785D01*
X118415564Y-213864411D01*
X118415564Y-213920770D01*
X118415554Y-213920966D01*
X118414471Y-213931962D01*
X118414395Y-213932347D01*
X118412977Y-213937021D01*
X118412827Y-213937383D01*
X118410528Y-213941684D01*
X118410310Y-213942010D01*
X118405143Y-213948307D01*
X118391694Y-213968434D01*
X118382468Y-213990708D01*
X118377764Y-214014359D01*
X118377764Y-214038465D01*
X118382469Y-214062115D01*
X118391695Y-214084389D01*
X118405143Y-214104515D01*
X118410310Y-214110812D01*
X118410528Y-214111138D01*
X118412827Y-214115439D01*
X118412977Y-214115801D01*
X118414395Y-214120475D01*
X118414471Y-214120860D01*
X118415554Y-214131856D01*
X118415564Y-214132052D01*
X118415564Y-214188411D01*
X118414564Y-214190143D01*
X118412564Y-214190143D01*
X118411574Y-214188607D01*
X118409903Y-214171638D01*
X118405008Y-214155504D01*
X118397062Y-214140637D01*
X118386368Y-214127607D01*
X118373338Y-214116913D01*
X118358471Y-214108967D01*
X118342337Y-214104072D01*
X118325470Y-214102411D01*
X117324658Y-214102411D01*
X117307791Y-214104072D01*
X117291657Y-214108967D01*
X117276790Y-214116913D01*
X117263760Y-214127607D01*
X117253066Y-214140637D01*
X117245120Y-214155504D01*
X117240225Y-214171638D01*
X117238564Y-214188505D01*
X117238564Y-214364317D01*
X117240225Y-214381184D01*
X117245120Y-214397318D01*
X117253066Y-214412185D01*
X117263760Y-214425215D01*
X117276790Y-214435909D01*
X117291657Y-214443855D01*
X117307791Y-214448750D01*
X117324658Y-214450411D01*
X118325470Y-214450411D01*
X118342337Y-214448750D01*
X118358471Y-214443855D01*
X118373338Y-214435909D01*
X118386368Y-214425215D01*
X118397062Y-214412185D01*
X118405008Y-214397318D01*
X118409903Y-214381184D01*
X118411574Y-214364215D01*
X118412739Y-214362589D01*
X118414729Y-214362785D01*
X118415564Y-214364411D01*
X118415564Y-214420770D01*
X118415554Y-214420966D01*
X118414471Y-214431962D01*
X118414395Y-214432347D01*
X118412977Y-214437021D01*
X118412827Y-214437383D01*
X118410528Y-214441684D01*
X118410310Y-214442010D01*
X118405143Y-214448307D01*
X118391694Y-214468434D01*
X118382468Y-214490708D01*
X118377764Y-214514359D01*
X118377764Y-214538465D01*
X118382469Y-214562115D01*
X118391695Y-214584389D01*
X118405143Y-214604515D01*
X118410310Y-214610812D01*
X118410528Y-214611138D01*
X118412827Y-214615439D01*
X118412977Y-214615801D01*
X118414395Y-214620475D01*
X118414471Y-214620860D01*
X118415554Y-214631856D01*
X118415564Y-214632052D01*
X118415564Y-214688411D01*
X118414564Y-214690143D01*
X118412564Y-214690143D01*
X118411574Y-214688607D01*
X118409903Y-214671638D01*
X118405008Y-214655504D01*
X118397062Y-214640637D01*
X118386368Y-214627607D01*
X118373338Y-214616913D01*
X118358471Y-214608967D01*
X118342337Y-214604072D01*
X118325470Y-214602411D01*
X117324658Y-214602411D01*
X117307791Y-214604072D01*
X117291657Y-214608967D01*
X117276790Y-214616913D01*
X117263760Y-214627607D01*
X117253066Y-214640637D01*
X117245120Y-214655504D01*
X117240225Y-214671638D01*
X117238564Y-214688505D01*
X117238564Y-214864317D01*
X117240225Y-214881184D01*
X117245120Y-214897318D01*
X117253066Y-214912185D01*
X117263760Y-214925215D01*
X117276790Y-214935909D01*
X117291657Y-214943855D01*
X117307791Y-214948750D01*
X117324760Y-214950421D01*
X117326386Y-214951586D01*
X117326190Y-214953576D01*
X117324564Y-214954411D01*
X117288657Y-214954411D01*
X117264572Y-214956783D01*
X117241497Y-214963783D01*
X117220233Y-214975148D01*
X117201596Y-214990443D01*
X117186301Y-215009080D01*
X117174936Y-215030344D01*
X117167936Y-215053419D01*
X117165564Y-215077504D01*
X117165564Y-215113411D01*
X117164564Y-215115143D01*
X117162564Y-215115143D01*
X117161574Y-215113607D01*
X117159903Y-215096638D01*
X117155008Y-215080504D01*
X117147062Y-215065637D01*
X117136368Y-215052607D01*
X117123338Y-215041913D01*
X117108471Y-215033967D01*
X117092337Y-215029072D01*
X117075470Y-215027411D01*
X116899658Y-215027411D01*
X116882791Y-215029072D01*
X116866657Y-215033967D01*
X116851790Y-215041913D01*
X116838760Y-215052607D01*
X116828066Y-215065637D01*
X116820120Y-215080504D01*
X116815225Y-215096638D01*
X116813564Y-215113505D01*
X116813564Y-216114317D01*
X116815225Y-216131184D01*
X116820120Y-216147318D01*
X116828066Y-216162185D01*
X116838760Y-216175215D01*
X116851790Y-216185909D01*
X116866657Y-216193855D01*
X116882791Y-216198750D01*
X116899760Y-216200421D01*
X116901386Y-216201586D01*
X116901190Y-216203576D01*
X116899564Y-216204411D01*
X116843205Y-216204411D01*
X116843009Y-216204401D01*
X116832013Y-216203318D01*
X116831628Y-216203242D01*
X116826954Y-216201824D01*
X116826592Y-216201674D01*
X116822291Y-216199375D01*
X116821965Y-216199157D01*
X116815668Y-216193990D01*
X116795541Y-216180541D01*
X116773267Y-216171315D01*
X116749616Y-216166611D01*
X116725510Y-216166611D01*
X116701860Y-216171316D01*
X116679586Y-216180542D01*
X116659460Y-216193990D01*
X116653163Y-216199157D01*
X116652837Y-216199375D01*
X116648536Y-216201674D01*
X116648174Y-216201824D01*
X116643500Y-216203242D01*
X116643115Y-216203318D01*
X116632119Y-216204401D01*
X116631923Y-216204411D01*
X116575564Y-216204411D01*
X116573832Y-216203411D01*
X116573832Y-216201411D01*
X116575368Y-216200421D01*
X116592337Y-216198750D01*
X116608471Y-216193855D01*
X116623338Y-216185909D01*
X116636368Y-216175215D01*
X116647062Y-216162185D01*
X116655008Y-216147318D01*
X116659903Y-216131184D01*
X116661564Y-216114317D01*
X116661564Y-215113505D01*
X116659903Y-215096638D01*
X116655008Y-215080504D01*
X116647062Y-215065637D01*
X116636368Y-215052607D01*
X116623338Y-215041913D01*
X116608471Y-215033967D01*
X116592337Y-215029072D01*
X116575470Y-215027411D01*
X116399658Y-215027411D01*
X116382791Y-215029072D01*
X116366657Y-215033967D01*
X116351790Y-215041913D01*
X116338760Y-215052607D01*
X116328066Y-215065637D01*
X116320120Y-215080504D01*
X116315225Y-215096638D01*
X116313564Y-215113505D01*
X116313564Y-216114317D01*
X116315225Y-216131184D01*
X116320120Y-216147318D01*
X116328066Y-216162185D01*
X116338760Y-216175215D01*
X116351790Y-216185909D01*
X116366657Y-216193855D01*
X116382791Y-216198750D01*
X116399760Y-216200421D01*
X116401386Y-216201586D01*
X116401190Y-216203576D01*
X116399564Y-216204411D01*
X116343205Y-216204411D01*
X116343009Y-216204401D01*
X116332013Y-216203318D01*
X116331628Y-216203242D01*
X116326954Y-216201824D01*
X116326592Y-216201674D01*
X116322291Y-216199375D01*
X116321965Y-216199157D01*
X116315668Y-216193990D01*
X116295541Y-216180541D01*
X116273267Y-216171315D01*
X116249616Y-216166611D01*
X116225510Y-216166611D01*
X116201860Y-216171316D01*
X116179586Y-216180542D01*
X116159460Y-216193990D01*
X116153163Y-216199157D01*
X116152837Y-216199375D01*
X116148536Y-216201674D01*
X116148174Y-216201824D01*
X116143500Y-216203242D01*
X116143115Y-216203318D01*
X116132119Y-216204401D01*
X116131923Y-216204411D01*
X116075564Y-216204411D01*
X116073832Y-216203411D01*
X116073832Y-216201411D01*
X116075368Y-216200421D01*
X116092337Y-216198750D01*
X116108471Y-216193855D01*
X116123338Y-216185909D01*
X116136368Y-216175215D01*
X116147062Y-216162185D01*
X116155008Y-216147318D01*
X116159903Y-216131184D01*
X116161564Y-216114317D01*
X116161564Y-215113505D01*
X116159903Y-215096638D01*
X116155008Y-215080504D01*
X116147062Y-215065637D01*
X116136368Y-215052607D01*
X116123338Y-215041913D01*
X116108471Y-215033967D01*
X116092337Y-215029072D01*
X116075470Y-215027411D01*
X115899658Y-215027411D01*
X115882791Y-215029072D01*
X115866657Y-215033967D01*
X115851790Y-215041913D01*
X115838760Y-215052607D01*
X115828066Y-215065637D01*
X115820120Y-215080504D01*
X115815225Y-215096638D01*
X115813564Y-215113505D01*
X115813564Y-216114317D01*
X115815225Y-216131184D01*
X115820120Y-216147318D01*
X115828066Y-216162185D01*
X115838760Y-216175215D01*
X115851790Y-216185909D01*
X115866657Y-216193855D01*
X115882791Y-216198750D01*
X115899760Y-216200421D01*
X115901386Y-216201586D01*
X115901190Y-216203576D01*
X115899564Y-216204411D01*
X115843205Y-216204411D01*
X115843009Y-216204401D01*
X115832013Y-216203318D01*
X115831628Y-216203242D01*
X115826954Y-216201824D01*
X115826592Y-216201674D01*
X115822291Y-216199375D01*
X115821965Y-216199157D01*
X115815668Y-216193990D01*
X115795541Y-216180541D01*
X115773267Y-216171315D01*
X115749616Y-216166611D01*
X115725510Y-216166611D01*
X115701860Y-216171316D01*
X115679586Y-216180542D01*
X115659460Y-216193990D01*
X115653163Y-216199157D01*
X115652837Y-216199375D01*
X115648536Y-216201674D01*
X115648174Y-216201824D01*
X115643500Y-216203242D01*
X115643115Y-216203318D01*
X115632119Y-216204401D01*
X115631923Y-216204411D01*
X115575564Y-216204411D01*
X115573832Y-216203411D01*
X115573832Y-216201411D01*
X115575368Y-216200421D01*
X115592337Y-216198750D01*
X115608471Y-216193855D01*
X115623338Y-216185909D01*
X115636368Y-216175215D01*
X115647062Y-216162185D01*
X115655008Y-216147318D01*
X115659903Y-216131184D01*
X115661564Y-216114317D01*
X115661564Y-215113505D01*
X115659903Y-215096638D01*
X115655008Y-215080504D01*
X115647062Y-215065637D01*
X115636368Y-215052607D01*
X115623338Y-215041913D01*
X115608471Y-215033967D01*
X115592337Y-215029072D01*
X115575470Y-215027411D01*
X115399658Y-215027411D01*
X115382791Y-215029072D01*
X115366657Y-215033967D01*
X115351790Y-215041913D01*
X115338760Y-215052607D01*
X115328066Y-215065637D01*
X115320120Y-215080504D01*
X115315225Y-215096638D01*
X115313564Y-215113505D01*
X115313564Y-216114317D01*
X115315225Y-216131184D01*
X115320120Y-216147318D01*
X115328066Y-216162185D01*
X115338760Y-216175215D01*
X115351790Y-216185909D01*
X115366657Y-216193855D01*
X115382791Y-216198750D01*
X115399760Y-216200421D01*
X115401386Y-216201586D01*
X115401190Y-216203576D01*
X115399564Y-216204411D01*
X115343205Y-216204411D01*
X115343009Y-216204401D01*
X115332013Y-216203318D01*
X115331628Y-216203242D01*
X115326954Y-216201824D01*
X115326592Y-216201674D01*
X115322291Y-216199375D01*
X115321965Y-216199157D01*
X115315668Y-216193990D01*
X115295541Y-216180541D01*
X115273267Y-216171315D01*
X115249616Y-216166611D01*
X115225510Y-216166611D01*
X115201860Y-216171316D01*
X115179586Y-216180542D01*
X115159460Y-216193990D01*
X115153163Y-216199157D01*
X115152837Y-216199375D01*
X115148536Y-216201674D01*
X115148174Y-216201824D01*
X115143500Y-216203242D01*
X115143115Y-216203318D01*
X115132119Y-216204401D01*
X115131923Y-216204411D01*
X115075564Y-216204411D01*
X115073832Y-216203411D01*
X115073832Y-216201411D01*
X115075368Y-216200421D01*
X115092337Y-216198750D01*
X115108471Y-216193855D01*
X115123338Y-216185909D01*
X115136368Y-216175215D01*
X115147062Y-216162185D01*
X115155008Y-216147318D01*
X115159903Y-216131184D01*
X115161564Y-216114317D01*
X115161564Y-215113505D01*
X115159903Y-215096638D01*
X115155008Y-215080504D01*
X115147062Y-215065637D01*
X115136368Y-215052607D01*
X115123338Y-215041913D01*
X115108471Y-215033967D01*
X115092337Y-215029072D01*
X115075470Y-215027411D01*
X114899658Y-215027411D01*
X114882791Y-215029072D01*
X114866657Y-215033967D01*
X114851790Y-215041913D01*
X114838760Y-215052607D01*
X114828066Y-215065637D01*
X114820120Y-215080504D01*
X114815225Y-215096638D01*
X114813564Y-215113505D01*
X114813564Y-216114317D01*
X114815225Y-216131184D01*
X114820120Y-216147318D01*
X114828066Y-216162185D01*
X114838760Y-216175215D01*
X114851790Y-216185909D01*
X114866657Y-216193855D01*
X114882791Y-216198750D01*
X114899760Y-216200421D01*
X114901386Y-216201586D01*
X114901190Y-216203576D01*
X114899564Y-216204411D01*
X114843205Y-216204411D01*
X114843009Y-216204401D01*
X114832013Y-216203318D01*
X114831628Y-216203242D01*
X114826954Y-216201824D01*
X114826592Y-216201674D01*
X114822291Y-216199375D01*
X114821965Y-216199157D01*
X114815668Y-216193990D01*
X114795541Y-216180541D01*
X114773267Y-216171315D01*
X114749616Y-216166611D01*
X114725510Y-216166611D01*
X114701860Y-216171316D01*
X114679586Y-216180542D01*
X114659460Y-216193990D01*
X114653163Y-216199157D01*
X114652837Y-216199375D01*
X114648536Y-216201674D01*
X114648174Y-216201824D01*
X114643500Y-216203242D01*
X114643115Y-216203318D01*
X114632119Y-216204401D01*
X114631923Y-216204411D01*
X114575564Y-216204411D01*
X114573832Y-216203411D01*
X114573832Y-216201411D01*
X114575368Y-216200421D01*
X114592337Y-216198750D01*
X114608471Y-216193855D01*
X114623338Y-216185909D01*
X114636368Y-216175215D01*
X114647062Y-216162185D01*
X114655008Y-216147318D01*
X114659903Y-216131184D01*
X114661564Y-216114317D01*
X114661564Y-215113505D01*
X114659903Y-215096638D01*
X114655008Y-215080504D01*
X114647062Y-215065637D01*
X114636368Y-215052607D01*
X114623338Y-215041913D01*
X114608471Y-215033967D01*
X114592337Y-215029072D01*
X114575470Y-215027411D01*
X114399658Y-215027411D01*
X114382791Y-215029072D01*
X114366657Y-215033967D01*
X114351790Y-215041913D01*
X114338760Y-215052607D01*
X114328066Y-215065637D01*
X114320120Y-215080504D01*
X114315225Y-215096638D01*
X114313564Y-215113505D01*
X114313564Y-216114317D01*
X114315225Y-216131184D01*
X114320120Y-216147318D01*
X114328066Y-216162185D01*
X114338760Y-216175215D01*
X114351790Y-216185909D01*
X114366657Y-216193855D01*
X114382791Y-216198750D01*
X114399760Y-216200421D01*
X114401386Y-216201586D01*
X114401190Y-216203576D01*
X114399564Y-216204411D01*
X114343205Y-216204411D01*
X114343009Y-216204401D01*
X114332013Y-216203318D01*
X114331628Y-216203242D01*
X114326954Y-216201824D01*
X114326592Y-216201674D01*
X114322291Y-216199375D01*
X114321965Y-216199157D01*
X114315668Y-216193990D01*
X114295541Y-216180541D01*
X114273267Y-216171315D01*
X114249616Y-216166611D01*
X114225510Y-216166611D01*
X114201860Y-216171316D01*
X114179586Y-216180542D01*
X114159460Y-216193990D01*
X114153163Y-216199157D01*
X114152837Y-216199375D01*
X114148536Y-216201674D01*
X114148174Y-216201824D01*
X114143500Y-216203242D01*
X114143115Y-216203318D01*
X114132119Y-216204401D01*
X114131923Y-216204411D01*
X114075564Y-216204411D01*
X114073832Y-216203411D01*
X114073832Y-216201411D01*
X114075368Y-216200421D01*
X114092337Y-216198750D01*
X114108471Y-216193855D01*
X114123338Y-216185909D01*
X114136368Y-216175215D01*
X114147062Y-216162185D01*
X114155008Y-216147318D01*
X114159903Y-216131184D01*
X114161564Y-216114317D01*
X114161564Y-215113505D01*
X114159903Y-215096638D01*
X114155008Y-215080504D01*
X114147062Y-215065637D01*
X114136368Y-215052607D01*
X114123338Y-215041913D01*
X114108471Y-215033967D01*
X114092337Y-215029072D01*
X114075470Y-215027411D01*
X113899658Y-215027411D01*
X113882791Y-215029072D01*
X113866657Y-215033967D01*
X113851790Y-215041913D01*
X113838760Y-215052607D01*
X113828066Y-215065637D01*
X113820120Y-215080504D01*
X113815225Y-215096638D01*
X113813564Y-215113505D01*
X113813564Y-216114317D01*
X113815225Y-216131184D01*
X113820120Y-216147318D01*
X113828066Y-216162185D01*
X113838760Y-216175215D01*
X113851790Y-216185909D01*
X113866657Y-216193855D01*
X113882791Y-216198750D01*
X113899760Y-216200421D01*
X113901386Y-216201586D01*
X113901190Y-216203576D01*
X113899564Y-216204411D01*
X113843205Y-216204411D01*
X113843009Y-216204401D01*
X113832013Y-216203318D01*
X113831628Y-216203242D01*
X113826954Y-216201824D01*
X113826592Y-216201674D01*
X113822291Y-216199375D01*
X113821965Y-216199157D01*
X113815668Y-216193990D01*
X113795541Y-216180541D01*
X113773267Y-216171315D01*
X113749616Y-216166611D01*
X113725510Y-216166611D01*
X113701860Y-216171316D01*
X113679586Y-216180542D01*
X113659460Y-216193990D01*
X113653163Y-216199157D01*
X113652837Y-216199375D01*
X113648536Y-216201674D01*
X113648174Y-216201824D01*
X113643500Y-216203242D01*
X113643115Y-216203318D01*
X113632119Y-216204401D01*
X113631923Y-216204411D01*
X113575564Y-216204411D01*
X113573832Y-216203411D01*
X113573832Y-216201411D01*
X113575368Y-216200421D01*
X113592337Y-216198750D01*
X113608471Y-216193855D01*
X113623338Y-216185909D01*
X113636368Y-216175215D01*
X113647062Y-216162185D01*
X113655008Y-216147318D01*
X113659903Y-216131184D01*
X113661564Y-216114317D01*
X113661564Y-215113505D01*
X113659903Y-215096638D01*
X113655008Y-215080504D01*
X113647062Y-215065637D01*
X113636368Y-215052607D01*
X113623338Y-215041913D01*
X113608471Y-215033967D01*
X113592337Y-215029072D01*
X113575470Y-215027411D01*
X113399658Y-215027411D01*
X113382791Y-215029072D01*
X113366657Y-215033967D01*
X113351790Y-215041913D01*
X113338760Y-215052607D01*
X113328066Y-215065637D01*
X113320120Y-215080504D01*
X113315225Y-215096638D01*
X113313564Y-215113505D01*
X113313564Y-216114317D01*
X113315225Y-216131184D01*
X113320120Y-216147318D01*
X113328066Y-216162185D01*
X113338760Y-216175215D01*
X113351790Y-216185909D01*
X113366657Y-216193855D01*
X113382791Y-216198750D01*
X113399760Y-216200421D01*
X113401386Y-216201586D01*
X113401190Y-216203576D01*
X113399564Y-216204411D01*
X113343205Y-216204411D01*
X113343009Y-216204401D01*
X113332013Y-216203318D01*
X113331628Y-216203242D01*
X113326954Y-216201824D01*
X113326592Y-216201674D01*
X113322291Y-216199375D01*
X113321965Y-216199157D01*
X113315668Y-216193990D01*
X113295541Y-216180541D01*
X113273267Y-216171315D01*
X113249616Y-216166611D01*
X113225510Y-216166611D01*
X113201860Y-216171316D01*
X113179586Y-216180542D01*
X113159460Y-216193990D01*
X113153163Y-216199157D01*
X113152837Y-216199375D01*
X113148536Y-216201674D01*
X113148174Y-216201824D01*
X113143500Y-216203242D01*
X113143115Y-216203318D01*
X113132119Y-216204401D01*
X113131923Y-216204411D01*
X113075564Y-216204411D01*
X113073832Y-216203411D01*
X113073832Y-216201411D01*
X113075368Y-216200421D01*
X113092337Y-216198750D01*
X113108471Y-216193855D01*
X113123338Y-216185909D01*
X113136368Y-216175215D01*
X113147062Y-216162185D01*
X113155008Y-216147318D01*
X113159903Y-216131184D01*
X113161564Y-216114317D01*
X113161564Y-215113505D01*
X113159903Y-215096638D01*
X113155008Y-215080504D01*
X113147062Y-215065637D01*
X113136368Y-215052607D01*
X113123338Y-215041913D01*
X113108471Y-215033967D01*
X113092337Y-215029072D01*
X113075470Y-215027411D01*
X112899658Y-215027411D01*
X112882791Y-215029072D01*
X112866657Y-215033967D01*
X112851790Y-215041913D01*
X112838760Y-215052607D01*
X112828066Y-215065637D01*
X112820120Y-215080504D01*
X112815225Y-215096638D01*
X112813564Y-215113505D01*
X112813564Y-216114317D01*
X112815225Y-216131184D01*
X112820120Y-216147318D01*
X112828066Y-216162185D01*
X112838760Y-216175215D01*
X112851790Y-216185909D01*
X112866657Y-216193855D01*
X112882791Y-216198750D01*
X112899760Y-216200421D01*
X112901386Y-216201586D01*
X112901190Y-216203576D01*
X112899564Y-216204411D01*
X112843205Y-216204411D01*
X112843009Y-216204401D01*
X112832013Y-216203318D01*
X112831628Y-216203242D01*
X112826954Y-216201824D01*
X112826592Y-216201674D01*
X112822291Y-216199375D01*
X112821965Y-216199157D01*
X112815668Y-216193990D01*
X112795541Y-216180541D01*
X112773267Y-216171315D01*
X112749616Y-216166611D01*
X112725510Y-216166611D01*
X112701860Y-216171316D01*
X112679586Y-216180542D01*
X112659460Y-216193990D01*
X112653163Y-216199157D01*
X112652837Y-216199375D01*
X112648536Y-216201674D01*
X112648174Y-216201824D01*
X112643500Y-216203242D01*
X112643115Y-216203318D01*
X112632119Y-216204401D01*
X112631923Y-216204411D01*
X112575564Y-216204411D01*
X112573832Y-216203411D01*
X112573832Y-216201411D01*
X112575368Y-216200421D01*
X112592337Y-216198750D01*
X112608471Y-216193855D01*
X112623338Y-216185909D01*
X112636368Y-216175215D01*
X112647062Y-216162185D01*
X112655008Y-216147318D01*
X112659903Y-216131184D01*
X112661564Y-216114317D01*
X112661564Y-215113505D01*
X112659903Y-215096638D01*
X112655008Y-215080504D01*
X112647062Y-215065637D01*
X112636368Y-215052607D01*
X112623338Y-215041913D01*
X112608471Y-215033967D01*
X112592337Y-215029072D01*
X112575470Y-215027411D01*
X112399658Y-215027411D01*
X112382791Y-215029072D01*
X112366657Y-215033967D01*
X112351790Y-215041913D01*
X112338760Y-215052607D01*
X112328066Y-215065637D01*
X112320120Y-215080504D01*
X112315225Y-215096638D01*
X112313564Y-215113505D01*
X112313564Y-216114317D01*
X112315225Y-216131184D01*
X112320120Y-216147318D01*
X112328066Y-216162185D01*
X112338760Y-216175215D01*
X112351790Y-216185909D01*
X112366657Y-216193855D01*
X112382791Y-216198750D01*
X112399760Y-216200421D01*
X112401386Y-216201586D01*
X112401190Y-216203576D01*
X112399564Y-216204411D01*
X112343205Y-216204411D01*
X112343009Y-216204401D01*
X112332013Y-216203318D01*
X112331628Y-216203242D01*
X112326954Y-216201824D01*
X112326592Y-216201674D01*
X112322291Y-216199375D01*
X112321965Y-216199157D01*
X112315668Y-216193990D01*
X112295541Y-216180541D01*
X112273267Y-216171315D01*
X112249616Y-216166611D01*
X112225510Y-216166611D01*
X112201860Y-216171316D01*
X112179586Y-216180542D01*
X112159460Y-216193990D01*
X112153163Y-216199157D01*
X112152837Y-216199375D01*
X112148536Y-216201674D01*
X112148174Y-216201824D01*
X112143500Y-216203242D01*
X112143115Y-216203318D01*
X112132119Y-216204401D01*
X112131923Y-216204411D01*
X112075564Y-216204411D01*
X112073832Y-216203411D01*
X112073832Y-216201411D01*
X112075368Y-216200421D01*
X112092337Y-216198750D01*
X112108471Y-216193855D01*
X112123338Y-216185909D01*
X112136368Y-216175215D01*
X112147062Y-216162185D01*
X112155008Y-216147318D01*
X112159903Y-216131184D01*
X112161564Y-216114317D01*
X112161564Y-215113505D01*
X112159903Y-215096638D01*
X112155008Y-215080504D01*
X112147062Y-215065637D01*
X112136368Y-215052607D01*
X112123338Y-215041913D01*
X112108471Y-215033967D01*
X112092337Y-215029072D01*
X112075470Y-215027411D01*
X111899658Y-215027411D01*
X111882791Y-215029072D01*
X111866657Y-215033967D01*
X111851790Y-215041913D01*
X111838760Y-215052607D01*
X111828066Y-215065637D01*
X111820120Y-215080504D01*
X111815225Y-215096638D01*
X111813554Y-215113607D01*
X111812389Y-215115233D01*
X111810399Y-215115037D01*
X111809564Y-215113411D01*
X111809564Y-215077504D01*
X111807192Y-215053419D01*
X111800192Y-215030344D01*
X111788827Y-215009080D01*
X111773532Y-214990443D01*
X111754895Y-214975148D01*
X111733631Y-214963783D01*
X111710556Y-214956783D01*
X111686471Y-214954411D01*
X111650564Y-214954411D01*
X111648832Y-214953411D01*
X111648832Y-214951411D01*
X111650368Y-214950421D01*
X111667337Y-214948750D01*
X111683471Y-214943855D01*
X111698338Y-214935909D01*
X111711368Y-214925215D01*
X111722062Y-214912185D01*
X111730008Y-214897318D01*
X111734903Y-214881184D01*
X111736564Y-214864317D01*
X111736564Y-214688505D01*
X111734903Y-214671638D01*
X111730008Y-214655504D01*
X111722062Y-214640637D01*
X111711368Y-214627607D01*
X111698338Y-214616913D01*
X111683471Y-214608967D01*
X111667337Y-214604072D01*
X111650470Y-214602411D01*
X110649658Y-214602411D01*
X110632791Y-214604072D01*
X110616657Y-214608967D01*
X110601790Y-214616913D01*
X110588760Y-214627607D01*
X110578066Y-214640637D01*
X110570120Y-214655504D01*
X110565225Y-214671638D01*
X110563554Y-214688607D01*
X110562389Y-214690233D01*
X110560399Y-214690037D01*
X110559564Y-214688411D01*
X110559564Y-214632052D01*
X110559574Y-214631856D01*
X110560657Y-214620860D01*
X110560733Y-214620475D01*
X110562151Y-214615801D01*
X110562301Y-214615439D01*
X110564600Y-214611138D01*
X110564818Y-214610812D01*
X110569985Y-214604515D01*
X110583434Y-214584388D01*
X110592660Y-214562114D01*
X110597364Y-214538463D01*
X110597364Y-214514357D01*
X110592659Y-214490707D01*
X110583433Y-214468433D01*
X110569985Y-214448307D01*
X110564818Y-214442010D01*
X110564600Y-214441684D01*
X110562301Y-214437383D01*
X110562151Y-214437021D01*
X110560733Y-214432347D01*
X110560657Y-214431962D01*
X110559574Y-214420966D01*
X110559564Y-214420770D01*
X110559564Y-214364411D01*
X110560564Y-214362679D01*
X110562564Y-214362679D01*
X110563554Y-214364215D01*
X110565225Y-214381184D01*
X110570120Y-214397318D01*
X110578066Y-214412185D01*
X110588760Y-214425215D01*
X110601790Y-214435909D01*
X110616657Y-214443855D01*
X110632791Y-214448750D01*
X110649658Y-214450411D01*
X111650470Y-214450411D01*
X111667337Y-214448750D01*
X111683471Y-214443855D01*
X111698338Y-214435909D01*
X111711368Y-214425215D01*
X111722062Y-214412185D01*
X111730008Y-214397318D01*
X111734903Y-214381184D01*
X111736564Y-214364317D01*
X111736564Y-214188505D01*
X111734903Y-214171638D01*
X111730008Y-214155504D01*
X111722062Y-214140637D01*
X111711368Y-214127607D01*
X111698338Y-214116913D01*
X111683471Y-214108967D01*
X111667337Y-214104072D01*
X111650470Y-214102411D01*
X110649658Y-214102411D01*
X110632791Y-214104072D01*
X110616657Y-214108967D01*
X110601790Y-214116913D01*
X110588760Y-214127607D01*
X110578066Y-214140637D01*
X110570120Y-214155504D01*
X110565225Y-214171638D01*
X110563554Y-214188607D01*
X110562389Y-214190233D01*
X110560399Y-214190037D01*
X110559564Y-214188411D01*
X110559564Y-214132052D01*
X110559574Y-214131856D01*
X110560657Y-214120860D01*
X110560733Y-214120475D01*
X110562151Y-214115801D01*
X110562301Y-214115439D01*
X110564600Y-214111138D01*
X110564818Y-214110812D01*
X110569985Y-214104515D01*
X110583434Y-214084388D01*
X110592660Y-214062114D01*
X110597364Y-214038463D01*
X110597364Y-214014357D01*
X110592659Y-213990707D01*
X110583433Y-213968433D01*
X110569985Y-213948307D01*
X110564818Y-213942010D01*
X110564600Y-213941684D01*
X110562301Y-213937383D01*
X110562151Y-213937021D01*
X110560733Y-213932347D01*
X110560657Y-213931962D01*
X110559574Y-213920966D01*
X110559564Y-213920770D01*
X110559564Y-213864411D01*
X110560564Y-213862679D01*
X110562564Y-213862679D01*
X110563554Y-213864215D01*
X110565225Y-213881184D01*
X110570120Y-213897318D01*
X110578066Y-213912185D01*
X110588760Y-213925215D01*
X110601790Y-213935909D01*
X110616657Y-213943855D01*
X110632791Y-213948750D01*
X110649658Y-213950411D01*
X111650470Y-213950411D01*
X111667337Y-213948750D01*
X111683471Y-213943855D01*
X111698338Y-213935909D01*
X111711368Y-213925215D01*
X111722062Y-213912185D01*
X111730008Y-213897318D01*
X111734903Y-213881184D01*
X111736564Y-213864317D01*
X111736564Y-213688505D01*
X111734903Y-213671638D01*
X111730008Y-213655504D01*
X111722062Y-213640637D01*
X111711368Y-213627607D01*
X111698338Y-213616913D01*
X111683471Y-213608967D01*
X111667337Y-213604072D01*
X111650470Y-213602411D01*
X110649658Y-213602411D01*
X110632791Y-213604072D01*
X110616657Y-213608967D01*
X110601790Y-213616913D01*
X110588760Y-213627607D01*
X110578066Y-213640637D01*
X110570120Y-213655504D01*
X110565225Y-213671638D01*
X110563554Y-213688607D01*
X110562389Y-213690233D01*
X110560399Y-213690037D01*
X110559564Y-213688411D01*
X110559564Y-213632052D01*
X110559574Y-213631856D01*
X110560657Y-213620860D01*
X110560733Y-213620475D01*
X110562151Y-213615801D01*
X110562301Y-213615439D01*
X110564600Y-213611138D01*
X110564818Y-213610812D01*
X110569985Y-213604515D01*
X110583434Y-213584388D01*
X110592660Y-213562114D01*
X110597364Y-213538463D01*
X110597364Y-213514357D01*
X110592659Y-213490707D01*
X110583433Y-213468433D01*
X110569985Y-213448307D01*
X110564818Y-213442010D01*
X110564600Y-213441684D01*
X110562301Y-213437383D01*
X110562151Y-213437021D01*
X110560733Y-213432347D01*
X110560657Y-213431962D01*
X110559574Y-213420966D01*
X110559564Y-213420770D01*
X110559564Y-213364411D01*
X110560564Y-213362679D01*
X110562564Y-213362679D01*
X110563554Y-213364215D01*
X110565225Y-213381184D01*
X110570120Y-213397318D01*
X110578066Y-213412185D01*
X110588760Y-213425215D01*
X110601790Y-213435909D01*
X110616657Y-213443855D01*
X110632791Y-213448750D01*
X110649658Y-213450411D01*
X111650470Y-213450411D01*
X111667337Y-213448750D01*
X111683471Y-213443855D01*
X111698338Y-213435909D01*
X111711368Y-213425215D01*
X111722062Y-213412185D01*
X111730008Y-213397318D01*
X111734903Y-213381184D01*
X111736564Y-213364317D01*
X111736564Y-213188505D01*
X111734903Y-213171638D01*
X111730008Y-213155504D01*
X111722062Y-213140637D01*
X111711368Y-213127607D01*
X111698338Y-213116913D01*
X111683471Y-213108967D01*
X111667337Y-213104072D01*
X111650470Y-213102411D01*
X110649658Y-213102411D01*
X110632791Y-213104072D01*
X110616657Y-213108967D01*
X110601790Y-213116913D01*
X110588760Y-213127607D01*
X110578066Y-213140637D01*
X110570120Y-213155504D01*
X110565225Y-213171638D01*
X110563554Y-213188607D01*
X110562389Y-213190233D01*
X110560399Y-213190037D01*
X110559564Y-213188411D01*
X110559564Y-213132052D01*
X110559574Y-213131856D01*
X110560657Y-213120860D01*
X110560733Y-213120475D01*
X110562151Y-213115801D01*
X110562301Y-213115439D01*
X110564600Y-213111138D01*
X110564818Y-213110812D01*
X110569985Y-213104515D01*
X110583434Y-213084388D01*
X110592660Y-213062114D01*
X110597364Y-213038463D01*
X110597364Y-213014357D01*
X110592659Y-212990707D01*
X110583433Y-212968433D01*
X110569985Y-212948307D01*
X110564818Y-212942010D01*
X110564600Y-212941684D01*
X110562301Y-212937383D01*
X110562151Y-212937021D01*
X110560733Y-212932347D01*
X110560657Y-212931962D01*
X110559574Y-212920966D01*
X110559564Y-212920770D01*
X110559564Y-212864411D01*
X110560564Y-212862679D01*
X110562564Y-212862679D01*
X110563554Y-212864215D01*
X110565225Y-212881184D01*
X110570120Y-212897318D01*
X110578066Y-212912185D01*
X110588760Y-212925215D01*
X110601790Y-212935909D01*
X110616657Y-212943855D01*
X110632791Y-212948750D01*
X110649658Y-212950411D01*
X111650470Y-212950411D01*
X111667337Y-212948750D01*
X111683471Y-212943855D01*
X111698338Y-212935909D01*
X111711368Y-212925215D01*
X111722062Y-212912185D01*
X111730008Y-212897318D01*
X111734903Y-212881184D01*
X111736564Y-212864317D01*
X111736564Y-212688505D01*
X111734903Y-212671638D01*
X111730008Y-212655504D01*
X111722062Y-212640637D01*
X111711368Y-212627607D01*
X111698338Y-212616913D01*
X111683471Y-212608967D01*
X111667337Y-212604072D01*
X111650470Y-212602411D01*
X110649658Y-212602411D01*
X110632791Y-212604072D01*
X110616657Y-212608967D01*
X110601790Y-212616913D01*
X110588760Y-212627607D01*
X110578066Y-212640637D01*
X110570120Y-212655504D01*
X110565225Y-212671638D01*
X110563554Y-212688607D01*
X110562389Y-212690233D01*
X110560399Y-212690037D01*
X110559564Y-212688411D01*
X110559564Y-212632052D01*
X110559574Y-212631856D01*
X110560657Y-212620860D01*
X110560733Y-212620475D01*
X110562151Y-212615801D01*
X110562301Y-212615439D01*
X110564600Y-212611138D01*
X110564818Y-212610812D01*
X110569985Y-212604515D01*
X110583434Y-212584388D01*
X110592660Y-212562114D01*
X110597364Y-212538463D01*
X110597364Y-212514357D01*
X110592659Y-212490707D01*
X110583433Y-212468433D01*
X110569985Y-212448307D01*
X110564818Y-212442010D01*
X110564600Y-212441684D01*
X110562301Y-212437383D01*
X110562151Y-212437021D01*
X110560733Y-212432347D01*
X110560657Y-212431962D01*
X110559574Y-212420966D01*
X110559564Y-212420770D01*
X110559564Y-212364411D01*
X110560564Y-212362679D01*
X110562564Y-212362679D01*
X110563554Y-212364215D01*
X110565225Y-212381184D01*
X110570120Y-212397318D01*
X110578066Y-212412185D01*
X110588760Y-212425215D01*
X110601790Y-212435909D01*
X110616657Y-212443855D01*
X110632791Y-212448750D01*
X110649658Y-212450411D01*
X111650470Y-212450411D01*
X111667337Y-212448750D01*
X111683471Y-212443855D01*
X111698338Y-212435909D01*
X111711368Y-212425215D01*
X111722062Y-212412185D01*
X111730008Y-212397318D01*
X111734903Y-212381184D01*
X111736564Y-212364317D01*
X111736564Y-212188505D01*
X111734903Y-212171638D01*
X111730008Y-212155504D01*
X111722062Y-212140637D01*
X111711368Y-212127607D01*
X111698338Y-212116913D01*
X111683471Y-212108967D01*
X111667337Y-212104072D01*
X111650470Y-212102411D01*
X110649658Y-212102411D01*
X110632791Y-212104072D01*
X110616657Y-212108967D01*
X110601790Y-212116913D01*
X110588760Y-212127607D01*
X110578066Y-212140637D01*
X110570120Y-212155504D01*
X110565225Y-212171638D01*
X110563554Y-212188607D01*
X110562389Y-212190233D01*
X110560399Y-212190037D01*
X110559564Y-212188411D01*
X110559564Y-212132052D01*
X110559574Y-212131856D01*
X110560657Y-212120860D01*
X110560733Y-212120475D01*
X110562151Y-212115801D01*
X110562301Y-212115439D01*
X110564600Y-212111138D01*
X110564818Y-212110812D01*
X110569985Y-212104515D01*
X110583434Y-212084388D01*
X110592660Y-212062114D01*
X110597364Y-212038463D01*
X110597364Y-212014357D01*
X110592659Y-211990707D01*
X110583433Y-211968433D01*
X110569985Y-211948307D01*
X110564818Y-211942010D01*
X110564600Y-211941684D01*
X110562301Y-211937383D01*
X110562151Y-211937021D01*
X110560733Y-211932347D01*
X110560657Y-211931962D01*
X110559574Y-211920966D01*
X110559564Y-211920770D01*
X110559564Y-211864411D01*
X110560564Y-211862679D01*
X110562564Y-211862679D01*
X110563554Y-211864215D01*
X110565225Y-211881184D01*
X110570120Y-211897318D01*
X110578066Y-211912185D01*
X110588760Y-211925215D01*
X110601790Y-211935909D01*
X110616657Y-211943855D01*
X110632791Y-211948750D01*
X110649658Y-211950411D01*
X111650470Y-211950411D01*
X111667337Y-211948750D01*
X111683471Y-211943855D01*
X111698338Y-211935909D01*
X111711368Y-211925215D01*
X111722062Y-211912185D01*
X111730008Y-211897318D01*
X111734903Y-211881184D01*
X111736564Y-211864317D01*
X111736564Y-211688505D01*
X111734903Y-211671638D01*
X111730008Y-211655504D01*
X111722062Y-211640637D01*
X111711368Y-211627607D01*
X111698338Y-211616913D01*
X111683471Y-211608967D01*
X111667337Y-211604072D01*
X111650470Y-211602411D01*
X110649658Y-211602411D01*
X110632791Y-211604072D01*
X110616657Y-211608967D01*
X110601790Y-211616913D01*
X110588760Y-211627607D01*
X110578066Y-211640637D01*
X110570120Y-211655504D01*
X110565225Y-211671638D01*
X110563554Y-211688607D01*
X110562389Y-211690233D01*
X110560399Y-211690037D01*
X110559564Y-211688411D01*
X110559564Y-211632052D01*
X110559574Y-211631856D01*
X110560657Y-211620860D01*
X110560733Y-211620475D01*
X110562151Y-211615801D01*
X110562301Y-211615439D01*
X110564600Y-211611138D01*
X110564818Y-211610812D01*
X110569985Y-211604515D01*
X110583434Y-211584388D01*
X110592660Y-211562114D01*
X110597364Y-211538463D01*
X110597364Y-211514357D01*
X110592659Y-211490707D01*
X110583433Y-211468433D01*
X110569985Y-211448307D01*
X110564818Y-211442010D01*
X110564600Y-211441684D01*
X110562301Y-211437383D01*
X110562151Y-211437021D01*
X110560733Y-211432347D01*
X110560657Y-211431962D01*
X110559574Y-211420966D01*
X110559564Y-211420770D01*
X110559564Y-211364411D01*
X110560564Y-211362679D01*
X110562564Y-211362679D01*
X110563554Y-211364215D01*
X110565225Y-211381184D01*
X110570120Y-211397318D01*
X110578066Y-211412185D01*
X110588760Y-211425215D01*
X110601790Y-211435909D01*
X110616657Y-211443855D01*
X110632791Y-211448750D01*
X110649658Y-211450411D01*
X111650470Y-211450411D01*
X111667337Y-211448750D01*
X111683471Y-211443855D01*
X111698338Y-211435909D01*
X111711368Y-211425215D01*
X111722062Y-211412185D01*
X111730008Y-211397318D01*
X111734903Y-211381184D01*
X111736564Y-211364317D01*
X111736564Y-211188505D01*
X111734903Y-211171638D01*
X111730008Y-211155504D01*
X111722062Y-211140637D01*
X111711368Y-211127607D01*
X111698338Y-211116913D01*
X111683471Y-211108967D01*
X111667337Y-211104072D01*
X111650470Y-211102411D01*
X110649658Y-211102411D01*
X110632791Y-211104072D01*
X110616657Y-211108967D01*
X110601790Y-211116913D01*
X110588760Y-211127607D01*
X110578066Y-211140637D01*
X110570120Y-211155504D01*
X110565225Y-211171638D01*
X110563554Y-211188607D01*
X110562389Y-211190233D01*
X110560399Y-211190037D01*
X110559564Y-211188411D01*
X110559564Y-211132052D01*
X110559574Y-211131856D01*
X110560657Y-211120860D01*
X110560733Y-211120475D01*
X110562151Y-211115801D01*
X110562301Y-211115439D01*
X110564600Y-211111138D01*
X110564818Y-211110812D01*
X110569985Y-211104515D01*
X110583434Y-211084388D01*
X110592660Y-211062114D01*
X110597364Y-211038463D01*
X110597364Y-211014357D01*
X110592659Y-210990707D01*
X110583433Y-210968433D01*
X110569985Y-210948307D01*
X110564818Y-210942010D01*
X110564600Y-210941684D01*
X110562301Y-210937383D01*
X110562151Y-210937021D01*
X110560733Y-210932347D01*
X110560657Y-210931962D01*
X110559574Y-210920966D01*
X110559564Y-210920770D01*
X110559564Y-210864411D01*
X110560564Y-210862679D01*
X110562564Y-210862679D01*
X110563554Y-210864215D01*
X110565225Y-210881184D01*
X110570120Y-210897318D01*
X110578066Y-210912185D01*
X110588760Y-210925215D01*
X110601790Y-210935909D01*
X110616657Y-210943855D01*
X110632791Y-210948750D01*
X110649658Y-210950411D01*
X111650470Y-210950411D01*
X111667337Y-210948750D01*
X111683471Y-210943855D01*
X111698338Y-210935909D01*
X111711368Y-210925215D01*
X111722062Y-210912185D01*
X111730008Y-210897318D01*
X111734903Y-210881184D01*
X111736564Y-210864317D01*
X111736564Y-210688505D01*
X111734903Y-210671638D01*
X111730008Y-210655504D01*
X111722062Y-210640637D01*
X111711368Y-210627607D01*
X111698338Y-210616913D01*
X111683471Y-210608967D01*
X111667337Y-210604072D01*
X111650470Y-210602411D01*
X110649658Y-210602411D01*
X110632791Y-210604072D01*
X110616657Y-210608967D01*
X110601790Y-210616913D01*
X110588760Y-210627607D01*
X110578066Y-210640637D01*
X110570120Y-210655504D01*
X110565225Y-210671638D01*
X110563554Y-210688607D01*
X110562389Y-210690233D01*
X110560399Y-210690037D01*
X110559564Y-210688411D01*
X110559564Y-210632052D01*
X110559574Y-210631856D01*
X110560657Y-210620860D01*
X110560733Y-210620475D01*
X110562151Y-210615801D01*
X110562301Y-210615439D01*
X110564600Y-210611138D01*
X110564818Y-210610812D01*
X110569985Y-210604515D01*
X110583434Y-210584388D01*
X110592660Y-210562114D01*
X110597364Y-210538463D01*
X110597364Y-210514357D01*
X110592659Y-210490707D01*
X110583433Y-210468433D01*
X110569985Y-210448307D01*
X110564818Y-210442010D01*
X110564600Y-210441684D01*
X110562301Y-210437383D01*
X110562151Y-210437021D01*
X110560733Y-210432347D01*
X110560657Y-210431962D01*
X110559574Y-210420966D01*
X110559564Y-210420770D01*
X110559564Y-210364411D01*
X110560564Y-210362679D01*
X110562564Y-210362679D01*
X110563554Y-210364215D01*
X110565225Y-210381184D01*
X110570120Y-210397318D01*
X110578066Y-210412185D01*
X110588760Y-210425215D01*
X110601790Y-210435909D01*
X110616657Y-210443855D01*
X110632791Y-210448750D01*
X110649658Y-210450411D01*
X111650470Y-210450411D01*
X111667337Y-210448750D01*
X111683471Y-210443855D01*
X111698338Y-210435909D01*
X111711368Y-210425215D01*
X111722062Y-210412185D01*
X111730008Y-210397318D01*
X111734903Y-210381184D01*
X111736564Y-210364317D01*
X111736564Y-210188505D01*
X111734903Y-210171638D01*
X111730008Y-210155504D01*
X111722062Y-210140637D01*
X111711368Y-210127607D01*
X111698338Y-210116913D01*
X111683471Y-210108967D01*
X111667337Y-210104072D01*
X111650470Y-210102411D01*
X110649658Y-210102411D01*
X110632791Y-210104072D01*
X110616657Y-210108967D01*
X110601790Y-210116913D01*
X110588760Y-210127607D01*
X110578066Y-210140637D01*
X110570120Y-210155504D01*
X110565225Y-210171638D01*
X110563554Y-210188607D01*
X110562389Y-210190233D01*
X110560399Y-210190037D01*
X110559564Y-210188411D01*
X110559564Y-210132052D01*
X110559574Y-210131856D01*
X110560657Y-210120860D01*
X110560733Y-210120475D01*
X110562151Y-210115801D01*
X110562301Y-210115439D01*
X110564600Y-210111138D01*
X110564818Y-210110812D01*
X110569985Y-210104515D01*
X110583434Y-210084388D01*
X110592660Y-210062114D01*
X110597364Y-210038463D01*
X110597364Y-210014357D01*
X110592659Y-209990707D01*
X110583433Y-209968433D01*
X110569985Y-209948307D01*
X110564818Y-209942010D01*
X110564600Y-209941684D01*
X110562301Y-209937383D01*
X110562151Y-209937021D01*
X110560733Y-209932347D01*
X110560657Y-209931962D01*
X110559574Y-209920966D01*
X110559564Y-209920770D01*
X110559564Y-209864411D01*
X110560564Y-209862679D01*
X110562564Y-209862679D01*
X110563554Y-209864215D01*
X110565225Y-209881184D01*
X110570120Y-209897318D01*
X110578066Y-209912185D01*
X110588760Y-209925215D01*
X110601790Y-209935909D01*
X110616657Y-209943855D01*
X110632791Y-209948750D01*
X110649658Y-209950411D01*
X111650470Y-209950411D01*
X111667337Y-209948750D01*
X111683471Y-209943855D01*
X111698338Y-209935909D01*
X111711368Y-209925215D01*
X111722062Y-209912185D01*
X111730008Y-209897318D01*
X111734903Y-209881184D01*
X111734979Y-209880408D01*
X111838564Y-209880408D01*
X111838564Y-214672414D01*
X111843432Y-214721842D01*
X111857824Y-214769286D01*
X111881194Y-214813009D01*
X111912644Y-214851331D01*
X111950966Y-214882781D01*
X111994689Y-214906151D01*
X112042133Y-214920543D01*
X112091561Y-214925411D01*
X116883567Y-214925411D01*
X116932995Y-214920543D01*
X116980439Y-214906151D01*
X117024162Y-214882781D01*
X117062484Y-214851331D01*
X117093934Y-214813009D01*
X117117304Y-214769286D01*
X117131696Y-214721842D01*
X117136564Y-214672414D01*
X117136564Y-209880408D01*
X117131696Y-209830980D01*
X117117304Y-209783536D01*
X117093934Y-209739813D01*
X117062484Y-209701491D01*
X117024162Y-209670041D01*
X116980439Y-209646671D01*
X116932995Y-209632279D01*
X116883567Y-209627411D01*
X112091561Y-209627411D01*
X112042133Y-209632279D01*
X111994689Y-209646671D01*
X111950966Y-209670041D01*
X111912644Y-209701491D01*
X111881194Y-209739813D01*
X111857824Y-209783536D01*
X111843432Y-209830980D01*
X111838564Y-209880408D01*
X111734979Y-209880408D01*
X111736564Y-209864317D01*
X111736564Y-209688505D01*
X111734903Y-209671638D01*
X111730008Y-209655504D01*
X111722062Y-209640637D01*
X111711368Y-209627607D01*
X111698338Y-209616913D01*
X111683471Y-209608967D01*
X111667337Y-209604072D01*
X111650368Y-209602401D01*
X111648742Y-209601236D01*
X111648938Y-209599246D01*
X111650564Y-209598411D01*
X111686471Y-209598411D01*
X111710556Y-209596039D01*
X111733631Y-209589039D01*
X111754895Y-209577674D01*
X111773532Y-209562379D01*
X111788827Y-209543742D01*
X111800192Y-209522478D01*
X111807192Y-209499403D01*
X111809564Y-209475318D01*
X111809564Y-209439411D01*
X111810564Y-209437679D01*
X111812564Y-209437679D01*
X111813554Y-209439215D01*
X111815225Y-209456184D01*
X111820120Y-209472318D01*
X111828066Y-209487185D01*
X111838760Y-209500215D01*
X111851790Y-209510909D01*
X111866657Y-209518855D01*
X111882791Y-209523750D01*
X111899658Y-209525411D01*
X112075470Y-209525411D01*
X112092337Y-209523750D01*
X112108471Y-209518855D01*
X112123338Y-209510909D01*
X112136368Y-209500215D01*
X112147062Y-209487185D01*
X112155008Y-209472318D01*
X112159903Y-209456184D01*
X112161564Y-209439317D01*
X112161564Y-208438505D01*
X112159903Y-208421638D01*
X112155008Y-208405504D01*
X112147062Y-208390637D01*
X112136368Y-208377607D01*
X112123338Y-208366913D01*
X112108471Y-208358967D01*
X112092337Y-208354072D01*
X112075368Y-208352401D01*
X112073742Y-208351236D01*
X112073938Y-208349246D01*
X112075564Y-208348411D01*
X112131923Y-208348411D01*
X112132119Y-208348421D01*
G37*
M02*
