G04 #@! TF.GenerationSoftware,KiCad,Pcbnew,(5.1.8)-1*
G04 #@! TF.CreationDate,2021-02-07T19:28:47+03:00*
G04 #@! TF.ProjectId,Unified-Daughterboard,556e6966-6965-4642-9d44-617567687465,C3*
G04 #@! TF.SameCoordinates,Original*
G04 #@! TF.FileFunction,Copper,L2,Bot*
G04 #@! TF.FilePolarity,Positive*
%FSLAX46Y46*%
G04 Gerber Fmt 4.6, Leading zero omitted, Abs format (unit mm)*
G04 Created by KiCad (PCBNEW (5.1.8)-1) date 2021-02-07 19:28:47*
%MOMM*%
%LPD*%
G01*
G04 APERTURE LIST*
G04 #@! TA.AperFunction,SMDPad,CuDef*
%ADD10C,0.100000*%
G04 #@! TD*
G04 #@! TA.AperFunction,ComponentPad*
%ADD11O,1.100000X2.200000*%
G04 #@! TD*
G04 #@! TA.AperFunction,ComponentPad*
%ADD12O,1.300000X1.900000*%
G04 #@! TD*
G04 #@! TA.AperFunction,ComponentPad*
%ADD13C,3.500001*%
G04 #@! TD*
G04 #@! TA.AperFunction,ViaPad*
%ADD14C,0.450000*%
G04 #@! TD*
G04 #@! TA.AperFunction,ViaPad*
%ADD15C,0.508000*%
G04 #@! TD*
G04 #@! TA.AperFunction,Conductor*
%ADD16C,0.254000*%
G04 #@! TD*
G04 #@! TA.AperFunction,Conductor*
%ADD17C,0.508000*%
G04 #@! TD*
G04 #@! TA.AperFunction,Conductor*
%ADD18C,0.152400*%
G04 #@! TD*
G04 #@! TA.AperFunction,Conductor*
%ADD19C,0.100000*%
G04 #@! TD*
G04 APERTURE END LIST*
G04 #@! TA.AperFunction,SMDPad,CuDef*
D10*
G36*
X77569454Y-58284006D02*
G01*
X77542450Y-58283987D01*
X77515944Y-58283959D01*
X77490113Y-58283920D01*
X77465131Y-58283872D01*
X77441174Y-58283814D01*
X77418419Y-58283747D01*
X77397040Y-58283669D01*
X77377214Y-58283582D01*
X77359117Y-58283485D01*
X77342923Y-58283378D01*
X77328809Y-58283261D01*
X77316951Y-58283134D01*
X77307523Y-58282998D01*
X77300703Y-58282851D01*
X77296665Y-58282694D01*
X77293252Y-58282474D01*
X77272195Y-58280737D01*
X77253494Y-58278433D01*
X77236654Y-58275443D01*
X77221180Y-58271648D01*
X77206576Y-58266930D01*
X77192345Y-58261169D01*
X77177994Y-58254247D01*
X77176618Y-58253527D01*
X77158781Y-58242490D01*
X77143097Y-58229438D01*
X77129620Y-58214443D01*
X77118407Y-58197575D01*
X77109513Y-58178905D01*
X77102995Y-58158505D01*
X77102236Y-58155510D01*
X77101273Y-58151773D01*
X77100382Y-58148305D01*
X77099562Y-58144986D01*
X77098808Y-58141698D01*
X77098118Y-58138320D01*
X77097489Y-58134732D01*
X77096918Y-58130816D01*
X77096402Y-58126452D01*
X77095938Y-58121521D01*
X77095522Y-58115902D01*
X77095152Y-58109476D01*
X77094825Y-58102124D01*
X77094538Y-58093726D01*
X77094288Y-58084163D01*
X77094071Y-58073315D01*
X77093885Y-58061063D01*
X77093726Y-58047287D01*
X77093592Y-58031867D01*
X77093480Y-58014684D01*
X77093387Y-57995619D01*
X77093308Y-57974552D01*
X77093243Y-57951363D01*
X77093187Y-57925933D01*
X77093138Y-57898142D01*
X77093092Y-57867871D01*
X77093046Y-57835001D01*
X77092998Y-57799411D01*
X77092944Y-57760983D01*
X77092447Y-57415971D01*
X77258207Y-57415971D01*
X77258207Y-57752906D01*
X77258208Y-57785888D01*
X77258213Y-57821018D01*
X77258222Y-57853401D01*
X77258237Y-57883151D01*
X77258257Y-57910381D01*
X77258284Y-57935203D01*
X77258318Y-57957732D01*
X77258361Y-57978080D01*
X77258412Y-57996361D01*
X77258473Y-58012687D01*
X77258544Y-58027172D01*
X77258626Y-58039928D01*
X77258720Y-58051069D01*
X77258827Y-58060709D01*
X77258947Y-58068960D01*
X77259081Y-58075935D01*
X77259230Y-58081748D01*
X77259394Y-58086511D01*
X77259574Y-58090338D01*
X77259772Y-58093342D01*
X77259987Y-58095636D01*
X77260221Y-58097334D01*
X77260474Y-58098547D01*
X77260807Y-58099782D01*
X77265722Y-58112623D01*
X77272875Y-58123717D01*
X77282311Y-58133093D01*
X77294074Y-58140781D01*
X77308211Y-58146811D01*
X77324766Y-58151215D01*
X77343785Y-58154021D01*
X77345129Y-58154117D01*
X77349936Y-58154299D01*
X77357424Y-58154468D01*
X77367411Y-58154626D01*
X77379716Y-58154772D01*
X77394157Y-58154906D01*
X77410551Y-58155028D01*
X77428718Y-58155138D01*
X77448474Y-58155236D01*
X77469638Y-58155322D01*
X77492029Y-58155397D01*
X77515463Y-58155459D01*
X77539760Y-58155509D01*
X77564737Y-58155548D01*
X77590212Y-58155574D01*
X77616004Y-58155589D01*
X77641930Y-58155592D01*
X77667809Y-58155583D01*
X77693459Y-58155562D01*
X77718697Y-58155529D01*
X77743342Y-58155484D01*
X77767212Y-58155427D01*
X77790125Y-58155358D01*
X77811899Y-58155278D01*
X77832351Y-58155185D01*
X77851301Y-58155081D01*
X77868567Y-58154964D01*
X77883965Y-58154836D01*
X77897315Y-58154696D01*
X77908435Y-58154544D01*
X77917141Y-58154380D01*
X77923254Y-58154204D01*
X77926590Y-58154016D01*
X77943088Y-58151646D01*
X77959991Y-58147411D01*
X77974451Y-58141571D01*
X77986503Y-58134107D01*
X77996183Y-58125001D01*
X78003523Y-58114237D01*
X78003634Y-58114030D01*
X78004607Y-58112277D01*
X78005506Y-58110699D01*
X78006334Y-58109178D01*
X78007095Y-58107598D01*
X78007791Y-58105845D01*
X78008425Y-58103801D01*
X78009000Y-58101351D01*
X78009519Y-58098379D01*
X78009985Y-58094769D01*
X78010400Y-58090405D01*
X78010768Y-58085170D01*
X78011092Y-58078949D01*
X78011373Y-58071626D01*
X78011616Y-58063085D01*
X78011823Y-58053209D01*
X78011997Y-58041883D01*
X78012140Y-58028991D01*
X78012256Y-58014417D01*
X78012348Y-57998044D01*
X78012418Y-57979757D01*
X78012470Y-57959440D01*
X78012505Y-57936977D01*
X78012528Y-57912251D01*
X78012541Y-57885147D01*
X78012547Y-57855549D01*
X78012548Y-57823341D01*
X78012548Y-57788406D01*
X78012549Y-57750629D01*
X78012575Y-57415971D01*
X78176760Y-57415971D01*
X78176733Y-57755066D01*
X78176733Y-57763105D01*
X78176727Y-57800525D01*
X78176717Y-57835124D01*
X78176702Y-57867016D01*
X78176681Y-57896313D01*
X78176653Y-57923130D01*
X78176619Y-57947580D01*
X78176576Y-57969778D01*
X78176525Y-57989835D01*
X78176465Y-58007867D01*
X78176394Y-58023987D01*
X78176313Y-58038309D01*
X78176220Y-58050945D01*
X78176115Y-58062011D01*
X78175998Y-58071618D01*
X78175866Y-58079882D01*
X78175720Y-58086916D01*
X78175560Y-58092833D01*
X78175383Y-58097748D01*
X78175190Y-58101773D01*
X78174980Y-58105022D01*
X78174752Y-58107609D01*
X78174505Y-58109648D01*
X78173403Y-58116724D01*
X78168171Y-58140281D01*
X78160791Y-58161867D01*
X78151221Y-58181574D01*
X78139416Y-58199497D01*
X78125334Y-58215730D01*
X78119370Y-58221474D01*
X78106485Y-58232081D01*
X78091917Y-58241761D01*
X78075027Y-58250958D01*
X78068175Y-58254254D01*
X78046403Y-58263200D01*
X78023287Y-58270434D01*
X77998513Y-58276031D01*
X77971766Y-58280065D01*
X77942734Y-58282612D01*
X77940426Y-58282714D01*
X77934499Y-58282866D01*
X77925908Y-58283008D01*
X77914828Y-58283141D01*
X77901435Y-58283265D01*
X77885904Y-58283380D01*
X77868412Y-58283485D01*
X77849134Y-58283581D01*
X77828245Y-58283667D01*
X77805922Y-58283744D01*
X77782340Y-58283811D01*
X77757676Y-58283869D01*
X77732103Y-58283917D01*
X77705799Y-58283956D01*
X77678939Y-58283985D01*
X77651699Y-58284005D01*
X77624254Y-58284015D01*
X77596781Y-58284015D01*
X77569454Y-58284006D01*
G37*
G04 #@! TD.AperFunction*
G04 #@! TA.AperFunction,SMDPad,CuDef*
G36*
X76793753Y-57946986D02*
G01*
X76793752Y-57929825D01*
X76793744Y-57898871D01*
X76793730Y-57868777D01*
X76793708Y-57839675D01*
X76793680Y-57811694D01*
X76793646Y-57784966D01*
X76793607Y-57759624D01*
X76793562Y-57735796D01*
X76793512Y-57713616D01*
X76793457Y-57693214D01*
X76793398Y-57674721D01*
X76793334Y-57658268D01*
X76793267Y-57643986D01*
X76793197Y-57632007D01*
X76793124Y-57622462D01*
X76793048Y-57615481D01*
X76792969Y-57611197D01*
X76792889Y-57609739D01*
X76792112Y-57610253D01*
X76789083Y-57612395D01*
X76783890Y-57616119D01*
X76776658Y-57621333D01*
X76767515Y-57627945D01*
X76756586Y-57635864D01*
X76743998Y-57644998D01*
X76729878Y-57655254D01*
X76714351Y-57666541D01*
X76697546Y-57678767D01*
X76679587Y-57691840D01*
X76660601Y-57705668D01*
X76640716Y-57720160D01*
X76620057Y-57735223D01*
X76598750Y-57750765D01*
X76578115Y-57765822D01*
X76554894Y-57782766D01*
X76529753Y-57801110D01*
X76502931Y-57820681D01*
X76474666Y-57841305D01*
X76445196Y-57862808D01*
X76414758Y-57885017D01*
X76383591Y-57907758D01*
X76351933Y-57930857D01*
X76320020Y-57954142D01*
X76288093Y-57977438D01*
X76256387Y-58000572D01*
X76225142Y-58023369D01*
X76194595Y-58045658D01*
X76164984Y-58067263D01*
X76136547Y-58088012D01*
X75867618Y-58284233D01*
X75787930Y-58284233D01*
X75787930Y-57415971D01*
X75931401Y-57415971D01*
X75931774Y-57737717D01*
X75932147Y-58059464D01*
X76363320Y-57737759D01*
X76794493Y-57416053D01*
X76937231Y-57415971D01*
X76937231Y-58284233D01*
X76793753Y-58284233D01*
X76793753Y-57946986D01*
G37*
G04 #@! TD.AperFunction*
G04 #@! TA.AperFunction,SMDPad,CuDef*
G36*
X75458079Y-57415971D02*
G01*
X75622265Y-57415971D01*
X75622265Y-57849116D01*
X75622262Y-57880411D01*
X75622253Y-57915353D01*
X75622238Y-57949426D01*
X75622217Y-57982515D01*
X75622190Y-58014502D01*
X75622157Y-58045272D01*
X75622120Y-58074709D01*
X75622077Y-58102696D01*
X75622030Y-58129118D01*
X75621978Y-58153859D01*
X75621923Y-58176802D01*
X75621863Y-58197831D01*
X75621800Y-58216831D01*
X75621733Y-58233685D01*
X75621664Y-58248277D01*
X75621591Y-58260491D01*
X75621516Y-58270211D01*
X75621439Y-58277321D01*
X75621360Y-58281705D01*
X75621279Y-58283247D01*
X75620657Y-58283357D01*
X75617410Y-58283536D01*
X75611638Y-58283701D01*
X75603612Y-58283850D01*
X75593603Y-58283979D01*
X75581885Y-58284085D01*
X75568728Y-58284165D01*
X75554404Y-58284215D01*
X75539186Y-58284233D01*
X75458079Y-58284233D01*
X75458079Y-57415971D01*
G37*
G04 #@! TD.AperFunction*
G04 #@! TA.AperFunction,SMDPad,CuDef*
G36*
X75209212Y-58283876D02*
G01*
X75127488Y-58283493D01*
X75127113Y-58104886D01*
X75126737Y-57926278D01*
X74447818Y-57926278D01*
X74447818Y-57797592D01*
X75126749Y-57797592D01*
X75126749Y-57544657D01*
X74399006Y-57544657D01*
X74399006Y-57415971D01*
X75290935Y-57415971D01*
X75290935Y-58284258D01*
X75209212Y-58283876D01*
G37*
G04 #@! TD.AperFunction*
G04 #@! TA.AperFunction,SMDPad,CuDef*
G36*
X74140154Y-57415971D02*
G01*
X74304340Y-57415971D01*
X74304340Y-58284233D01*
X74140154Y-58284233D01*
X74140154Y-57415971D01*
G37*
G04 #@! TD.AperFunction*
G04 #@! TA.AperFunction,SMDPad,CuDef*
G36*
X73081081Y-58155552D02*
G01*
X73445323Y-58155180D01*
X73809564Y-58154807D01*
X73809942Y-58022053D01*
X73810319Y-57889299D01*
X73118060Y-57889299D01*
X73118060Y-57760613D01*
X73810303Y-57760613D01*
X73810303Y-57544657D01*
X73081081Y-57544657D01*
X73081081Y-57415971D01*
X73974489Y-57415971D01*
X73974489Y-57849116D01*
X73974487Y-57880411D01*
X73974478Y-57915353D01*
X73974463Y-57949426D01*
X73974441Y-57982515D01*
X73974414Y-58014502D01*
X73974382Y-58045272D01*
X73974344Y-58074709D01*
X73974302Y-58102696D01*
X73974255Y-58129118D01*
X73974203Y-58153859D01*
X73974147Y-58176802D01*
X73974088Y-58197831D01*
X73974024Y-58216831D01*
X73973958Y-58233685D01*
X73973888Y-58248277D01*
X73973816Y-58260491D01*
X73973741Y-58270211D01*
X73973664Y-58277321D01*
X73973584Y-58281705D01*
X73973503Y-58283247D01*
X73973450Y-58283260D01*
X73971434Y-58283340D01*
X73966593Y-58283417D01*
X73959041Y-58283493D01*
X73948893Y-58283567D01*
X73936264Y-58283638D01*
X73921266Y-58283707D01*
X73904016Y-58283772D01*
X73884627Y-58283834D01*
X73863214Y-58283893D01*
X73839892Y-58283947D01*
X73814774Y-58283998D01*
X73787975Y-58284045D01*
X73759609Y-58284087D01*
X73729792Y-58284124D01*
X73698636Y-58284156D01*
X73666258Y-58284183D01*
X73632770Y-58284204D01*
X73598289Y-58284220D01*
X73562927Y-58284230D01*
X73526799Y-58284233D01*
X73081081Y-58284233D01*
X73081081Y-58155552D01*
G37*
G04 #@! TD.AperFunction*
G04 #@! TA.AperFunction,SMDPad,CuDef*
G36*
X72538602Y-58284212D02*
G01*
X72523106Y-58284211D01*
X72481688Y-58284199D01*
X72441991Y-58284176D01*
X72404091Y-58284143D01*
X72368067Y-58284099D01*
X72333995Y-58284046D01*
X72301952Y-58283982D01*
X72272017Y-58283909D01*
X72244266Y-58283827D01*
X72218777Y-58283735D01*
X72195628Y-58283635D01*
X72174895Y-58283527D01*
X72156656Y-58283410D01*
X72140989Y-58283285D01*
X72127970Y-58283153D01*
X72117678Y-58283013D01*
X72110189Y-58282866D01*
X72105581Y-58282712D01*
X72087200Y-58281620D01*
X72060446Y-58279291D01*
X72035962Y-58276161D01*
X72013378Y-58272172D01*
X71992325Y-58267264D01*
X71972434Y-58261378D01*
X71952546Y-58254129D01*
X71930182Y-58243905D01*
X71910238Y-58232199D01*
X71892634Y-58218908D01*
X71877290Y-58203926D01*
X71864126Y-58187150D01*
X71853064Y-58168476D01*
X71844022Y-58147800D01*
X71836923Y-58125016D01*
X71831686Y-58100023D01*
X71828232Y-58072714D01*
X71828192Y-58072253D01*
X71827939Y-58068022D01*
X71827716Y-58061829D01*
X71827523Y-58053591D01*
X71827359Y-58043226D01*
X71827225Y-58030650D01*
X71827119Y-58015780D01*
X71827042Y-57998533D01*
X71826992Y-57978826D01*
X71826971Y-57956576D01*
X71826976Y-57931701D01*
X71827008Y-57904116D01*
X71827067Y-57873739D01*
X71827151Y-57840487D01*
X71827182Y-57829715D01*
X71827267Y-57801007D01*
X71827351Y-57775055D01*
X71827436Y-57751710D01*
X71827524Y-57730822D01*
X71827618Y-57712242D01*
X71827718Y-57695820D01*
X71827828Y-57681407D01*
X71827948Y-57668854D01*
X71828082Y-57658010D01*
X71828230Y-57648727D01*
X71828396Y-57640855D01*
X71828581Y-57634244D01*
X71828787Y-57628745D01*
X71829016Y-57624209D01*
X71829270Y-57620485D01*
X71829551Y-57617425D01*
X71829862Y-57614879D01*
X71830203Y-57612698D01*
X71831330Y-57606444D01*
X71836112Y-57583784D01*
X71841624Y-57563626D01*
X71848009Y-57545648D01*
X71855410Y-57529525D01*
X71863970Y-57514937D01*
X71873832Y-57501560D01*
X71885141Y-57489073D01*
X71895036Y-57479850D01*
X71911836Y-57466949D01*
X71930640Y-57455572D01*
X71951542Y-57445686D01*
X71974634Y-57437259D01*
X72000012Y-57430259D01*
X72027768Y-57424652D01*
X72057995Y-57420406D01*
X72090789Y-57417489D01*
X72092120Y-57417420D01*
X72097253Y-57417269D01*
X72105254Y-57417124D01*
X72116064Y-57416988D01*
X72129619Y-57416859D01*
X72145857Y-57416738D01*
X72164717Y-57416626D01*
X72186137Y-57416522D01*
X72210055Y-57416427D01*
X72236408Y-57416340D01*
X72265136Y-57416263D01*
X72296176Y-57416195D01*
X72329467Y-57416136D01*
X72364946Y-57416087D01*
X72402552Y-57416048D01*
X72442222Y-57416020D01*
X72483895Y-57416001D01*
X72527509Y-57415993D01*
X72942041Y-57415971D01*
X72942041Y-57544595D01*
X72777855Y-57544595D01*
X72438760Y-57545035D01*
X72419410Y-57545060D01*
X72382668Y-57545104D01*
X72348707Y-57545146D01*
X72317409Y-57545186D01*
X72288657Y-57545230D01*
X72262333Y-57545279D01*
X72238317Y-57545337D01*
X72216493Y-57545407D01*
X72196742Y-57545492D01*
X72178946Y-57545595D01*
X72162988Y-57545720D01*
X72148748Y-57545870D01*
X72136109Y-57546047D01*
X72124953Y-57546255D01*
X72115162Y-57546496D01*
X72106618Y-57546775D01*
X72099203Y-57547094D01*
X72092798Y-57547457D01*
X72087286Y-57547865D01*
X72082549Y-57548324D01*
X72078468Y-57548835D01*
X72074925Y-57549401D01*
X72071803Y-57550027D01*
X72068984Y-57550715D01*
X72066349Y-57551468D01*
X72063780Y-57552289D01*
X72061159Y-57553182D01*
X72058368Y-57554149D01*
X72055290Y-57555194D01*
X72050789Y-57556743D01*
X72041515Y-57560469D01*
X72033820Y-57564594D01*
X72026747Y-57569682D01*
X72019335Y-57576295D01*
X72014044Y-57581941D01*
X72005970Y-57593656D01*
X71999637Y-57607553D01*
X71994964Y-57623791D01*
X71991686Y-57638583D01*
X71991686Y-58064579D01*
X71994956Y-58079296D01*
X71998261Y-58091617D01*
X72002977Y-58103370D01*
X72009043Y-58113443D01*
X72016777Y-58122459D01*
X72023131Y-58128175D01*
X72033196Y-58135087D01*
X72044898Y-58140851D01*
X72058481Y-58145547D01*
X72074192Y-58149255D01*
X72092276Y-58152057D01*
X72112976Y-58154032D01*
X72113914Y-58154088D01*
X72118827Y-58154263D01*
X72126605Y-58154428D01*
X72137176Y-58154582D01*
X72150467Y-58154726D01*
X72166408Y-58154860D01*
X72184926Y-58154982D01*
X72205951Y-58155093D01*
X72229409Y-58155192D01*
X72255231Y-58155280D01*
X72283344Y-58155355D01*
X72313677Y-58155417D01*
X72346157Y-58155466D01*
X72380714Y-58155502D01*
X72417275Y-58155525D01*
X72455770Y-58155534D01*
X72777855Y-58155547D01*
X72777855Y-57544595D01*
X72942041Y-57544595D01*
X72942041Y-58284233D01*
X72538602Y-58284212D01*
G37*
G04 #@! TD.AperFunction*
G04 #@! TA.AperFunction,SMDPad,CuDef*
G36*
X74549411Y-59824026D02*
G01*
X74512386Y-59824008D01*
X74477537Y-59823974D01*
X74444925Y-59823927D01*
X74414609Y-59823865D01*
X74386651Y-59823788D01*
X74361110Y-59823699D01*
X74338047Y-59823596D01*
X74317521Y-59823479D01*
X74299592Y-59823350D01*
X74284321Y-59823209D01*
X74271768Y-59823055D01*
X74261993Y-59822889D01*
X74255056Y-59822711D01*
X74251017Y-59822522D01*
X74245363Y-59822068D01*
X74217429Y-59819006D01*
X74192040Y-59814759D01*
X74169044Y-59809297D01*
X74148290Y-59802591D01*
X74147684Y-59802364D01*
X74124399Y-59792428D01*
X74103690Y-59781054D01*
X74085536Y-59768223D01*
X74069921Y-59753920D01*
X74056825Y-59738126D01*
X74046229Y-59720825D01*
X74038115Y-59702000D01*
X74036315Y-59696852D01*
X74034402Y-59691211D01*
X74032780Y-59686013D01*
X74031422Y-59680975D01*
X74030302Y-59675813D01*
X74029394Y-59670243D01*
X74028673Y-59663983D01*
X74028112Y-59656749D01*
X74027685Y-59648257D01*
X74027366Y-59638225D01*
X74027130Y-59626368D01*
X74026950Y-59612402D01*
X74026801Y-59596046D01*
X74026655Y-59577015D01*
X74026599Y-59569124D01*
X74026489Y-59549114D01*
X74026455Y-59531718D01*
X74026510Y-59516684D01*
X74026666Y-59503757D01*
X74026935Y-59492686D01*
X74027330Y-59483217D01*
X74027862Y-59475097D01*
X74028544Y-59468075D01*
X74029389Y-59461896D01*
X74030408Y-59456308D01*
X74031614Y-59451058D01*
X74033019Y-59445893D01*
X74034452Y-59441184D01*
X74038987Y-59429144D01*
X74044555Y-59418650D01*
X74051705Y-59408772D01*
X74060987Y-59398579D01*
X74073842Y-59386859D01*
X74090632Y-59374655D01*
X74108486Y-59364706D01*
X74126842Y-59357361D01*
X74130350Y-59356203D01*
X74134239Y-59354834D01*
X74136267Y-59354003D01*
X74136338Y-59353934D01*
X74135310Y-59353066D01*
X74132130Y-59351668D01*
X74127393Y-59350007D01*
X74115190Y-59345348D01*
X74099079Y-59336597D01*
X74084540Y-59325506D01*
X74071713Y-59312250D01*
X74060741Y-59297007D01*
X74051765Y-59279953D01*
X74044925Y-59261265D01*
X74040364Y-59241121D01*
X74040361Y-59241102D01*
X74039639Y-59234849D01*
X74039047Y-59226132D01*
X74038583Y-59215439D01*
X74038248Y-59203262D01*
X74038044Y-59190088D01*
X74037969Y-59176407D01*
X74038024Y-59162708D01*
X74038210Y-59149481D01*
X74038528Y-59137216D01*
X74038976Y-59126400D01*
X74039557Y-59117525D01*
X74040269Y-59111079D01*
X74040407Y-59110197D01*
X74045140Y-59087955D01*
X74052025Y-59067716D01*
X74061088Y-59049424D01*
X74072358Y-59033024D01*
X74085861Y-59018463D01*
X74086985Y-59017422D01*
X74102833Y-59004532D01*
X74120569Y-58993243D01*
X74140298Y-58983521D01*
X74162126Y-58975331D01*
X74186158Y-58968640D01*
X74212501Y-58963411D01*
X74241260Y-58959610D01*
X74272540Y-58957203D01*
X74275571Y-58957073D01*
X74283053Y-58956870D01*
X74293452Y-58956687D01*
X74306741Y-58956525D01*
X74322893Y-58956384D01*
X74341883Y-58956264D01*
X74363683Y-58956165D01*
X74388268Y-58956088D01*
X74415611Y-58956031D01*
X74445686Y-58955997D01*
X74478466Y-58955983D01*
X74513925Y-58955992D01*
X74552037Y-58956022D01*
X74592775Y-58956073D01*
X74883428Y-58956507D01*
X74883814Y-59020440D01*
X74884199Y-59084373D01*
X74578369Y-59084825D01*
X74571714Y-59084834D01*
X74536706Y-59084888D01*
X74504511Y-59084940D01*
X74475005Y-59084992D01*
X74448064Y-59085046D01*
X74423566Y-59085102D01*
X74401386Y-59085162D01*
X74381401Y-59085227D01*
X74363488Y-59085297D01*
X74347523Y-59085375D01*
X74333383Y-59085462D01*
X74320944Y-59085558D01*
X74310084Y-59085665D01*
X74300678Y-59085784D01*
X74292602Y-59085917D01*
X74285735Y-59086063D01*
X74279951Y-59086226D01*
X74275128Y-59086405D01*
X74271142Y-59086602D01*
X74267870Y-59086818D01*
X74265188Y-59087055D01*
X74262973Y-59087313D01*
X74261102Y-59087594D01*
X74259450Y-59087899D01*
X74246868Y-59090876D01*
X74235921Y-59094649D01*
X74226965Y-59099307D01*
X74219514Y-59105104D01*
X74213083Y-59112296D01*
X74212068Y-59113643D01*
X74209790Y-59116903D01*
X74207934Y-59120156D01*
X74206453Y-59123733D01*
X74205299Y-59127962D01*
X74204426Y-59133174D01*
X74203787Y-59139696D01*
X74203335Y-59147860D01*
X74203022Y-59157993D01*
X74202802Y-59170427D01*
X74202627Y-59185489D01*
X74202607Y-59187527D01*
X74202485Y-59202408D01*
X74202465Y-59214717D01*
X74202579Y-59224798D01*
X74202858Y-59232994D01*
X74203336Y-59239648D01*
X74204045Y-59245104D01*
X74205017Y-59249706D01*
X74206286Y-59253796D01*
X74207882Y-59257718D01*
X74209839Y-59261815D01*
X74213871Y-59268570D01*
X74220200Y-59275652D01*
X74228323Y-59281480D01*
X74238615Y-59286314D01*
X74251451Y-59290411D01*
X74263664Y-59293683D01*
X74846450Y-59295233D01*
X74847220Y-59423087D01*
X74561359Y-59423598D01*
X74533295Y-59423647D01*
X74500914Y-59423702D01*
X74471258Y-59423755D01*
X74444196Y-59423808D01*
X74419599Y-59423865D01*
X74397337Y-59423930D01*
X74377280Y-59424005D01*
X74359298Y-59424095D01*
X74343262Y-59424203D01*
X74329043Y-59424332D01*
X74316509Y-59424485D01*
X74305532Y-59424668D01*
X74295981Y-59424882D01*
X74287727Y-59425131D01*
X74280641Y-59425419D01*
X74274591Y-59425749D01*
X74269450Y-59426125D01*
X74265086Y-59426549D01*
X74261370Y-59427027D01*
X74258172Y-59427561D01*
X74255363Y-59428154D01*
X74252813Y-59428810D01*
X74250391Y-59429533D01*
X74247969Y-59430326D01*
X74245416Y-59431192D01*
X74242603Y-59432135D01*
X74240476Y-59432851D01*
X74226353Y-59438622D01*
X74214878Y-59445389D01*
X74205867Y-59453349D01*
X74199138Y-59462695D01*
X74194507Y-59473624D01*
X74191791Y-59486330D01*
X74191709Y-59486997D01*
X74191274Y-59492773D01*
X74190954Y-59501397D01*
X74190749Y-59512775D01*
X74190662Y-59526815D01*
X74190693Y-59543423D01*
X74190844Y-59562506D01*
X74190960Y-59573211D01*
X74191155Y-59588241D01*
X74191390Y-59600811D01*
X74191699Y-59611230D01*
X74192116Y-59619806D01*
X74192674Y-59626847D01*
X74193407Y-59632660D01*
X74194349Y-59637554D01*
X74195534Y-59641836D01*
X74196995Y-59645814D01*
X74198767Y-59649797D01*
X74200882Y-59654092D01*
X74201370Y-59655037D01*
X74207650Y-59664468D01*
X74215935Y-59672593D01*
X74226441Y-59679555D01*
X74239384Y-59685501D01*
X74254980Y-59690576D01*
X74269580Y-59694604D01*
X74576504Y-59695344D01*
X74883428Y-59696083D01*
X74883814Y-59760057D01*
X74884199Y-59824030D01*
X74577555Y-59824030D01*
X74549411Y-59824026D01*
G37*
G04 #@! TD.AperFunction*
G04 #@! TA.AperFunction,SMDPad,CuDef*
G36*
X75008417Y-59695396D02*
G01*
X75739857Y-59694604D01*
X75754285Y-59690620D01*
X75761811Y-59688330D01*
X75776534Y-59682283D01*
X75788677Y-59674855D01*
X75798279Y-59666019D01*
X75805378Y-59655749D01*
X75806346Y-59653975D01*
X75807435Y-59652029D01*
X75808423Y-59650196D01*
X75809315Y-59648338D01*
X75810117Y-59646315D01*
X75810833Y-59643986D01*
X75811468Y-59641212D01*
X75812026Y-59637854D01*
X75812513Y-59633772D01*
X75812934Y-59628826D01*
X75813293Y-59622877D01*
X75813595Y-59615785D01*
X75813845Y-59607410D01*
X75814047Y-59597613D01*
X75814207Y-59586254D01*
X75814330Y-59573194D01*
X75814419Y-59558292D01*
X75814481Y-59541409D01*
X75814519Y-59522407D01*
X75814540Y-59501143D01*
X75814546Y-59477481D01*
X75814544Y-59451279D01*
X75814538Y-59422397D01*
X75814533Y-59390698D01*
X75814532Y-59374989D01*
X75814530Y-59344547D01*
X75814527Y-59316858D01*
X75814517Y-59291783D01*
X75814496Y-59269184D01*
X75814459Y-59248921D01*
X75814403Y-59230857D01*
X75814323Y-59214852D01*
X75814214Y-59200769D01*
X75814073Y-59188468D01*
X75813894Y-59177811D01*
X75813675Y-59168658D01*
X75813409Y-59160873D01*
X75813093Y-59154315D01*
X75812723Y-59148847D01*
X75812294Y-59144329D01*
X75811802Y-59140623D01*
X75811243Y-59137591D01*
X75810611Y-59135093D01*
X75809903Y-59132991D01*
X75809115Y-59131147D01*
X75808242Y-59129422D01*
X75807280Y-59127677D01*
X75806224Y-59125774D01*
X75800497Y-59117358D01*
X75791478Y-59108336D01*
X75780407Y-59100534D01*
X75767733Y-59094262D01*
X75753909Y-59089831D01*
X75753201Y-59089662D01*
X75750739Y-59089106D01*
X75748184Y-59088591D01*
X75745421Y-59088115D01*
X75742337Y-59087677D01*
X75738817Y-59087275D01*
X75734745Y-59086908D01*
X75730007Y-59086575D01*
X75724489Y-59086273D01*
X75718076Y-59086001D01*
X75710653Y-59085757D01*
X75702106Y-59085541D01*
X75692320Y-59085349D01*
X75681180Y-59085182D01*
X75668573Y-59085036D01*
X75654382Y-59084912D01*
X75638494Y-59084806D01*
X75620794Y-59084718D01*
X75601167Y-59084646D01*
X75579499Y-59084588D01*
X75555675Y-59084543D01*
X75529581Y-59084509D01*
X75501101Y-59084485D01*
X75470121Y-59084469D01*
X75436527Y-59084460D01*
X75400204Y-59084455D01*
X75361038Y-59084454D01*
X75008417Y-59084454D01*
X75008417Y-58955674D01*
X75378574Y-58956212D01*
X75414863Y-58956268D01*
X75454608Y-58956337D01*
X75491539Y-58956409D01*
X75525733Y-58956486D01*
X75557267Y-58956569D01*
X75586218Y-58956656D01*
X75612664Y-58956750D01*
X75636682Y-58956851D01*
X75658350Y-58956958D01*
X75677745Y-58957072D01*
X75694944Y-58957195D01*
X75710025Y-58957325D01*
X75723066Y-58957465D01*
X75734142Y-58957614D01*
X75743333Y-58957772D01*
X75750716Y-58957941D01*
X75756366Y-58958120D01*
X75760364Y-58958310D01*
X75762784Y-58958512D01*
X75773468Y-58959947D01*
X75801979Y-58964850D01*
X75827982Y-58971034D01*
X75851621Y-58978556D01*
X75873041Y-58987473D01*
X75892386Y-58997843D01*
X75909800Y-59009722D01*
X75925426Y-59023168D01*
X75933204Y-59031102D01*
X75944844Y-59045180D01*
X75954576Y-59060274D01*
X75962636Y-59076828D01*
X75969262Y-59095289D01*
X75974689Y-59116102D01*
X75978001Y-59131047D01*
X75978001Y-59409139D01*
X75977998Y-59440031D01*
X75977991Y-59468179D01*
X75977978Y-59493719D01*
X75977959Y-59516786D01*
X75977932Y-59537516D01*
X75977896Y-59556044D01*
X75977848Y-59572506D01*
X75977789Y-59587038D01*
X75977716Y-59599776D01*
X75977629Y-59610854D01*
X75977525Y-59620410D01*
X75977404Y-59628577D01*
X75977264Y-59635492D01*
X75977104Y-59641291D01*
X75976922Y-59646108D01*
X75976718Y-59650081D01*
X75976489Y-59653343D01*
X75976235Y-59656032D01*
X75975954Y-59658282D01*
X75975644Y-59660229D01*
X75975305Y-59662009D01*
X75973902Y-59668470D01*
X75967139Y-59691934D01*
X75958149Y-59713459D01*
X75946927Y-59733062D01*
X75946323Y-59733961D01*
X75939547Y-59742809D01*
X75931038Y-59752284D01*
X75921554Y-59761632D01*
X75911853Y-59770104D01*
X75902691Y-59776948D01*
X75883397Y-59788489D01*
X75860818Y-59799062D01*
X75836231Y-59807774D01*
X75809540Y-59814651D01*
X75780652Y-59819723D01*
X75749472Y-59823017D01*
X75749202Y-59823029D01*
X75746367Y-59823074D01*
X75740737Y-59823121D01*
X75732441Y-59823168D01*
X75721608Y-59823216D01*
X75708366Y-59823263D01*
X75692844Y-59823311D01*
X75675172Y-59823358D01*
X75655476Y-59823404D01*
X75633887Y-59823449D01*
X75610534Y-59823493D01*
X75585544Y-59823536D01*
X75559046Y-59823577D01*
X75531170Y-59823616D01*
X75502044Y-59823653D01*
X75471797Y-59823687D01*
X75440558Y-59823718D01*
X75408454Y-59823747D01*
X75375616Y-59823772D01*
X75008417Y-59824030D01*
X75008417Y-59695396D01*
G37*
G04 #@! TD.AperFunction*
D11*
X79302500Y-63343000D03*
D12*
X79302500Y-59143000D03*
X70702500Y-59143000D03*
D11*
X70702500Y-63343000D03*
D13*
X82004500Y-58543000D03*
D14*
X75002500Y-66026400D03*
D15*
X75502500Y-68016000D03*
D14*
X73732500Y-66890000D03*
X76272500Y-66890000D03*
D15*
X74504500Y-68018000D03*
X77452500Y-65239000D03*
X72485360Y-65236700D03*
D16*
X74588632Y-67102132D02*
X75502500Y-68016000D01*
X74588632Y-67102132D02*
X74562886Y-67077619D01*
X74562886Y-67077619D02*
X74535968Y-67054399D01*
X74535968Y-67054399D02*
X74507944Y-67032529D01*
X74507944Y-67032529D02*
X74478879Y-67012059D01*
X74478879Y-67012059D02*
X74448846Y-66993041D01*
X74448846Y-66993041D02*
X74417916Y-66975519D01*
X74417916Y-66975519D02*
X74386163Y-66959536D01*
X74386163Y-66959536D02*
X74353664Y-66945130D01*
X74353664Y-66945130D02*
X74320497Y-66932336D01*
X74320497Y-66932336D02*
X74286743Y-66921185D01*
X74286743Y-66921185D02*
X74252482Y-66911704D01*
X74252482Y-66911704D02*
X74217797Y-66903915D01*
X74217797Y-66903915D02*
X74182771Y-66897838D01*
X74182771Y-66897838D02*
X74147490Y-66893486D01*
X74147490Y-66893486D02*
X74112037Y-66890871D01*
X74112037Y-66890871D02*
X74076500Y-66890000D01*
X74076500Y-66890000D02*
X73732500Y-66890000D01*
X76272500Y-67697842D02*
X76272500Y-66890000D01*
X76272500Y-67697842D02*
X76271627Y-67733379D01*
X76271627Y-67733379D02*
X76269012Y-67768832D01*
X76269012Y-67768832D02*
X76264660Y-67804113D01*
X76264660Y-67804113D02*
X76258583Y-67839138D01*
X76258583Y-67839138D02*
X76250794Y-67873823D01*
X76250794Y-67873823D02*
X76241312Y-67908084D01*
X76241312Y-67908084D02*
X76230161Y-67941839D01*
X76230161Y-67941839D02*
X76217368Y-67975005D01*
X76217368Y-67975005D02*
X76202962Y-68007504D01*
X76202962Y-68007504D02*
X76186979Y-68039257D01*
X76186979Y-68039257D02*
X76169457Y-68070188D01*
X76169457Y-68070188D02*
X76150438Y-68100221D01*
X76150438Y-68100221D02*
X76129969Y-68129285D01*
X76129969Y-68129285D02*
X76108098Y-68157310D01*
X76108098Y-68157310D02*
X76084879Y-68184228D01*
X76084879Y-68184228D02*
X76060367Y-68209974D01*
X75446341Y-68524001D02*
X75481878Y-68523127D01*
X75481878Y-68523127D02*
X75517331Y-68520512D01*
X75517331Y-68520512D02*
X75552612Y-68516161D01*
X75552612Y-68516161D02*
X75587637Y-68510083D01*
X75587637Y-68510083D02*
X75622322Y-68502294D01*
X75622322Y-68502294D02*
X75656583Y-68492813D01*
X75656583Y-68492813D02*
X75690337Y-68481662D01*
X75690337Y-68481662D02*
X75723504Y-68468868D01*
X75723504Y-68468868D02*
X75756003Y-68454462D01*
X75756003Y-68454462D02*
X75787755Y-68438479D01*
X75787755Y-68438479D02*
X75818686Y-68420957D01*
X75818686Y-68420957D02*
X75848719Y-68401939D01*
X75848719Y-68401939D02*
X75877783Y-68381470D01*
X75877783Y-68381470D02*
X75905808Y-68359599D01*
X75905808Y-68359599D02*
X75932725Y-68336379D01*
X75932725Y-68336379D02*
X75958472Y-68311868D01*
X75958472Y-68311868D02*
X76060367Y-68209974D01*
X74798368Y-68311868D02*
X74504500Y-68018000D01*
X74798368Y-68311868D02*
X74824114Y-68336379D01*
X74824114Y-68336379D02*
X74851032Y-68359599D01*
X74851032Y-68359599D02*
X74879057Y-68381469D01*
X74879057Y-68381469D02*
X74908121Y-68401938D01*
X74908121Y-68401938D02*
X74938154Y-68420957D01*
X74938154Y-68420957D02*
X74969085Y-68438479D01*
X74969085Y-68438479D02*
X75000837Y-68454462D01*
X75000837Y-68454462D02*
X75033336Y-68468868D01*
X75033336Y-68468868D02*
X75066503Y-68481661D01*
X75066503Y-68481661D02*
X75100258Y-68492812D01*
X75100258Y-68492812D02*
X75134519Y-68502294D01*
X75134519Y-68502294D02*
X75169203Y-68510082D01*
X75169203Y-68510082D02*
X75204229Y-68516160D01*
X75204229Y-68516160D02*
X75239510Y-68520511D01*
X75239510Y-68520511D02*
X75274963Y-68523127D01*
X75274963Y-68523127D02*
X75310501Y-68524001D01*
X75310501Y-68524001D02*
X75446341Y-68524001D01*
D17*
X72552500Y-65239000D02*
X77452500Y-65239000D01*
D18*
X71911530Y-56849248D02*
X71883774Y-56854855D01*
X71843922Y-56864365D01*
X71818544Y-56871365D01*
X71773391Y-56885805D01*
X71750299Y-56894232D01*
X71700554Y-56915021D01*
X71679652Y-56924907D01*
X71626761Y-56953319D01*
X71607957Y-56964696D01*
X71554304Y-57001362D01*
X71537504Y-57014263D01*
X71494783Y-57050434D01*
X71484888Y-57059657D01*
X71450034Y-57095013D01*
X71438725Y-57107500D01*
X71401331Y-57153216D01*
X71391469Y-57166593D01*
X71357670Y-57217849D01*
X71349110Y-57232437D01*
X71321906Y-57284629D01*
X71314505Y-57300752D01*
X71294834Y-57349184D01*
X71288449Y-57367162D01*
X71275384Y-57408793D01*
X71269872Y-57428951D01*
X71261736Y-57462572D01*
X71256954Y-57485232D01*
X71253608Y-57502336D01*
X71252481Y-57508590D01*
X71250222Y-57522018D01*
X71249881Y-57524199D01*
X71247166Y-57543701D01*
X71246855Y-57546247D01*
X71244984Y-57563744D01*
X71244703Y-57566804D01*
X71243604Y-57580539D01*
X71243350Y-57584263D01*
X71242736Y-57594611D01*
X71242507Y-57599147D01*
X71242171Y-57606770D01*
X71241965Y-57612269D01*
X71241784Y-57617823D01*
X71241599Y-57624434D01*
X71241499Y-57628479D01*
X71241333Y-57636351D01*
X71241278Y-57639369D01*
X71241130Y-57648652D01*
X71241100Y-57650757D01*
X71240966Y-57661601D01*
X71240948Y-57663243D01*
X71240828Y-57675796D01*
X71240818Y-57676927D01*
X71240708Y-57691340D01*
X71240702Y-57692245D01*
X71240602Y-57708667D01*
X71240599Y-57709272D01*
X71240505Y-57727852D01*
X71240502Y-57728349D01*
X71240414Y-57749237D01*
X71240413Y-57749573D01*
X71240328Y-57772918D01*
X71240327Y-57773155D01*
X71240243Y-57799107D01*
X71240243Y-57799269D01*
X71240158Y-57827977D01*
X71240157Y-57828026D01*
X71240126Y-57838798D01*
X71240126Y-57839004D01*
X71240042Y-57872256D01*
X71240041Y-57872599D01*
X71239982Y-57902976D01*
X71239981Y-57903435D01*
X71239949Y-57931020D01*
X71239949Y-57931583D01*
X71239944Y-57956458D01*
X71239944Y-57957130D01*
X71239965Y-57979380D01*
X71239967Y-57980315D01*
X71240017Y-58000022D01*
X71240021Y-58001154D01*
X71240098Y-58018401D01*
X71240107Y-58019964D01*
X71240213Y-58034834D01*
X71240231Y-58036905D01*
X71240365Y-58049481D01*
X71240405Y-58052513D01*
X71240569Y-58062878D01*
X71240657Y-58067340D01*
X71240850Y-58075578D01*
X71241069Y-58082953D01*
X71241292Y-58089146D01*
X71241959Y-58103062D01*
X71242212Y-58107293D01*
X71243362Y-58122997D01*
X71243402Y-58123458D01*
X71245845Y-58146373D01*
X71249299Y-58173682D01*
X71257137Y-58220413D01*
X71262374Y-58245406D01*
X71276471Y-58299641D01*
X71283570Y-58322425D01*
X71306177Y-58383010D01*
X71315219Y-58403686D01*
X71348001Y-58467662D01*
X71359063Y-58486336D01*
X71402307Y-58549536D01*
X71415471Y-58566312D01*
X71467183Y-58623942D01*
X71482527Y-58638924D01*
X71538921Y-58687403D01*
X71556525Y-58700694D01*
X71613090Y-58738463D01*
X71633034Y-58750169D01*
X71686111Y-58777787D01*
X71708475Y-58788011D01*
X71751517Y-58805662D01*
X71771405Y-58812911D01*
X71805865Y-58824277D01*
X71825756Y-58830163D01*
X71859048Y-58838961D01*
X71880101Y-58843869D01*
X71911272Y-58850251D01*
X71933856Y-58854240D01*
X71961523Y-58858449D01*
X71986007Y-58861579D01*
X72009536Y-58864106D01*
X72036290Y-58866435D01*
X72052387Y-58867614D01*
X72070768Y-58868706D01*
X72085973Y-58869411D01*
X72090581Y-58869565D01*
X72098669Y-58869780D01*
X72106158Y-58869927D01*
X72109694Y-58869986D01*
X72119986Y-58870126D01*
X72122018Y-58870150D01*
X72135037Y-58870282D01*
X72136306Y-58870293D01*
X72151973Y-58870418D01*
X72152890Y-58870425D01*
X72171129Y-58870542D01*
X72171837Y-58870546D01*
X72192570Y-58870654D01*
X72193092Y-58870657D01*
X72216241Y-58870757D01*
X72216658Y-58870758D01*
X72242147Y-58870850D01*
X72242531Y-58870851D01*
X72270282Y-58870933D01*
X72270585Y-58870934D01*
X72300520Y-58871007D01*
X72300780Y-58871008D01*
X72332823Y-58871072D01*
X72333082Y-58871072D01*
X72367154Y-58871125D01*
X72367350Y-58871126D01*
X72403374Y-58871170D01*
X72403580Y-58871170D01*
X72441480Y-58871203D01*
X72441651Y-58871203D01*
X72481348Y-58871226D01*
X72481518Y-58871226D01*
X72522936Y-58871238D01*
X72523068Y-58871238D01*
X72538564Y-58871239D01*
X72538571Y-58871239D01*
X72942010Y-58871260D01*
X73011555Y-58864412D01*
X73081081Y-58871260D01*
X73499350Y-58871260D01*
X73496275Y-58878658D01*
X73489390Y-58898897D01*
X73470969Y-58965774D01*
X73466236Y-58988016D01*
X73460436Y-59019453D01*
X73460298Y-59020335D01*
X73456791Y-59046630D01*
X73456079Y-59053076D01*
X73453784Y-59079177D01*
X73453203Y-59088052D01*
X73452452Y-59102106D01*
X73452004Y-59112922D01*
X73451698Y-59122001D01*
X73451380Y-59134266D01*
X73451241Y-59141227D01*
X73451055Y-59154454D01*
X73451002Y-59160351D01*
X73450947Y-59174050D01*
X73450951Y-59179625D01*
X73451026Y-59193306D01*
X73451087Y-59199177D01*
X73451291Y-59212351D01*
X73451443Y-59219406D01*
X73451778Y-59231583D01*
X73452108Y-59240888D01*
X73452572Y-59251581D01*
X73453369Y-59265907D01*
X73453961Y-59274624D01*
X73456486Y-59302182D01*
X73457208Y-59308435D01*
X73459018Y-59321681D01*
X73458282Y-59324883D01*
X73452904Y-59350997D01*
X73451885Y-59356585D01*
X73447775Y-59382358D01*
X73446930Y-59388537D01*
X73444266Y-59411328D01*
X73443584Y-59418350D01*
X73442091Y-59436719D01*
X73441559Y-59444839D01*
X73440813Y-59458750D01*
X73440418Y-59468219D01*
X73440081Y-59478427D01*
X73439812Y-59489498D01*
X73439682Y-59496673D01*
X73439526Y-59509600D01*
X73439487Y-59514536D01*
X73439432Y-59529570D01*
X73439429Y-59532865D01*
X73439463Y-59550261D01*
X73439471Y-59552341D01*
X73439581Y-59572351D01*
X73439587Y-59573290D01*
X73439643Y-59581181D01*
X73439645Y-59581518D01*
X73439791Y-59600549D01*
X73439798Y-59601393D01*
X73439947Y-59617749D01*
X73439972Y-59619967D01*
X73440152Y-59633933D01*
X73440219Y-59638050D01*
X73440455Y-59649907D01*
X73440636Y-59656882D01*
X73440955Y-59666914D01*
X73441399Y-59677737D01*
X73441826Y-59686229D01*
X73442842Y-59702137D01*
X73443403Y-59709371D01*
X73445501Y-59731150D01*
X73446222Y-59737410D01*
X73450015Y-59764691D01*
X73450923Y-59770261D01*
X73456623Y-59800284D01*
X73457743Y-59805446D01*
X73464625Y-59833756D01*
X73465983Y-59838794D01*
X73472402Y-59860875D01*
X73474024Y-59866073D01*
X73478473Y-59879740D01*
X73480386Y-59885381D01*
X73482184Y-59890604D01*
X73483984Y-59895752D01*
X73499032Y-59934357D01*
X73507146Y-59953182D01*
X73545628Y-60027418D01*
X73556224Y-60044719D01*
X73604936Y-60112822D01*
X73618032Y-60128616D01*
X73673414Y-60186798D01*
X73689029Y-60201101D01*
X73746718Y-60247601D01*
X73764872Y-60260432D01*
X73821095Y-60295584D01*
X73841804Y-60306958D01*
X73894006Y-60332354D01*
X73917291Y-60342290D01*
X73941764Y-60352089D01*
X73942370Y-60352316D01*
X73967799Y-60361182D01*
X73988553Y-60367888D01*
X74033388Y-60380435D01*
X74056384Y-60385897D01*
X74095189Y-60393741D01*
X74120578Y-60397988D01*
X74153465Y-60402538D01*
X74181399Y-60405600D01*
X74198378Y-60407212D01*
X74204032Y-60407666D01*
X74223578Y-60408907D01*
X74227617Y-60409096D01*
X74239998Y-60409545D01*
X74246935Y-60409723D01*
X74252025Y-60409831D01*
X74261800Y-60409997D01*
X74264567Y-60410038D01*
X74277120Y-60410192D01*
X74278901Y-60410211D01*
X74294172Y-60410352D01*
X74295368Y-60410362D01*
X74313297Y-60410491D01*
X74314175Y-60410496D01*
X74334701Y-60410613D01*
X74335425Y-60410617D01*
X74358488Y-60410720D01*
X74359064Y-60410722D01*
X74384605Y-60410811D01*
X74385034Y-60410813D01*
X74412992Y-60410890D01*
X74413408Y-60410891D01*
X74443724Y-60410953D01*
X74444079Y-60410953D01*
X74476691Y-60411000D01*
X74476964Y-60411001D01*
X74511813Y-60411035D01*
X74512101Y-60411035D01*
X74549126Y-60411053D01*
X74549328Y-60411053D01*
X74577472Y-60411057D01*
X74884199Y-60411057D01*
X74945342Y-60404849D01*
X75008829Y-60411057D01*
X75376028Y-60410799D01*
X75376063Y-60410799D01*
X75408901Y-60410774D01*
X75408984Y-60410774D01*
X75441088Y-60410745D01*
X75441141Y-60410745D01*
X75472380Y-60410714D01*
X75472457Y-60410714D01*
X75502704Y-60410680D01*
X75502790Y-60410680D01*
X75531916Y-60410643D01*
X75531991Y-60410642D01*
X75559867Y-60410603D01*
X75559954Y-60410603D01*
X75586452Y-60410562D01*
X75586554Y-60410562D01*
X75611544Y-60410519D01*
X75611640Y-60410519D01*
X75634993Y-60410475D01*
X75635111Y-60410475D01*
X75656700Y-60410430D01*
X75656847Y-60410429D01*
X75676543Y-60410383D01*
X75676733Y-60410383D01*
X75694405Y-60410336D01*
X75694659Y-60410335D01*
X75710181Y-60410287D01*
X75710450Y-60410286D01*
X75723692Y-60410239D01*
X75724209Y-60410237D01*
X75735042Y-60410189D01*
X75735767Y-60410186D01*
X75744063Y-60410139D01*
X75745637Y-60410128D01*
X75751267Y-60410081D01*
X75755684Y-60410027D01*
X75758519Y-60409982D01*
X75775266Y-60409477D01*
X75775536Y-60409465D01*
X75811145Y-60406795D01*
X75842325Y-60403501D01*
X75882166Y-60397906D01*
X75911054Y-60392834D01*
X75956005Y-60383113D01*
X75982696Y-60376236D01*
X76032290Y-60361093D01*
X76056877Y-60352381D01*
X76109762Y-60330689D01*
X76132341Y-60320116D01*
X76184740Y-60292268D01*
X76204034Y-60280727D01*
X76254003Y-60247246D01*
X76263165Y-60240402D01*
X76297990Y-60212257D01*
X76307691Y-60203785D01*
X76333636Y-60179710D01*
X76343120Y-60170362D01*
X76367796Y-60144513D01*
X76376305Y-60135038D01*
X76405605Y-60099727D01*
X76412381Y-60090879D01*
X76433588Y-60061334D01*
X76434192Y-60060435D01*
X76456382Y-60024706D01*
X76467604Y-60005103D01*
X76499830Y-59939694D01*
X76508820Y-59918169D01*
X76531203Y-59854514D01*
X76537966Y-59831050D01*
X76547560Y-59793039D01*
X76548963Y-59786578D01*
X76551967Y-59771834D01*
X76552306Y-59770054D01*
X76555369Y-59752532D01*
X76555679Y-59750585D01*
X76558456Y-59731030D01*
X76558737Y-59728780D01*
X76560661Y-59711236D01*
X76560915Y-59708547D01*
X76562075Y-59694452D01*
X76562304Y-59691190D01*
X76562973Y-59680183D01*
X76563177Y-59676210D01*
X76563530Y-59668272D01*
X76563712Y-59663455D01*
X76563908Y-59657481D01*
X76564068Y-59651682D01*
X76564171Y-59647374D01*
X76564311Y-59640459D01*
X76564367Y-59637273D01*
X76564488Y-59629106D01*
X76564517Y-59626798D01*
X76564621Y-59617242D01*
X76564638Y-59615464D01*
X76564725Y-59604386D01*
X76564733Y-59603140D01*
X76564806Y-59590402D01*
X76564811Y-59589421D01*
X76564870Y-59574889D01*
X76564873Y-59574218D01*
X76564921Y-59557756D01*
X76564922Y-59557185D01*
X76564958Y-59538657D01*
X76564959Y-59538281D01*
X76564986Y-59517551D01*
X76564986Y-59517270D01*
X76565005Y-59494203D01*
X76565005Y-59494018D01*
X76565018Y-59468478D01*
X76565018Y-59468325D01*
X76565025Y-59440177D01*
X76565025Y-59440088D01*
X76565028Y-59409196D01*
X76565028Y-59131047D01*
X76551123Y-59004036D01*
X76547811Y-58989091D01*
X76542723Y-58967987D01*
X76537296Y-58947174D01*
X76521778Y-58896980D01*
X76515152Y-58878519D01*
X76490427Y-58819851D01*
X76482367Y-58803297D01*
X76462613Y-58768221D01*
X76467618Y-58772328D01*
X76569107Y-58826575D01*
X76679230Y-58859980D01*
X76793753Y-58871260D01*
X76937231Y-58871260D01*
X77051754Y-58859980D01*
X77098253Y-58845875D01*
X77134030Y-58853430D01*
X77150870Y-58856420D01*
X77181714Y-58861055D01*
X77200415Y-58863359D01*
X77223935Y-58865777D01*
X77244992Y-58867514D01*
X77255491Y-58868285D01*
X77258904Y-58868505D01*
X77273858Y-58869278D01*
X77277896Y-58869435D01*
X77288053Y-58869742D01*
X77294873Y-58869889D01*
X77299056Y-58869964D01*
X77308484Y-58870100D01*
X77310664Y-58870127D01*
X77322522Y-58870254D01*
X77323943Y-58870268D01*
X77338057Y-58870385D01*
X77339044Y-58870392D01*
X77355238Y-58870499D01*
X77355971Y-58870504D01*
X77374068Y-58870601D01*
X77374638Y-58870603D01*
X77394464Y-58870690D01*
X77394898Y-58870692D01*
X77416277Y-58870770D01*
X77416691Y-58870771D01*
X77439446Y-58870838D01*
X77439753Y-58870839D01*
X77463710Y-58870897D01*
X77464003Y-58870898D01*
X77488985Y-58870946D01*
X77489227Y-58870946D01*
X77515058Y-58870985D01*
X77515324Y-58870986D01*
X77541830Y-58871014D01*
X77542037Y-58871014D01*
X77569041Y-58871033D01*
X77569261Y-58871033D01*
X77596588Y-58871042D01*
X77624468Y-58871042D01*
X77651913Y-58871032D01*
X77652130Y-58871032D01*
X77679370Y-58871012D01*
X77679573Y-58871012D01*
X77706433Y-58870983D01*
X77706669Y-58870982D01*
X77732973Y-58870943D01*
X77733205Y-58870943D01*
X77758778Y-58870895D01*
X77759056Y-58870894D01*
X77783720Y-58870836D01*
X77784008Y-58870836D01*
X77807590Y-58870769D01*
X77807947Y-58870768D01*
X77830270Y-58870691D01*
X77830662Y-58870689D01*
X77851551Y-58870603D01*
X77852057Y-58870601D01*
X77871335Y-58870505D01*
X77871936Y-58870501D01*
X77889428Y-58870396D01*
X77890251Y-58870391D01*
X77905782Y-58870276D01*
X77906870Y-58870267D01*
X77920263Y-58870143D01*
X77921874Y-58870126D01*
X77932954Y-58869993D01*
X77935610Y-58869955D01*
X77944201Y-58869813D01*
X77949549Y-58869700D01*
X77955476Y-58869548D01*
X77966344Y-58869169D01*
X77968652Y-58869067D01*
X77994037Y-58867393D01*
X78023069Y-58864846D01*
X78059312Y-58860527D01*
X78086059Y-58856493D01*
X78127875Y-58848627D01*
X78152649Y-58843030D01*
X78198609Y-58830669D01*
X78221725Y-58823435D01*
X78269509Y-58806177D01*
X78291281Y-58797231D01*
X78322641Y-58783260D01*
X78329493Y-58779964D01*
X78355756Y-58766508D01*
X78372646Y-58757311D01*
X78416797Y-58730692D01*
X78431365Y-58721012D01*
X78479575Y-58685297D01*
X78492460Y-58674690D01*
X78526589Y-58644290D01*
X78532553Y-58638546D01*
X78568763Y-58600401D01*
X78582845Y-58584168D01*
X78629658Y-58522395D01*
X78641463Y-58504472D01*
X78679277Y-58438006D01*
X78688847Y-58418299D01*
X78716252Y-58351772D01*
X78723632Y-58330186D01*
X78741234Y-58267558D01*
X78746466Y-58244001D01*
X78753438Y-58207057D01*
X78754540Y-58199981D01*
X78757272Y-58180243D01*
X78757519Y-58178204D01*
X78759512Y-58159146D01*
X78759740Y-58156559D01*
X78760785Y-58142886D01*
X78760995Y-58139637D01*
X78761543Y-58129889D01*
X78761736Y-58125864D01*
X78762030Y-58118874D01*
X78762207Y-58113959D01*
X78762373Y-58108701D01*
X78762533Y-58102784D01*
X78762621Y-58099098D01*
X78762767Y-58092064D01*
X78762818Y-58089257D01*
X78762950Y-58080993D01*
X78762981Y-58078767D01*
X78763098Y-58069160D01*
X78763116Y-58067581D01*
X78763221Y-58056515D01*
X78763231Y-58055265D01*
X78763324Y-58042629D01*
X78763331Y-58041629D01*
X78763412Y-58027307D01*
X78763415Y-58026573D01*
X78763486Y-58010453D01*
X78763489Y-58009820D01*
X78763549Y-57991788D01*
X78763550Y-57991328D01*
X78763601Y-57971271D01*
X78763602Y-57970915D01*
X78763645Y-57948717D01*
X78763645Y-57948396D01*
X78763679Y-57923946D01*
X78763680Y-57923743D01*
X78763708Y-57896926D01*
X78763708Y-57896734D01*
X78763729Y-57867437D01*
X78763729Y-57867292D01*
X78763744Y-57835400D01*
X78763744Y-57835294D01*
X78763754Y-57800695D01*
X78763754Y-57800619D01*
X78763760Y-57763199D01*
X78763760Y-57755113D01*
X78763787Y-57416018D01*
X78752507Y-57301448D01*
X78719102Y-57191325D01*
X78664855Y-57089836D01*
X78591851Y-57000880D01*
X78502895Y-56927876D01*
X78401406Y-56873629D01*
X78312302Y-56846600D01*
X81989652Y-56846600D01*
X82333717Y-56880336D01*
X82650391Y-56975945D01*
X82942466Y-57131244D01*
X83198814Y-57340317D01*
X83409674Y-57595202D01*
X83567004Y-57886178D01*
X83664825Y-58202186D01*
X83700900Y-58545416D01*
X83700901Y-71028142D01*
X83667164Y-71372219D01*
X83571554Y-71688893D01*
X83416253Y-71980969D01*
X83207183Y-72237314D01*
X82952298Y-72448174D01*
X82661318Y-72605506D01*
X82345315Y-72703325D01*
X82002084Y-72739400D01*
X68019348Y-72739400D01*
X67675281Y-72705664D01*
X67358607Y-72610054D01*
X67066531Y-72454753D01*
X66810186Y-72245683D01*
X66599326Y-71990798D01*
X66441994Y-71699818D01*
X66344175Y-71383815D01*
X66308100Y-71040584D01*
X66308100Y-70912144D01*
X66675900Y-70912144D01*
X66675900Y-71173856D01*
X66726957Y-71430538D01*
X66827110Y-71672328D01*
X66972509Y-71889933D01*
X67157567Y-72074991D01*
X67375172Y-72220390D01*
X67616962Y-72320543D01*
X67873644Y-72371600D01*
X68135356Y-72371600D01*
X68392038Y-72320543D01*
X68633828Y-72220390D01*
X68851433Y-72074991D01*
X69036491Y-71889933D01*
X69181890Y-71672328D01*
X69282043Y-71430538D01*
X69333100Y-71173856D01*
X69333100Y-70912144D01*
X80675900Y-70912144D01*
X80675900Y-71173856D01*
X80726957Y-71430538D01*
X80827110Y-71672328D01*
X80972509Y-71889933D01*
X81157567Y-72074991D01*
X81375172Y-72220390D01*
X81616962Y-72320543D01*
X81873644Y-72371600D01*
X82135356Y-72371600D01*
X82392038Y-72320543D01*
X82633828Y-72220390D01*
X82851433Y-72074991D01*
X83036491Y-71889933D01*
X83181890Y-71672328D01*
X83282043Y-71430538D01*
X83333100Y-71173856D01*
X83333100Y-70912144D01*
X83282043Y-70655462D01*
X83181890Y-70413672D01*
X83036491Y-70196067D01*
X82851433Y-70011009D01*
X82633828Y-69865610D01*
X82392038Y-69765457D01*
X82135356Y-69714400D01*
X81873644Y-69714400D01*
X81616962Y-69765457D01*
X81375172Y-69865610D01*
X81157567Y-70011009D01*
X80972509Y-70196067D01*
X80827110Y-70413672D01*
X80726957Y-70655462D01*
X80675900Y-70912144D01*
X69333100Y-70912144D01*
X69282043Y-70655462D01*
X69181890Y-70413672D01*
X69036491Y-70196067D01*
X68851433Y-70011009D01*
X68633828Y-69865610D01*
X68392038Y-69765457D01*
X68135356Y-69714400D01*
X67873644Y-69714400D01*
X67616962Y-69765457D01*
X67375172Y-69865610D01*
X67157567Y-70011009D01*
X66972509Y-70196067D01*
X66827110Y-70413672D01*
X66726957Y-70655462D01*
X66675900Y-70912144D01*
X66308100Y-70912144D01*
X66308100Y-66845324D01*
X73278900Y-66845324D01*
X73278900Y-66934676D01*
X73296331Y-67022310D01*
X73330525Y-67104860D01*
X73380166Y-67179153D01*
X73443347Y-67242334D01*
X73517640Y-67291975D01*
X73600190Y-67326169D01*
X73687824Y-67343600D01*
X73777176Y-67343600D01*
X73864810Y-67326169D01*
X73947360Y-67291975D01*
X74016765Y-67245600D01*
X74072155Y-67245600D01*
X74094588Y-67246150D01*
X74112632Y-67247481D01*
X74130578Y-67249694D01*
X74148404Y-67252787D01*
X74166043Y-67256748D01*
X74183498Y-67261578D01*
X74200657Y-67267247D01*
X74217536Y-67273758D01*
X74234083Y-67281093D01*
X74250241Y-67289226D01*
X74265967Y-67298135D01*
X74281261Y-67307820D01*
X74296057Y-67318240D01*
X74310307Y-67329362D01*
X74324010Y-67341182D01*
X74340266Y-67356659D01*
X74519007Y-67535400D01*
X74456968Y-67535400D01*
X74363731Y-67553946D01*
X74275903Y-67590326D01*
X74196860Y-67643140D01*
X74129640Y-67710360D01*
X74076826Y-67789403D01*
X74040446Y-67877231D01*
X74021900Y-67970468D01*
X74021900Y-68065532D01*
X74040446Y-68158769D01*
X74076826Y-68246597D01*
X74129640Y-68325640D01*
X74196860Y-68392860D01*
X74275903Y-68445674D01*
X74363731Y-68482054D01*
X74456968Y-68500600D01*
X74484205Y-68500600D01*
X74537681Y-68554076D01*
X74540527Y-68557375D01*
X74549973Y-68566368D01*
X74559268Y-68575663D01*
X74562662Y-68578448D01*
X74572601Y-68587911D01*
X74578621Y-68594234D01*
X74585241Y-68599944D01*
X74591568Y-68605968D01*
X74598450Y-68611338D01*
X74612171Y-68623174D01*
X74618495Y-68629195D01*
X74625374Y-68634563D01*
X74631985Y-68640266D01*
X74639128Y-68645297D01*
X74653417Y-68656448D01*
X74660024Y-68662147D01*
X74667157Y-68667171D01*
X74674054Y-68672553D01*
X74681438Y-68677229D01*
X74696233Y-68687649D01*
X74703117Y-68693021D01*
X74710502Y-68697698D01*
X74717643Y-68702727D01*
X74725236Y-68707028D01*
X74740546Y-68716724D01*
X74747687Y-68721753D01*
X74755280Y-68726054D01*
X74762657Y-68730726D01*
X74770463Y-68734655D01*
X74786224Y-68743584D01*
X74793602Y-68748256D01*
X74801407Y-68752185D01*
X74809007Y-68756490D01*
X74816987Y-68760027D01*
X74833164Y-68768170D01*
X74840767Y-68772477D01*
X74848757Y-68776019D01*
X74856551Y-68779942D01*
X74864692Y-68783082D01*
X74881278Y-68790435D01*
X74889073Y-68794358D01*
X74897203Y-68797494D01*
X74905196Y-68801037D01*
X74913506Y-68803782D01*
X74930398Y-68810298D01*
X74938378Y-68813835D01*
X74946674Y-68816576D01*
X74954826Y-68819720D01*
X74963236Y-68822047D01*
X74980429Y-68827727D01*
X74988579Y-68830871D01*
X74997003Y-68833202D01*
X75005296Y-68835942D01*
X75013813Y-68837854D01*
X75031282Y-68842689D01*
X75039574Y-68845428D01*
X75048084Y-68847339D01*
X75056500Y-68849668D01*
X75065115Y-68851163D01*
X75082779Y-68855130D01*
X75091200Y-68857460D01*
X75099816Y-68858955D01*
X75108335Y-68860868D01*
X75116994Y-68861936D01*
X75134852Y-68865035D01*
X75143373Y-68866948D01*
X75152033Y-68868016D01*
X75160637Y-68869509D01*
X75169354Y-68870152D01*
X75187328Y-68872369D01*
X75195927Y-68873861D01*
X75204640Y-68874504D01*
X75213317Y-68875574D01*
X75222045Y-68875788D01*
X75240086Y-68877119D01*
X75248763Y-68878190D01*
X75257510Y-68878405D01*
X75266210Y-68879047D01*
X75274928Y-68878833D01*
X75288674Y-68879171D01*
X75293038Y-68879601D01*
X75306159Y-68879601D01*
X75319216Y-68879922D01*
X75323570Y-68879601D01*
X75433273Y-68879601D01*
X75437627Y-68879922D01*
X75450684Y-68879601D01*
X75463804Y-68879601D01*
X75468168Y-68879171D01*
X75481895Y-68878834D01*
X75490620Y-68879048D01*
X75499340Y-68878405D01*
X75508078Y-68878190D01*
X75516736Y-68877122D01*
X75534806Y-68875789D01*
X75543523Y-68875575D01*
X75552178Y-68874508D01*
X75560904Y-68873864D01*
X75569521Y-68872369D01*
X75587483Y-68870154D01*
X75596205Y-68869510D01*
X75604814Y-68868016D01*
X75613467Y-68866949D01*
X75621982Y-68865037D01*
X75639852Y-68861936D01*
X75648512Y-68860868D01*
X75657025Y-68858956D01*
X75665642Y-68857461D01*
X75674067Y-68855129D01*
X75691735Y-68851161D01*
X75700331Y-68849670D01*
X75708746Y-68847341D01*
X75717275Y-68845426D01*
X75725570Y-68842686D01*
X75743016Y-68837858D01*
X75751548Y-68835942D01*
X75759845Y-68833201D01*
X75768254Y-68830874D01*
X75776401Y-68827732D01*
X75793608Y-68822047D01*
X75802023Y-68819718D01*
X75810171Y-68816575D01*
X75818465Y-68813835D01*
X75826445Y-68810298D01*
X75843349Y-68803777D01*
X75851644Y-68801037D01*
X75859627Y-68797498D01*
X75867776Y-68794355D01*
X75875580Y-68790427D01*
X75892148Y-68783082D01*
X75900289Y-68779942D01*
X75908083Y-68776019D01*
X75916073Y-68772477D01*
X75923676Y-68768170D01*
X75939853Y-68760027D01*
X75947833Y-68756490D01*
X75955433Y-68752185D01*
X75963238Y-68748256D01*
X75970616Y-68743584D01*
X75986374Y-68734657D01*
X75994176Y-68730730D01*
X76001557Y-68726056D01*
X76009153Y-68721753D01*
X76016289Y-68716727D01*
X76031600Y-68707032D01*
X76039197Y-68702728D01*
X76046335Y-68697701D01*
X76053716Y-68693027D01*
X76060601Y-68687654D01*
X76075419Y-68677218D01*
X76082792Y-68672549D01*
X76089669Y-68667182D01*
X76096817Y-68662148D01*
X76103440Y-68656435D01*
X76117707Y-68645301D01*
X76124860Y-68640263D01*
X76131479Y-68634553D01*
X76138351Y-68629190D01*
X76144674Y-68623170D01*
X76158380Y-68611347D01*
X76165266Y-68605973D01*
X76171614Y-68599929D01*
X76178222Y-68594229D01*
X76184226Y-68587923D01*
X76194188Y-68578439D01*
X76197569Y-68575664D01*
X76206827Y-68566406D01*
X76216309Y-68557379D01*
X76219167Y-68554066D01*
X76302556Y-68470678D01*
X76305869Y-68467820D01*
X76314910Y-68458324D01*
X76324161Y-68449073D01*
X76326931Y-68445698D01*
X76336418Y-68435733D01*
X76342739Y-68429715D01*
X76348438Y-68423108D01*
X76354463Y-68416780D01*
X76359837Y-68409894D01*
X76371678Y-68396166D01*
X76377689Y-68389853D01*
X76383054Y-68382979D01*
X76388771Y-68376351D01*
X76393806Y-68369202D01*
X76404946Y-68354927D01*
X76410647Y-68348318D01*
X76415669Y-68341188D01*
X76421048Y-68334295D01*
X76425726Y-68326908D01*
X76436149Y-68312109D01*
X76441521Y-68305225D01*
X76446198Y-68297840D01*
X76451227Y-68290699D01*
X76455528Y-68283106D01*
X76465224Y-68267796D01*
X76470253Y-68260655D01*
X76474554Y-68253062D01*
X76479226Y-68245685D01*
X76483155Y-68237879D01*
X76492087Y-68222113D01*
X76496758Y-68214736D01*
X76500684Y-68206936D01*
X76504990Y-68199335D01*
X76508529Y-68191351D01*
X76516671Y-68175174D01*
X76520977Y-68167574D01*
X76524518Y-68159585D01*
X76528444Y-68151786D01*
X76531585Y-68143644D01*
X76538932Y-68127069D01*
X76542857Y-68119271D01*
X76545995Y-68111134D01*
X76549537Y-68103145D01*
X76552280Y-68094840D01*
X76558798Y-68077944D01*
X76562335Y-68069964D01*
X76565075Y-68061670D01*
X76568219Y-68053519D01*
X76570547Y-68045105D01*
X76576227Y-68027913D01*
X76579371Y-68019763D01*
X76581702Y-68011339D01*
X76584442Y-68003046D01*
X76586354Y-67994529D01*
X76591187Y-67977068D01*
X76593926Y-67968776D01*
X76595839Y-67960258D01*
X76598168Y-67951842D01*
X76599662Y-67943234D01*
X76603631Y-67925562D01*
X76605963Y-67917133D01*
X76607456Y-67908525D01*
X76609368Y-67900013D01*
X76610437Y-67891344D01*
X76613534Y-67873498D01*
X76615447Y-67864978D01*
X76616517Y-67856300D01*
X76618010Y-67847697D01*
X76618652Y-67838994D01*
X76620869Y-67821023D01*
X76622364Y-67812405D01*
X76623007Y-67803683D01*
X76624074Y-67795035D01*
X76624288Y-67786319D01*
X76625623Y-67768218D01*
X76626690Y-67759569D01*
X76626904Y-67750850D01*
X76627548Y-67742122D01*
X76627333Y-67733384D01*
X76627670Y-67719667D01*
X76628100Y-67715305D01*
X76628100Y-67702183D01*
X76628421Y-67689118D01*
X76628100Y-67684765D01*
X76628100Y-67174265D01*
X76674475Y-67104860D01*
X76708669Y-67022310D01*
X76726100Y-66934676D01*
X76726100Y-66845324D01*
X76708669Y-66757690D01*
X76674475Y-66675140D01*
X76624834Y-66600847D01*
X76561653Y-66537666D01*
X76487360Y-66488025D01*
X76404810Y-66453831D01*
X76317176Y-66436400D01*
X76227824Y-66436400D01*
X76140190Y-66453831D01*
X76057640Y-66488025D01*
X75983347Y-66537666D01*
X75920166Y-66600847D01*
X75870525Y-66675140D01*
X75836331Y-66757690D01*
X75818900Y-66845324D01*
X75818900Y-66934676D01*
X75836331Y-67022310D01*
X75870525Y-67104860D01*
X75916901Y-67174266D01*
X75916900Y-67693506D01*
X75916350Y-67715911D01*
X75915018Y-67733966D01*
X75912802Y-67751925D01*
X75911497Y-67759450D01*
X75877360Y-67708360D01*
X75810140Y-67641140D01*
X75731097Y-67588326D01*
X75643269Y-67551946D01*
X75550032Y-67533400D01*
X75522794Y-67533400D01*
X74849333Y-66859940D01*
X74846483Y-66856636D01*
X74836998Y-66847605D01*
X74827730Y-66838337D01*
X74824356Y-66835568D01*
X74814404Y-66826093D01*
X74808379Y-66819764D01*
X74801767Y-66814061D01*
X74795443Y-66808039D01*
X74788556Y-66802664D01*
X74774829Y-66790823D01*
X74768510Y-66784807D01*
X74761636Y-66779443D01*
X74755015Y-66773731D01*
X74747864Y-66768695D01*
X74733593Y-66757558D01*
X74726979Y-66751852D01*
X74719837Y-66746822D01*
X74712952Y-66741449D01*
X74705573Y-66736776D01*
X74690769Y-66726350D01*
X74683876Y-66720971D01*
X74676487Y-66716292D01*
X74669359Y-66711272D01*
X74661771Y-66706973D01*
X74646447Y-66697269D01*
X74639317Y-66692248D01*
X74631726Y-66687948D01*
X74624336Y-66683268D01*
X74616529Y-66679338D01*
X74600782Y-66670418D01*
X74593395Y-66665740D01*
X74585590Y-66661811D01*
X74577999Y-66657511D01*
X74570018Y-66653973D01*
X74553833Y-66645827D01*
X74546233Y-66641521D01*
X74538244Y-66637980D01*
X74530445Y-66634054D01*
X74522303Y-66630913D01*
X74505740Y-66623571D01*
X74497936Y-66619643D01*
X74489787Y-66616500D01*
X74481804Y-66612961D01*
X74473509Y-66610221D01*
X74456605Y-66603700D01*
X74448625Y-66600163D01*
X74440331Y-66597423D01*
X74432183Y-66594280D01*
X74423768Y-66591951D01*
X74406561Y-66586266D01*
X74398414Y-66583124D01*
X74390005Y-66580797D01*
X74381708Y-66578056D01*
X74373176Y-66576140D01*
X74355730Y-66571312D01*
X74347435Y-66568572D01*
X74338906Y-66566657D01*
X74330491Y-66564328D01*
X74321895Y-66562837D01*
X74304215Y-66558866D01*
X74295791Y-66556535D01*
X74287188Y-66555042D01*
X74278672Y-66553130D01*
X74269998Y-66552060D01*
X74252160Y-66548965D01*
X74243636Y-66547051D01*
X74234950Y-66545980D01*
X74226353Y-66544488D01*
X74217661Y-66543847D01*
X74199670Y-66541628D01*
X74191063Y-66540134D01*
X74182357Y-66539492D01*
X74173692Y-66538423D01*
X74164957Y-66538208D01*
X74146876Y-66536875D01*
X74138208Y-66535806D01*
X74129486Y-66535592D01*
X74120779Y-66534950D01*
X74112042Y-66535165D01*
X74098308Y-66534828D01*
X74093963Y-66534400D01*
X74080851Y-66534400D01*
X74067756Y-66534079D01*
X74063408Y-66534400D01*
X74016765Y-66534400D01*
X73947360Y-66488025D01*
X73864810Y-66453831D01*
X73777176Y-66436400D01*
X73687824Y-66436400D01*
X73600190Y-66453831D01*
X73517640Y-66488025D01*
X73443347Y-66537666D01*
X73380166Y-66600847D01*
X73330525Y-66675140D01*
X73296331Y-66757690D01*
X73278900Y-66845324D01*
X66308100Y-66845324D01*
X66308100Y-65189168D01*
X72002760Y-65189168D01*
X72002760Y-65284232D01*
X72021306Y-65377469D01*
X72057686Y-65465297D01*
X72110500Y-65544340D01*
X72177720Y-65611560D01*
X72256763Y-65664374D01*
X72344591Y-65700754D01*
X72437828Y-65719300D01*
X72505441Y-65719300D01*
X72528793Y-65721600D01*
X77500032Y-65721600D01*
X77523400Y-65716952D01*
X77547106Y-65714617D01*
X77569903Y-65707702D01*
X77593269Y-65703054D01*
X77615275Y-65693939D01*
X77638077Y-65687022D01*
X77659094Y-65675788D01*
X77681097Y-65666674D01*
X77700903Y-65653440D01*
X77721915Y-65642209D01*
X77740329Y-65627097D01*
X77760140Y-65613860D01*
X77776988Y-65597012D01*
X77795401Y-65581901D01*
X77810512Y-65563488D01*
X77827360Y-65546640D01*
X77840597Y-65526829D01*
X77855709Y-65508415D01*
X77866940Y-65487403D01*
X77880174Y-65467597D01*
X77889288Y-65445594D01*
X77900522Y-65424577D01*
X77907439Y-65401775D01*
X77916554Y-65379769D01*
X77921202Y-65356403D01*
X77928117Y-65333606D01*
X77930452Y-65309899D01*
X77935100Y-65286532D01*
X77935100Y-65262707D01*
X77937435Y-65239000D01*
X77935100Y-65215293D01*
X77935100Y-65191468D01*
X77930452Y-65168101D01*
X77928117Y-65144394D01*
X77921202Y-65121597D01*
X77916554Y-65098231D01*
X77907439Y-65076225D01*
X77900522Y-65053423D01*
X77889288Y-65032406D01*
X77880174Y-65010403D01*
X77866940Y-64990597D01*
X77855709Y-64969585D01*
X77840597Y-64951171D01*
X77827360Y-64931360D01*
X77810512Y-64914512D01*
X77795401Y-64896099D01*
X77776988Y-64880988D01*
X77760140Y-64864140D01*
X77740329Y-64850903D01*
X77721915Y-64835791D01*
X77700903Y-64824560D01*
X77681097Y-64811326D01*
X77659094Y-64802212D01*
X77638077Y-64790978D01*
X77615275Y-64784061D01*
X77593269Y-64774946D01*
X77569903Y-64770298D01*
X77547106Y-64763383D01*
X77523400Y-64761048D01*
X77500032Y-64756400D01*
X72544455Y-64756400D01*
X72532892Y-64754100D01*
X72437828Y-64754100D01*
X72344591Y-64772646D01*
X72256763Y-64809026D01*
X72177720Y-64861840D01*
X72110500Y-64929060D01*
X72057686Y-65008103D01*
X72021306Y-65095931D01*
X72002760Y-65189168D01*
X66308100Y-65189168D01*
X66308100Y-62737475D01*
X71558900Y-62737475D01*
X71558900Y-62846525D01*
X71580174Y-62953479D01*
X71621906Y-63054228D01*
X71682491Y-63144900D01*
X71759600Y-63222009D01*
X71850272Y-63282594D01*
X71951021Y-63324326D01*
X72057975Y-63345600D01*
X72167025Y-63345600D01*
X72273979Y-63324326D01*
X72374728Y-63282594D01*
X72465400Y-63222009D01*
X72542509Y-63144900D01*
X72603094Y-63054228D01*
X72644826Y-62953479D01*
X72666100Y-62846525D01*
X72666100Y-62737475D01*
X77338900Y-62737475D01*
X77338900Y-62846525D01*
X77360174Y-62953479D01*
X77401906Y-63054228D01*
X77462491Y-63144900D01*
X77539600Y-63222009D01*
X77630272Y-63282594D01*
X77731021Y-63324326D01*
X77837975Y-63345600D01*
X77947025Y-63345600D01*
X78053979Y-63324326D01*
X78154728Y-63282594D01*
X78245400Y-63222009D01*
X78322509Y-63144900D01*
X78383094Y-63054228D01*
X78424826Y-62953479D01*
X78446100Y-62846525D01*
X78446100Y-62737475D01*
X78424826Y-62630521D01*
X78383094Y-62529772D01*
X78322509Y-62439100D01*
X78245400Y-62361991D01*
X78154728Y-62301406D01*
X78053979Y-62259674D01*
X77947025Y-62238400D01*
X77837975Y-62238400D01*
X77731021Y-62259674D01*
X77630272Y-62301406D01*
X77539600Y-62361991D01*
X77462491Y-62439100D01*
X77401906Y-62529772D01*
X77360174Y-62630521D01*
X77338900Y-62737475D01*
X72666100Y-62737475D01*
X72644826Y-62630521D01*
X72603094Y-62529772D01*
X72542509Y-62439100D01*
X72465400Y-62361991D01*
X72374728Y-62301406D01*
X72273979Y-62259674D01*
X72167025Y-62238400D01*
X72057975Y-62238400D01*
X71951021Y-62259674D01*
X71850272Y-62301406D01*
X71759600Y-62361991D01*
X71682491Y-62439100D01*
X71621906Y-62529772D01*
X71580174Y-62630521D01*
X71558900Y-62737475D01*
X66308100Y-62737475D01*
X66308100Y-58557848D01*
X66322386Y-58412144D01*
X66675900Y-58412144D01*
X66675900Y-58673856D01*
X66726957Y-58930538D01*
X66827110Y-59172328D01*
X66972509Y-59389933D01*
X67157567Y-59574991D01*
X67375172Y-59720390D01*
X67616962Y-59820543D01*
X67873644Y-59871600D01*
X68135356Y-59871600D01*
X68392038Y-59820543D01*
X68633828Y-59720390D01*
X68851433Y-59574991D01*
X69036491Y-59389933D01*
X69181890Y-59172328D01*
X69282043Y-58930538D01*
X69333100Y-58673856D01*
X69333100Y-58412144D01*
X69282043Y-58155462D01*
X69181890Y-57913672D01*
X69036491Y-57696067D01*
X68851433Y-57511009D01*
X68633828Y-57365610D01*
X68392038Y-57265457D01*
X68135356Y-57214400D01*
X67873644Y-57214400D01*
X67616962Y-57265457D01*
X67375172Y-57365610D01*
X67157567Y-57511009D01*
X66972509Y-57696067D01*
X66827110Y-57913672D01*
X66726957Y-58155462D01*
X66675900Y-58412144D01*
X66322386Y-58412144D01*
X66341836Y-58213783D01*
X66437445Y-57897109D01*
X66592744Y-57605034D01*
X66801817Y-57348686D01*
X67056702Y-57137826D01*
X67347678Y-56980496D01*
X67663686Y-56882675D01*
X68006916Y-56846600D01*
X71927008Y-56846600D01*
X71911530Y-56849248D01*
G04 #@! TA.AperFunction,Conductor*
D19*
G36*
X71911530Y-56849248D02*
G01*
X71883774Y-56854855D01*
X71843922Y-56864365D01*
X71818544Y-56871365D01*
X71773391Y-56885805D01*
X71750299Y-56894232D01*
X71700554Y-56915021D01*
X71679652Y-56924907D01*
X71626761Y-56953319D01*
X71607957Y-56964696D01*
X71554304Y-57001362D01*
X71537504Y-57014263D01*
X71494783Y-57050434D01*
X71484888Y-57059657D01*
X71450034Y-57095013D01*
X71438725Y-57107500D01*
X71401331Y-57153216D01*
X71391469Y-57166593D01*
X71357670Y-57217849D01*
X71349110Y-57232437D01*
X71321906Y-57284629D01*
X71314505Y-57300752D01*
X71294834Y-57349184D01*
X71288449Y-57367162D01*
X71275384Y-57408793D01*
X71269872Y-57428951D01*
X71261736Y-57462572D01*
X71256954Y-57485232D01*
X71253608Y-57502336D01*
X71252481Y-57508590D01*
X71250222Y-57522018D01*
X71249881Y-57524199D01*
X71247166Y-57543701D01*
X71246855Y-57546247D01*
X71244984Y-57563744D01*
X71244703Y-57566804D01*
X71243604Y-57580539D01*
X71243350Y-57584263D01*
X71242736Y-57594611D01*
X71242507Y-57599147D01*
X71242171Y-57606770D01*
X71241965Y-57612269D01*
X71241784Y-57617823D01*
X71241599Y-57624434D01*
X71241499Y-57628479D01*
X71241333Y-57636351D01*
X71241278Y-57639369D01*
X71241130Y-57648652D01*
X71241100Y-57650757D01*
X71240966Y-57661601D01*
X71240948Y-57663243D01*
X71240828Y-57675796D01*
X71240818Y-57676927D01*
X71240708Y-57691340D01*
X71240702Y-57692245D01*
X71240602Y-57708667D01*
X71240599Y-57709272D01*
X71240505Y-57727852D01*
X71240502Y-57728349D01*
X71240414Y-57749237D01*
X71240413Y-57749573D01*
X71240328Y-57772918D01*
X71240327Y-57773155D01*
X71240243Y-57799107D01*
X71240243Y-57799269D01*
X71240158Y-57827977D01*
X71240157Y-57828026D01*
X71240126Y-57838798D01*
X71240126Y-57839004D01*
X71240042Y-57872256D01*
X71240041Y-57872599D01*
X71239982Y-57902976D01*
X71239981Y-57903435D01*
X71239949Y-57931020D01*
X71239949Y-57931583D01*
X71239944Y-57956458D01*
X71239944Y-57957130D01*
X71239965Y-57979380D01*
X71239967Y-57980315D01*
X71240017Y-58000022D01*
X71240021Y-58001154D01*
X71240098Y-58018401D01*
X71240107Y-58019964D01*
X71240213Y-58034834D01*
X71240231Y-58036905D01*
X71240365Y-58049481D01*
X71240405Y-58052513D01*
X71240569Y-58062878D01*
X71240657Y-58067340D01*
X71240850Y-58075578D01*
X71241069Y-58082953D01*
X71241292Y-58089146D01*
X71241959Y-58103062D01*
X71242212Y-58107293D01*
X71243362Y-58122997D01*
X71243402Y-58123458D01*
X71245845Y-58146373D01*
X71249299Y-58173682D01*
X71257137Y-58220413D01*
X71262374Y-58245406D01*
X71276471Y-58299641D01*
X71283570Y-58322425D01*
X71306177Y-58383010D01*
X71315219Y-58403686D01*
X71348001Y-58467662D01*
X71359063Y-58486336D01*
X71402307Y-58549536D01*
X71415471Y-58566312D01*
X71467183Y-58623942D01*
X71482527Y-58638924D01*
X71538921Y-58687403D01*
X71556525Y-58700694D01*
X71613090Y-58738463D01*
X71633034Y-58750169D01*
X71686111Y-58777787D01*
X71708475Y-58788011D01*
X71751517Y-58805662D01*
X71771405Y-58812911D01*
X71805865Y-58824277D01*
X71825756Y-58830163D01*
X71859048Y-58838961D01*
X71880101Y-58843869D01*
X71911272Y-58850251D01*
X71933856Y-58854240D01*
X71961523Y-58858449D01*
X71986007Y-58861579D01*
X72009536Y-58864106D01*
X72036290Y-58866435D01*
X72052387Y-58867614D01*
X72070768Y-58868706D01*
X72085973Y-58869411D01*
X72090581Y-58869565D01*
X72098669Y-58869780D01*
X72106158Y-58869927D01*
X72109694Y-58869986D01*
X72119986Y-58870126D01*
X72122018Y-58870150D01*
X72135037Y-58870282D01*
X72136306Y-58870293D01*
X72151973Y-58870418D01*
X72152890Y-58870425D01*
X72171129Y-58870542D01*
X72171837Y-58870546D01*
X72192570Y-58870654D01*
X72193092Y-58870657D01*
X72216241Y-58870757D01*
X72216658Y-58870758D01*
X72242147Y-58870850D01*
X72242531Y-58870851D01*
X72270282Y-58870933D01*
X72270585Y-58870934D01*
X72300520Y-58871007D01*
X72300780Y-58871008D01*
X72332823Y-58871072D01*
X72333082Y-58871072D01*
X72367154Y-58871125D01*
X72367350Y-58871126D01*
X72403374Y-58871170D01*
X72403580Y-58871170D01*
X72441480Y-58871203D01*
X72441651Y-58871203D01*
X72481348Y-58871226D01*
X72481518Y-58871226D01*
X72522936Y-58871238D01*
X72523068Y-58871238D01*
X72538564Y-58871239D01*
X72538571Y-58871239D01*
X72942010Y-58871260D01*
X73011555Y-58864412D01*
X73081081Y-58871260D01*
X73499350Y-58871260D01*
X73496275Y-58878658D01*
X73489390Y-58898897D01*
X73470969Y-58965774D01*
X73466236Y-58988016D01*
X73460436Y-59019453D01*
X73460298Y-59020335D01*
X73456791Y-59046630D01*
X73456079Y-59053076D01*
X73453784Y-59079177D01*
X73453203Y-59088052D01*
X73452452Y-59102106D01*
X73452004Y-59112922D01*
X73451698Y-59122001D01*
X73451380Y-59134266D01*
X73451241Y-59141227D01*
X73451055Y-59154454D01*
X73451002Y-59160351D01*
X73450947Y-59174050D01*
X73450951Y-59179625D01*
X73451026Y-59193306D01*
X73451087Y-59199177D01*
X73451291Y-59212351D01*
X73451443Y-59219406D01*
X73451778Y-59231583D01*
X73452108Y-59240888D01*
X73452572Y-59251581D01*
X73453369Y-59265907D01*
X73453961Y-59274624D01*
X73456486Y-59302182D01*
X73457208Y-59308435D01*
X73459018Y-59321681D01*
X73458282Y-59324883D01*
X73452904Y-59350997D01*
X73451885Y-59356585D01*
X73447775Y-59382358D01*
X73446930Y-59388537D01*
X73444266Y-59411328D01*
X73443584Y-59418350D01*
X73442091Y-59436719D01*
X73441559Y-59444839D01*
X73440813Y-59458750D01*
X73440418Y-59468219D01*
X73440081Y-59478427D01*
X73439812Y-59489498D01*
X73439682Y-59496673D01*
X73439526Y-59509600D01*
X73439487Y-59514536D01*
X73439432Y-59529570D01*
X73439429Y-59532865D01*
X73439463Y-59550261D01*
X73439471Y-59552341D01*
X73439581Y-59572351D01*
X73439587Y-59573290D01*
X73439643Y-59581181D01*
X73439645Y-59581518D01*
X73439791Y-59600549D01*
X73439798Y-59601393D01*
X73439947Y-59617749D01*
X73439972Y-59619967D01*
X73440152Y-59633933D01*
X73440219Y-59638050D01*
X73440455Y-59649907D01*
X73440636Y-59656882D01*
X73440955Y-59666914D01*
X73441399Y-59677737D01*
X73441826Y-59686229D01*
X73442842Y-59702137D01*
X73443403Y-59709371D01*
X73445501Y-59731150D01*
X73446222Y-59737410D01*
X73450015Y-59764691D01*
X73450923Y-59770261D01*
X73456623Y-59800284D01*
X73457743Y-59805446D01*
X73464625Y-59833756D01*
X73465983Y-59838794D01*
X73472402Y-59860875D01*
X73474024Y-59866073D01*
X73478473Y-59879740D01*
X73480386Y-59885381D01*
X73482184Y-59890604D01*
X73483984Y-59895752D01*
X73499032Y-59934357D01*
X73507146Y-59953182D01*
X73545628Y-60027418D01*
X73556224Y-60044719D01*
X73604936Y-60112822D01*
X73618032Y-60128616D01*
X73673414Y-60186798D01*
X73689029Y-60201101D01*
X73746718Y-60247601D01*
X73764872Y-60260432D01*
X73821095Y-60295584D01*
X73841804Y-60306958D01*
X73894006Y-60332354D01*
X73917291Y-60342290D01*
X73941764Y-60352089D01*
X73942370Y-60352316D01*
X73967799Y-60361182D01*
X73988553Y-60367888D01*
X74033388Y-60380435D01*
X74056384Y-60385897D01*
X74095189Y-60393741D01*
X74120578Y-60397988D01*
X74153465Y-60402538D01*
X74181399Y-60405600D01*
X74198378Y-60407212D01*
X74204032Y-60407666D01*
X74223578Y-60408907D01*
X74227617Y-60409096D01*
X74239998Y-60409545D01*
X74246935Y-60409723D01*
X74252025Y-60409831D01*
X74261800Y-60409997D01*
X74264567Y-60410038D01*
X74277120Y-60410192D01*
X74278901Y-60410211D01*
X74294172Y-60410352D01*
X74295368Y-60410362D01*
X74313297Y-60410491D01*
X74314175Y-60410496D01*
X74334701Y-60410613D01*
X74335425Y-60410617D01*
X74358488Y-60410720D01*
X74359064Y-60410722D01*
X74384605Y-60410811D01*
X74385034Y-60410813D01*
X74412992Y-60410890D01*
X74413408Y-60410891D01*
X74443724Y-60410953D01*
X74444079Y-60410953D01*
X74476691Y-60411000D01*
X74476964Y-60411001D01*
X74511813Y-60411035D01*
X74512101Y-60411035D01*
X74549126Y-60411053D01*
X74549328Y-60411053D01*
X74577472Y-60411057D01*
X74884199Y-60411057D01*
X74945342Y-60404849D01*
X75008829Y-60411057D01*
X75376028Y-60410799D01*
X75376063Y-60410799D01*
X75408901Y-60410774D01*
X75408984Y-60410774D01*
X75441088Y-60410745D01*
X75441141Y-60410745D01*
X75472380Y-60410714D01*
X75472457Y-60410714D01*
X75502704Y-60410680D01*
X75502790Y-60410680D01*
X75531916Y-60410643D01*
X75531991Y-60410642D01*
X75559867Y-60410603D01*
X75559954Y-60410603D01*
X75586452Y-60410562D01*
X75586554Y-60410562D01*
X75611544Y-60410519D01*
X75611640Y-60410519D01*
X75634993Y-60410475D01*
X75635111Y-60410475D01*
X75656700Y-60410430D01*
X75656847Y-60410429D01*
X75676543Y-60410383D01*
X75676733Y-60410383D01*
X75694405Y-60410336D01*
X75694659Y-60410335D01*
X75710181Y-60410287D01*
X75710450Y-60410286D01*
X75723692Y-60410239D01*
X75724209Y-60410237D01*
X75735042Y-60410189D01*
X75735767Y-60410186D01*
X75744063Y-60410139D01*
X75745637Y-60410128D01*
X75751267Y-60410081D01*
X75755684Y-60410027D01*
X75758519Y-60409982D01*
X75775266Y-60409477D01*
X75775536Y-60409465D01*
X75811145Y-60406795D01*
X75842325Y-60403501D01*
X75882166Y-60397906D01*
X75911054Y-60392834D01*
X75956005Y-60383113D01*
X75982696Y-60376236D01*
X76032290Y-60361093D01*
X76056877Y-60352381D01*
X76109762Y-60330689D01*
X76132341Y-60320116D01*
X76184740Y-60292268D01*
X76204034Y-60280727D01*
X76254003Y-60247246D01*
X76263165Y-60240402D01*
X76297990Y-60212257D01*
X76307691Y-60203785D01*
X76333636Y-60179710D01*
X76343120Y-60170362D01*
X76367796Y-60144513D01*
X76376305Y-60135038D01*
X76405605Y-60099727D01*
X76412381Y-60090879D01*
X76433588Y-60061334D01*
X76434192Y-60060435D01*
X76456382Y-60024706D01*
X76467604Y-60005103D01*
X76499830Y-59939694D01*
X76508820Y-59918169D01*
X76531203Y-59854514D01*
X76537966Y-59831050D01*
X76547560Y-59793039D01*
X76548963Y-59786578D01*
X76551967Y-59771834D01*
X76552306Y-59770054D01*
X76555369Y-59752532D01*
X76555679Y-59750585D01*
X76558456Y-59731030D01*
X76558737Y-59728780D01*
X76560661Y-59711236D01*
X76560915Y-59708547D01*
X76562075Y-59694452D01*
X76562304Y-59691190D01*
X76562973Y-59680183D01*
X76563177Y-59676210D01*
X76563530Y-59668272D01*
X76563712Y-59663455D01*
X76563908Y-59657481D01*
X76564068Y-59651682D01*
X76564171Y-59647374D01*
X76564311Y-59640459D01*
X76564367Y-59637273D01*
X76564488Y-59629106D01*
X76564517Y-59626798D01*
X76564621Y-59617242D01*
X76564638Y-59615464D01*
X76564725Y-59604386D01*
X76564733Y-59603140D01*
X76564806Y-59590402D01*
X76564811Y-59589421D01*
X76564870Y-59574889D01*
X76564873Y-59574218D01*
X76564921Y-59557756D01*
X76564922Y-59557185D01*
X76564958Y-59538657D01*
X76564959Y-59538281D01*
X76564986Y-59517551D01*
X76564986Y-59517270D01*
X76565005Y-59494203D01*
X76565005Y-59494018D01*
X76565018Y-59468478D01*
X76565018Y-59468325D01*
X76565025Y-59440177D01*
X76565025Y-59440088D01*
X76565028Y-59409196D01*
X76565028Y-59131047D01*
X76551123Y-59004036D01*
X76547811Y-58989091D01*
X76542723Y-58967987D01*
X76537296Y-58947174D01*
X76521778Y-58896980D01*
X76515152Y-58878519D01*
X76490427Y-58819851D01*
X76482367Y-58803297D01*
X76462613Y-58768221D01*
X76467618Y-58772328D01*
X76569107Y-58826575D01*
X76679230Y-58859980D01*
X76793753Y-58871260D01*
X76937231Y-58871260D01*
X77051754Y-58859980D01*
X77098253Y-58845875D01*
X77134030Y-58853430D01*
X77150870Y-58856420D01*
X77181714Y-58861055D01*
X77200415Y-58863359D01*
X77223935Y-58865777D01*
X77244992Y-58867514D01*
X77255491Y-58868285D01*
X77258904Y-58868505D01*
X77273858Y-58869278D01*
X77277896Y-58869435D01*
X77288053Y-58869742D01*
X77294873Y-58869889D01*
X77299056Y-58869964D01*
X77308484Y-58870100D01*
X77310664Y-58870127D01*
X77322522Y-58870254D01*
X77323943Y-58870268D01*
X77338057Y-58870385D01*
X77339044Y-58870392D01*
X77355238Y-58870499D01*
X77355971Y-58870504D01*
X77374068Y-58870601D01*
X77374638Y-58870603D01*
X77394464Y-58870690D01*
X77394898Y-58870692D01*
X77416277Y-58870770D01*
X77416691Y-58870771D01*
X77439446Y-58870838D01*
X77439753Y-58870839D01*
X77463710Y-58870897D01*
X77464003Y-58870898D01*
X77488985Y-58870946D01*
X77489227Y-58870946D01*
X77515058Y-58870985D01*
X77515324Y-58870986D01*
X77541830Y-58871014D01*
X77542037Y-58871014D01*
X77569041Y-58871033D01*
X77569261Y-58871033D01*
X77596588Y-58871042D01*
X77624468Y-58871042D01*
X77651913Y-58871032D01*
X77652130Y-58871032D01*
X77679370Y-58871012D01*
X77679573Y-58871012D01*
X77706433Y-58870983D01*
X77706669Y-58870982D01*
X77732973Y-58870943D01*
X77733205Y-58870943D01*
X77758778Y-58870895D01*
X77759056Y-58870894D01*
X77783720Y-58870836D01*
X77784008Y-58870836D01*
X77807590Y-58870769D01*
X77807947Y-58870768D01*
X77830270Y-58870691D01*
X77830662Y-58870689D01*
X77851551Y-58870603D01*
X77852057Y-58870601D01*
X77871335Y-58870505D01*
X77871936Y-58870501D01*
X77889428Y-58870396D01*
X77890251Y-58870391D01*
X77905782Y-58870276D01*
X77906870Y-58870267D01*
X77920263Y-58870143D01*
X77921874Y-58870126D01*
X77932954Y-58869993D01*
X77935610Y-58869955D01*
X77944201Y-58869813D01*
X77949549Y-58869700D01*
X77955476Y-58869548D01*
X77966344Y-58869169D01*
X77968652Y-58869067D01*
X77994037Y-58867393D01*
X78023069Y-58864846D01*
X78059312Y-58860527D01*
X78086059Y-58856493D01*
X78127875Y-58848627D01*
X78152649Y-58843030D01*
X78198609Y-58830669D01*
X78221725Y-58823435D01*
X78269509Y-58806177D01*
X78291281Y-58797231D01*
X78322641Y-58783260D01*
X78329493Y-58779964D01*
X78355756Y-58766508D01*
X78372646Y-58757311D01*
X78416797Y-58730692D01*
X78431365Y-58721012D01*
X78479575Y-58685297D01*
X78492460Y-58674690D01*
X78526589Y-58644290D01*
X78532553Y-58638546D01*
X78568763Y-58600401D01*
X78582845Y-58584168D01*
X78629658Y-58522395D01*
X78641463Y-58504472D01*
X78679277Y-58438006D01*
X78688847Y-58418299D01*
X78716252Y-58351772D01*
X78723632Y-58330186D01*
X78741234Y-58267558D01*
X78746466Y-58244001D01*
X78753438Y-58207057D01*
X78754540Y-58199981D01*
X78757272Y-58180243D01*
X78757519Y-58178204D01*
X78759512Y-58159146D01*
X78759740Y-58156559D01*
X78760785Y-58142886D01*
X78760995Y-58139637D01*
X78761543Y-58129889D01*
X78761736Y-58125864D01*
X78762030Y-58118874D01*
X78762207Y-58113959D01*
X78762373Y-58108701D01*
X78762533Y-58102784D01*
X78762621Y-58099098D01*
X78762767Y-58092064D01*
X78762818Y-58089257D01*
X78762950Y-58080993D01*
X78762981Y-58078767D01*
X78763098Y-58069160D01*
X78763116Y-58067581D01*
X78763221Y-58056515D01*
X78763231Y-58055265D01*
X78763324Y-58042629D01*
X78763331Y-58041629D01*
X78763412Y-58027307D01*
X78763415Y-58026573D01*
X78763486Y-58010453D01*
X78763489Y-58009820D01*
X78763549Y-57991788D01*
X78763550Y-57991328D01*
X78763601Y-57971271D01*
X78763602Y-57970915D01*
X78763645Y-57948717D01*
X78763645Y-57948396D01*
X78763679Y-57923946D01*
X78763680Y-57923743D01*
X78763708Y-57896926D01*
X78763708Y-57896734D01*
X78763729Y-57867437D01*
X78763729Y-57867292D01*
X78763744Y-57835400D01*
X78763744Y-57835294D01*
X78763754Y-57800695D01*
X78763754Y-57800619D01*
X78763760Y-57763199D01*
X78763760Y-57755113D01*
X78763787Y-57416018D01*
X78752507Y-57301448D01*
X78719102Y-57191325D01*
X78664855Y-57089836D01*
X78591851Y-57000880D01*
X78502895Y-56927876D01*
X78401406Y-56873629D01*
X78312302Y-56846600D01*
X81989652Y-56846600D01*
X82333717Y-56880336D01*
X82650391Y-56975945D01*
X82942466Y-57131244D01*
X83198814Y-57340317D01*
X83409674Y-57595202D01*
X83567004Y-57886178D01*
X83664825Y-58202186D01*
X83700900Y-58545416D01*
X83700901Y-71028142D01*
X83667164Y-71372219D01*
X83571554Y-71688893D01*
X83416253Y-71980969D01*
X83207183Y-72237314D01*
X82952298Y-72448174D01*
X82661318Y-72605506D01*
X82345315Y-72703325D01*
X82002084Y-72739400D01*
X68019348Y-72739400D01*
X67675281Y-72705664D01*
X67358607Y-72610054D01*
X67066531Y-72454753D01*
X66810186Y-72245683D01*
X66599326Y-71990798D01*
X66441994Y-71699818D01*
X66344175Y-71383815D01*
X66308100Y-71040584D01*
X66308100Y-70912144D01*
X66675900Y-70912144D01*
X66675900Y-71173856D01*
X66726957Y-71430538D01*
X66827110Y-71672328D01*
X66972509Y-71889933D01*
X67157567Y-72074991D01*
X67375172Y-72220390D01*
X67616962Y-72320543D01*
X67873644Y-72371600D01*
X68135356Y-72371600D01*
X68392038Y-72320543D01*
X68633828Y-72220390D01*
X68851433Y-72074991D01*
X69036491Y-71889933D01*
X69181890Y-71672328D01*
X69282043Y-71430538D01*
X69333100Y-71173856D01*
X69333100Y-70912144D01*
X80675900Y-70912144D01*
X80675900Y-71173856D01*
X80726957Y-71430538D01*
X80827110Y-71672328D01*
X80972509Y-71889933D01*
X81157567Y-72074991D01*
X81375172Y-72220390D01*
X81616962Y-72320543D01*
X81873644Y-72371600D01*
X82135356Y-72371600D01*
X82392038Y-72320543D01*
X82633828Y-72220390D01*
X82851433Y-72074991D01*
X83036491Y-71889933D01*
X83181890Y-71672328D01*
X83282043Y-71430538D01*
X83333100Y-71173856D01*
X83333100Y-70912144D01*
X83282043Y-70655462D01*
X83181890Y-70413672D01*
X83036491Y-70196067D01*
X82851433Y-70011009D01*
X82633828Y-69865610D01*
X82392038Y-69765457D01*
X82135356Y-69714400D01*
X81873644Y-69714400D01*
X81616962Y-69765457D01*
X81375172Y-69865610D01*
X81157567Y-70011009D01*
X80972509Y-70196067D01*
X80827110Y-70413672D01*
X80726957Y-70655462D01*
X80675900Y-70912144D01*
X69333100Y-70912144D01*
X69282043Y-70655462D01*
X69181890Y-70413672D01*
X69036491Y-70196067D01*
X68851433Y-70011009D01*
X68633828Y-69865610D01*
X68392038Y-69765457D01*
X68135356Y-69714400D01*
X67873644Y-69714400D01*
X67616962Y-69765457D01*
X67375172Y-69865610D01*
X67157567Y-70011009D01*
X66972509Y-70196067D01*
X66827110Y-70413672D01*
X66726957Y-70655462D01*
X66675900Y-70912144D01*
X66308100Y-70912144D01*
X66308100Y-66845324D01*
X73278900Y-66845324D01*
X73278900Y-66934676D01*
X73296331Y-67022310D01*
X73330525Y-67104860D01*
X73380166Y-67179153D01*
X73443347Y-67242334D01*
X73517640Y-67291975D01*
X73600190Y-67326169D01*
X73687824Y-67343600D01*
X73777176Y-67343600D01*
X73864810Y-67326169D01*
X73947360Y-67291975D01*
X74016765Y-67245600D01*
X74072155Y-67245600D01*
X74094588Y-67246150D01*
X74112632Y-67247481D01*
X74130578Y-67249694D01*
X74148404Y-67252787D01*
X74166043Y-67256748D01*
X74183498Y-67261578D01*
X74200657Y-67267247D01*
X74217536Y-67273758D01*
X74234083Y-67281093D01*
X74250241Y-67289226D01*
X74265967Y-67298135D01*
X74281261Y-67307820D01*
X74296057Y-67318240D01*
X74310307Y-67329362D01*
X74324010Y-67341182D01*
X74340266Y-67356659D01*
X74519007Y-67535400D01*
X74456968Y-67535400D01*
X74363731Y-67553946D01*
X74275903Y-67590326D01*
X74196860Y-67643140D01*
X74129640Y-67710360D01*
X74076826Y-67789403D01*
X74040446Y-67877231D01*
X74021900Y-67970468D01*
X74021900Y-68065532D01*
X74040446Y-68158769D01*
X74076826Y-68246597D01*
X74129640Y-68325640D01*
X74196860Y-68392860D01*
X74275903Y-68445674D01*
X74363731Y-68482054D01*
X74456968Y-68500600D01*
X74484205Y-68500600D01*
X74537681Y-68554076D01*
X74540527Y-68557375D01*
X74549973Y-68566368D01*
X74559268Y-68575663D01*
X74562662Y-68578448D01*
X74572601Y-68587911D01*
X74578621Y-68594234D01*
X74585241Y-68599944D01*
X74591568Y-68605968D01*
X74598450Y-68611338D01*
X74612171Y-68623174D01*
X74618495Y-68629195D01*
X74625374Y-68634563D01*
X74631985Y-68640266D01*
X74639128Y-68645297D01*
X74653417Y-68656448D01*
X74660024Y-68662147D01*
X74667157Y-68667171D01*
X74674054Y-68672553D01*
X74681438Y-68677229D01*
X74696233Y-68687649D01*
X74703117Y-68693021D01*
X74710502Y-68697698D01*
X74717643Y-68702727D01*
X74725236Y-68707028D01*
X74740546Y-68716724D01*
X74747687Y-68721753D01*
X74755280Y-68726054D01*
X74762657Y-68730726D01*
X74770463Y-68734655D01*
X74786224Y-68743584D01*
X74793602Y-68748256D01*
X74801407Y-68752185D01*
X74809007Y-68756490D01*
X74816987Y-68760027D01*
X74833164Y-68768170D01*
X74840767Y-68772477D01*
X74848757Y-68776019D01*
X74856551Y-68779942D01*
X74864692Y-68783082D01*
X74881278Y-68790435D01*
X74889073Y-68794358D01*
X74897203Y-68797494D01*
X74905196Y-68801037D01*
X74913506Y-68803782D01*
X74930398Y-68810298D01*
X74938378Y-68813835D01*
X74946674Y-68816576D01*
X74954826Y-68819720D01*
X74963236Y-68822047D01*
X74980429Y-68827727D01*
X74988579Y-68830871D01*
X74997003Y-68833202D01*
X75005296Y-68835942D01*
X75013813Y-68837854D01*
X75031282Y-68842689D01*
X75039574Y-68845428D01*
X75048084Y-68847339D01*
X75056500Y-68849668D01*
X75065115Y-68851163D01*
X75082779Y-68855130D01*
X75091200Y-68857460D01*
X75099816Y-68858955D01*
X75108335Y-68860868D01*
X75116994Y-68861936D01*
X75134852Y-68865035D01*
X75143373Y-68866948D01*
X75152033Y-68868016D01*
X75160637Y-68869509D01*
X75169354Y-68870152D01*
X75187328Y-68872369D01*
X75195927Y-68873861D01*
X75204640Y-68874504D01*
X75213317Y-68875574D01*
X75222045Y-68875788D01*
X75240086Y-68877119D01*
X75248763Y-68878190D01*
X75257510Y-68878405D01*
X75266210Y-68879047D01*
X75274928Y-68878833D01*
X75288674Y-68879171D01*
X75293038Y-68879601D01*
X75306159Y-68879601D01*
X75319216Y-68879922D01*
X75323570Y-68879601D01*
X75433273Y-68879601D01*
X75437627Y-68879922D01*
X75450684Y-68879601D01*
X75463804Y-68879601D01*
X75468168Y-68879171D01*
X75481895Y-68878834D01*
X75490620Y-68879048D01*
X75499340Y-68878405D01*
X75508078Y-68878190D01*
X75516736Y-68877122D01*
X75534806Y-68875789D01*
X75543523Y-68875575D01*
X75552178Y-68874508D01*
X75560904Y-68873864D01*
X75569521Y-68872369D01*
X75587483Y-68870154D01*
X75596205Y-68869510D01*
X75604814Y-68868016D01*
X75613467Y-68866949D01*
X75621982Y-68865037D01*
X75639852Y-68861936D01*
X75648512Y-68860868D01*
X75657025Y-68858956D01*
X75665642Y-68857461D01*
X75674067Y-68855129D01*
X75691735Y-68851161D01*
X75700331Y-68849670D01*
X75708746Y-68847341D01*
X75717275Y-68845426D01*
X75725570Y-68842686D01*
X75743016Y-68837858D01*
X75751548Y-68835942D01*
X75759845Y-68833201D01*
X75768254Y-68830874D01*
X75776401Y-68827732D01*
X75793608Y-68822047D01*
X75802023Y-68819718D01*
X75810171Y-68816575D01*
X75818465Y-68813835D01*
X75826445Y-68810298D01*
X75843349Y-68803777D01*
X75851644Y-68801037D01*
X75859627Y-68797498D01*
X75867776Y-68794355D01*
X75875580Y-68790427D01*
X75892148Y-68783082D01*
X75900289Y-68779942D01*
X75908083Y-68776019D01*
X75916073Y-68772477D01*
X75923676Y-68768170D01*
X75939853Y-68760027D01*
X75947833Y-68756490D01*
X75955433Y-68752185D01*
X75963238Y-68748256D01*
X75970616Y-68743584D01*
X75986374Y-68734657D01*
X75994176Y-68730730D01*
X76001557Y-68726056D01*
X76009153Y-68721753D01*
X76016289Y-68716727D01*
X76031600Y-68707032D01*
X76039197Y-68702728D01*
X76046335Y-68697701D01*
X76053716Y-68693027D01*
X76060601Y-68687654D01*
X76075419Y-68677218D01*
X76082792Y-68672549D01*
X76089669Y-68667182D01*
X76096817Y-68662148D01*
X76103440Y-68656435D01*
X76117707Y-68645301D01*
X76124860Y-68640263D01*
X76131479Y-68634553D01*
X76138351Y-68629190D01*
X76144674Y-68623170D01*
X76158380Y-68611347D01*
X76165266Y-68605973D01*
X76171614Y-68599929D01*
X76178222Y-68594229D01*
X76184226Y-68587923D01*
X76194188Y-68578439D01*
X76197569Y-68575664D01*
X76206827Y-68566406D01*
X76216309Y-68557379D01*
X76219167Y-68554066D01*
X76302556Y-68470678D01*
X76305869Y-68467820D01*
X76314910Y-68458324D01*
X76324161Y-68449073D01*
X76326931Y-68445698D01*
X76336418Y-68435733D01*
X76342739Y-68429715D01*
X76348438Y-68423108D01*
X76354463Y-68416780D01*
X76359837Y-68409894D01*
X76371678Y-68396166D01*
X76377689Y-68389853D01*
X76383054Y-68382979D01*
X76388771Y-68376351D01*
X76393806Y-68369202D01*
X76404946Y-68354927D01*
X76410647Y-68348318D01*
X76415669Y-68341188D01*
X76421048Y-68334295D01*
X76425726Y-68326908D01*
X76436149Y-68312109D01*
X76441521Y-68305225D01*
X76446198Y-68297840D01*
X76451227Y-68290699D01*
X76455528Y-68283106D01*
X76465224Y-68267796D01*
X76470253Y-68260655D01*
X76474554Y-68253062D01*
X76479226Y-68245685D01*
X76483155Y-68237879D01*
X76492087Y-68222113D01*
X76496758Y-68214736D01*
X76500684Y-68206936D01*
X76504990Y-68199335D01*
X76508529Y-68191351D01*
X76516671Y-68175174D01*
X76520977Y-68167574D01*
X76524518Y-68159585D01*
X76528444Y-68151786D01*
X76531585Y-68143644D01*
X76538932Y-68127069D01*
X76542857Y-68119271D01*
X76545995Y-68111134D01*
X76549537Y-68103145D01*
X76552280Y-68094840D01*
X76558798Y-68077944D01*
X76562335Y-68069964D01*
X76565075Y-68061670D01*
X76568219Y-68053519D01*
X76570547Y-68045105D01*
X76576227Y-68027913D01*
X76579371Y-68019763D01*
X76581702Y-68011339D01*
X76584442Y-68003046D01*
X76586354Y-67994529D01*
X76591187Y-67977068D01*
X76593926Y-67968776D01*
X76595839Y-67960258D01*
X76598168Y-67951842D01*
X76599662Y-67943234D01*
X76603631Y-67925562D01*
X76605963Y-67917133D01*
X76607456Y-67908525D01*
X76609368Y-67900013D01*
X76610437Y-67891344D01*
X76613534Y-67873498D01*
X76615447Y-67864978D01*
X76616517Y-67856300D01*
X76618010Y-67847697D01*
X76618652Y-67838994D01*
X76620869Y-67821023D01*
X76622364Y-67812405D01*
X76623007Y-67803683D01*
X76624074Y-67795035D01*
X76624288Y-67786319D01*
X76625623Y-67768218D01*
X76626690Y-67759569D01*
X76626904Y-67750850D01*
X76627548Y-67742122D01*
X76627333Y-67733384D01*
X76627670Y-67719667D01*
X76628100Y-67715305D01*
X76628100Y-67702183D01*
X76628421Y-67689118D01*
X76628100Y-67684765D01*
X76628100Y-67174265D01*
X76674475Y-67104860D01*
X76708669Y-67022310D01*
X76726100Y-66934676D01*
X76726100Y-66845324D01*
X76708669Y-66757690D01*
X76674475Y-66675140D01*
X76624834Y-66600847D01*
X76561653Y-66537666D01*
X76487360Y-66488025D01*
X76404810Y-66453831D01*
X76317176Y-66436400D01*
X76227824Y-66436400D01*
X76140190Y-66453831D01*
X76057640Y-66488025D01*
X75983347Y-66537666D01*
X75920166Y-66600847D01*
X75870525Y-66675140D01*
X75836331Y-66757690D01*
X75818900Y-66845324D01*
X75818900Y-66934676D01*
X75836331Y-67022310D01*
X75870525Y-67104860D01*
X75916901Y-67174266D01*
X75916900Y-67693506D01*
X75916350Y-67715911D01*
X75915018Y-67733966D01*
X75912802Y-67751925D01*
X75911497Y-67759450D01*
X75877360Y-67708360D01*
X75810140Y-67641140D01*
X75731097Y-67588326D01*
X75643269Y-67551946D01*
X75550032Y-67533400D01*
X75522794Y-67533400D01*
X74849333Y-66859940D01*
X74846483Y-66856636D01*
X74836998Y-66847605D01*
X74827730Y-66838337D01*
X74824356Y-66835568D01*
X74814404Y-66826093D01*
X74808379Y-66819764D01*
X74801767Y-66814061D01*
X74795443Y-66808039D01*
X74788556Y-66802664D01*
X74774829Y-66790823D01*
X74768510Y-66784807D01*
X74761636Y-66779443D01*
X74755015Y-66773731D01*
X74747864Y-66768695D01*
X74733593Y-66757558D01*
X74726979Y-66751852D01*
X74719837Y-66746822D01*
X74712952Y-66741449D01*
X74705573Y-66736776D01*
X74690769Y-66726350D01*
X74683876Y-66720971D01*
X74676487Y-66716292D01*
X74669359Y-66711272D01*
X74661771Y-66706973D01*
X74646447Y-66697269D01*
X74639317Y-66692248D01*
X74631726Y-66687948D01*
X74624336Y-66683268D01*
X74616529Y-66679338D01*
X74600782Y-66670418D01*
X74593395Y-66665740D01*
X74585590Y-66661811D01*
X74577999Y-66657511D01*
X74570018Y-66653973D01*
X74553833Y-66645827D01*
X74546233Y-66641521D01*
X74538244Y-66637980D01*
X74530445Y-66634054D01*
X74522303Y-66630913D01*
X74505740Y-66623571D01*
X74497936Y-66619643D01*
X74489787Y-66616500D01*
X74481804Y-66612961D01*
X74473509Y-66610221D01*
X74456605Y-66603700D01*
X74448625Y-66600163D01*
X74440331Y-66597423D01*
X74432183Y-66594280D01*
X74423768Y-66591951D01*
X74406561Y-66586266D01*
X74398414Y-66583124D01*
X74390005Y-66580797D01*
X74381708Y-66578056D01*
X74373176Y-66576140D01*
X74355730Y-66571312D01*
X74347435Y-66568572D01*
X74338906Y-66566657D01*
X74330491Y-66564328D01*
X74321895Y-66562837D01*
X74304215Y-66558866D01*
X74295791Y-66556535D01*
X74287188Y-66555042D01*
X74278672Y-66553130D01*
X74269998Y-66552060D01*
X74252160Y-66548965D01*
X74243636Y-66547051D01*
X74234950Y-66545980D01*
X74226353Y-66544488D01*
X74217661Y-66543847D01*
X74199670Y-66541628D01*
X74191063Y-66540134D01*
X74182357Y-66539492D01*
X74173692Y-66538423D01*
X74164957Y-66538208D01*
X74146876Y-66536875D01*
X74138208Y-66535806D01*
X74129486Y-66535592D01*
X74120779Y-66534950D01*
X74112042Y-66535165D01*
X74098308Y-66534828D01*
X74093963Y-66534400D01*
X74080851Y-66534400D01*
X74067756Y-66534079D01*
X74063408Y-66534400D01*
X74016765Y-66534400D01*
X73947360Y-66488025D01*
X73864810Y-66453831D01*
X73777176Y-66436400D01*
X73687824Y-66436400D01*
X73600190Y-66453831D01*
X73517640Y-66488025D01*
X73443347Y-66537666D01*
X73380166Y-66600847D01*
X73330525Y-66675140D01*
X73296331Y-66757690D01*
X73278900Y-66845324D01*
X66308100Y-66845324D01*
X66308100Y-65189168D01*
X72002760Y-65189168D01*
X72002760Y-65284232D01*
X72021306Y-65377469D01*
X72057686Y-65465297D01*
X72110500Y-65544340D01*
X72177720Y-65611560D01*
X72256763Y-65664374D01*
X72344591Y-65700754D01*
X72437828Y-65719300D01*
X72505441Y-65719300D01*
X72528793Y-65721600D01*
X77500032Y-65721600D01*
X77523400Y-65716952D01*
X77547106Y-65714617D01*
X77569903Y-65707702D01*
X77593269Y-65703054D01*
X77615275Y-65693939D01*
X77638077Y-65687022D01*
X77659094Y-65675788D01*
X77681097Y-65666674D01*
X77700903Y-65653440D01*
X77721915Y-65642209D01*
X77740329Y-65627097D01*
X77760140Y-65613860D01*
X77776988Y-65597012D01*
X77795401Y-65581901D01*
X77810512Y-65563488D01*
X77827360Y-65546640D01*
X77840597Y-65526829D01*
X77855709Y-65508415D01*
X77866940Y-65487403D01*
X77880174Y-65467597D01*
X77889288Y-65445594D01*
X77900522Y-65424577D01*
X77907439Y-65401775D01*
X77916554Y-65379769D01*
X77921202Y-65356403D01*
X77928117Y-65333606D01*
X77930452Y-65309899D01*
X77935100Y-65286532D01*
X77935100Y-65262707D01*
X77937435Y-65239000D01*
X77935100Y-65215293D01*
X77935100Y-65191468D01*
X77930452Y-65168101D01*
X77928117Y-65144394D01*
X77921202Y-65121597D01*
X77916554Y-65098231D01*
X77907439Y-65076225D01*
X77900522Y-65053423D01*
X77889288Y-65032406D01*
X77880174Y-65010403D01*
X77866940Y-64990597D01*
X77855709Y-64969585D01*
X77840597Y-64951171D01*
X77827360Y-64931360D01*
X77810512Y-64914512D01*
X77795401Y-64896099D01*
X77776988Y-64880988D01*
X77760140Y-64864140D01*
X77740329Y-64850903D01*
X77721915Y-64835791D01*
X77700903Y-64824560D01*
X77681097Y-64811326D01*
X77659094Y-64802212D01*
X77638077Y-64790978D01*
X77615275Y-64784061D01*
X77593269Y-64774946D01*
X77569903Y-64770298D01*
X77547106Y-64763383D01*
X77523400Y-64761048D01*
X77500032Y-64756400D01*
X72544455Y-64756400D01*
X72532892Y-64754100D01*
X72437828Y-64754100D01*
X72344591Y-64772646D01*
X72256763Y-64809026D01*
X72177720Y-64861840D01*
X72110500Y-64929060D01*
X72057686Y-65008103D01*
X72021306Y-65095931D01*
X72002760Y-65189168D01*
X66308100Y-65189168D01*
X66308100Y-62737475D01*
X71558900Y-62737475D01*
X71558900Y-62846525D01*
X71580174Y-62953479D01*
X71621906Y-63054228D01*
X71682491Y-63144900D01*
X71759600Y-63222009D01*
X71850272Y-63282594D01*
X71951021Y-63324326D01*
X72057975Y-63345600D01*
X72167025Y-63345600D01*
X72273979Y-63324326D01*
X72374728Y-63282594D01*
X72465400Y-63222009D01*
X72542509Y-63144900D01*
X72603094Y-63054228D01*
X72644826Y-62953479D01*
X72666100Y-62846525D01*
X72666100Y-62737475D01*
X77338900Y-62737475D01*
X77338900Y-62846525D01*
X77360174Y-62953479D01*
X77401906Y-63054228D01*
X77462491Y-63144900D01*
X77539600Y-63222009D01*
X77630272Y-63282594D01*
X77731021Y-63324326D01*
X77837975Y-63345600D01*
X77947025Y-63345600D01*
X78053979Y-63324326D01*
X78154728Y-63282594D01*
X78245400Y-63222009D01*
X78322509Y-63144900D01*
X78383094Y-63054228D01*
X78424826Y-62953479D01*
X78446100Y-62846525D01*
X78446100Y-62737475D01*
X78424826Y-62630521D01*
X78383094Y-62529772D01*
X78322509Y-62439100D01*
X78245400Y-62361991D01*
X78154728Y-62301406D01*
X78053979Y-62259674D01*
X77947025Y-62238400D01*
X77837975Y-62238400D01*
X77731021Y-62259674D01*
X77630272Y-62301406D01*
X77539600Y-62361991D01*
X77462491Y-62439100D01*
X77401906Y-62529772D01*
X77360174Y-62630521D01*
X77338900Y-62737475D01*
X72666100Y-62737475D01*
X72644826Y-62630521D01*
X72603094Y-62529772D01*
X72542509Y-62439100D01*
X72465400Y-62361991D01*
X72374728Y-62301406D01*
X72273979Y-62259674D01*
X72167025Y-62238400D01*
X72057975Y-62238400D01*
X71951021Y-62259674D01*
X71850272Y-62301406D01*
X71759600Y-62361991D01*
X71682491Y-62439100D01*
X71621906Y-62529772D01*
X71580174Y-62630521D01*
X71558900Y-62737475D01*
X66308100Y-62737475D01*
X66308100Y-58557848D01*
X66322386Y-58412144D01*
X66675900Y-58412144D01*
X66675900Y-58673856D01*
X66726957Y-58930538D01*
X66827110Y-59172328D01*
X66972509Y-59389933D01*
X67157567Y-59574991D01*
X67375172Y-59720390D01*
X67616962Y-59820543D01*
X67873644Y-59871600D01*
X68135356Y-59871600D01*
X68392038Y-59820543D01*
X68633828Y-59720390D01*
X68851433Y-59574991D01*
X69036491Y-59389933D01*
X69181890Y-59172328D01*
X69282043Y-58930538D01*
X69333100Y-58673856D01*
X69333100Y-58412144D01*
X69282043Y-58155462D01*
X69181890Y-57913672D01*
X69036491Y-57696067D01*
X68851433Y-57511009D01*
X68633828Y-57365610D01*
X68392038Y-57265457D01*
X68135356Y-57214400D01*
X67873644Y-57214400D01*
X67616962Y-57265457D01*
X67375172Y-57365610D01*
X67157567Y-57511009D01*
X66972509Y-57696067D01*
X66827110Y-57913672D01*
X66726957Y-58155462D01*
X66675900Y-58412144D01*
X66322386Y-58412144D01*
X66341836Y-58213783D01*
X66437445Y-57897109D01*
X66592744Y-57605034D01*
X66801817Y-57348686D01*
X67056702Y-57137826D01*
X67347678Y-56980496D01*
X67663686Y-56882675D01*
X68006916Y-56846600D01*
X71927008Y-56846600D01*
X71911530Y-56849248D01*
G37*
G04 #@! TD.AperFunction*
M02*
