G04 #@! TF.GenerationSoftware,KiCad,Pcbnew,(5.1.8)-1*
G04 #@! TF.CreationDate,2021-02-07T19:28:48+03:00*
G04 #@! TF.ProjectId,Unified-Daughterboard,556e6966-6965-4642-9d44-617567687465,C3*
G04 #@! TF.SameCoordinates,Original*
G04 #@! TF.FileFunction,Soldermask,Top*
G04 #@! TF.FilePolarity,Negative*
%FSLAX46Y46*%
G04 Gerber Fmt 4.6, Leading zero omitted, Abs format (unit mm)*
G04 Created by KiCad (PCBNEW (5.1.8)-1) date 2021-02-07 19:28:48*
%MOMM*%
%LPD*%
G01*
G04 APERTURE LIST*
%ADD10O,1.202000X2.302000*%
%ADD11O,1.402000X2.002000*%
%ADD12C,0.752000*%
%ADD13C,3.602001*%
%ADD14C,0.100000*%
G04 APERTURE END LIST*
G36*
G01*
X74801500Y-65916400D02*
X74801500Y-65366400D01*
G75*
G02*
X74852500Y-65315400I51000J0D01*
G01*
X75152500Y-65315400D01*
G75*
G02*
X75203500Y-65366400I0J-51000D01*
G01*
X75203500Y-65916400D01*
G75*
G02*
X75152500Y-65967400I-51000J0D01*
G01*
X74852500Y-65967400D01*
G75*
G02*
X74801500Y-65916400I0J51000D01*
G01*
G37*
G36*
G01*
X73826500Y-65916400D02*
X73826500Y-65366400D01*
G75*
G02*
X73877500Y-65315400I51000J0D01*
G01*
X74127500Y-65315400D01*
G75*
G02*
X74178500Y-65366400I0J-51000D01*
G01*
X74178500Y-65916400D01*
G75*
G02*
X74127500Y-65967400I-51000J0D01*
G01*
X73877500Y-65967400D01*
G75*
G02*
X73826500Y-65916400I0J51000D01*
G01*
G37*
G36*
G01*
X75326500Y-65916400D02*
X75326500Y-65366400D01*
G75*
G02*
X75377500Y-65315400I51000J0D01*
G01*
X75627500Y-65315400D01*
G75*
G02*
X75678500Y-65366400I0J-51000D01*
G01*
X75678500Y-65916400D01*
G75*
G02*
X75627500Y-65967400I-51000J0D01*
G01*
X75377500Y-65967400D01*
G75*
G02*
X75326500Y-65916400I0J51000D01*
G01*
G37*
G36*
G01*
X75826500Y-65916400D02*
X75826500Y-65366400D01*
G75*
G02*
X75877500Y-65315400I51000J0D01*
G01*
X76127500Y-65315400D01*
G75*
G02*
X76178500Y-65366400I0J-51000D01*
G01*
X76178500Y-65916400D01*
G75*
G02*
X76127500Y-65967400I-51000J0D01*
G01*
X75877500Y-65967400D01*
G75*
G02*
X75826500Y-65916400I0J51000D01*
G01*
G37*
G36*
G01*
X74326500Y-65916400D02*
X74326500Y-65366400D01*
G75*
G02*
X74377500Y-65315400I51000J0D01*
G01*
X74627500Y-65315400D01*
G75*
G02*
X74678500Y-65366400I0J-51000D01*
G01*
X74678500Y-65916400D01*
G75*
G02*
X74627500Y-65967400I-51000J0D01*
G01*
X74377500Y-65967400D01*
G75*
G02*
X74326500Y-65916400I0J51000D01*
G01*
G37*
G36*
G01*
X75826500Y-66686400D02*
X75826500Y-66136400D01*
G75*
G02*
X75877500Y-66085400I51000J0D01*
G01*
X76127500Y-66085400D01*
G75*
G02*
X76178500Y-66136400I0J-51000D01*
G01*
X76178500Y-66686400D01*
G75*
G02*
X76127500Y-66737400I-51000J0D01*
G01*
X75877500Y-66737400D01*
G75*
G02*
X75826500Y-66686400I0J51000D01*
G01*
G37*
G36*
G01*
X75326500Y-66686400D02*
X75326500Y-66136400D01*
G75*
G02*
X75377500Y-66085400I51000J0D01*
G01*
X75627500Y-66085400D01*
G75*
G02*
X75678500Y-66136400I0J-51000D01*
G01*
X75678500Y-66686400D01*
G75*
G02*
X75627500Y-66737400I-51000J0D01*
G01*
X75377500Y-66737400D01*
G75*
G02*
X75326500Y-66686400I0J51000D01*
G01*
G37*
G36*
G01*
X74801500Y-66686400D02*
X74801500Y-66136400D01*
G75*
G02*
X74852500Y-66085400I51000J0D01*
G01*
X75152500Y-66085400D01*
G75*
G02*
X75203500Y-66136400I0J-51000D01*
G01*
X75203500Y-66686400D01*
G75*
G02*
X75152500Y-66737400I-51000J0D01*
G01*
X74852500Y-66737400D01*
G75*
G02*
X74801500Y-66686400I0J51000D01*
G01*
G37*
G36*
G01*
X74326500Y-66686400D02*
X74326500Y-66136400D01*
G75*
G02*
X74377500Y-66085400I51000J0D01*
G01*
X74627500Y-66085400D01*
G75*
G02*
X74678500Y-66136400I0J-51000D01*
G01*
X74678500Y-66686400D01*
G75*
G02*
X74627500Y-66737400I-51000J0D01*
G01*
X74377500Y-66737400D01*
G75*
G02*
X74326500Y-66686400I0J51000D01*
G01*
G37*
G36*
G01*
X73826500Y-66561400D02*
X73826500Y-66261400D01*
G75*
G02*
X74002500Y-66085400I176000J0D01*
G01*
X74002500Y-66085400D01*
G75*
G02*
X74178500Y-66261400I0J-176000D01*
G01*
X74178500Y-66561400D01*
G75*
G02*
X74002500Y-66737400I-176000J0D01*
G01*
X74002500Y-66737400D01*
G75*
G02*
X73826500Y-66561400I0J176000D01*
G01*
G37*
G36*
G01*
X82643100Y-67950000D02*
X81331900Y-67950000D01*
G75*
G02*
X81061500Y-67679600I0J270400D01*
G01*
X81061500Y-66868400D01*
G75*
G02*
X81331900Y-66598000I270400J0D01*
G01*
X82643100Y-66598000D01*
G75*
G02*
X82913500Y-66868400I0J-270400D01*
G01*
X82913500Y-67679600D01*
G75*
G02*
X82643100Y-67950000I-270400J0D01*
G01*
G37*
G36*
G01*
X82643100Y-65150000D02*
X81331900Y-65150000D01*
G75*
G02*
X81061500Y-64879600I0J270400D01*
G01*
X81061500Y-64068400D01*
G75*
G02*
X81331900Y-63798000I270400J0D01*
G01*
X82643100Y-63798000D01*
G75*
G02*
X82913500Y-64068400I0J-270400D01*
G01*
X82913500Y-64879600D01*
G75*
G02*
X82643100Y-65150000I-270400J0D01*
G01*
G37*
G36*
G01*
X71504500Y-67578000D02*
X72404500Y-67578000D01*
G75*
G02*
X72455500Y-67629000I0J-51000D01*
G01*
X72455500Y-68129000D01*
G75*
G02*
X72404500Y-68180000I-51000J0D01*
G01*
X71504500Y-68180000D01*
G75*
G02*
X71453500Y-68129000I0J51000D01*
G01*
X71453500Y-67629000D01*
G75*
G02*
X71504500Y-67578000I51000J0D01*
G01*
G37*
G36*
G01*
X71504500Y-66078000D02*
X72404500Y-66078000D01*
G75*
G02*
X72455500Y-66129000I0J-51000D01*
G01*
X72455500Y-66629000D01*
G75*
G02*
X72404500Y-66680000I-51000J0D01*
G01*
X71504500Y-66680000D01*
G75*
G02*
X71453500Y-66629000I0J51000D01*
G01*
X71453500Y-66129000D01*
G75*
G02*
X71504500Y-66078000I51000J0D01*
G01*
G37*
G36*
G01*
X67234900Y-61131000D02*
X68546100Y-61131000D01*
G75*
G02*
X68816500Y-61401400I0J-270400D01*
G01*
X68816500Y-62212600D01*
G75*
G02*
X68546100Y-62483000I-270400J0D01*
G01*
X67234900Y-62483000D01*
G75*
G02*
X66964500Y-62212600I0J270400D01*
G01*
X66964500Y-61401400D01*
G75*
G02*
X67234900Y-61131000I270400J0D01*
G01*
G37*
G36*
G01*
X67234900Y-63931000D02*
X68546100Y-63931000D01*
G75*
G02*
X68816500Y-64201400I0J-270400D01*
G01*
X68816500Y-65012600D01*
G75*
G02*
X68546100Y-65283000I-270400J0D01*
G01*
X67234900Y-65283000D01*
G75*
G02*
X66964500Y-65012600I0J270400D01*
G01*
X66964500Y-64201400D01*
G75*
G02*
X67234900Y-63931000I270400J0D01*
G01*
G37*
G36*
G01*
X67553500Y-66514500D02*
X67553500Y-67265500D01*
G75*
G02*
X67278000Y-67541000I-275500J0D01*
G01*
X66727000Y-67541000D01*
G75*
G02*
X66451500Y-67265500I0J275500D01*
G01*
X66451500Y-66514500D01*
G75*
G02*
X66727000Y-66239000I275500J0D01*
G01*
X67278000Y-66239000D01*
G75*
G02*
X67553500Y-66514500I0J-275500D01*
G01*
G37*
G36*
G01*
X70853500Y-66514500D02*
X70853500Y-67265500D01*
G75*
G02*
X70578000Y-67541000I-275500J0D01*
G01*
X70027000Y-67541000D01*
G75*
G02*
X69751500Y-67265500I0J275500D01*
G01*
X69751500Y-66514500D01*
G75*
G02*
X70027000Y-66239000I275500J0D01*
G01*
X70578000Y-66239000D01*
G75*
G02*
X70853500Y-66514500I0J-275500D01*
G01*
G37*
G36*
G01*
X72903500Y-63517500D02*
X72903500Y-64718500D01*
G75*
G02*
X72728000Y-64894000I-175500J0D01*
G01*
X72377000Y-64894000D01*
G75*
G02*
X72201500Y-64718500I0J175500D01*
G01*
X72201500Y-63517500D01*
G75*
G02*
X72377000Y-63342000I175500J0D01*
G01*
X72728000Y-63342000D01*
G75*
G02*
X72903500Y-63517500I0J-175500D01*
G01*
G37*
G36*
G01*
X72103500Y-63517500D02*
X72103500Y-64718500D01*
G75*
G02*
X71928000Y-64894000I-175500J0D01*
G01*
X71577000Y-64894000D01*
G75*
G02*
X71401500Y-64718500I0J175500D01*
G01*
X71401500Y-63517500D01*
G75*
G02*
X71577000Y-63342000I175500J0D01*
G01*
X71928000Y-63342000D01*
G75*
G02*
X72103500Y-63517500I0J-175500D01*
G01*
G37*
G36*
G01*
X77803500Y-63517500D02*
X77803500Y-64718500D01*
G75*
G02*
X77628000Y-64894000I-175500J0D01*
G01*
X77277000Y-64894000D01*
G75*
G02*
X77101500Y-64718500I0J175500D01*
G01*
X77101500Y-63517500D01*
G75*
G02*
X77277000Y-63342000I175500J0D01*
G01*
X77628000Y-63342000D01*
G75*
G02*
X77803500Y-63517500I0J-175500D01*
G01*
G37*
D10*
X79302500Y-63343000D03*
G36*
G01*
X74953500Y-63442500D02*
X74953500Y-64793500D01*
G75*
G02*
X74853000Y-64894000I-100500J0D01*
G01*
X74652000Y-64894000D01*
G75*
G02*
X74551500Y-64793500I0J100500D01*
G01*
X74551500Y-63442500D01*
G75*
G02*
X74652000Y-63342000I100500J0D01*
G01*
X74853000Y-63342000D01*
G75*
G02*
X74953500Y-63442500I0J-100500D01*
G01*
G37*
G36*
G01*
X74453500Y-63442500D02*
X74453500Y-64793500D01*
G75*
G02*
X74353000Y-64894000I-100500J0D01*
G01*
X74152000Y-64894000D01*
G75*
G02*
X74051500Y-64793500I0J100500D01*
G01*
X74051500Y-63442500D01*
G75*
G02*
X74152000Y-63342000I100500J0D01*
G01*
X74353000Y-63342000D01*
G75*
G02*
X74453500Y-63442500I0J-100500D01*
G01*
G37*
G36*
G01*
X73953500Y-63442500D02*
X73953500Y-64793500D01*
G75*
G02*
X73853000Y-64894000I-100500J0D01*
G01*
X73652000Y-64894000D01*
G75*
G02*
X73551500Y-64793500I0J100500D01*
G01*
X73551500Y-63442500D01*
G75*
G02*
X73652000Y-63342000I100500J0D01*
G01*
X73853000Y-63342000D01*
G75*
G02*
X73953500Y-63442500I0J-100500D01*
G01*
G37*
G36*
G01*
X73453500Y-63442500D02*
X73453500Y-64793500D01*
G75*
G02*
X73353000Y-64894000I-100500J0D01*
G01*
X73152000Y-64894000D01*
G75*
G02*
X73051500Y-64793500I0J100500D01*
G01*
X73051500Y-63442500D01*
G75*
G02*
X73152000Y-63342000I100500J0D01*
G01*
X73353000Y-63342000D01*
G75*
G02*
X73453500Y-63442500I0J-100500D01*
G01*
G37*
G36*
G01*
X75457500Y-63442500D02*
X75457500Y-64793500D01*
G75*
G02*
X75357000Y-64894000I-100500J0D01*
G01*
X75156000Y-64894000D01*
G75*
G02*
X75055500Y-64793500I0J100500D01*
G01*
X75055500Y-63442500D01*
G75*
G02*
X75156000Y-63342000I100500J0D01*
G01*
X75357000Y-63342000D01*
G75*
G02*
X75457500Y-63442500I0J-100500D01*
G01*
G37*
G36*
G01*
X75953500Y-63442500D02*
X75953500Y-64793500D01*
G75*
G02*
X75853000Y-64894000I-100500J0D01*
G01*
X75652000Y-64894000D01*
G75*
G02*
X75551500Y-64793500I0J100500D01*
G01*
X75551500Y-63442500D01*
G75*
G02*
X75652000Y-63342000I100500J0D01*
G01*
X75853000Y-63342000D01*
G75*
G02*
X75953500Y-63442500I0J-100500D01*
G01*
G37*
G36*
G01*
X76453500Y-63442500D02*
X76453500Y-64793500D01*
G75*
G02*
X76353000Y-64894000I-100500J0D01*
G01*
X76152000Y-64894000D01*
G75*
G02*
X76051500Y-64793500I0J100500D01*
G01*
X76051500Y-63442500D01*
G75*
G02*
X76152000Y-63342000I100500J0D01*
G01*
X76353000Y-63342000D01*
G75*
G02*
X76453500Y-63442500I0J-100500D01*
G01*
G37*
G36*
G01*
X76953500Y-63442500D02*
X76953500Y-64793500D01*
G75*
G02*
X76853000Y-64894000I-100500J0D01*
G01*
X76652000Y-64894000D01*
G75*
G02*
X76551500Y-64793500I0J100500D01*
G01*
X76551500Y-63442500D01*
G75*
G02*
X76652000Y-63342000I100500J0D01*
G01*
X76853000Y-63342000D01*
G75*
G02*
X76953500Y-63442500I0J-100500D01*
G01*
G37*
G36*
G01*
X78603500Y-63517500D02*
X78603500Y-64718500D01*
G75*
G02*
X78428000Y-64894000I-175500J0D01*
G01*
X78077000Y-64894000D01*
G75*
G02*
X77901500Y-64718500I0J175500D01*
G01*
X77901500Y-63517500D01*
G75*
G02*
X78077000Y-63342000I175500J0D01*
G01*
X78428000Y-63342000D01*
G75*
G02*
X78603500Y-63517500I0J-175500D01*
G01*
G37*
D11*
X79302500Y-59143000D03*
D12*
X77892500Y-62792000D03*
X72112500Y-62792000D03*
D11*
X70702500Y-59143000D03*
D10*
X70702500Y-63343000D03*
D13*
X68004500Y-58543000D03*
X82004500Y-58543000D03*
X68004500Y-71043000D03*
X82004500Y-71043000D03*
G36*
G01*
X75153500Y-68793000D02*
X75153500Y-67243000D01*
G75*
G02*
X75204500Y-67192000I51000J0D01*
G01*
X75804500Y-67192000D01*
G75*
G02*
X75855500Y-67243000I0J-51000D01*
G01*
X75855500Y-68793000D01*
G75*
G02*
X75804500Y-68844000I-51000J0D01*
G01*
X75204500Y-68844000D01*
G75*
G02*
X75153500Y-68793000I0J51000D01*
G01*
G37*
G36*
G01*
X76153500Y-68793000D02*
X76153500Y-67243000D01*
G75*
G02*
X76204500Y-67192000I51000J0D01*
G01*
X76804500Y-67192000D01*
G75*
G02*
X76855500Y-67243000I0J-51000D01*
G01*
X76855500Y-68793000D01*
G75*
G02*
X76804500Y-68844000I-51000J0D01*
G01*
X76204500Y-68844000D01*
G75*
G02*
X76153500Y-68793000I0J51000D01*
G01*
G37*
G36*
G01*
X74153500Y-68793000D02*
X74153500Y-67243000D01*
G75*
G02*
X74204500Y-67192000I51000J0D01*
G01*
X74804500Y-67192000D01*
G75*
G02*
X74855500Y-67243000I0J-51000D01*
G01*
X74855500Y-68793000D01*
G75*
G02*
X74804500Y-68844000I-51000J0D01*
G01*
X74204500Y-68844000D01*
G75*
G02*
X74153500Y-68793000I0J51000D01*
G01*
G37*
G36*
G01*
X73153500Y-68793000D02*
X73153500Y-67243000D01*
G75*
G02*
X73204500Y-67192000I51000J0D01*
G01*
X73804500Y-67192000D01*
G75*
G02*
X73855500Y-67243000I0J-51000D01*
G01*
X73855500Y-68793000D01*
G75*
G02*
X73804500Y-68844000I-51000J0D01*
G01*
X73204500Y-68844000D01*
G75*
G02*
X73153500Y-68793000I0J51000D01*
G01*
G37*
G36*
G01*
X71553500Y-72793001D02*
X71553500Y-70992999D01*
G75*
G02*
X71604499Y-70942000I50999J0D01*
G01*
X72804501Y-70942000D01*
G75*
G02*
X72855500Y-70992999I0J-50999D01*
G01*
X72855500Y-72793001D01*
G75*
G02*
X72804501Y-72844000I-50999J0D01*
G01*
X71604499Y-72844000D01*
G75*
G02*
X71553500Y-72793001I0J50999D01*
G01*
G37*
G36*
G01*
X77153500Y-72793001D02*
X77153500Y-70992999D01*
G75*
G02*
X77204499Y-70942000I50999J0D01*
G01*
X78404501Y-70942000D01*
G75*
G02*
X78455500Y-70992999I0J-50999D01*
G01*
X78455500Y-72793001D01*
G75*
G02*
X78404501Y-72844000I-50999J0D01*
G01*
X77204499Y-72844000D01*
G75*
G02*
X77153500Y-72793001I0J50999D01*
G01*
G37*
G36*
G01*
X77473500Y-66078000D02*
X78373500Y-66078000D01*
G75*
G02*
X78424500Y-66129000I0J-51000D01*
G01*
X78424500Y-66629000D01*
G75*
G02*
X78373500Y-66680000I-51000J0D01*
G01*
X77473500Y-66680000D01*
G75*
G02*
X77422500Y-66629000I0J51000D01*
G01*
X77422500Y-66129000D01*
G75*
G02*
X77473500Y-66078000I51000J0D01*
G01*
G37*
G36*
G01*
X77473500Y-67578000D02*
X78373500Y-67578000D01*
G75*
G02*
X78424500Y-67629000I0J-51000D01*
G01*
X78424500Y-68129000D01*
G75*
G02*
X78373500Y-68180000I-51000J0D01*
G01*
X77473500Y-68180000D01*
G75*
G02*
X77422500Y-68129000I0J51000D01*
G01*
X77422500Y-67629000D01*
G75*
G02*
X77473500Y-67578000I51000J0D01*
G01*
G37*
D14*
G36*
X75828232Y-65314400D02*
G01*
X75828500Y-65315400D01*
X75828500Y-65965400D01*
X76178500Y-65965400D01*
X76180232Y-65966400D01*
X76180500Y-65967400D01*
X76180500Y-66085400D01*
X76179500Y-66087132D01*
X76178500Y-66087400D01*
X75828500Y-66087400D01*
X75828500Y-66737400D01*
X75827500Y-66739132D01*
X75826500Y-66739400D01*
X75678500Y-66739400D01*
X75676768Y-66738400D01*
X75676500Y-66737400D01*
X75676500Y-66087400D01*
X75328500Y-66087400D01*
X75328500Y-66737400D01*
X75327500Y-66739132D01*
X75326500Y-66739400D01*
X75203500Y-66739400D01*
X75201768Y-66738400D01*
X75201500Y-66737400D01*
X75201500Y-66087400D01*
X74803500Y-66087400D01*
X74803500Y-66737400D01*
X74802500Y-66739132D01*
X74801500Y-66739400D01*
X74678500Y-66739400D01*
X74676768Y-66738400D01*
X74676500Y-66737400D01*
X74676500Y-66087400D01*
X74326500Y-66087400D01*
X74324768Y-66086400D01*
X74324500Y-66085400D01*
X74324500Y-66043693D01*
X74323066Y-66029128D01*
X74318843Y-66015208D01*
X74311987Y-66002381D01*
X74302761Y-65991139D01*
X74291519Y-65981913D01*
X74278692Y-65975057D01*
X74264772Y-65970834D01*
X74250207Y-65969400D01*
X74178500Y-65969400D01*
X74176768Y-65968400D01*
X74176500Y-65967400D01*
X74176500Y-65317400D01*
X74328500Y-65317400D01*
X74328500Y-65965400D01*
X74676500Y-65965400D01*
X74676500Y-65317400D01*
X74803500Y-65317400D01*
X74803500Y-65965400D01*
X75201500Y-65965400D01*
X75201500Y-65317400D01*
X75328500Y-65317400D01*
X75328500Y-65965400D01*
X75676500Y-65965400D01*
X75676500Y-65317400D01*
X75328500Y-65317400D01*
X75201500Y-65317400D01*
X74803500Y-65317400D01*
X74676500Y-65317400D01*
X74328500Y-65317400D01*
X74176500Y-65317400D01*
X74176500Y-65315400D01*
X74177500Y-65313668D01*
X74178500Y-65313400D01*
X75826500Y-65313400D01*
X75828232Y-65314400D01*
G37*
G36*
X74327743Y-66215169D02*
G01*
X74328500Y-66216736D01*
X74328500Y-66606064D01*
X74327500Y-66607796D01*
X74325500Y-66607796D01*
X74324510Y-66606260D01*
X74323066Y-66591593D01*
X74318843Y-66577673D01*
X74311987Y-66564846D01*
X74302761Y-66553604D01*
X74291519Y-66544378D01*
X74278692Y-66537522D01*
X74264772Y-66533299D01*
X74250301Y-66531874D01*
X74235830Y-66533299D01*
X74221910Y-66537522D01*
X74209083Y-66544378D01*
X74197841Y-66553604D01*
X74188615Y-66564846D01*
X74181782Y-66577630D01*
X74178937Y-66588987D01*
X74178844Y-66589083D01*
X74177217Y-66594445D01*
X74175757Y-66595812D01*
X74173843Y-66595231D01*
X74173313Y-66593668D01*
X74176501Y-66561306D01*
X74176501Y-66261494D01*
X74173313Y-66229131D01*
X74174138Y-66227309D01*
X74176128Y-66227113D01*
X74177217Y-66228354D01*
X74177527Y-66229375D01*
X74177575Y-66229566D01*
X74179307Y-66238274D01*
X74184873Y-66251710D01*
X74192953Y-66263803D01*
X74203235Y-66274085D01*
X74215329Y-66282165D01*
X74228764Y-66287730D01*
X74243032Y-66290568D01*
X74257572Y-66290568D01*
X74271839Y-66287730D01*
X74285275Y-66282164D01*
X74297368Y-66274084D01*
X74307650Y-66263802D01*
X74315730Y-66251708D01*
X74321278Y-66238316D01*
X74324522Y-66216443D01*
X74325765Y-66214876D01*
X74327743Y-66215169D01*
G37*
G36*
X74129183Y-65966400D02*
G01*
X74129183Y-65968400D01*
X74127647Y-65969390D01*
X74112980Y-65970834D01*
X74099060Y-65975057D01*
X74086233Y-65981913D01*
X74074991Y-65991139D01*
X74065765Y-66002381D01*
X74058909Y-66015208D01*
X74054686Y-66029128D01*
X74053261Y-66043599D01*
X74054686Y-66058070D01*
X74058909Y-66071990D01*
X74065765Y-66084817D01*
X74074991Y-66096059D01*
X74086385Y-66105409D01*
X74087089Y-66107281D01*
X74085821Y-66108827D01*
X74084173Y-66108719D01*
X74069084Y-66100654D01*
X74036442Y-66090752D01*
X74002500Y-66087409D01*
X73968558Y-66090752D01*
X73935916Y-66100654D01*
X73917526Y-66110484D01*
X73915527Y-66110418D01*
X73914584Y-66108655D01*
X73915472Y-66107057D01*
X73924614Y-66100948D01*
X73934897Y-66090666D01*
X73942977Y-66078573D01*
X73948543Y-66065138D01*
X73951381Y-66050870D01*
X73951381Y-66036330D01*
X73948543Y-66022063D01*
X73942978Y-66008627D01*
X73934898Y-65996534D01*
X73924616Y-65986251D01*
X73912523Y-65978171D01*
X73899088Y-65972605D01*
X73884774Y-65969758D01*
X73877451Y-65969398D01*
X73875770Y-65968314D01*
X73875868Y-65966316D01*
X73877549Y-65965400D01*
X74127451Y-65965400D01*
X74129183Y-65966400D01*
G37*
G36*
X76387553Y-63340010D02*
G01*
X76403398Y-63341570D01*
X76403783Y-63341646D01*
X76415419Y-63345176D01*
X76415781Y-63345326D01*
X76426504Y-63351058D01*
X76426830Y-63351276D01*
X76436231Y-63358991D01*
X76436508Y-63359268D01*
X76445084Y-63369718D01*
X76455434Y-63380068D01*
X76467527Y-63388148D01*
X76480963Y-63393713D01*
X76495230Y-63396551D01*
X76509770Y-63396551D01*
X76524038Y-63393713D01*
X76537473Y-63388147D01*
X76549566Y-63380068D01*
X76559916Y-63369718D01*
X76568492Y-63359268D01*
X76568769Y-63358991D01*
X76578170Y-63351276D01*
X76578496Y-63351058D01*
X76589219Y-63345326D01*
X76589581Y-63345176D01*
X76601217Y-63341646D01*
X76601602Y-63341570D01*
X76617447Y-63340010D01*
X76617643Y-63340000D01*
X76652000Y-63340000D01*
X76653732Y-63341000D01*
X76653732Y-63343000D01*
X76652196Y-63343990D01*
X76632788Y-63345901D01*
X76614309Y-63351507D01*
X76597281Y-63360608D01*
X76582357Y-63372857D01*
X76570108Y-63387781D01*
X76561007Y-63404809D01*
X76555401Y-63423288D01*
X76553500Y-63442594D01*
X76553500Y-64793406D01*
X76555401Y-64812712D01*
X76561007Y-64831191D01*
X76570108Y-64848219D01*
X76582357Y-64863143D01*
X76597281Y-64875392D01*
X76614309Y-64884493D01*
X76632788Y-64890099D01*
X76652196Y-64892010D01*
X76653822Y-64893175D01*
X76653626Y-64895165D01*
X76652000Y-64896000D01*
X76617643Y-64896000D01*
X76617447Y-64895990D01*
X76601602Y-64894430D01*
X76601217Y-64894354D01*
X76589581Y-64890824D01*
X76589219Y-64890674D01*
X76578496Y-64884942D01*
X76578170Y-64884724D01*
X76568769Y-64877009D01*
X76568492Y-64876732D01*
X76559916Y-64866282D01*
X76549566Y-64855932D01*
X76537473Y-64847852D01*
X76524037Y-64842287D01*
X76509770Y-64839449D01*
X76495230Y-64839449D01*
X76480962Y-64842287D01*
X76467527Y-64847853D01*
X76455434Y-64855932D01*
X76445084Y-64866282D01*
X76436508Y-64876732D01*
X76436231Y-64877009D01*
X76426830Y-64884724D01*
X76426504Y-64884942D01*
X76415781Y-64890674D01*
X76415419Y-64890824D01*
X76403783Y-64894354D01*
X76403398Y-64894430D01*
X76387553Y-64895990D01*
X76387357Y-64896000D01*
X76353000Y-64896000D01*
X76351268Y-64895000D01*
X76351268Y-64893000D01*
X76352804Y-64892010D01*
X76372212Y-64890099D01*
X76390691Y-64884493D01*
X76407719Y-64875392D01*
X76422643Y-64863143D01*
X76434892Y-64848219D01*
X76443993Y-64831191D01*
X76449599Y-64812712D01*
X76451500Y-64793406D01*
X76451500Y-63442594D01*
X76449599Y-63423288D01*
X76443993Y-63404809D01*
X76434892Y-63387781D01*
X76422643Y-63372857D01*
X76407719Y-63360608D01*
X76390691Y-63351507D01*
X76372212Y-63345901D01*
X76352804Y-63343990D01*
X76351178Y-63342825D01*
X76351374Y-63340835D01*
X76353000Y-63340000D01*
X76387357Y-63340000D01*
X76387553Y-63340010D01*
G37*
G36*
X74387553Y-63340010D02*
G01*
X74403398Y-63341570D01*
X74403783Y-63341646D01*
X74415419Y-63345176D01*
X74415781Y-63345326D01*
X74426504Y-63351058D01*
X74426830Y-63351276D01*
X74436231Y-63358991D01*
X74436508Y-63359268D01*
X74445084Y-63369718D01*
X74455434Y-63380068D01*
X74467527Y-63388148D01*
X74480963Y-63393713D01*
X74495230Y-63396551D01*
X74509770Y-63396551D01*
X74524038Y-63393713D01*
X74537473Y-63388147D01*
X74549566Y-63380068D01*
X74559916Y-63369718D01*
X74568492Y-63359268D01*
X74568769Y-63358991D01*
X74578170Y-63351276D01*
X74578496Y-63351058D01*
X74589219Y-63345326D01*
X74589581Y-63345176D01*
X74601217Y-63341646D01*
X74601602Y-63341570D01*
X74617447Y-63340010D01*
X74617643Y-63340000D01*
X74652000Y-63340000D01*
X74653732Y-63341000D01*
X74653732Y-63343000D01*
X74652196Y-63343990D01*
X74632788Y-63345901D01*
X74614309Y-63351507D01*
X74597281Y-63360608D01*
X74582357Y-63372857D01*
X74570108Y-63387781D01*
X74561007Y-63404809D01*
X74555401Y-63423288D01*
X74553500Y-63442594D01*
X74553500Y-64793406D01*
X74555401Y-64812712D01*
X74561007Y-64831191D01*
X74570108Y-64848219D01*
X74582357Y-64863143D01*
X74597281Y-64875392D01*
X74614309Y-64884493D01*
X74632788Y-64890099D01*
X74652196Y-64892010D01*
X74653822Y-64893175D01*
X74653626Y-64895165D01*
X74652000Y-64896000D01*
X74617643Y-64896000D01*
X74617447Y-64895990D01*
X74601602Y-64894430D01*
X74601217Y-64894354D01*
X74589581Y-64890824D01*
X74589219Y-64890674D01*
X74578496Y-64884942D01*
X74578170Y-64884724D01*
X74568769Y-64877009D01*
X74568492Y-64876732D01*
X74559916Y-64866282D01*
X74549566Y-64855932D01*
X74537473Y-64847852D01*
X74524037Y-64842287D01*
X74509770Y-64839449D01*
X74495230Y-64839449D01*
X74480962Y-64842287D01*
X74467527Y-64847853D01*
X74455434Y-64855932D01*
X74445084Y-64866282D01*
X74436508Y-64876732D01*
X74436231Y-64877009D01*
X74426830Y-64884724D01*
X74426504Y-64884942D01*
X74415781Y-64890674D01*
X74415419Y-64890824D01*
X74403783Y-64894354D01*
X74403398Y-64894430D01*
X74387553Y-64895990D01*
X74387357Y-64896000D01*
X74353000Y-64896000D01*
X74351268Y-64895000D01*
X74351268Y-64893000D01*
X74352804Y-64892010D01*
X74372212Y-64890099D01*
X74390691Y-64884493D01*
X74407719Y-64875392D01*
X74422643Y-64863143D01*
X74434892Y-64848219D01*
X74443993Y-64831191D01*
X74449599Y-64812712D01*
X74451500Y-64793406D01*
X74451500Y-63442594D01*
X74449599Y-63423288D01*
X74443993Y-63404809D01*
X74434892Y-63387781D01*
X74422643Y-63372857D01*
X74407719Y-63360608D01*
X74390691Y-63351507D01*
X74372212Y-63345901D01*
X74352804Y-63343990D01*
X74351178Y-63342825D01*
X74351374Y-63340835D01*
X74353000Y-63340000D01*
X74387357Y-63340000D01*
X74387553Y-63340010D01*
G37*
G36*
X73887553Y-63340010D02*
G01*
X73903398Y-63341570D01*
X73903783Y-63341646D01*
X73915419Y-63345176D01*
X73915781Y-63345326D01*
X73926504Y-63351058D01*
X73926830Y-63351276D01*
X73936231Y-63358991D01*
X73936508Y-63359268D01*
X73945084Y-63369718D01*
X73955434Y-63380068D01*
X73967527Y-63388148D01*
X73980963Y-63393713D01*
X73995230Y-63396551D01*
X74009770Y-63396551D01*
X74024038Y-63393713D01*
X74037473Y-63388147D01*
X74049566Y-63380068D01*
X74059916Y-63369718D01*
X74068492Y-63359268D01*
X74068769Y-63358991D01*
X74078170Y-63351276D01*
X74078496Y-63351058D01*
X74089219Y-63345326D01*
X74089581Y-63345176D01*
X74101217Y-63341646D01*
X74101602Y-63341570D01*
X74117447Y-63340010D01*
X74117643Y-63340000D01*
X74152000Y-63340000D01*
X74153732Y-63341000D01*
X74153732Y-63343000D01*
X74152196Y-63343990D01*
X74132788Y-63345901D01*
X74114309Y-63351507D01*
X74097281Y-63360608D01*
X74082357Y-63372857D01*
X74070108Y-63387781D01*
X74061007Y-63404809D01*
X74055401Y-63423288D01*
X74053500Y-63442594D01*
X74053500Y-64793406D01*
X74055401Y-64812712D01*
X74061007Y-64831191D01*
X74070108Y-64848219D01*
X74082357Y-64863143D01*
X74097281Y-64875392D01*
X74114309Y-64884493D01*
X74132788Y-64890099D01*
X74152196Y-64892010D01*
X74153822Y-64893175D01*
X74153626Y-64895165D01*
X74152000Y-64896000D01*
X74117643Y-64896000D01*
X74117447Y-64895990D01*
X74101602Y-64894430D01*
X74101217Y-64894354D01*
X74089581Y-64890824D01*
X74089219Y-64890674D01*
X74078496Y-64884942D01*
X74078170Y-64884724D01*
X74068769Y-64877009D01*
X74068492Y-64876732D01*
X74059916Y-64866282D01*
X74049566Y-64855932D01*
X74037473Y-64847852D01*
X74024037Y-64842287D01*
X74009770Y-64839449D01*
X73995230Y-64839449D01*
X73980962Y-64842287D01*
X73967527Y-64847853D01*
X73955434Y-64855932D01*
X73945084Y-64866282D01*
X73936508Y-64876732D01*
X73936231Y-64877009D01*
X73926830Y-64884724D01*
X73926504Y-64884942D01*
X73915781Y-64890674D01*
X73915419Y-64890824D01*
X73903783Y-64894354D01*
X73903398Y-64894430D01*
X73887553Y-64895990D01*
X73887357Y-64896000D01*
X73853000Y-64896000D01*
X73851268Y-64895000D01*
X73851268Y-64893000D01*
X73852804Y-64892010D01*
X73872212Y-64890099D01*
X73890691Y-64884493D01*
X73907719Y-64875392D01*
X73922643Y-64863143D01*
X73934892Y-64848219D01*
X73943993Y-64831191D01*
X73949599Y-64812712D01*
X73951500Y-64793406D01*
X73951500Y-63442594D01*
X73949599Y-63423288D01*
X73943993Y-63404809D01*
X73934892Y-63387781D01*
X73922643Y-63372857D01*
X73907719Y-63360608D01*
X73890691Y-63351507D01*
X73872212Y-63345901D01*
X73852804Y-63343990D01*
X73851178Y-63342825D01*
X73851374Y-63340835D01*
X73853000Y-63340000D01*
X73887357Y-63340000D01*
X73887553Y-63340010D01*
G37*
G36*
X72762554Y-63340010D02*
G01*
X72793029Y-63343011D01*
X72793414Y-63343087D01*
X72819120Y-63350885D01*
X72819482Y-63351035D01*
X72843175Y-63363700D01*
X72843501Y-63363918D01*
X72864265Y-63380958D01*
X72864542Y-63381235D01*
X72881582Y-63401999D01*
X72881800Y-63402325D01*
X72894465Y-63426018D01*
X72894615Y-63426380D01*
X72904269Y-63458205D01*
X72909872Y-63471733D01*
X72917952Y-63483826D01*
X72928235Y-63494108D01*
X72940328Y-63502188D01*
X72953763Y-63507754D01*
X72968031Y-63510592D01*
X72982571Y-63510592D01*
X72996838Y-63507754D01*
X73010274Y-63502189D01*
X73022367Y-63494109D01*
X73032649Y-63483826D01*
X73040729Y-63471733D01*
X73046295Y-63458298D01*
X73049142Y-63443984D01*
X73049500Y-63436703D01*
X73049500Y-63408143D01*
X73049510Y-63407947D01*
X73051070Y-63392102D01*
X73051146Y-63391717D01*
X73054676Y-63380081D01*
X73054826Y-63379719D01*
X73060558Y-63368996D01*
X73060776Y-63368670D01*
X73068492Y-63359269D01*
X73068769Y-63358992D01*
X73078170Y-63351276D01*
X73078496Y-63351058D01*
X73089219Y-63345326D01*
X73089581Y-63345176D01*
X73101217Y-63341646D01*
X73101602Y-63341570D01*
X73117447Y-63340010D01*
X73117643Y-63340000D01*
X73152000Y-63340000D01*
X73153732Y-63341000D01*
X73153732Y-63343000D01*
X73152196Y-63343990D01*
X73132788Y-63345901D01*
X73114309Y-63351507D01*
X73097281Y-63360608D01*
X73082357Y-63372857D01*
X73070108Y-63387781D01*
X73061007Y-63404809D01*
X73055401Y-63423288D01*
X73053500Y-63442594D01*
X73053500Y-64793406D01*
X73055401Y-64812712D01*
X73061007Y-64831191D01*
X73070108Y-64848219D01*
X73082357Y-64863143D01*
X73097281Y-64875392D01*
X73114309Y-64884493D01*
X73132788Y-64890099D01*
X73152196Y-64892010D01*
X73153822Y-64893175D01*
X73153626Y-64895165D01*
X73152000Y-64896000D01*
X73117643Y-64896000D01*
X73117447Y-64895990D01*
X73101602Y-64894430D01*
X73101217Y-64894354D01*
X73089581Y-64890824D01*
X73089219Y-64890674D01*
X73078496Y-64884942D01*
X73078170Y-64884724D01*
X73068769Y-64877008D01*
X73068492Y-64876731D01*
X73060776Y-64867330D01*
X73060558Y-64867004D01*
X73054826Y-64856281D01*
X73054676Y-64855919D01*
X73051146Y-64844283D01*
X73051070Y-64843898D01*
X73049510Y-64828053D01*
X73049500Y-64827857D01*
X73049500Y-64799334D01*
X73048066Y-64784769D01*
X73043843Y-64770849D01*
X73036987Y-64758022D01*
X73027761Y-64746780D01*
X73016519Y-64737554D01*
X73003692Y-64730698D01*
X72989772Y-64726475D01*
X72975301Y-64725050D01*
X72960830Y-64726475D01*
X72946910Y-64730698D01*
X72934083Y-64737554D01*
X72922841Y-64746780D01*
X72913615Y-64758022D01*
X72906735Y-64770894D01*
X72904284Y-64777744D01*
X72894615Y-64809620D01*
X72894465Y-64809982D01*
X72881800Y-64833675D01*
X72881582Y-64834001D01*
X72864542Y-64854765D01*
X72864265Y-64855042D01*
X72843501Y-64872082D01*
X72843175Y-64872300D01*
X72819482Y-64884965D01*
X72819120Y-64885115D01*
X72793414Y-64892913D01*
X72793029Y-64892989D01*
X72762554Y-64895990D01*
X72762358Y-64896000D01*
X72728000Y-64896000D01*
X72726268Y-64895000D01*
X72726268Y-64893000D01*
X72727804Y-64892010D01*
X72761843Y-64888658D01*
X72794392Y-64878784D01*
X72824387Y-64862752D01*
X72850676Y-64841176D01*
X72872252Y-64814887D01*
X72888284Y-64784892D01*
X72898158Y-64752343D01*
X72901500Y-64718406D01*
X72901500Y-63517594D01*
X72898158Y-63483657D01*
X72888284Y-63451108D01*
X72872252Y-63421113D01*
X72850676Y-63394824D01*
X72824387Y-63373248D01*
X72794392Y-63357216D01*
X72761843Y-63347342D01*
X72727804Y-63343990D01*
X72726178Y-63342825D01*
X72726374Y-63340835D01*
X72728000Y-63340000D01*
X72762358Y-63340000D01*
X72762554Y-63340010D01*
G37*
G36*
X73387553Y-63340010D02*
G01*
X73403398Y-63341570D01*
X73403783Y-63341646D01*
X73415419Y-63345176D01*
X73415781Y-63345326D01*
X73426504Y-63351058D01*
X73426830Y-63351276D01*
X73436231Y-63358991D01*
X73436508Y-63359268D01*
X73445084Y-63369718D01*
X73455434Y-63380068D01*
X73467527Y-63388148D01*
X73480963Y-63393713D01*
X73495230Y-63396551D01*
X73509770Y-63396551D01*
X73524038Y-63393713D01*
X73537473Y-63388147D01*
X73549566Y-63380068D01*
X73559916Y-63369718D01*
X73568492Y-63359268D01*
X73568769Y-63358991D01*
X73578170Y-63351276D01*
X73578496Y-63351058D01*
X73589219Y-63345326D01*
X73589581Y-63345176D01*
X73601217Y-63341646D01*
X73601602Y-63341570D01*
X73617447Y-63340010D01*
X73617643Y-63340000D01*
X73652000Y-63340000D01*
X73653732Y-63341000D01*
X73653732Y-63343000D01*
X73652196Y-63343990D01*
X73632788Y-63345901D01*
X73614309Y-63351507D01*
X73597281Y-63360608D01*
X73582357Y-63372857D01*
X73570108Y-63387781D01*
X73561007Y-63404809D01*
X73555401Y-63423288D01*
X73553500Y-63442594D01*
X73553500Y-64793406D01*
X73555401Y-64812712D01*
X73561007Y-64831191D01*
X73570108Y-64848219D01*
X73582357Y-64863143D01*
X73597281Y-64875392D01*
X73614309Y-64884493D01*
X73632788Y-64890099D01*
X73652196Y-64892010D01*
X73653822Y-64893175D01*
X73653626Y-64895165D01*
X73652000Y-64896000D01*
X73617643Y-64896000D01*
X73617447Y-64895990D01*
X73601602Y-64894430D01*
X73601217Y-64894354D01*
X73589581Y-64890824D01*
X73589219Y-64890674D01*
X73578496Y-64884942D01*
X73578170Y-64884724D01*
X73568769Y-64877009D01*
X73568492Y-64876732D01*
X73559916Y-64866282D01*
X73549566Y-64855932D01*
X73537473Y-64847852D01*
X73524037Y-64842287D01*
X73509770Y-64839449D01*
X73495230Y-64839449D01*
X73480962Y-64842287D01*
X73467527Y-64847853D01*
X73455434Y-64855932D01*
X73445084Y-64866282D01*
X73436508Y-64876732D01*
X73436231Y-64877009D01*
X73426830Y-64884724D01*
X73426504Y-64884942D01*
X73415781Y-64890674D01*
X73415419Y-64890824D01*
X73403783Y-64894354D01*
X73403398Y-64894430D01*
X73387553Y-64895990D01*
X73387357Y-64896000D01*
X73353000Y-64896000D01*
X73351268Y-64895000D01*
X73351268Y-64893000D01*
X73352804Y-64892010D01*
X73372212Y-64890099D01*
X73390691Y-64884493D01*
X73407719Y-64875392D01*
X73422643Y-64863143D01*
X73434892Y-64848219D01*
X73443993Y-64831191D01*
X73449599Y-64812712D01*
X73451500Y-64793406D01*
X73451500Y-63442594D01*
X73449599Y-63423288D01*
X73443993Y-63404809D01*
X73434892Y-63387781D01*
X73422643Y-63372857D01*
X73407719Y-63360608D01*
X73390691Y-63351507D01*
X73372212Y-63345901D01*
X73352804Y-63343990D01*
X73351178Y-63342825D01*
X73351374Y-63340835D01*
X73353000Y-63340000D01*
X73387357Y-63340000D01*
X73387553Y-63340010D01*
G37*
G36*
X75391553Y-63340010D02*
G01*
X75407398Y-63341570D01*
X75407783Y-63341646D01*
X75419419Y-63345176D01*
X75419781Y-63345326D01*
X75430504Y-63351058D01*
X75430830Y-63351276D01*
X75440231Y-63358991D01*
X75440508Y-63359268D01*
X75447084Y-63367281D01*
X75457434Y-63377631D01*
X75469527Y-63385711D01*
X75482963Y-63391276D01*
X75497230Y-63394114D01*
X75511770Y-63394114D01*
X75526038Y-63391276D01*
X75539473Y-63385710D01*
X75551566Y-63377631D01*
X75561916Y-63367281D01*
X75568492Y-63359268D01*
X75568769Y-63358991D01*
X75578170Y-63351276D01*
X75578496Y-63351058D01*
X75589219Y-63345326D01*
X75589581Y-63345176D01*
X75601217Y-63341646D01*
X75601602Y-63341570D01*
X75617447Y-63340010D01*
X75617643Y-63340000D01*
X75652000Y-63340000D01*
X75653732Y-63341000D01*
X75653732Y-63343000D01*
X75652196Y-63343990D01*
X75632788Y-63345901D01*
X75614309Y-63351507D01*
X75597281Y-63360608D01*
X75582357Y-63372857D01*
X75570108Y-63387781D01*
X75561007Y-63404809D01*
X75555401Y-63423288D01*
X75553500Y-63442594D01*
X75553500Y-64793406D01*
X75555401Y-64812712D01*
X75561007Y-64831191D01*
X75570108Y-64848219D01*
X75582357Y-64863143D01*
X75597281Y-64875392D01*
X75614309Y-64884493D01*
X75632788Y-64890099D01*
X75652196Y-64892010D01*
X75653822Y-64893175D01*
X75653626Y-64895165D01*
X75652000Y-64896000D01*
X75617643Y-64896000D01*
X75617447Y-64895990D01*
X75601602Y-64894430D01*
X75601217Y-64894354D01*
X75589581Y-64890824D01*
X75589219Y-64890674D01*
X75578496Y-64884942D01*
X75578170Y-64884724D01*
X75568769Y-64877009D01*
X75568492Y-64876732D01*
X75561916Y-64868719D01*
X75551566Y-64858369D01*
X75539473Y-64850289D01*
X75526037Y-64844724D01*
X75511770Y-64841886D01*
X75497230Y-64841886D01*
X75482962Y-64844724D01*
X75469527Y-64850290D01*
X75457434Y-64858369D01*
X75447084Y-64868719D01*
X75440508Y-64876732D01*
X75440231Y-64877009D01*
X75430830Y-64884724D01*
X75430504Y-64884942D01*
X75419781Y-64890674D01*
X75419419Y-64890824D01*
X75407783Y-64894354D01*
X75407398Y-64894430D01*
X75391553Y-64895990D01*
X75391357Y-64896000D01*
X75357000Y-64896000D01*
X75355268Y-64895000D01*
X75355268Y-64893000D01*
X75356804Y-64892010D01*
X75376212Y-64890099D01*
X75394691Y-64884493D01*
X75411719Y-64875392D01*
X75426643Y-64863143D01*
X75438892Y-64848219D01*
X75447993Y-64831191D01*
X75453599Y-64812712D01*
X75455500Y-64793406D01*
X75455500Y-63442594D01*
X75453599Y-63423288D01*
X75447993Y-63404809D01*
X75438892Y-63387781D01*
X75426643Y-63372857D01*
X75411719Y-63360608D01*
X75394691Y-63351507D01*
X75376212Y-63345901D01*
X75356804Y-63343990D01*
X75355178Y-63342825D01*
X75355374Y-63340835D01*
X75357000Y-63340000D01*
X75391357Y-63340000D01*
X75391553Y-63340010D01*
G37*
G36*
X75887553Y-63340010D02*
G01*
X75903398Y-63341570D01*
X75903783Y-63341646D01*
X75915419Y-63345176D01*
X75915781Y-63345326D01*
X75926504Y-63351058D01*
X75926830Y-63351276D01*
X75936231Y-63358991D01*
X75936508Y-63359268D01*
X75945084Y-63369718D01*
X75955434Y-63380068D01*
X75967527Y-63388148D01*
X75980963Y-63393713D01*
X75995230Y-63396551D01*
X76009770Y-63396551D01*
X76024038Y-63393713D01*
X76037473Y-63388147D01*
X76049566Y-63380068D01*
X76059916Y-63369718D01*
X76068492Y-63359268D01*
X76068769Y-63358991D01*
X76078170Y-63351276D01*
X76078496Y-63351058D01*
X76089219Y-63345326D01*
X76089581Y-63345176D01*
X76101217Y-63341646D01*
X76101602Y-63341570D01*
X76117447Y-63340010D01*
X76117643Y-63340000D01*
X76152000Y-63340000D01*
X76153732Y-63341000D01*
X76153732Y-63343000D01*
X76152196Y-63343990D01*
X76132788Y-63345901D01*
X76114309Y-63351507D01*
X76097281Y-63360608D01*
X76082357Y-63372857D01*
X76070108Y-63387781D01*
X76061007Y-63404809D01*
X76055401Y-63423288D01*
X76053500Y-63442594D01*
X76053500Y-64793406D01*
X76055401Y-64812712D01*
X76061007Y-64831191D01*
X76070108Y-64848219D01*
X76082357Y-64863143D01*
X76097281Y-64875392D01*
X76114309Y-64884493D01*
X76132788Y-64890099D01*
X76152196Y-64892010D01*
X76153822Y-64893175D01*
X76153626Y-64895165D01*
X76152000Y-64896000D01*
X76117643Y-64896000D01*
X76117447Y-64895990D01*
X76101602Y-64894430D01*
X76101217Y-64894354D01*
X76089581Y-64890824D01*
X76089219Y-64890674D01*
X76078496Y-64884942D01*
X76078170Y-64884724D01*
X76068769Y-64877009D01*
X76068492Y-64876732D01*
X76059916Y-64866282D01*
X76049566Y-64855932D01*
X76037473Y-64847852D01*
X76024037Y-64842287D01*
X76009770Y-64839449D01*
X75995230Y-64839449D01*
X75980962Y-64842287D01*
X75967527Y-64847853D01*
X75955434Y-64855932D01*
X75945084Y-64866282D01*
X75936508Y-64876732D01*
X75936231Y-64877009D01*
X75926830Y-64884724D01*
X75926504Y-64884942D01*
X75915781Y-64890674D01*
X75915419Y-64890824D01*
X75903783Y-64894354D01*
X75903398Y-64894430D01*
X75887553Y-64895990D01*
X75887357Y-64896000D01*
X75853000Y-64896000D01*
X75851268Y-64895000D01*
X75851268Y-64893000D01*
X75852804Y-64892010D01*
X75872212Y-64890099D01*
X75890691Y-64884493D01*
X75907719Y-64875392D01*
X75922643Y-64863143D01*
X75934892Y-64848219D01*
X75943993Y-64831191D01*
X75949599Y-64812712D01*
X75951500Y-64793406D01*
X75951500Y-63442594D01*
X75949599Y-63423288D01*
X75943993Y-63404809D01*
X75934892Y-63387781D01*
X75922643Y-63372857D01*
X75907719Y-63360608D01*
X75890691Y-63351507D01*
X75872212Y-63345901D01*
X75852804Y-63343990D01*
X75851178Y-63342825D01*
X75851374Y-63340835D01*
X75853000Y-63340000D01*
X75887357Y-63340000D01*
X75887553Y-63340010D01*
G37*
G36*
X71962554Y-63340010D02*
G01*
X71993029Y-63343011D01*
X71993414Y-63343087D01*
X72019120Y-63350885D01*
X72019482Y-63351035D01*
X72043175Y-63363700D01*
X72043501Y-63363918D01*
X72064265Y-63380958D01*
X72064542Y-63381235D01*
X72081582Y-63401999D01*
X72081800Y-63402325D01*
X72087018Y-63412086D01*
X72095152Y-63424259D01*
X72105435Y-63434542D01*
X72117528Y-63442621D01*
X72130964Y-63448186D01*
X72145232Y-63451024D01*
X72159771Y-63451024D01*
X72174039Y-63448185D01*
X72187474Y-63442620D01*
X72199567Y-63434540D01*
X72209850Y-63424257D01*
X72217982Y-63412086D01*
X72223200Y-63402325D01*
X72223418Y-63401999D01*
X72240458Y-63381235D01*
X72240735Y-63380958D01*
X72261499Y-63363918D01*
X72261825Y-63363700D01*
X72285518Y-63351035D01*
X72285880Y-63350885D01*
X72311586Y-63343087D01*
X72311971Y-63343011D01*
X72342446Y-63340010D01*
X72342642Y-63340000D01*
X72377000Y-63340000D01*
X72378732Y-63341000D01*
X72378732Y-63343000D01*
X72377196Y-63343990D01*
X72343157Y-63347342D01*
X72310608Y-63357216D01*
X72280613Y-63373248D01*
X72254324Y-63394824D01*
X72232748Y-63421113D01*
X72216716Y-63451108D01*
X72206842Y-63483657D01*
X72203500Y-63517594D01*
X72203500Y-64718406D01*
X72206842Y-64752343D01*
X72216716Y-64784892D01*
X72232748Y-64814887D01*
X72254324Y-64841176D01*
X72280613Y-64862752D01*
X72310608Y-64878784D01*
X72343157Y-64888658D01*
X72377196Y-64892010D01*
X72378822Y-64893175D01*
X72378626Y-64895165D01*
X72377000Y-64896000D01*
X72342642Y-64896000D01*
X72342446Y-64895990D01*
X72311971Y-64892989D01*
X72311586Y-64892913D01*
X72285880Y-64885115D01*
X72285518Y-64884965D01*
X72261825Y-64872300D01*
X72261499Y-64872082D01*
X72240735Y-64855042D01*
X72240458Y-64854765D01*
X72223418Y-64834001D01*
X72223200Y-64833675D01*
X72217982Y-64823914D01*
X72209848Y-64811741D01*
X72199565Y-64801458D01*
X72187472Y-64793379D01*
X72174036Y-64787814D01*
X72159768Y-64784976D01*
X72145229Y-64784976D01*
X72130961Y-64787815D01*
X72117526Y-64793380D01*
X72105433Y-64801460D01*
X72095150Y-64811743D01*
X72087018Y-64823914D01*
X72081800Y-64833675D01*
X72081582Y-64834001D01*
X72064542Y-64854765D01*
X72064265Y-64855042D01*
X72043501Y-64872082D01*
X72043175Y-64872300D01*
X72019482Y-64884965D01*
X72019120Y-64885115D01*
X71993414Y-64892913D01*
X71993029Y-64892989D01*
X71962554Y-64895990D01*
X71962358Y-64896000D01*
X71928000Y-64896000D01*
X71926268Y-64895000D01*
X71926268Y-64893000D01*
X71927804Y-64892010D01*
X71961843Y-64888658D01*
X71994392Y-64878784D01*
X72024387Y-64862752D01*
X72050676Y-64841176D01*
X72072252Y-64814887D01*
X72088284Y-64784892D01*
X72098158Y-64752343D01*
X72101500Y-64718406D01*
X72101500Y-63517594D01*
X72098158Y-63483657D01*
X72088284Y-63451108D01*
X72072252Y-63421113D01*
X72050676Y-63394824D01*
X72024387Y-63373248D01*
X71994392Y-63357216D01*
X71961843Y-63347342D01*
X71927804Y-63343990D01*
X71926178Y-63342825D01*
X71926374Y-63340835D01*
X71928000Y-63340000D01*
X71962358Y-63340000D01*
X71962554Y-63340010D01*
G37*
G36*
X77662554Y-63340010D02*
G01*
X77693029Y-63343011D01*
X77693414Y-63343087D01*
X77719120Y-63350885D01*
X77719482Y-63351035D01*
X77743175Y-63363700D01*
X77743501Y-63363918D01*
X77764265Y-63380958D01*
X77764542Y-63381235D01*
X77781582Y-63401999D01*
X77781800Y-63402325D01*
X77787018Y-63412086D01*
X77795152Y-63424259D01*
X77805435Y-63434542D01*
X77817528Y-63442621D01*
X77830964Y-63448186D01*
X77845232Y-63451024D01*
X77859771Y-63451024D01*
X77874039Y-63448185D01*
X77887474Y-63442620D01*
X77899567Y-63434540D01*
X77909850Y-63424257D01*
X77917982Y-63412086D01*
X77923200Y-63402325D01*
X77923418Y-63401999D01*
X77940458Y-63381235D01*
X77940735Y-63380958D01*
X77961499Y-63363918D01*
X77961825Y-63363700D01*
X77985518Y-63351035D01*
X77985880Y-63350885D01*
X78011586Y-63343087D01*
X78011971Y-63343011D01*
X78042446Y-63340010D01*
X78042642Y-63340000D01*
X78077000Y-63340000D01*
X78078732Y-63341000D01*
X78078732Y-63343000D01*
X78077196Y-63343990D01*
X78043157Y-63347342D01*
X78010608Y-63357216D01*
X77980613Y-63373248D01*
X77954324Y-63394824D01*
X77932748Y-63421113D01*
X77916716Y-63451108D01*
X77906842Y-63483657D01*
X77903500Y-63517594D01*
X77903500Y-64718406D01*
X77906842Y-64752343D01*
X77916716Y-64784892D01*
X77932748Y-64814887D01*
X77954324Y-64841176D01*
X77980613Y-64862752D01*
X78010608Y-64878784D01*
X78043157Y-64888658D01*
X78077196Y-64892010D01*
X78078822Y-64893175D01*
X78078626Y-64895165D01*
X78077000Y-64896000D01*
X78042642Y-64896000D01*
X78042446Y-64895990D01*
X78011971Y-64892989D01*
X78011586Y-64892913D01*
X77985880Y-64885115D01*
X77985518Y-64884965D01*
X77961825Y-64872300D01*
X77961499Y-64872082D01*
X77940735Y-64855042D01*
X77940458Y-64854765D01*
X77923418Y-64834001D01*
X77923200Y-64833675D01*
X77917982Y-64823914D01*
X77909848Y-64811741D01*
X77899565Y-64801458D01*
X77887472Y-64793379D01*
X77874036Y-64787814D01*
X77859768Y-64784976D01*
X77845229Y-64784976D01*
X77830961Y-64787815D01*
X77817526Y-64793380D01*
X77805433Y-64801460D01*
X77795150Y-64811743D01*
X77787018Y-64823914D01*
X77781800Y-64833675D01*
X77781582Y-64834001D01*
X77764542Y-64854765D01*
X77764265Y-64855042D01*
X77743501Y-64872082D01*
X77743175Y-64872300D01*
X77719482Y-64884965D01*
X77719120Y-64885115D01*
X77693414Y-64892913D01*
X77693029Y-64892989D01*
X77662554Y-64895990D01*
X77662358Y-64896000D01*
X77628000Y-64896000D01*
X77626268Y-64895000D01*
X77626268Y-64893000D01*
X77627804Y-64892010D01*
X77661843Y-64888658D01*
X77694392Y-64878784D01*
X77724387Y-64862752D01*
X77750676Y-64841176D01*
X77772252Y-64814887D01*
X77788284Y-64784892D01*
X77798158Y-64752343D01*
X77801500Y-64718406D01*
X77801500Y-63517594D01*
X77798158Y-63483657D01*
X77788284Y-63451108D01*
X77772252Y-63421113D01*
X77750676Y-63394824D01*
X77724387Y-63373248D01*
X77694392Y-63357216D01*
X77661843Y-63347342D01*
X77627804Y-63343990D01*
X77626178Y-63342825D01*
X77626374Y-63340835D01*
X77628000Y-63340000D01*
X77662358Y-63340000D01*
X77662554Y-63340010D01*
G37*
G36*
X76887553Y-63340010D02*
G01*
X76903398Y-63341570D01*
X76903783Y-63341646D01*
X76915419Y-63345176D01*
X76915781Y-63345326D01*
X76926504Y-63351058D01*
X76926830Y-63351276D01*
X76936231Y-63358992D01*
X76936508Y-63359269D01*
X76944224Y-63368670D01*
X76944442Y-63368996D01*
X76950174Y-63379719D01*
X76950324Y-63380081D01*
X76953854Y-63391717D01*
X76953930Y-63392102D01*
X76955490Y-63407947D01*
X76955500Y-63408143D01*
X76955500Y-63436662D01*
X76956934Y-63451231D01*
X76961157Y-63465151D01*
X76968013Y-63477978D01*
X76977239Y-63489220D01*
X76988481Y-63498446D01*
X77001308Y-63505302D01*
X77015228Y-63509525D01*
X77029699Y-63510950D01*
X77044170Y-63509525D01*
X77058090Y-63505302D01*
X77070917Y-63498446D01*
X77082159Y-63489220D01*
X77091385Y-63477978D01*
X77098265Y-63465106D01*
X77100716Y-63458256D01*
X77110385Y-63426380D01*
X77110535Y-63426018D01*
X77123200Y-63402325D01*
X77123418Y-63401999D01*
X77140458Y-63381235D01*
X77140735Y-63380958D01*
X77161499Y-63363918D01*
X77161825Y-63363700D01*
X77185518Y-63351035D01*
X77185880Y-63350885D01*
X77211586Y-63343087D01*
X77211971Y-63343011D01*
X77242446Y-63340010D01*
X77242642Y-63340000D01*
X77277000Y-63340000D01*
X77278732Y-63341000D01*
X77278732Y-63343000D01*
X77277196Y-63343990D01*
X77243157Y-63347342D01*
X77210608Y-63357216D01*
X77180613Y-63373248D01*
X77154324Y-63394824D01*
X77132748Y-63421113D01*
X77116716Y-63451108D01*
X77106842Y-63483657D01*
X77103500Y-63517594D01*
X77103500Y-64718406D01*
X77106842Y-64752343D01*
X77116716Y-64784892D01*
X77132748Y-64814887D01*
X77154324Y-64841176D01*
X77180613Y-64862752D01*
X77210608Y-64878784D01*
X77243157Y-64888658D01*
X77277196Y-64892010D01*
X77278822Y-64893175D01*
X77278626Y-64895165D01*
X77277000Y-64896000D01*
X77242642Y-64896000D01*
X77242446Y-64895990D01*
X77211971Y-64892989D01*
X77211586Y-64892913D01*
X77185880Y-64885115D01*
X77185518Y-64884965D01*
X77161825Y-64872300D01*
X77161499Y-64872082D01*
X77140735Y-64855042D01*
X77140458Y-64854765D01*
X77123418Y-64834001D01*
X77123200Y-64833675D01*
X77110535Y-64809982D01*
X77110385Y-64809620D01*
X77100731Y-64777794D01*
X77095128Y-64764267D01*
X77087048Y-64752174D01*
X77076765Y-64741892D01*
X77064672Y-64733812D01*
X77051237Y-64728246D01*
X77036969Y-64725408D01*
X77022429Y-64725408D01*
X77008162Y-64728246D01*
X76994726Y-64733811D01*
X76982633Y-64741891D01*
X76972351Y-64752174D01*
X76964271Y-64764267D01*
X76958705Y-64777702D01*
X76955858Y-64792016D01*
X76955500Y-64799297D01*
X76955500Y-64827857D01*
X76955490Y-64828053D01*
X76953930Y-64843898D01*
X76953854Y-64844283D01*
X76950324Y-64855919D01*
X76950174Y-64856281D01*
X76944442Y-64867004D01*
X76944224Y-64867330D01*
X76936508Y-64876731D01*
X76936231Y-64877008D01*
X76926830Y-64884724D01*
X76926504Y-64884942D01*
X76915781Y-64890674D01*
X76915419Y-64890824D01*
X76903783Y-64894354D01*
X76903398Y-64894430D01*
X76887553Y-64895990D01*
X76887357Y-64896000D01*
X76853000Y-64896000D01*
X76851268Y-64895000D01*
X76851268Y-64893000D01*
X76852804Y-64892010D01*
X76872212Y-64890099D01*
X76890691Y-64884493D01*
X76907719Y-64875392D01*
X76922643Y-64863143D01*
X76934892Y-64848219D01*
X76943993Y-64831191D01*
X76949599Y-64812712D01*
X76951500Y-64793406D01*
X76951500Y-63442594D01*
X76949599Y-63423288D01*
X76943993Y-63404809D01*
X76934892Y-63387781D01*
X76922643Y-63372857D01*
X76907719Y-63360608D01*
X76890691Y-63351507D01*
X76872212Y-63345901D01*
X76852804Y-63343990D01*
X76851178Y-63342825D01*
X76851374Y-63340835D01*
X76853000Y-63340000D01*
X76887357Y-63340000D01*
X76887553Y-63340010D01*
G37*
G36*
X74887553Y-63340010D02*
G01*
X74903398Y-63341570D01*
X74903783Y-63341646D01*
X74915419Y-63345176D01*
X74915781Y-63345326D01*
X74926504Y-63351058D01*
X74926830Y-63351276D01*
X74936231Y-63358991D01*
X74936508Y-63359268D01*
X74947084Y-63372155D01*
X74957434Y-63382505D01*
X74969527Y-63390585D01*
X74982963Y-63396150D01*
X74997230Y-63398988D01*
X75011770Y-63398988D01*
X75026038Y-63396150D01*
X75039473Y-63390584D01*
X75051566Y-63382505D01*
X75061916Y-63372155D01*
X75072492Y-63359268D01*
X75072769Y-63358991D01*
X75082170Y-63351276D01*
X75082496Y-63351058D01*
X75093219Y-63345326D01*
X75093581Y-63345176D01*
X75105217Y-63341646D01*
X75105602Y-63341570D01*
X75121447Y-63340010D01*
X75121643Y-63340000D01*
X75156000Y-63340000D01*
X75157732Y-63341000D01*
X75157732Y-63343000D01*
X75156196Y-63343990D01*
X75136788Y-63345901D01*
X75118309Y-63351507D01*
X75101281Y-63360608D01*
X75086357Y-63372857D01*
X75074108Y-63387781D01*
X75065007Y-63404809D01*
X75059401Y-63423288D01*
X75057500Y-63442594D01*
X75057500Y-64793406D01*
X75059401Y-64812712D01*
X75065007Y-64831191D01*
X75074108Y-64848219D01*
X75086357Y-64863143D01*
X75101281Y-64875392D01*
X75118309Y-64884493D01*
X75136788Y-64890099D01*
X75156196Y-64892010D01*
X75157822Y-64893175D01*
X75157626Y-64895165D01*
X75156000Y-64896000D01*
X75121643Y-64896000D01*
X75121447Y-64895990D01*
X75105602Y-64894430D01*
X75105217Y-64894354D01*
X75093581Y-64890824D01*
X75093219Y-64890674D01*
X75082496Y-64884942D01*
X75082170Y-64884724D01*
X75072769Y-64877009D01*
X75072492Y-64876732D01*
X75061916Y-64863845D01*
X75051566Y-64853495D01*
X75039473Y-64845415D01*
X75026037Y-64839850D01*
X75011770Y-64837012D01*
X74997230Y-64837012D01*
X74982962Y-64839850D01*
X74969527Y-64845416D01*
X74957434Y-64853495D01*
X74947084Y-64863845D01*
X74936508Y-64876732D01*
X74936231Y-64877009D01*
X74926830Y-64884724D01*
X74926504Y-64884942D01*
X74915781Y-64890674D01*
X74915419Y-64890824D01*
X74903783Y-64894354D01*
X74903398Y-64894430D01*
X74887553Y-64895990D01*
X74887357Y-64896000D01*
X74853000Y-64896000D01*
X74851268Y-64895000D01*
X74851268Y-64893000D01*
X74852804Y-64892010D01*
X74872212Y-64890099D01*
X74890691Y-64884493D01*
X74907719Y-64875392D01*
X74922643Y-64863143D01*
X74934892Y-64848219D01*
X74943993Y-64831191D01*
X74949599Y-64812712D01*
X74951500Y-64793406D01*
X74951500Y-63442594D01*
X74949599Y-63423288D01*
X74943993Y-63404809D01*
X74934892Y-63387781D01*
X74922643Y-63372857D01*
X74907719Y-63360608D01*
X74890691Y-63351507D01*
X74872212Y-63345901D01*
X74852804Y-63343990D01*
X74851178Y-63342825D01*
X74851374Y-63340835D01*
X74853000Y-63340000D01*
X74887357Y-63340000D01*
X74887553Y-63340010D01*
G37*
G36*
X78702744Y-63336744D02*
G01*
X78703501Y-63338311D01*
X78703500Y-63892906D01*
X78715018Y-64009853D01*
X78748656Y-64120743D01*
X78748202Y-64122691D01*
X78746288Y-64123272D01*
X78745079Y-64122435D01*
X78737048Y-64110416D01*
X78726765Y-64100133D01*
X78714672Y-64092054D01*
X78701236Y-64086488D01*
X78686969Y-64083650D01*
X78672429Y-64083650D01*
X78658162Y-64086488D01*
X78644726Y-64092053D01*
X78632633Y-64100133D01*
X78622350Y-64110416D01*
X78614271Y-64122509D01*
X78608705Y-64135945D01*
X78605858Y-64150258D01*
X78605498Y-64157580D01*
X78604414Y-64159261D01*
X78602416Y-64159163D01*
X78601500Y-64157482D01*
X78601500Y-63517594D01*
X78598158Y-63483657D01*
X78588284Y-63451108D01*
X78572252Y-63421113D01*
X78550676Y-63394824D01*
X78524387Y-63373248D01*
X78494392Y-63357216D01*
X78461843Y-63347342D01*
X78427804Y-63343990D01*
X78426178Y-63342825D01*
X78426374Y-63340835D01*
X78428000Y-63340000D01*
X78462358Y-63340000D01*
X78462554Y-63340010D01*
X78493029Y-63343011D01*
X78493414Y-63343087D01*
X78519120Y-63350885D01*
X78519482Y-63351035D01*
X78543175Y-63363700D01*
X78543501Y-63363918D01*
X78564265Y-63380958D01*
X78564542Y-63381235D01*
X78567888Y-63385312D01*
X78578239Y-63395662D01*
X78590333Y-63403741D01*
X78603768Y-63409306D01*
X78618036Y-63412143D01*
X78632576Y-63412143D01*
X78646843Y-63409304D01*
X78660279Y-63403738D01*
X78672371Y-63395657D01*
X78682653Y-63385374D01*
X78690732Y-63373280D01*
X78696280Y-63359888D01*
X78699523Y-63338018D01*
X78700766Y-63336451D01*
X78702744Y-63336744D01*
G37*
G36*
X71305490Y-63338115D02*
G01*
X71306934Y-63352782D01*
X71311157Y-63366702D01*
X71318013Y-63379529D01*
X71327239Y-63390771D01*
X71338481Y-63399997D01*
X71351308Y-63406853D01*
X71365228Y-63411076D01*
X71379699Y-63412501D01*
X71394170Y-63411076D01*
X71408090Y-63406853D01*
X71420917Y-63399997D01*
X71432198Y-63390739D01*
X71437085Y-63385346D01*
X71440462Y-63381232D01*
X71440739Y-63380955D01*
X71461499Y-63363918D01*
X71461825Y-63363700D01*
X71485518Y-63351035D01*
X71485880Y-63350885D01*
X71511586Y-63343087D01*
X71511971Y-63343011D01*
X71542446Y-63340010D01*
X71542642Y-63340000D01*
X71577000Y-63340000D01*
X71578732Y-63341000D01*
X71578732Y-63343000D01*
X71577196Y-63343990D01*
X71543157Y-63347342D01*
X71510608Y-63357216D01*
X71480613Y-63373248D01*
X71454324Y-63394824D01*
X71432748Y-63421113D01*
X71416716Y-63451108D01*
X71406842Y-63483657D01*
X71403500Y-63517594D01*
X71403500Y-64157482D01*
X71402500Y-64159214D01*
X71400500Y-64159214D01*
X71399510Y-64157678D01*
X71398066Y-64143012D01*
X71393843Y-64129092D01*
X71386987Y-64116265D01*
X71377761Y-64105023D01*
X71366519Y-64095797D01*
X71353692Y-64088941D01*
X71339772Y-64084718D01*
X71325301Y-64083293D01*
X71310830Y-64084718D01*
X71296910Y-64088941D01*
X71284083Y-64095797D01*
X71272841Y-64105023D01*
X71263581Y-64116307D01*
X71259990Y-64122298D01*
X71258242Y-64123270D01*
X71256527Y-64122241D01*
X71256361Y-64120689D01*
X71289982Y-64009854D01*
X71301500Y-63892906D01*
X71301500Y-63338311D01*
X71302500Y-63336579D01*
X71304500Y-63336579D01*
X71305490Y-63338115D01*
G37*
M02*
